<svg width="13" height="12" viewBox="0 0 13 12" fill="none" xmlns="http://www.w3.org/2000/svg">
<g clip-path="url(#clip0_2515_867)">
<path d="M-30.3038 266.047C-30.3038 266.148 -30.3068 266.248 -30.3128 266.347M-30.3128 266.347C-30.468 268.939 -32.6187 270.992 -35.249 270.992C-37.9802 270.992 -40.1943 268.778 -40.1943 266.047L-35.8871 6.53093C-35.8871 3.79975 -38.1012 1.58569 -40.8324 1.58569C-43.5635 1.58569 -45.7776 3.79975 -45.7776 6.53093L-42.1086 266.047C-42.1086 268.778 -44.3226 270.992 -47.0538 270.992C-49.785 270.992 -51.999 268.778 -51.999 266.047L-47.6919 6.53093C-47.6919 3.79975 -49.906 1.58569 -52.6371 1.58569C-54.9835 1.58569 -56.5866 3.12305 -57.5672 5.37116C-57.8953 6.12319 -58 6.94849 -58 7.76895V10.9303M-30.3128 266.347L-33.9728 6.53093C-33.9728 3.79975 -31.7588 1.58569 -29.0276 1.58569C-26.2964 1.58569 -24.0824 3.79975 -24.0824 6.53093L-28.2972 267.003M-28.2972 267.003C-27.8518 269.277 -25.8484 270.992 -23.4443 270.992C-20.7131 270.992 -18.499 268.778 -18.499 266.047L-22.1681 6.53093C-22.1681 3.79975 -19.954 1.58569 -17.2228 1.58569C-14.4917 1.58569 -12.2776 3.79975 -12.2776 6.53093L-16.5848 266.047C-16.5848 268.778 -14.3707 270.992 -11.6395 270.992C-8.90833 270.992 -6.69427 268.778 -6.69427 266.047L-10.3633 6.53093C-10.3633 3.79975 -8.14926 1.58569 -5.41808 1.58569C-2.6869 1.58569 -0.472843 3.79975 -0.472843 6.53093L-4.77999 266.047C-4.77999 268.778 -2.56593 270.992 0.165253 270.992C2.89643 270.992 5.11049 268.778 5.11049 266.047L1.44144 6.53093C1.44144 3.79975 3.6555 1.58569 6.38668 1.58569C9.11786 1.58569 11.3319 3.79975 11.3319 6.53093L7.02477 266.047C7.02477 268.778 9.23884 270.992 11.97 270.992C14.7012 270.992 16.9153 268.778 16.9153 266.047L13.2462 6.53093C13.2462 3.79975 15.4603 1.58569 18.1914 1.58569C20.9226 1.58569 23.1367 3.79975 23.1367 6.53093L18.8295 266.047C18.8295 268.778 21.0436 270.992 23.7748 270.992C26.506 270.992 28.72 268.778 28.72 266.047L25.051 6.53093C25.051 3.79975 27.265 1.58569 29.9962 1.58569C32.7274 1.58569 34.9414 3.79975 34.9414 6.53093L30.6343 266.047C30.6343 268.778 32.8484 270.992 35.5795 270.992C38.3107 270.992 40.5248 268.778 40.5248 266.047L36.8557 6.53093C36.8557 3.79975 39.0698 1.58569 41.801 1.58569C44.5321 1.58569 46.7462 3.79975 46.7462 6.53093L42.4391 266.047C42.4391 268.778 44.6531 270.992 47.3843 270.992C50.1155 270.992 52.3295 268.778 52.3295 266.047L48.6605 6.53093C48.6605 3.79975 50.8745 1.58569 53.6057 1.58569C56.3369 1.58569 58.551 3.79975 58.551 6.53093L54.2438 266.047C54.2438 268.778 56.4579 270.992 59.1891 270.992C61.9202 270.992 64.1343 268.778 64.1343 266.047V7.34286V6.53093C64.1343 3.79975 66.3484 1.58569 69.0795 1.58569C71.8107 1.58569 74.0248 3.79975 74.0248 6.53093V9.04277M-28.2972 267.003C-28.3578 266.694 -28.3895 266.374 -28.3895 266.047" stroke="white" stroke-width="2" stroke-linecap="round" stroke-linejoin="round"/>
</g>
<defs>
<clipPath id="clip0_2515_867">
<rect width="134.02" height="272" fill="white" transform="translate(-59 0.5)"/>
</clipPath>
</defs>
</svg>
