<svg width="12" height="13" viewBox="0 0 12 13" fill="none" xmlns="http://www.w3.org/2000/svg">
<g clip-path="url(#clip0_2515_867)">
<path d="M-54.3038 6.04688C-54.3038 6.14771 -54.3068 6.24783 -54.3128 6.34717M-54.3128 6.34717C-54.468 8.93851 -56.6187 10.9921 -59.249 10.9921C-61.9802 10.9921 -64.1943 8.77806 -64.1943 6.04688L-59.8871 -253.469C-59.8871 -256.2 -62.1012 -258.414 -64.8324 -258.414C-67.5635 -258.414 -69.7776 -256.2 -69.7776 -253.469L-66.1086 6.04688C-66.1086 8.77806 -68.3226 10.9921 -71.0538 10.9921C-73.785 10.9921 -75.999 8.77806 -75.999 6.04688L-71.6919 -253.469C-71.6919 -256.2 -73.906 -258.414 -76.6371 -258.414C-78.9835 -258.414 -80.5866 -256.877 -81.5672 -254.629C-81.8953 -253.877 -82 -253.052 -82 -252.231V-249.07M-54.3128 6.34717L-57.9728 -253.469C-57.9728 -256.2 -55.7588 -258.414 -53.0276 -258.414C-50.2964 -258.414 -48.0824 -256.2 -48.0824 -253.469L-52.2972 7.0029M-52.2972 7.0029C-51.8518 9.27658 -49.8484 10.9921 -47.4443 10.9921C-44.7131 10.9921 -42.499 8.77806 -42.499 6.04688L-46.1681 -253.469C-46.1681 -256.2 -43.954 -258.414 -41.2228 -258.414C-38.4917 -258.414 -36.2776 -256.2 -36.2776 -253.469L-40.5848 6.04688C-40.5848 8.77806 -38.3707 10.9921 -35.6395 10.9921C-32.9083 10.9921 -30.6943 8.77806 -30.6943 6.04688L-34.3633 -253.469C-34.3633 -256.2 -32.1493 -258.414 -29.4181 -258.414C-26.6869 -258.414 -24.4728 -256.2 -24.4728 -253.469L-28.78 6.04688C-28.78 8.77806 -26.5659 10.9921 -23.8347 10.9921C-21.1036 10.9921 -18.8895 8.77806 -18.8895 6.04688L-22.5586 -253.469C-22.5586 -256.2 -20.3445 -258.414 -17.6133 -258.414C-14.8821 -258.414 -12.6681 -256.2 -12.6681 -253.469L-16.9752 6.04688C-16.9752 8.77806 -14.7612 10.9921 -12.03 10.9921C-9.29881 10.9921 -7.08475 8.77806 -7.08475 6.04688L-10.7538 -253.469C-10.7538 -256.2 -8.53973 -258.414 -5.80856 -258.414C-3.07738 -258.414 -0.863319 -256.2 -0.863319 -253.469L-5.17046 6.04688C-5.17046 8.77806 -2.95641 10.9921 -0.225227 10.9921C2.50596 10.9921 4.72002 8.77806 4.72002 6.04688L1.05096 -253.469C1.05096 -256.2 3.26502 -258.414 5.99621 -258.414C8.72739 -258.414 10.9414 -256.2 10.9414 -253.469L6.6343 6.04688C6.6343 8.77806 8.84835 10.9921 11.5795 10.9921C14.3107 10.9921 16.5248 8.77806 16.5248 6.04688L12.8557 -253.469C12.8557 -256.2 15.0698 -258.414 17.801 -258.414C20.5321 -258.414 22.7462 -256.2 22.7462 -253.469L18.4391 6.04688C18.4391 8.77806 20.6531 10.9921 23.3843 10.9921C26.1155 10.9921 28.3295 8.77806 28.3295 6.04688L24.6605 -253.469C24.6605 -256.2 26.8745 -258.414 29.6057 -258.414C32.3369 -258.414 34.551 -256.2 34.551 -253.469L30.2438 6.04688C30.2438 8.77806 32.4579 10.9921 35.1891 10.9921C37.9202 10.9921 40.1343 8.77806 40.1343 6.04688V-252.657V-253.469C40.1343 -256.2 42.3484 -258.414 45.0795 -258.414C47.8107 -258.414 50.0248 -256.2 50.0248 -253.469V-250.957M-52.2972 7.0029C-52.3578 6.69359 -52.3895 6.37394 -52.3895 6.04688" stroke="white" stroke-width="2" stroke-linecap="round" stroke-linejoin="round"/>
</g>
<defs>
<clipPath id="clip0_2515_867">
<rect width="134.02" height="272" fill="white" transform="translate(-83 -259.5)"/>
</clipPath>
</defs>
</svg>
