<svg width="13" height="250" viewBox="0 0 13 250" fill="none" xmlns="http://www.w3.org/2000/svg">
<g clip-path="url(#clip0_2515_867)">
<path d="M16.6962 255.047C16.6962 255.148 16.6932 255.248 16.6872 255.347M16.6872 255.347C16.532 257.939 14.3813 259.992 11.751 259.992C9.01979 259.992 6.80573 257.778 6.80573 255.047L11.1129 -4.46907C11.1129 -7.20025 8.89881 -9.41431 6.16763 -9.41431C3.43645 -9.41431 1.22239 -7.20025 1.22239 -4.46907L4.89144 255.047C4.89144 257.778 2.67738 259.992 -0.0537977 259.992C-2.78498 259.992 -4.99904 257.778 -4.99904 255.047L-0.691894 -4.46907C-0.691894 -7.20025 -2.90595 -9.41431 -5.63713 -9.41431C-7.98351 -9.41431 -9.58656 -7.87695 -10.5672 -5.62884C-10.8953 -4.87681 -11 -4.05151 -11 -3.23105V-0.0696888M16.6872 255.347L13.0272 -4.46907C13.0272 -7.20025 15.2412 -9.41431 17.9724 -9.41431C20.7036 -9.41431 22.9176 -7.20025 22.9176 -4.46907L18.7028 256.003M18.7028 256.003C19.1482 258.277 21.1516 259.992 23.5557 259.992C26.2869 259.992 28.501 257.778 28.501 255.047L24.8319 -4.46907C24.8319 -7.20025 27.046 -9.41431 29.7772 -9.41431C32.5083 -9.41431 34.7224 -7.20025 34.7224 -4.46907L30.4152 255.047C30.4152 257.778 32.6293 259.992 35.3605 259.992C38.0917 259.992 40.3057 257.778 40.3057 255.047L36.6367 -4.46907C36.6367 -7.20025 38.8507 -9.41431 41.5819 -9.41431C44.3131 -9.41431 46.5272 -7.20025 46.5272 -4.46907L42.22 255.047C42.22 257.778 44.4341 259.992 47.1653 259.992C49.8964 259.992 52.1105 257.778 52.1105 255.047L48.4414 -4.46907C48.4414 -7.20025 50.6555 -9.41431 53.3867 -9.41431C56.1179 -9.41431 58.3319 -7.20025 58.3319 -4.46907L54.0248 255.047C54.0248 257.778 56.2388 259.992 58.97 259.992C61.7012 259.992 63.9153 257.778 63.9153 255.047L60.2462 -4.46907C60.2462 -7.20025 62.4603 -9.41431 65.1914 -9.41431C67.9226 -9.41431 70.1367 -7.20025 70.1367 -4.46907L65.8295 255.047C65.8295 257.778 68.0436 259.992 70.7748 259.992C73.506 259.992 75.72 257.778 75.72 255.047L72.051 -4.46907C72.051 -7.20025 74.265 -9.41431 76.9962 -9.41431C79.7274 -9.41431 81.9414 -7.20025 81.9414 -4.46907L77.6343 255.047C77.6343 257.778 79.8484 259.992 82.5795 259.992C85.3107 259.992 87.5248 257.778 87.5248 255.047L83.8557 -4.46907C83.8557 -7.20025 86.0698 -9.41431 88.801 -9.41431C91.5321 -9.41431 93.7462 -7.20025 93.7462 -4.46907L89.4391 255.047C89.4391 257.778 91.6531 259.992 94.3843 259.992C97.1155 259.992 99.3295 257.778 99.3295 255.047L95.6605 -4.46907C95.6605 -7.20025 97.8745 -9.41431 100.606 -9.41431C103.337 -9.41431 105.551 -7.20025 105.551 -4.46907L101.244 255.047C101.244 257.778 103.458 259.992 106.189 259.992C108.92 259.992 111.134 257.778 111.134 255.047V-3.65714V-4.46907C111.134 -7.20025 113.348 -9.41431 116.08 -9.41431C118.811 -9.41431 121.025 -7.20025 121.025 -4.46907V-1.95723M18.7028 256.003C18.6422 255.694 18.6105 255.374 18.6105 255.047" stroke="white" stroke-width="2" stroke-linecap="round" stroke-linejoin="round"/>
</g>
<defs>
<clipPath id="clip0_2515_867">
<rect width="134.02" height="272" fill="white" transform="translate(-12 -10.5)"/>
</clipPath>
</defs>
</svg>
