<svg width="13" height="250" viewBox="0 0 13 250" fill="none" xmlns="http://www.w3.org/2000/svg">
<g clip-path="url(#clip0_2515_867)">
<path d="M-6.3038 255.047C-6.3038 255.148 -6.30682 255.248 -6.31277 255.347M-6.31277 255.347C-6.46798 257.939 -8.61869 259.992 -11.249 259.992C-13.9802 259.992 -16.1943 257.778 -16.1943 255.047L-11.8871 -4.46907C-11.8871 -7.20025 -14.1012 -9.41431 -16.8324 -9.41431C-19.5635 -9.41431 -21.7776 -7.20025 -21.7776 -4.46907L-18.1086 255.047C-18.1086 257.778 -20.3226 259.992 -23.0538 259.992C-25.785 259.992 -27.999 257.778 -27.999 255.047L-23.6919 -4.46907C-23.6919 -7.20025 -25.906 -9.41431 -28.6371 -9.41431C-30.9835 -9.41431 -32.5866 -7.87695 -33.5672 -5.62884C-33.8953 -4.87681 -34 -4.05151 -34 -3.23105V-0.0696888M-6.31277 255.347L-9.97285 -4.46907C-9.97285 -7.20025 -7.75879 -9.41431 -5.02761 -9.41431C-2.29643 -9.41431 -0.0823669 -7.20025 -0.0823669 -4.46907L-4.29717 256.003M-4.29717 256.003C-3.85183 258.277 -1.84839 259.992 0.555725 259.992C3.28691 259.992 5.50097 257.778 5.50097 255.047L1.83192 -4.46907C1.83192 -7.20025 4.04598 -9.41431 6.77716 -9.41431C9.50834 -9.41431 11.7224 -7.20025 11.7224 -4.46907L7.41525 255.047C7.41525 257.778 9.62931 259.992 12.3605 259.992C15.0917 259.992 17.3057 257.778 17.3057 255.047L13.6367 -4.46907C13.6367 -7.20025 15.8507 -9.41431 18.5819 -9.41431C21.3131 -9.41431 23.5272 -7.20025 23.5272 -4.46907L19.22 255.047C19.22 257.778 21.4341 259.992 24.1653 259.992C26.8964 259.992 29.1105 257.778 29.1105 255.047L25.4414 -4.46907C25.4414 -7.20025 27.6555 -9.41431 30.3867 -9.41431C33.1179 -9.41431 35.3319 -7.20025 35.3319 -4.46907L31.0248 255.047C31.0248 257.778 33.2388 259.992 35.97 259.992C38.7012 259.992 40.9153 257.778 40.9153 255.047L37.2462 -4.46907C37.2462 -7.20025 39.4603 -9.41431 42.1914 -9.41431C44.9226 -9.41431 47.1367 -7.20025 47.1367 -4.46907L42.8295 255.047C42.8295 257.778 45.0436 259.992 47.7748 259.992C50.506 259.992 52.72 257.778 52.72 255.047L49.051 -4.46907C49.051 -7.20025 51.265 -9.41431 53.9962 -9.41431C56.7274 -9.41431 58.9414 -7.20025 58.9414 -4.46907L54.6343 255.047C54.6343 257.778 56.8484 259.992 59.5795 259.992C62.3107 259.992 64.5248 257.778 64.5248 255.047L60.8557 -4.46907C60.8557 -7.20025 63.0698 -9.41431 65.801 -9.41431C68.5321 -9.41431 70.7462 -7.20025 70.7462 -4.46907L66.4391 255.047C66.4391 257.778 68.6531 259.992 71.3843 259.992C74.1155 259.992 76.3295 257.778 76.3295 255.047L72.6605 -4.46907C72.6605 -7.20025 74.8745 -9.41431 77.6057 -9.41431C80.3369 -9.41431 82.551 -7.20025 82.551 -4.46907L78.2438 255.047C78.2438 257.778 80.4579 259.992 83.1891 259.992C85.9202 259.992 88.1343 257.778 88.1343 255.047V-3.65714V-4.46907C88.1343 -7.20025 90.3484 -9.41431 93.0795 -9.41431C95.8107 -9.41431 98.0248 -7.20025 98.0248 -4.46907V-1.95723M-4.29717 256.003C-4.35776 255.694 -4.38951 255.374 -4.38951 255.047" stroke="white" stroke-width="2" stroke-linecap="round" stroke-linejoin="round"/>
</g>
<defs>
<clipPath id="clip0_2515_867">
<rect width="134.02" height="272" fill="white" transform="translate(-35 -10.5)"/>
</clipPath>
</defs>
</svg>
