<svg width="13" height="250" viewBox="0 0 13 250" fill="none" xmlns="http://www.w3.org/2000/svg">
<g clip-path="url(#clip0_2515_867)">
<path d="M28.6962 255.047C28.6962 255.148 28.6932 255.248 28.6872 255.347M28.6872 255.347C28.532 257.939 26.3813 259.992 23.751 259.992C21.0198 259.992 18.8057 257.778 18.8057 255.047L23.1129 -4.46907C23.1129 -7.20025 20.8988 -9.41431 18.1676 -9.41431C15.4365 -9.41431 13.2224 -7.20025 13.2224 -4.46907L16.8914 255.047C16.8914 257.778 14.6774 259.992 11.9462 259.992C9.21502 259.992 7.00096 257.778 7.00096 255.047L11.3081 -4.46907C11.3081 -7.20025 9.09405 -9.41431 6.36287 -9.41431C4.01649 -9.41431 2.41344 -7.87695 1.43279 -5.62884C1.10475 -4.87681 1 -4.05151 1 -3.23105V-0.0696888M28.6872 255.347L25.0272 -4.46907C25.0272 -7.20025 27.2412 -9.41431 29.9724 -9.41431C32.7036 -9.41431 34.9176 -7.20025 34.9176 -4.46907L30.7028 256.003M30.7028 256.003C31.1482 258.277 33.1516 259.992 35.5557 259.992C38.2869 259.992 40.501 257.778 40.501 255.047L36.8319 -4.46907C36.8319 -7.20025 39.046 -9.41431 41.7772 -9.41431C44.5083 -9.41431 46.7224 -7.20025 46.7224 -4.46907L42.4152 255.047C42.4152 257.778 44.6293 259.992 47.3605 259.992C50.0917 259.992 52.3057 257.778 52.3057 255.047L48.6367 -4.46907C48.6367 -7.20025 50.8507 -9.41431 53.5819 -9.41431C56.3131 -9.41431 58.5272 -7.20025 58.5272 -4.46907L54.22 255.047C54.22 257.778 56.4341 259.992 59.1653 259.992C61.8964 259.992 64.1105 257.778 64.1105 255.047L60.4414 -4.46907C60.4414 -7.20025 62.6555 -9.41431 65.3867 -9.41431C68.1179 -9.41431 70.3319 -7.20025 70.3319 -4.46907L66.0248 255.047C66.0248 257.778 68.2388 259.992 70.97 259.992C73.7012 259.992 75.9153 257.778 75.9153 255.047L72.2462 -4.46907C72.2462 -7.20025 74.4603 -9.41431 77.1914 -9.41431C79.9226 -9.41431 82.1367 -7.20025 82.1367 -4.46907L77.8295 255.047C77.8295 257.778 80.0436 259.992 82.7748 259.992C85.506 259.992 87.72 257.778 87.72 255.047L84.051 -4.46907C84.051 -7.20025 86.265 -9.41431 88.9962 -9.41431C91.7274 -9.41431 93.9414 -7.20025 93.9414 -4.46907L89.6343 255.047C89.6343 257.778 91.8484 259.992 94.5795 259.992C97.3107 259.992 99.5248 257.778 99.5248 255.047L95.8557 -4.46907C95.8557 -7.20025 98.0698 -9.41431 100.801 -9.41431C103.532 -9.41431 105.746 -7.20025 105.746 -4.46907L101.439 255.047C101.439 257.778 103.653 259.992 106.384 259.992C109.115 259.992 111.33 257.778 111.33 255.047L107.66 -4.46907C107.66 -7.20025 109.875 -9.41431 112.606 -9.41431C115.337 -9.41431 117.551 -7.20025 117.551 -4.46907L113.244 255.047C113.244 257.778 115.458 259.992 118.189 259.992C120.92 259.992 123.134 257.778 123.134 255.047V-3.65714V-4.46907C123.134 -7.20025 125.348 -9.41431 128.08 -9.41431C130.811 -9.41431 133.025 -7.20025 133.025 -4.46907V-1.95723M30.7028 256.003C30.6422 255.694 30.6105 255.374 30.6105 255.047" stroke="white" stroke-width="2" stroke-linecap="round" stroke-linejoin="round"/>
</g>
<defs>
<clipPath id="clip0_2515_867">
<rect width="134.02" height="272" fill="white" transform="translate(0 -10.5)"/>
</clipPath>
</defs>
</svg>
