<svg width="13" height="12" viewBox="0 0 13 12" fill="none" xmlns="http://www.w3.org/2000/svg">
<g clip-path="url(#clip0_2515_867)">
<path d="M-65.3038 266.047C-65.3038 266.148 -65.3068 266.248 -65.3128 266.347M-65.3128 266.347C-65.468 268.939 -67.6187 270.992 -70.249 270.992C-72.9802 270.992 -75.1943 268.778 -75.1943 266.047L-70.8871 6.53093C-70.8871 3.79975 -73.1012 1.58569 -75.8324 1.58569C-78.5635 1.58569 -80.7776 3.79975 -80.7776 6.53093L-77.1086 266.047C-77.1086 268.778 -79.3226 270.992 -82.0538 270.992C-84.785 270.992 -86.999 268.778 -86.999 266.047L-82.6919 6.53093C-82.6919 3.79975 -84.906 1.58569 -87.6371 1.58569C-89.9835 1.58569 -91.5866 3.12305 -92.5672 5.37116C-92.8953 6.12319 -93 6.94849 -93 7.76895V10.9303M-65.3128 266.347L-68.9728 6.53093C-68.9728 3.79975 -66.7588 1.58569 -64.0276 1.58569C-61.2964 1.58569 -59.0824 3.79975 -59.0824 6.53093L-63.2972 267.003M-63.2972 267.003C-62.8518 269.277 -60.8484 270.992 -58.4443 270.992C-55.7131 270.992 -53.499 268.778 -53.499 266.047L-57.1681 6.53093C-57.1681 3.79975 -54.954 1.58569 -52.2228 1.58569C-49.4917 1.58569 -47.2776 3.79975 -47.2776 6.53093L-51.5848 266.047C-51.5848 268.778 -49.3707 270.992 -46.6395 270.992C-43.9083 270.992 -41.6943 268.778 -41.6943 266.047L-45.3633 6.53093C-45.3633 3.79975 -43.1493 1.58569 -40.4181 1.58569C-37.6869 1.58569 -35.4728 3.79975 -35.4728 6.53093L-39.78 266.047C-39.78 268.778 -37.5659 270.992 -34.8347 270.992C-32.1036 270.992 -29.8895 268.778 -29.8895 266.047L-33.5586 6.53093C-33.5586 3.79975 -31.3445 1.58569 -28.6133 1.58569C-25.8821 1.58569 -23.6681 3.79975 -23.6681 6.53093L-27.9752 266.047C-27.9752 268.778 -25.7612 270.992 -23.03 270.992C-20.2988 270.992 -18.0847 268.778 -18.0847 266.047L-21.7538 6.53093C-21.7538 3.79975 -19.5397 1.58569 -16.8086 1.58569C-14.0774 1.58569 -11.8633 3.79975 -11.8633 6.53093L-16.1705 266.047C-16.1705 268.778 -13.9564 270.992 -11.2252 270.992C-8.49404 270.992 -6.27998 268.778 -6.27998 266.047L-9.94904 6.53093C-9.94904 3.79975 -7.73498 1.58569 -5.00379 1.58569C-2.27261 1.58569 -0.0585556 3.79975 -0.0585556 6.53093L-4.3657 266.047C-4.3657 268.778 -2.15165 270.992 0.579536 270.992C3.31072 270.992 5.52478 268.778 5.52478 266.047L1.85573 6.53093C1.85573 3.79975 4.06978 1.58569 6.80096 1.58569C9.53215 1.58569 11.7462 3.79975 11.7462 6.53093L7.43906 266.047C7.43906 268.778 9.65312 270.992 12.3843 270.992C15.1155 270.992 17.3295 268.778 17.3295 266.047L13.6605 6.53093C13.6605 3.79975 15.8745 1.58569 18.6057 1.58569C21.3369 1.58569 23.551 3.79975 23.551 6.53093L19.2438 266.047C19.2438 268.778 21.4579 270.992 24.1891 270.992C26.9202 270.992 29.1343 268.778 29.1343 266.047V7.34286V6.53093C29.1343 3.79975 31.3484 1.58569 34.0795 1.58569C36.8107 1.58569 39.0248 3.79975 39.0248 6.53093V9.04277M-63.2972 267.003C-63.3578 266.694 -63.3895 266.374 -63.3895 266.047" stroke="white" stroke-width="2" stroke-linecap="round" stroke-linejoin="round"/>
</g>
<defs>
<clipPath id="clip0_2515_867">
<rect width="134.02" height="272" fill="white" transform="translate(-94 0.5)"/>
</clipPath>
</defs>
</svg>
