<svg width="16" height="13" viewBox="0 0 16 13" fill="none" xmlns="http://www.w3.org/2000/svg">
<g clip-path="url(#clip0_2515_649)">
<path d="M-90.3038 6.04688C-90.3038 6.14771 -90.3068 6.24783 -90.3128 6.34717M-90.3128 6.34717C-90.468 8.93851 -92.6187 10.9921 -95.249 10.9921C-97.9802 10.9921 -100.194 8.77806 -100.194 6.04688L-95.8871 -253.469C-95.8871 -256.2 -98.1012 -258.414 -100.832 -258.414C-103.564 -258.414 -105.778 -256.2 -105.778 -253.469L-102.109 6.04688C-102.109 8.77806 -104.323 10.9921 -107.054 10.9921C-109.785 10.9921 -111.999 8.77806 -111.999 6.04688L-107.692 -253.469C-107.692 -256.2 -109.906 -258.414 -112.637 -258.414C-114.984 -258.414 -116.587 -256.877 -117.567 -254.629C-117.895 -253.877 -118 -253.052 -118 -252.231V-249.07M-90.3128 6.34717L-93.9728 -253.469C-93.9728 -256.2 -91.7588 -258.414 -89.0276 -258.414C-86.2964 -258.414 -84.0824 -256.2 -84.0824 -253.469L-88.2972 7.0029M-88.2972 7.0029C-87.8518 9.27658 -85.8484 10.9921 -83.4443 10.9921C-80.7131 10.9921 -78.499 8.77806 -78.499 6.04688L-82.1681 -253.469C-82.1681 -256.2 -79.954 -258.414 -77.2228 -258.414C-74.4917 -258.414 -72.2776 -256.2 -72.2776 -253.469L-76.5848 6.04688C-76.5848 8.77806 -74.3707 10.9921 -71.6395 10.9921C-68.9083 10.9921 -66.6943 8.77806 -66.6943 6.04688L-70.3633 -253.469C-70.3633 -256.2 -68.1493 -258.414 -65.4181 -258.414C-62.6869 -258.414 -60.4728 -256.2 -60.4728 -253.469L-64.78 6.04688C-64.78 8.77806 -62.5659 10.9921 -59.8347 10.9921C-57.1036 10.9921 -54.8895 8.77806 -54.8895 6.04688L-58.5586 -253.469C-58.5586 -256.2 -56.3445 -258.414 -53.6133 -258.414C-50.8821 -258.414 -48.6681 -256.2 -48.6681 -253.469L-52.9752 6.04688C-52.9752 8.77806 -50.7612 10.9921 -48.03 10.9921C-45.2988 10.9921 -43.0847 8.77806 -43.0847 6.04688L-46.7538 -253.469C-46.7538 -256.2 -44.5397 -258.414 -41.8086 -258.414C-39.0774 -258.414 -36.8633 -256.2 -36.8633 -253.469L-41.1705 6.04688C-41.1705 8.77806 -38.9564 10.9921 -36.2252 10.9921C-33.494 10.9921 -31.28 8.77806 -31.28 6.04688L-34.949 -253.469C-34.949 -256.2 -32.735 -258.414 -30.0038 -258.414C-27.2726 -258.414 -25.0586 -256.2 -25.0586 -253.469L-29.3657 6.04688C-29.3657 8.77806 -27.1516 10.9921 -24.4205 10.9921C-21.6893 10.9921 -19.4752 8.77806 -19.4752 6.04688L-23.1443 -253.469C-23.1443 -256.2 -20.9302 -258.414 -18.199 -258.414C-15.4679 -258.414 -13.2538 -256.2 -13.2538 -253.469L-17.5609 6.04688C-17.5609 8.77806 -15.3469 10.9921 -12.6157 10.9921C-9.88452 10.9921 -7.67046 8.77806 -7.67046 6.04688L-11.3395 -253.469C-11.3395 -256.2 -9.12546 -258.414 -6.39427 -258.414C-3.66309 -258.414 -1.44904 -256.2 -1.44904 -253.469L-5.75617 6.04688C-5.75617 8.77806 -3.54212 10.9921 -0.810936 10.9921C1.92025 10.9921 4.1343 8.77806 4.1343 6.04688V-252.657V-253.469C4.1343 -256.2 6.34835 -258.414 9.07954 -258.414C11.8107 -258.414 14.0248 -256.2 14.0248 -253.469V-250.957M-88.2972 7.0029C-88.3578 6.69359 -88.3895 6.37394 -88.3895 6.04688" stroke="#008C3C" stroke-width="2" stroke-linecap="round" stroke-linejoin="round"/>
</g>
<defs>
<clipPath id="clip0_2515_649">
<rect width="134.02" height="272" fill="white" transform="translate(-119 -259.5)"/>
</clipPath>
</defs>
</svg>
