<svg width="16" height="250" viewBox="0 0 16 250" fill="none" xmlns="http://www.w3.org/2000/svg">
<g clip-path="url(#clip0_2515_649)">
<path d="M-90.3038 255.047C-90.3038 255.148 -90.3068 255.248 -90.3128 255.347M-90.3128 255.347C-90.468 257.939 -92.6187 259.992 -95.249 259.992C-97.9802 259.992 -100.194 257.778 -100.194 255.047L-95.8871 -4.46907C-95.8871 -7.20025 -98.1012 -9.41431 -100.832 -9.41431C-103.564 -9.41431 -105.778 -7.20025 -105.778 -4.46907L-102.109 255.047C-102.109 257.778 -104.323 259.992 -107.054 259.992C-109.785 259.992 -111.999 257.778 -111.999 255.047L-107.692 -4.46907C-107.692 -7.20025 -109.906 -9.41431 -112.637 -9.41431C-114.984 -9.41431 -116.587 -7.87695 -117.567 -5.62884C-117.895 -4.87681 -118 -4.05151 -118 -3.23105V-0.0696888M-90.3128 255.347L-93.9728 -4.46907C-93.9728 -7.20025 -91.7588 -9.41431 -89.0276 -9.41431C-86.2964 -9.41431 -84.0824 -7.20025 -84.0824 -4.46907L-88.2972 256.003M-88.2972 256.003C-87.8518 258.277 -85.8484 259.992 -83.4443 259.992C-80.7131 259.992 -78.499 257.778 -78.499 255.047L-82.1681 -4.46907C-82.1681 -7.20025 -79.954 -9.41431 -77.2228 -9.41431C-74.4917 -9.41431 -72.2776 -7.20025 -72.2776 -4.46907L-76.5848 255.047C-76.5848 257.778 -74.3707 259.992 -71.6395 259.992C-68.9083 259.992 -66.6943 257.778 -66.6943 255.047L-70.3633 -4.46907C-70.3633 -7.20025 -68.1493 -9.41431 -65.4181 -9.41431C-62.6869 -9.41431 -60.4728 -7.20025 -60.4728 -4.46907L-64.78 255.047C-64.78 257.778 -62.5659 259.992 -59.8347 259.992C-57.1036 259.992 -54.8895 257.778 -54.8895 255.047L-58.5586 -4.46907C-58.5586 -7.20025 -56.3445 -9.41431 -53.6133 -9.41431C-50.8821 -9.41431 -48.6681 -7.20025 -48.6681 -4.46907L-52.9752 255.047C-52.9752 257.778 -50.7612 259.992 -48.03 259.992C-45.2988 259.992 -43.0847 257.778 -43.0847 255.047L-46.7538 -4.46907C-46.7538 -7.20025 -44.5397 -9.41431 -41.8086 -9.41431C-39.0774 -9.41431 -36.8633 -7.20025 -36.8633 -4.46907L-41.1705 255.047C-41.1705 257.778 -38.9564 259.992 -36.2252 259.992C-33.494 259.992 -31.28 257.778 -31.28 255.047L-34.949 -4.46907C-34.949 -7.20025 -32.735 -9.41431 -30.0038 -9.41431C-27.2726 -9.41431 -25.0586 -7.20025 -25.0586 -4.46907L-29.3657 255.047C-29.3657 257.778 -27.1516 259.992 -24.4205 259.992C-21.6893 259.992 -19.4752 257.778 -19.4752 255.047L-23.1443 -4.46907C-23.1443 -7.20025 -20.9302 -9.41431 -18.199 -9.41431C-15.4679 -9.41431 -13.2538 -7.20025 -13.2538 -4.46907L-17.5609 255.047C-17.5609 257.778 -15.3469 259.992 -12.6157 259.992C-9.88452 259.992 -7.67046 257.778 -7.67046 255.047L-11.3395 -4.46907C-11.3395 -7.20025 -9.12546 -9.41431 -6.39427 -9.41431C-3.66309 -9.41431 -1.44904 -7.20025 -1.44904 -4.46907L-5.75617 255.047C-5.75617 257.778 -3.54212 259.992 -0.810936 259.992C1.92025 259.992 4.1343 257.778 4.1343 255.047V-3.65714V-4.46907C4.1343 -7.20025 6.34835 -9.41431 9.07954 -9.41431C11.8107 -9.41431 14.0248 -7.20025 14.0248 -4.46907V-1.95723M-88.2972 256.003C-88.3578 255.694 -88.3895 255.374 -88.3895 255.047" stroke="#008C3C" stroke-width="2" stroke-linecap="round" stroke-linejoin="round"/>
</g>
<defs>
<clipPath id="clip0_2515_649">
<rect width="134.02" height="272" fill="white" transform="translate(-119 -10.5)"/>
</clipPath>
</defs>
</svg>
