<svg width="13" height="250" viewBox="0 0 13 250" fill="none" xmlns="http://www.w3.org/2000/svg">
<g clip-path="url(#clip0_2515_649)">
<path d="M-65.3038 255.047C-65.3038 255.148 -65.3068 255.248 -65.3128 255.347M-65.3128 255.347C-65.468 257.939 -67.6187 259.992 -70.249 259.992C-72.9802 259.992 -75.1943 257.778 -75.1943 255.047L-70.8871 -4.46907C-70.8871 -7.20025 -73.1012 -9.41431 -75.8324 -9.41431C-78.5635 -9.41431 -80.7776 -7.20025 -80.7776 -4.46907L-77.1086 255.047C-77.1086 257.778 -79.3226 259.992 -82.0538 259.992C-84.785 259.992 -86.999 257.778 -86.999 255.047L-82.6919 -4.46907C-82.6919 -7.20025 -84.906 -9.41431 -87.6371 -9.41431C-89.9835 -9.41431 -91.5866 -7.87695 -92.5672 -5.62884C-92.8953 -4.87681 -93 -4.05151 -93 -3.23105V-0.0696888M-65.3128 255.347L-68.9728 -4.46907C-68.9728 -7.20025 -66.7588 -9.41431 -64.0276 -9.41431C-61.2964 -9.41431 -59.0824 -7.20025 -59.0824 -4.46907L-63.2972 256.003M-63.2972 256.003C-62.8518 258.277 -60.8484 259.992 -58.4443 259.992C-55.7131 259.992 -53.499 257.778 -53.499 255.047L-57.1681 -4.46907C-57.1681 -7.20025 -54.954 -9.41431 -52.2228 -9.41431C-49.4917 -9.41431 -47.2776 -7.20025 -47.2776 -4.46907L-51.5848 255.047C-51.5848 257.778 -49.3707 259.992 -46.6395 259.992C-43.9083 259.992 -41.6943 257.778 -41.6943 255.047L-45.3633 -4.46907C-45.3633 -7.20025 -43.1493 -9.41431 -40.4181 -9.41431C-37.6869 -9.41431 -35.4728 -7.20025 -35.4728 -4.46907L-39.78 255.047C-39.78 257.778 -37.5659 259.992 -34.8347 259.992C-32.1036 259.992 -29.8895 257.778 -29.8895 255.047L-33.5586 -4.46907C-33.5586 -7.20025 -31.3445 -9.41431 -28.6133 -9.41431C-25.8821 -9.41431 -23.6681 -7.20025 -23.6681 -4.46907L-27.9752 255.047C-27.9752 257.778 -25.7612 259.992 -23.03 259.992C-20.2988 259.992 -18.0847 257.778 -18.0847 255.047L-21.7538 -4.46907C-21.7538 -7.20025 -19.5397 -9.41431 -16.8086 -9.41431C-14.0774 -9.41431 -11.8633 -7.20025 -11.8633 -4.46907L-16.1705 255.047C-16.1705 257.778 -13.9564 259.992 -11.2252 259.992C-8.49404 259.992 -6.27998 257.778 -6.27998 255.047L-9.94904 -4.46907C-9.94904 -7.20025 -7.73498 -9.41431 -5.00379 -9.41431C-2.27261 -9.41431 -0.0585556 -7.20025 -0.0585556 -4.46907L-4.3657 255.047C-4.3657 257.778 -2.15165 259.992 0.579536 259.992C3.31072 259.992 5.52478 257.778 5.52478 255.047L1.85573 -4.46907C1.85573 -7.20025 4.06978 -9.41431 6.80096 -9.41431C9.53215 -9.41431 11.7462 -7.20025 11.7462 -4.46907L7.43906 255.047C7.43906 257.778 9.65312 259.992 12.3843 259.992C15.1155 259.992 17.3295 257.778 17.3295 255.047L13.6605 -4.46907C13.6605 -7.20025 15.8745 -9.41431 18.6057 -9.41431C21.3369 -9.41431 23.551 -7.20025 23.551 -4.46907L19.2438 255.047C19.2438 257.778 21.4579 259.992 24.1891 259.992C26.9202 259.992 29.1343 257.778 29.1343 255.047V-3.65714V-4.46907C29.1343 -7.20025 31.3484 -9.41431 34.0795 -9.41431C36.8107 -9.41431 39.0248 -7.20025 39.0248 -4.46907V-1.95723M-63.2972 256.003C-63.3578 255.694 -63.3895 255.374 -63.3895 255.047" stroke="#008C3C" stroke-width="2" stroke-linecap="round" stroke-linejoin="round"/>
</g>
<defs>
<clipPath id="clip0_2515_649">
<rect width="134.02" height="272" fill="white" transform="translate(-94 -10.5)"/>
</clipPath>
</defs>
</svg>
