<svg width="13" height="13" viewBox="0 0 13 13" fill="none" xmlns="http://www.w3.org/2000/svg">
<g clip-path="url(#clip0_2515_649)">
<path d="M-65.3038 6.04688C-65.3038 6.14771 -65.3068 6.24783 -65.3128 6.34717M-65.3128 6.34717C-65.468 8.93851 -67.6187 10.9921 -70.249 10.9921C-72.9802 10.9921 -75.1943 8.77806 -75.1943 6.04688L-70.8871 -253.469C-70.8871 -256.2 -73.1012 -258.414 -75.8324 -258.414C-78.5635 -258.414 -80.7776 -256.2 -80.7776 -253.469L-77.1086 6.04688C-77.1086 8.77806 -79.3226 10.9921 -82.0538 10.9921C-84.785 10.9921 -86.999 8.77806 -86.999 6.04688L-82.6919 -253.469C-82.6919 -256.2 -84.906 -258.414 -87.6371 -258.414C-89.9835 -258.414 -91.5866 -256.877 -92.5672 -254.629C-92.8953 -253.877 -93 -253.052 -93 -252.231V-249.07M-65.3128 6.34717L-68.9728 -253.469C-68.9728 -256.2 -66.7588 -258.414 -64.0276 -258.414C-61.2964 -258.414 -59.0824 -256.2 -59.0824 -253.469L-63.2972 7.0029M-63.2972 7.0029C-62.8518 9.27658 -60.8484 10.9921 -58.4443 10.9921C-55.7131 10.9921 -53.499 8.77806 -53.499 6.04688L-57.1681 -253.469C-57.1681 -256.2 -54.954 -258.414 -52.2228 -258.414C-49.4917 -258.414 -47.2776 -256.2 -47.2776 -253.469L-51.5848 6.04688C-51.5848 8.77806 -49.3707 10.9921 -46.6395 10.9921C-43.9083 10.9921 -41.6943 8.77806 -41.6943 6.04688L-45.3633 -253.469C-45.3633 -256.2 -43.1493 -258.414 -40.4181 -258.414C-37.6869 -258.414 -35.4728 -256.2 -35.4728 -253.469L-39.78 6.04688C-39.78 8.77806 -37.5659 10.9921 -34.8347 10.9921C-32.1036 10.9921 -29.8895 8.77806 -29.8895 6.04688L-33.5586 -253.469C-33.5586 -256.2 -31.3445 -258.414 -28.6133 -258.414C-25.8821 -258.414 -23.6681 -256.2 -23.6681 -253.469L-27.9752 6.04688C-27.9752 8.77806 -25.7612 10.9921 -23.03 10.9921C-20.2988 10.9921 -18.0847 8.77806 -18.0847 6.04688L-21.7538 -253.469C-21.7538 -256.2 -19.5397 -258.414 -16.8086 -258.414C-14.0774 -258.414 -11.8633 -256.2 -11.8633 -253.469L-16.1705 6.04688C-16.1705 8.77806 -13.9564 10.9921 -11.2252 10.9921C-8.49404 10.9921 -6.27998 8.77806 -6.27998 6.04688L-9.94904 -253.469C-9.94904 -256.2 -7.73498 -258.414 -5.00379 -258.414C-2.27261 -258.414 -0.0585556 -256.2 -0.0585556 -253.469L-4.3657 6.04688C-4.3657 8.77806 -2.15165 10.9921 0.579536 10.9921C3.31072 10.9921 5.52478 8.77806 5.52478 6.04688L1.85573 -253.469C1.85573 -256.2 4.06978 -258.414 6.80096 -258.414C9.53215 -258.414 11.7462 -256.2 11.7462 -253.469L7.43906 6.04688C7.43906 8.77806 9.65312 10.9921 12.3843 10.9921C15.1155 10.9921 17.3295 8.77806 17.3295 6.04688L13.6605 -253.469C13.6605 -256.2 15.8745 -258.414 18.6057 -258.414C21.3369 -258.414 23.551 -256.2 23.551 -253.469L19.2438 6.04688C19.2438 8.77806 21.4579 10.9921 24.1891 10.9921C26.9202 10.9921 29.1343 8.77806 29.1343 6.04688V-252.657V-253.469C29.1343 -256.2 31.3484 -258.414 34.0795 -258.414C36.8107 -258.414 39.0248 -256.2 39.0248 -253.469V-250.957M-63.2972 7.0029C-63.3578 6.69359 -63.3895 6.37394 -63.3895 6.04688" stroke="#008C3C" stroke-width="2" stroke-linecap="round" stroke-linejoin="round"/>
</g>
<defs>
<clipPath id="clip0_2515_649">
<rect width="134.02" height="272" fill="white" transform="translate(-94 -259.5)"/>
</clipPath>
</defs>
</svg>
