<svg width="12" height="250" viewBox="0 0 12 250" fill="none" xmlns="http://www.w3.org/2000/svg">
<g clip-path="url(#clip0_2515_649)">
<path d="M4.6962 255.047C4.6962 255.148 4.69318 255.248 4.68723 255.347M4.68723 255.347C4.53202 257.939 2.38131 259.992 -0.249035 259.992C-2.98021 259.992 -5.19427 257.778 -5.19427 255.047L-0.887131 -4.46907C-0.887131 -7.20025 -3.10119 -9.41431 -5.83237 -9.41431C-8.56355 -9.41431 -10.7776 -7.20025 -10.7776 -4.46907L-7.10856 255.047C-7.10856 257.778 -9.32262 259.992 -12.0538 259.992C-14.785 259.992 -16.999 257.778 -16.999 255.047L-12.6919 -4.46907C-12.6919 -7.20025 -14.906 -9.41431 -17.6371 -9.41431C-19.9835 -9.41431 -21.5866 -7.87695 -22.5672 -5.62884C-22.8953 -4.87681 -23 -4.05151 -23 -3.23105V-0.0696888M4.68723 255.347L1.02715 -4.46907C1.02715 -7.20025 3.24121 -9.41431 5.97239 -9.41431C8.70357 -9.41431 10.9176 -7.20025 10.9176 -4.46907L6.70283 256.003M6.70283 256.003C7.14817 258.277 9.15161 259.992 11.5557 259.992C14.2869 259.992 16.501 257.778 16.501 255.047L12.8319 -4.46907C12.8319 -7.20025 15.046 -9.41431 17.7772 -9.41431C20.5083 -9.41431 22.7224 -7.20025 22.7224 -4.46907L18.4152 255.047C18.4152 257.778 20.6293 259.992 23.3605 259.992C26.0917 259.992 28.3057 257.778 28.3057 255.047L24.6367 -4.46907C24.6367 -7.20025 26.8507 -9.41431 29.5819 -9.41431C32.3131 -9.41431 34.5272 -7.20025 34.5272 -4.46907L30.22 255.047C30.22 257.778 32.4341 259.992 35.1653 259.992C37.8964 259.992 40.1105 257.778 40.1105 255.047L36.4414 -4.46907C36.4414 -7.20025 38.6555 -9.41431 41.3867 -9.41431C44.1179 -9.41431 46.3319 -7.20025 46.3319 -4.46907L42.0248 255.047C42.0248 257.778 44.2388 259.992 46.97 259.992C49.7012 259.992 51.9153 257.778 51.9153 255.047L48.2462 -4.46907C48.2462 -7.20025 50.4603 -9.41431 53.1914 -9.41431C55.9226 -9.41431 58.1367 -7.20025 58.1367 -4.46907L53.8295 255.047C53.8295 257.778 56.0436 259.992 58.7748 259.992C61.506 259.992 63.72 257.778 63.72 255.047L60.051 -4.46907C60.051 -7.20025 62.265 -9.41431 64.9962 -9.41431C67.7274 -9.41431 69.9414 -7.20025 69.9414 -4.46907L65.6343 255.047C65.6343 257.778 67.8484 259.992 70.5795 259.992C73.3107 259.992 75.5248 257.778 75.5248 255.047L71.8557 -4.46907C71.8557 -7.20025 74.0698 -9.41431 76.801 -9.41431C79.5321 -9.41431 81.7462 -7.20025 81.7462 -4.46907L77.4391 255.047C77.4391 257.778 79.6531 259.992 82.3843 259.992C85.1155 259.992 87.3295 257.778 87.3295 255.047L83.6605 -4.46907C83.6605 -7.20025 85.8745 -9.41431 88.6057 -9.41431C91.3369 -9.41431 93.551 -7.20025 93.551 -4.46907L89.2438 255.047C89.2438 257.778 91.4579 259.992 94.1891 259.992C96.9202 259.992 99.1343 257.778 99.1343 255.047V-3.65714V-4.46907C99.1343 -7.20025 101.348 -9.41431 104.08 -9.41431C106.811 -9.41431 109.025 -7.20025 109.025 -4.46907V-1.95723M6.70283 256.003C6.64224 255.694 6.61049 255.374 6.61049 255.047" stroke="#008C3C" stroke-width="2" stroke-linecap="round" stroke-linejoin="round"/>
</g>
<defs>
<clipPath id="clip0_2515_649">
<rect width="134.02" height="272" fill="white" transform="translate(-24 -10.5)"/>
</clipPath>
</defs>
</svg>
