<svg width="13" height="12" viewBox="0 0 13 12" fill="none" xmlns="http://www.w3.org/2000/svg">
<g clip-path="url(#clip0_2515_1085)">
<path d="M-42.3038 266.047C-42.3038 266.148 -42.3068 266.248 -42.3128 266.347M-42.3128 266.347C-42.468 268.939 -44.6187 270.992 -47.249 270.992C-49.9802 270.992 -52.1943 268.778 -52.1943 266.047L-47.8871 6.53093C-47.8871 3.79975 -50.1012 1.58569 -52.8324 1.58569C-55.5635 1.58569 -57.7776 3.79975 -57.7776 6.53093L-54.1086 266.047C-54.1086 268.778 -56.3226 270.992 -59.0538 270.992C-61.785 270.992 -63.999 268.778 -63.999 266.047L-59.6919 6.53093C-59.6919 3.79975 -61.906 1.58569 -64.6371 1.58569C-66.9835 1.58569 -68.5866 3.12305 -69.5672 5.37116C-69.8953 6.12319 -70 6.94849 -70 7.76895V10.9303M-42.3128 266.347L-45.9728 6.53093C-45.9728 3.79975 -43.7588 1.58569 -41.0276 1.58569C-38.2964 1.58569 -36.0824 3.79975 -36.0824 6.53093L-40.2972 267.003M-40.2972 267.003C-39.8518 269.277 -37.8484 270.992 -35.4443 270.992C-32.7131 270.992 -30.499 268.778 -30.499 266.047L-34.1681 6.53093C-34.1681 3.79975 -31.954 1.58569 -29.2228 1.58569C-26.4917 1.58569 -24.2776 3.79975 -24.2776 6.53093L-28.5848 266.047C-28.5848 268.778 -26.3707 270.992 -23.6395 270.992C-20.9083 270.992 -18.6943 268.778 -18.6943 266.047L-22.3633 6.53093C-22.3633 3.79975 -20.1493 1.58569 -17.4181 1.58569C-14.6869 1.58569 -12.4728 3.79975 -12.4728 6.53093L-16.78 266.047C-16.78 268.778 -14.5659 270.992 -11.8347 270.992C-9.10357 270.992 -6.88951 268.778 -6.88951 266.047L-10.5586 6.53093C-10.5586 3.79975 -8.3445 1.58569 -5.61332 1.58569C-2.88214 1.58569 -0.668083 3.79975 -0.668083 6.53093L-4.97523 266.047C-4.97523 268.778 -2.76116 270.992 -0.0299835 270.992C2.70119 270.992 4.91525 268.778 4.91525 266.047L1.2462 6.53093C1.2462 3.79975 3.46027 1.58569 6.19144 1.58569C8.92262 1.58569 11.1367 3.79975 11.1367 6.53093L6.82954 266.047C6.82954 268.778 9.04359 270.992 11.7748 270.992C14.506 270.992 16.72 268.778 16.72 266.047L13.051 6.53093C13.051 3.79975 15.265 1.58569 17.9962 1.58569C20.7274 1.58569 22.9414 3.79975 22.9414 6.53093L18.6343 266.047C18.6343 268.778 20.8484 270.992 23.5795 270.992C26.3107 270.992 28.5248 268.778 28.5248 266.047L24.8557 6.53093C24.8557 3.79975 27.0698 1.58569 29.801 1.58569C32.5321 1.58569 34.7462 3.79975 34.7462 6.53093L30.4391 266.047C30.4391 268.778 32.6531 270.992 35.3843 270.992C38.1155 270.992 40.3295 268.778 40.3295 266.047L36.6605 6.53093C36.6605 3.79975 38.8745 1.58569 41.6057 1.58569C44.3369 1.58569 46.551 3.79975 46.551 6.53093L42.2438 266.047C42.2438 268.778 44.4579 270.992 47.1891 270.992C49.9202 270.992 52.1343 268.778 52.1343 266.047V7.34286V6.53093C52.1343 3.79975 54.3484 1.58569 57.0795 1.58569C59.8107 1.58569 62.0248 3.79975 62.0248 6.53093V9.04277M-40.2972 267.003C-40.3578 266.694 -40.3895 266.374 -40.3895 266.047" stroke="#926AE8" stroke-width="2" stroke-linecap="round" stroke-linejoin="round"/>
</g>
<defs>
<clipPath id="clip0_2515_1085">
<rect width="134.02" height="272" fill="white" transform="translate(-71 0.5)"/>
</clipPath>
</defs>
</svg>
