<svg width="13" height="13" viewBox="0 0 13 13" fill="none" xmlns="http://www.w3.org/2000/svg">
<g clip-path="url(#clip0_2515_1085)">
<path d="M-6.3038 6.04688C-6.3038 6.14771 -6.30682 6.24783 -6.31277 6.34717M-6.31277 6.34717C-6.46798 8.93851 -8.61869 10.9921 -11.249 10.9921C-13.9802 10.9921 -16.1943 8.77806 -16.1943 6.04688L-11.8871 -253.469C-11.8871 -256.2 -14.1012 -258.414 -16.8324 -258.414C-19.5635 -258.414 -21.7776 -256.2 -21.7776 -253.469L-18.1086 6.04688C-18.1086 8.77806 -20.3226 10.9921 -23.0538 10.9921C-25.785 10.9921 -27.999 8.77806 -27.999 6.04688L-23.6919 -253.469C-23.6919 -256.2 -25.906 -258.414 -28.6371 -258.414C-30.9835 -258.414 -32.5866 -256.877 -33.5672 -254.629C-33.8953 -253.877 -34 -253.052 -34 -252.231V-249.07M-6.31277 6.34717L-9.97285 -253.469C-9.97285 -256.2 -7.75879 -258.414 -5.02761 -258.414C-2.29643 -258.414 -0.0823669 -256.2 -0.0823669 -253.469L-4.29717 7.0029M-4.29717 7.0029C-3.85183 9.27658 -1.84839 10.9921 0.555725 10.9921C3.28691 10.9921 5.50097 8.77806 5.50097 6.04688L1.83192 -253.469C1.83192 -256.2 4.04598 -258.414 6.77716 -258.414C9.50834 -258.414 11.7224 -256.2 11.7224 -253.469L7.41525 6.04688C7.41525 8.77806 9.62931 10.9921 12.3605 10.9921C15.0917 10.9921 17.3057 8.77806 17.3057 6.04688L13.6367 -253.469C13.6367 -256.2 15.8507 -258.414 18.5819 -258.414C21.3131 -258.414 23.5272 -256.2 23.5272 -253.469L19.22 6.04688C19.22 8.77806 21.4341 10.9921 24.1653 10.9921C26.8964 10.9921 29.1105 8.77806 29.1105 6.04688L25.4414 -253.469C25.4414 -256.2 27.6555 -258.414 30.3867 -258.414C33.1179 -258.414 35.3319 -256.2 35.3319 -253.469L31.0248 6.04688C31.0248 8.77806 33.2388 10.9921 35.97 10.9921C38.7012 10.9921 40.9153 8.77806 40.9153 6.04688L37.2462 -253.469C37.2462 -256.2 39.4603 -258.414 42.1914 -258.414C44.9226 -258.414 47.1367 -256.2 47.1367 -253.469L42.8295 6.04688C42.8295 8.77806 45.0436 10.9921 47.7748 10.9921C50.506 10.9921 52.72 8.77806 52.72 6.04688L49.051 -253.469C49.051 -256.2 51.265 -258.414 53.9962 -258.414C56.7274 -258.414 58.9414 -256.2 58.9414 -253.469L54.6343 6.04688C54.6343 8.77806 56.8484 10.9921 59.5795 10.9921C62.3107 10.9921 64.5248 8.77806 64.5248 6.04688L60.8557 -253.469C60.8557 -256.2 63.0698 -258.414 65.801 -258.414C68.5321 -258.414 70.7462 -256.2 70.7462 -253.469L66.4391 6.04688C66.4391 8.77806 68.6531 10.9921 71.3843 10.9921C74.1155 10.9921 76.3295 8.77806 76.3295 6.04688L72.6605 -253.469C72.6605 -256.2 74.8745 -258.414 77.6057 -258.414C80.3369 -258.414 82.551 -256.2 82.551 -253.469L78.2438 6.04688C78.2438 8.77806 80.4579 10.9921 83.1891 10.9921C85.9202 10.9921 88.1343 8.77806 88.1343 6.04688V-252.657V-253.469C88.1343 -256.2 90.3484 -258.414 93.0795 -258.414C95.8107 -258.414 98.0248 -256.2 98.0248 -253.469V-250.957M-4.29717 7.0029C-4.35776 6.69359 -4.38951 6.37394 -4.38951 6.04688" stroke="#926AE8" stroke-width="2" stroke-linecap="round" stroke-linejoin="round"/>
</g>
<defs>
<clipPath id="clip0_2515_1085">
<rect width="134.02" height="272" fill="white" transform="translate(-35 -259.5)"/>
</clipPath>
</defs>
</svg>
