<svg width="13" height="250" viewBox="0 0 13 250" fill="none" xmlns="http://www.w3.org/2000/svg">
<g clip-path="url(#clip0_2515_1085)">
<path d="M-18.3038 255.047C-18.3038 255.148 -18.3068 255.248 -18.3128 255.347M-18.3128 255.347C-18.468 257.939 -20.6187 259.992 -23.249 259.992C-25.9802 259.992 -28.1943 257.778 -28.1943 255.047L-23.8871 -4.46907C-23.8871 -7.20025 -26.1012 -9.41431 -28.8324 -9.41431C-31.5635 -9.41431 -33.7776 -7.20025 -33.7776 -4.46907L-30.1086 255.047C-30.1086 257.778 -32.3226 259.992 -35.0538 259.992C-37.785 259.992 -39.999 257.778 -39.999 255.047L-35.6919 -4.46907C-35.6919 -7.20025 -37.906 -9.41431 -40.6371 -9.41431C-42.9835 -9.41431 -44.5866 -7.87695 -45.5672 -5.62884C-45.8953 -4.87681 -46 -4.05151 -46 -3.23105V-0.0696888M-18.3128 255.347L-21.9728 -4.46907C-21.9728 -7.20025 -19.7588 -9.41431 -17.0276 -9.41431C-14.2964 -9.41431 -12.0824 -7.20025 -12.0824 -4.46907L-16.2972 256.003M-16.2972 256.003C-15.8518 258.277 -13.8484 259.992 -11.4443 259.992C-8.71309 259.992 -6.49903 257.778 -6.49903 255.047L-10.1681 -4.46907C-10.1681 -7.20025 -7.95402 -9.41431 -5.22284 -9.41431C-2.49166 -9.41431 -0.277607 -7.20025 -0.277607 -4.46907L-4.58475 255.047C-4.58475 257.778 -2.37069 259.992 0.360489 259.992C3.09167 259.992 5.30573 257.778 5.30573 255.047L1.63668 -4.46907C1.63668 -7.20025 3.85074 -9.41431 6.58192 -9.41431C9.3131 -9.41431 11.5272 -7.20025 11.5272 -4.46907L7.22001 255.047C7.22001 257.778 9.43407 259.992 12.1653 259.992C14.8964 259.992 17.1105 257.778 17.1105 255.047L13.4414 -4.46907C13.4414 -7.20025 15.6555 -9.41431 18.3867 -9.41431C21.1179 -9.41431 23.3319 -7.20025 23.3319 -4.46907L19.0248 255.047C19.0248 257.778 21.2388 259.992 23.97 259.992C26.7012 259.992 28.9153 257.778 28.9153 255.047L25.2462 -4.46907C25.2462 -7.20025 27.4603 -9.41431 30.1914 -9.41431C32.9226 -9.41431 35.1367 -7.20025 35.1367 -4.46907L30.8295 255.047C30.8295 257.778 33.0436 259.992 35.7748 259.992C38.506 259.992 40.72 257.778 40.72 255.047L37.051 -4.46907C37.051 -7.20025 39.265 -9.41431 41.9962 -9.41431C44.7274 -9.41431 46.9414 -7.20025 46.9414 -4.46907L42.6343 255.047C42.6343 257.778 44.8484 259.992 47.5795 259.992C50.3107 259.992 52.5248 257.778 52.5248 255.047L48.8557 -4.46907C48.8557 -7.20025 51.0698 -9.41431 53.801 -9.41431C56.5321 -9.41431 58.7462 -7.20025 58.7462 -4.46907L54.4391 255.047C54.4391 257.778 56.6531 259.992 59.3843 259.992C62.1155 259.992 64.3295 257.778 64.3295 255.047L60.6605 -4.46907C60.6605 -7.20025 62.8745 -9.41431 65.6057 -9.41431C68.3369 -9.41431 70.551 -7.20025 70.551 -4.46907L66.2438 255.047C66.2438 257.778 68.4579 259.992 71.1891 259.992C73.9202 259.992 76.1343 257.778 76.1343 255.047V-3.65714V-4.46907C76.1343 -7.20025 78.3484 -9.41431 81.0795 -9.41431C83.8107 -9.41431 86.0248 -7.20025 86.0248 -4.46907V-1.95723M-16.2972 256.003C-16.3578 255.694 -16.3895 255.374 -16.3895 255.047" stroke="#926AE8" stroke-width="2" stroke-linecap="round" stroke-linejoin="round"/>
</g>
<defs>
<clipPath id="clip0_2515_1085">
<rect width="134.02" height="272" fill="white" transform="translate(-47 -10.5)"/>
</clipPath>
</defs>
</svg>
