<svg width="13" height="12" viewBox="0 0 13 12" fill="none" xmlns="http://www.w3.org/2000/svg">
<g clip-path="url(#clip0_2515_1085)">
<path d="M-6.3038 266.047C-6.3038 266.148 -6.30682 266.248 -6.31277 266.347M-6.31277 266.347C-6.46798 268.939 -8.61869 270.992 -11.249 270.992C-13.9802 270.992 -16.1943 268.778 -16.1943 266.047L-11.8871 6.53093C-11.8871 3.79975 -14.1012 1.58569 -16.8324 1.58569C-19.5635 1.58569 -21.7776 3.79975 -21.7776 6.53093L-18.1086 266.047C-18.1086 268.778 -20.3226 270.992 -23.0538 270.992C-25.785 270.992 -27.999 268.778 -27.999 266.047L-23.6919 6.53093C-23.6919 3.79975 -25.906 1.58569 -28.6371 1.58569C-30.9835 1.58569 -32.5866 3.12305 -33.5672 5.37116C-33.8953 6.12319 -34 6.94849 -34 7.76895V10.9303M-6.31277 266.347L-9.97285 6.53093C-9.97285 3.79975 -7.75879 1.58569 -5.02761 1.58569C-2.29643 1.58569 -0.0823669 3.79975 -0.0823669 6.53093L-4.29717 267.003M-4.29717 267.003C-3.85183 269.277 -1.84839 270.992 0.555725 270.992C3.28691 270.992 5.50097 268.778 5.50097 266.047L1.83192 6.53093C1.83192 3.79975 4.04598 1.58569 6.77716 1.58569C9.50834 1.58569 11.7224 3.79975 11.7224 6.53093L7.41525 266.047C7.41525 268.778 9.62931 270.992 12.3605 270.992C15.0917 270.992 17.3057 268.778 17.3057 266.047L13.6367 6.53093C13.6367 3.79975 15.8507 1.58569 18.5819 1.58569C21.3131 1.58569 23.5272 3.79975 23.5272 6.53093L19.22 266.047C19.22 268.778 21.4341 270.992 24.1653 270.992C26.8964 270.992 29.1105 268.778 29.1105 266.047L25.4414 6.53093C25.4414 3.79975 27.6555 1.58569 30.3867 1.58569C33.1179 1.58569 35.3319 3.79975 35.3319 6.53093L31.0248 266.047C31.0248 268.778 33.2388 270.992 35.97 270.992C38.7012 270.992 40.9153 268.778 40.9153 266.047L37.2462 6.53093C37.2462 3.79975 39.4603 1.58569 42.1914 1.58569C44.9226 1.58569 47.1367 3.79975 47.1367 6.53093L42.8295 266.047C42.8295 268.778 45.0436 270.992 47.7748 270.992C50.506 270.992 52.72 268.778 52.72 266.047L49.051 6.53093C49.051 3.79975 51.265 1.58569 53.9962 1.58569C56.7274 1.58569 58.9414 3.79975 58.9414 6.53093L54.6343 266.047C54.6343 268.778 56.8484 270.992 59.5795 270.992C62.3107 270.992 64.5248 268.778 64.5248 266.047L60.8557 6.53093C60.8557 3.79975 63.0698 1.58569 65.801 1.58569C68.5321 1.58569 70.7462 3.79975 70.7462 6.53093L66.4391 266.047C66.4391 268.778 68.6531 270.992 71.3843 270.992C74.1155 270.992 76.3295 268.778 76.3295 266.047L72.6605 6.53093C72.6605 3.79975 74.8745 1.58569 77.6057 1.58569C80.3369 1.58569 82.551 3.79975 82.551 6.53093L78.2438 266.047C78.2438 268.778 80.4579 270.992 83.1891 270.992C85.9202 270.992 88.1343 268.778 88.1343 266.047V7.34286V6.53093C88.1343 3.79975 90.3484 1.58569 93.0795 1.58569C95.8107 1.58569 98.0248 3.79975 98.0248 6.53093V9.04277M-4.29717 267.003C-4.35776 266.694 -4.38951 266.374 -4.38951 266.047" stroke="#926AE8" stroke-width="2" stroke-linecap="round" stroke-linejoin="round"/>
</g>
<defs>
<clipPath id="clip0_2515_1085">
<rect width="134.02" height="272" fill="white" transform="translate(-35 0.5)"/>
</clipPath>
</defs>
</svg>
