<svg width="19" height="33" viewBox="0 0 19 33" fill="none" xmlns="http://www.w3.org/2000/svg">
<g clip-path="url(#clip0_2518_4545)">
<path d="M-311.508 -450.368C-308.663 -459.339 -303.259 -465.868 -294.699 -465.868C-286.138 -465.868 -279.199 -458.929 -279.199 -450.368L-292.699 15.1296C-292.699 23.69 -285.759 30.6296 -277.199 30.6296C-268.638 30.6296 -261.699 23.69 -261.699 15.1296L-273.199 -450.368C-273.199 -458.929 -266.259 -465.868 -257.699 -465.868C-249.138 -465.868 -242.199 -458.929 -242.199 -450.368L-255.699 15.1296C-255.699 23.69 -248.759 30.6296 -240.199 30.6296C-231.954 30.6296 -225.213 24.193 -224.727 16.0708M-224.699 15.1296C-224.699 15.4456 -224.708 15.7595 -224.727 16.0708M-224.727 16.0708L-236.199 -450.368C-236.199 -458.929 -229.259 -465.868 -220.699 -465.868C-212.138 -465.868 -205.199 -458.929 -205.199 -450.368L-218.409 18.1261M-218.409 18.1261C-217.014 25.2526 -210.734 30.6296 -203.199 30.6296C-194.638 30.6296 -187.699 23.69 -187.699 15.1296L-199.199 -450.368C-199.199 -458.929 -192.259 -465.868 -183.699 -465.868C-175.138 -465.868 -168.199 -458.929 -168.199 -450.368L-181.699 15.1296C-181.699 23.69 -174.759 30.6296 -166.199 30.6296C-157.638 30.6296 -150.699 23.69 -150.699 15.1296L-162.199 -450.368C-162.199 -458.929 -155.259 -465.868 -146.699 -465.868C-138.138 -465.868 -131.199 -458.929 -131.199 -450.368L-144.699 15.1296C-144.699 23.69 -137.759 30.6296 -129.199 30.6296C-120.638 30.6296 -113.699 23.69 -113.699 15.1296L-125.199 -450.368C-125.199 -458.929 -118.259 -465.868 -109.699 -465.868C-101.138 -465.868 -94.1988 -458.929 -94.1988 -450.368L-107.699 15.1296C-107.699 23.69 -100.759 30.6296 -92.1988 30.6296C-83.6384 30.6296 -76.6988 23.6901 -76.6988 15.1296L-88.1988 -450.368C-88.1988 -458.929 -81.2592 -465.868 -72.6988 -465.868C-64.1384 -465.868 -57.1988 -458.929 -57.1988 -450.368L-70.6988 15.1296C-70.6988 23.6901 -63.7592 30.6296 -55.1988 30.6296C-46.6384 30.6296 -39.6988 23.6901 -39.6988 15.1296L-51.1988 -450.368C-51.1988 -458.929 -44.2592 -465.868 -35.6988 -465.868C-27.1384 -465.868 -20.1988 -458.929 -20.1988 -450.368L-33.6988 15.1296C-33.6988 23.6901 -26.7592 30.6296 -18.1988 30.6296C-9.6384 30.6296 -2.69882 23.6901 -2.69882 15.1296L-14.1988 -450.368C-14.1988 -458.929 -7.25925 -465.868 1.30118 -465.868C9.8616 -465.868 16.8012 -458.929 16.8012 -450.368L3.30118 15.1296C3.30118 23.6901 10.2408 30.6296 18.8012 30.6296C27.3616 30.6296 34.3012 23.6901 34.3012 15.1296L22.8012 -450.368C22.8012 -458.929 29.7408 -465.868 38.3012 -465.868C46.8616 -465.868 53.8012 -458.929 53.8012 -450.368L40.3012 15.1296C40.3012 23.6901 47.2408 30.6296 55.8012 30.6296C64.3616 30.6296 71.3012 23.6901 71.3012 15.1296L59.8012 -447.823V-450.368C59.8012 -458.929 66.7408 -465.868 75.3012 -465.868C83.8616 -465.868 90.8012 -458.929 90.8012 -450.368V-442.495M-218.409 18.1261C-218.599 17.1566 -218.699 16.1547 -218.699 15.1296" stroke="#0178D5" stroke-width="4" stroke-linecap="round" stroke-linejoin="round"/>
</g>
<defs>
<clipPath id="clip0_2518_4545">
<rect width="407" height="501" fill="white" transform="translate(-314 -468.026)"/>
</clipPath>
</defs>
</svg>
