<svg width="20" height="33" viewBox="0 0 20 33" fill="none" xmlns="http://www.w3.org/2000/svg">
<g clip-path="url(#clip0_2518_4545)">
<path d="M-366.508 18.6318C-363.663 9.6605 -358.259 3.13184 -349.699 3.13184C-341.138 3.13184 -334.199 10.0714 -334.199 18.6318L-347.699 484.13C-347.699 492.69 -340.759 499.63 -332.199 499.63C-323.638 499.63 -316.699 492.69 -316.699 484.13L-328.199 18.6318C-328.199 10.0714 -321.259 3.13184 -312.699 3.13184C-304.138 3.13184 -297.199 10.0714 -297.199 18.6318L-310.699 484.13C-310.699 492.69 -303.759 499.63 -295.199 499.63C-286.954 499.63 -280.213 493.193 -279.727 485.071M-279.699 484.13C-279.699 484.446 -279.708 484.759 -279.727 485.071M-279.727 485.071L-291.199 18.6318C-291.199 10.0714 -284.259 3.13184 -275.699 3.13184C-267.138 3.13184 -260.199 10.0714 -260.199 18.6318L-273.409 487.126M-273.409 487.126C-272.014 494.253 -265.734 499.63 -258.199 499.63C-249.638 499.63 -242.699 492.69 -242.699 484.13L-254.199 18.6318C-254.199 10.0714 -247.259 3.13184 -238.699 3.13184C-230.138 3.13184 -223.199 10.0714 -223.199 18.6318L-236.699 484.13C-236.699 492.69 -229.759 499.63 -221.199 499.63C-212.638 499.63 -205.699 492.69 -205.699 484.13L-217.199 18.6318C-217.199 10.0714 -210.259 3.13184 -201.699 3.13184C-193.138 3.13184 -186.199 10.0714 -186.199 18.6318L-199.699 484.13C-199.699 492.69 -192.759 499.63 -184.199 499.63C-175.638 499.63 -168.699 492.69 -168.699 484.13L-180.199 18.6318C-180.199 10.0714 -173.259 3.13184 -164.699 3.13184C-156.138 3.13184 -149.199 10.0714 -149.199 18.6318L-162.699 484.13C-162.699 492.69 -155.759 499.63 -147.199 499.63C-138.638 499.63 -131.699 492.69 -131.699 484.13L-143.199 18.6318C-143.199 10.0714 -136.259 3.13184 -127.699 3.13184C-119.138 3.13184 -112.199 10.0714 -112.199 18.6318L-125.699 484.13C-125.699 492.69 -118.759 499.63 -110.199 499.63C-101.638 499.63 -94.6988 492.69 -94.6988 484.13L-106.199 18.6318C-106.199 10.0714 -99.2592 3.13184 -90.6988 3.13184C-82.1384 3.13184 -75.1988 10.0714 -75.1988 18.6318L-88.6988 484.13C-88.6988 492.69 -81.7592 499.63 -73.1988 499.63C-64.6384 499.63 -57.6988 492.69 -57.6988 484.13L-69.1988 18.6318C-69.1988 10.0714 -62.2592 3.13184 -53.6988 3.13184C-45.1384 3.13184 -38.1988 10.0714 -38.1988 18.6318L-51.6988 484.13C-51.6988 492.69 -44.7592 499.63 -36.1988 499.63C-27.6384 499.63 -20.6988 492.69 -20.6988 484.13L-32.1988 18.6318C-32.1988 10.0714 -25.2592 3.13184 -16.6988 3.13184C-8.1384 3.13184 -1.19882 10.0714 -1.19882 18.6318L-14.6988 484.13C-14.6988 492.69 -7.75925 499.63 0.801178 499.63C9.3616 499.63 16.3012 492.69 16.3012 484.13L4.80118 21.1767V18.6318C4.80118 10.0714 11.7408 3.13184 20.3012 3.13184C28.8616 3.13184 35.8012 10.0714 35.8012 18.6318V26.5048M-273.409 487.126C-273.599 486.157 -273.699 485.155 -273.699 484.13" stroke="#0178D5" stroke-width="4" stroke-linecap="round" stroke-linejoin="round"/>
</g>
<defs>
<clipPath id="clip0_2518_4545">
<rect width="407" height="501" fill="white" transform="translate(-369 0.973633)"/>
</clipPath>
</defs>
</svg>
