<svg width="20" height="33" viewBox="0 0 20 33" fill="none" xmlns="http://www.w3.org/2000/svg">
<g clip-path="url(#clip0_2518_4545)">
<path d="M-89.5078 -450.368C-86.663 -459.339 -81.2592 -465.868 -72.6988 -465.868C-64.1384 -465.868 -57.1988 -458.929 -57.1988 -450.368L-70.6988 15.1296C-70.6988 23.69 -63.7592 30.6296 -55.1988 30.6296C-46.6384 30.6296 -39.6988 23.69 -39.6988 15.1296L-51.1988 -450.368C-51.1988 -458.929 -44.2592 -465.868 -35.6988 -465.868C-27.1384 -465.868 -20.1988 -458.929 -20.1988 -450.368L-33.6988 15.1296C-33.6988 23.69 -26.7592 30.6296 -18.1988 30.6296C-9.95445 30.6296 -3.21343 24.193 -2.72693 16.0708M-2.69882 15.1296C-2.69882 15.4456 -2.70828 15.7595 -2.72693 16.0708M-2.72693 16.0708L-14.1988 -450.368C-14.1988 -458.929 -7.25923 -465.868 1.30118 -465.868C9.86159 -465.868 16.8012 -458.929 16.8012 -450.368L3.59059 18.1261M3.59059 18.1261C4.98646 25.2526 11.2659 30.6296 18.8012 30.6296C27.3616 30.6296 34.3012 23.69 34.3012 15.1296L22.8012 -450.368C22.8012 -458.929 29.7408 -465.868 38.3012 -465.868C46.8616 -465.868 53.8012 -458.929 53.8012 -450.368L40.3012 15.1296C40.3012 23.69 47.2408 30.6296 55.8012 30.6296C64.3616 30.6296 71.3012 23.69 71.3012 15.1296L59.8012 -450.368C59.8012 -458.929 66.7408 -465.868 75.3012 -465.868C83.8616 -465.868 90.8012 -458.929 90.8012 -450.368L77.3012 15.1296C77.3012 23.69 84.2408 30.6296 92.8012 30.6296C101.362 30.6296 108.301 23.69 108.301 15.1296L96.8012 -450.368C96.8012 -458.929 103.741 -465.868 112.301 -465.868C120.862 -465.868 127.801 -458.929 127.801 -450.368L114.301 15.1296C114.301 23.69 121.241 30.6296 129.801 30.6296C138.362 30.6296 145.301 23.6901 145.301 15.1296L133.801 -450.368C133.801 -458.929 140.741 -465.868 149.301 -465.868C157.862 -465.868 164.801 -458.929 164.801 -450.368L151.301 15.1296C151.301 23.6901 158.241 30.6296 166.801 30.6296C175.362 30.6296 182.301 23.6901 182.301 15.1296L170.801 -450.368C170.801 -458.929 177.741 -465.868 186.301 -465.868C194.862 -465.868 201.801 -458.929 201.801 -450.368L188.301 15.1296C188.301 23.6901 195.241 30.6296 203.801 30.6296C212.362 30.6296 219.301 23.6901 219.301 15.1296L207.801 -450.368C207.801 -458.929 214.741 -465.868 223.301 -465.868C231.862 -465.868 238.801 -458.929 238.801 -450.368L225.301 15.1296C225.301 23.6901 232.241 30.6296 240.801 30.6296C249.362 30.6296 256.301 23.6901 256.301 15.1296L244.801 -450.368C244.801 -458.929 251.741 -465.868 260.301 -465.868C268.862 -465.868 275.801 -458.929 275.801 -450.368L262.301 15.1296C262.301 23.6901 269.241 30.6296 277.801 30.6296C286.362 30.6296 293.301 23.6901 293.301 15.1296L281.801 -447.823V-450.368C281.801 -458.929 288.741 -465.868 297.301 -465.868C305.862 -465.868 312.801 -458.929 312.801 -450.368V-442.495M3.59059 18.1261C3.4007 17.1566 3.30118 16.1547 3.30118 15.1296" stroke="#0178D5" stroke-width="4" stroke-linecap="round" stroke-linejoin="round"/>
</g>
<defs>
<clipPath id="clip0_2518_4545">
<rect width="407" height="501" fill="white" transform="translate(-92 -468.026)"/>
</clipPath>
</defs>
</svg>
