<svg width="19" height="33" viewBox="0 0 19 33" fill="none" xmlns="http://www.w3.org/2000/svg">
<g clip-path="url(#clip0_2518_4545)">
<path d="M-200.508 18.6318C-197.663 9.6605 -192.259 3.13184 -183.699 3.13184C-175.138 3.13184 -168.199 10.0714 -168.199 18.6318L-181.699 484.13C-181.699 492.69 -174.759 499.63 -166.199 499.63C-157.638 499.63 -150.699 492.69 -150.699 484.13L-162.199 18.6318C-162.199 10.0714 -155.259 3.13184 -146.699 3.13184C-138.138 3.13184 -131.199 10.0714 -131.199 18.6318L-144.699 484.13C-144.699 492.69 -137.759 499.63 -129.199 499.63C-120.954 499.63 -114.213 493.193 -113.727 485.071M-113.699 484.13C-113.699 484.446 -113.708 484.759 -113.727 485.071M-113.727 485.071L-125.199 18.6318C-125.199 10.0714 -118.259 3.13184 -109.699 3.13184C-101.138 3.13184 -94.1988 10.0714 -94.1988 18.6318L-107.409 487.126M-107.409 487.126C-106.014 494.253 -99.7341 499.63 -92.1988 499.63C-83.6384 499.63 -76.6988 492.69 -76.6988 484.13L-88.1988 18.6318C-88.1988 10.0714 -81.2592 3.13184 -72.6988 3.13184C-64.1384 3.13184 -57.1988 10.0714 -57.1988 18.6318L-70.6988 484.13C-70.6988 492.69 -63.7592 499.63 -55.1988 499.63C-46.6384 499.63 -39.6988 492.69 -39.6988 484.13L-51.1988 18.6318C-51.1988 10.0714 -44.2592 3.13184 -35.6988 3.13184C-27.1384 3.13184 -20.1988 10.0714 -20.1988 18.6318L-33.6988 484.13C-33.6988 492.69 -26.7592 499.63 -18.1988 499.63C-9.63841 499.63 -2.69882 492.69 -2.69882 484.13L-14.1988 18.6318C-14.1988 10.0714 -7.25923 3.13184 1.30118 3.13184C9.86159 3.13184 16.8012 10.0714 16.8012 18.6318L3.30118 484.13C3.30118 492.69 10.2408 499.63 18.8012 499.63C27.3616 499.63 34.3012 492.69 34.3012 484.13L22.8012 18.6318C22.8012 10.0714 29.7408 3.13184 38.3012 3.13184C46.8616 3.13184 53.8012 10.0714 53.8012 18.6318L40.3012 484.13C40.3012 492.69 47.2408 499.63 55.8012 499.63C64.3616 499.63 71.3012 492.69 71.3012 484.13L59.8012 18.6318C59.8012 10.0714 66.7408 3.13184 75.3012 3.13184C83.8616 3.13184 90.8012 10.0714 90.8012 18.6318L77.3012 484.13C77.3012 492.69 84.2408 499.63 92.8012 499.63C101.362 499.63 108.301 492.69 108.301 484.13L96.8012 18.6318C96.8012 10.0714 103.741 3.13184 112.301 3.13184C120.862 3.13184 127.801 10.0714 127.801 18.6318L114.301 484.13C114.301 492.69 121.241 499.63 129.801 499.63C138.362 499.63 145.301 492.69 145.301 484.13L133.801 18.6318C133.801 10.0714 140.741 3.13184 149.301 3.13184C157.862 3.13184 164.801 10.0714 164.801 18.6318L151.301 484.13C151.301 492.69 158.241 499.63 166.801 499.63C175.362 499.63 182.301 492.69 182.301 484.13L170.801 21.1767V18.6318C170.801 10.0714 177.741 3.13184 186.301 3.13184C194.862 3.13184 201.801 10.0714 201.801 18.6318V26.5048M-107.409 487.126C-107.599 486.157 -107.699 485.155 -107.699 484.13" stroke="#0178D5" stroke-width="4" stroke-linecap="round" stroke-linejoin="round"/>
</g>
<defs>
<clipPath id="clip0_2518_4545">
<rect width="407" height="501" fill="white" transform="translate(-203 0.973633)"/>
</clipPath>
</defs>
</svg>
