<svg width="19" height="437" viewBox="0 0 19 437" fill="none" xmlns="http://www.w3.org/2000/svg">
<g clip-path="url(#clip0_2518_4545)">
<path d="M-311.508 -13.3682C-308.663 -22.3395 -303.259 -28.8682 -294.699 -28.8682C-286.138 -28.8682 -279.199 -21.9286 -279.199 -13.3682L-292.699 452.13C-292.699 460.69 -285.759 467.63 -277.199 467.63C-268.638 467.63 -261.699 460.69 -261.699 452.13L-273.199 -13.3682C-273.199 -21.9286 -266.259 -28.8682 -257.699 -28.8682C-249.138 -28.8682 -242.199 -21.9286 -242.199 -13.3682L-255.699 452.13C-255.699 460.69 -248.759 467.63 -240.199 467.63C-231.954 467.63 -225.213 461.193 -224.727 453.071M-224.699 452.13C-224.699 452.446 -224.708 452.759 -224.727 453.071M-224.727 453.071L-236.199 -13.3682C-236.199 -21.9286 -229.259 -28.8682 -220.699 -28.8682C-212.138 -28.8682 -205.199 -21.9286 -205.199 -13.3682L-218.409 455.126M-218.409 455.126C-217.014 462.253 -210.734 467.63 -203.199 467.63C-194.638 467.63 -187.699 460.69 -187.699 452.13L-199.199 -13.3682C-199.199 -21.9286 -192.259 -28.8682 -183.699 -28.8682C-175.138 -28.8682 -168.199 -21.9286 -168.199 -13.3682L-181.699 452.13C-181.699 460.69 -174.759 467.63 -166.199 467.63C-157.638 467.63 -150.699 460.69 -150.699 452.13L-162.199 -13.3682C-162.199 -21.9286 -155.259 -28.8682 -146.699 -28.8682C-138.138 -28.8682 -131.199 -21.9286 -131.199 -13.3682L-144.699 452.13C-144.699 460.69 -137.759 467.63 -129.199 467.63C-120.638 467.63 -113.699 460.69 -113.699 452.13L-125.199 -13.3682C-125.199 -21.9286 -118.259 -28.8682 -109.699 -28.8682C-101.138 -28.8682 -94.1988 -21.9286 -94.1988 -13.3682L-107.699 452.13C-107.699 460.69 -100.759 467.63 -92.1988 467.63C-83.6384 467.63 -76.6988 460.69 -76.6988 452.13L-88.1988 -13.3682C-88.1988 -21.9286 -81.2592 -28.8682 -72.6988 -28.8682C-64.1384 -28.8682 -57.1988 -21.9286 -57.1988 -13.3682L-70.6988 452.13C-70.6988 460.69 -63.7592 467.63 -55.1988 467.63C-46.6384 467.63 -39.6988 460.69 -39.6988 452.13L-51.1988 -13.3682C-51.1988 -21.9286 -44.2592 -28.8682 -35.6988 -28.8682C-27.1384 -28.8682 -20.1988 -21.9286 -20.1988 -13.3682L-33.6988 452.13C-33.6988 460.69 -26.7592 467.63 -18.1988 467.63C-9.6384 467.63 -2.69882 460.69 -2.69882 452.13L-14.1988 -13.3682C-14.1988 -21.9286 -7.25925 -28.8682 1.30118 -28.8682C9.8616 -28.8682 16.8012 -21.9286 16.8012 -13.3682L3.30118 452.13C3.30118 460.69 10.2408 467.63 18.8012 467.63C27.3616 467.63 34.3012 460.69 34.3012 452.13L22.8012 -13.3682C22.8012 -21.9286 29.7408 -28.8682 38.3012 -28.8682C46.8616 -28.8682 53.8012 -21.9286 53.8012 -13.3682L40.3012 452.13C40.3012 460.69 47.2408 467.63 55.8012 467.63C64.3616 467.63 71.3012 460.69 71.3012 452.13L59.8012 -10.8233V-13.3682C59.8012 -21.9286 66.7408 -28.8682 75.3012 -28.8682C83.8616 -28.8682 90.8012 -21.9286 90.8012 -13.3682V-5.49523M-218.409 455.126C-218.599 454.157 -218.699 453.155 -218.699 452.13" stroke="#0178D5" stroke-width="4" stroke-linecap="round" stroke-linejoin="round"/>
</g>
<defs>
<clipPath id="clip0_2518_4545">
<rect width="407" height="501" fill="white" transform="translate(-314 -31.0264)"/>
</clipPath>
</defs>
</svg>
