<svg width="19" height="33" viewBox="0 0 19 33" fill="none" xmlns="http://www.w3.org/2000/svg">
<g clip-path="url(#clip0_2518_4545)">
<path d="M-71.5078 -450.368C-68.663 -459.339 -63.2592 -465.868 -54.6988 -465.868C-46.1384 -465.868 -39.1988 -458.929 -39.1988 -450.368L-52.6988 15.1296C-52.6988 23.69 -45.7592 30.6296 -37.1988 30.6296C-28.6384 30.6296 -21.6988 23.69 -21.6988 15.1296L-33.1988 -450.368C-33.1988 -458.929 -26.2592 -465.868 -17.6988 -465.868C-9.13841 -465.868 -2.19882 -458.929 -2.19882 -450.368L-15.6988 15.1296C-15.6988 23.69 -8.75924 30.6296 -0.198822 30.6296C8.04555 30.6296 14.7866 24.193 15.2731 16.0708M15.3012 15.1296C15.3012 15.4456 15.2917 15.7595 15.2731 16.0708M15.2731 16.0708L3.80118 -450.368C3.80118 -458.929 10.7408 -465.868 19.3012 -465.868C27.8616 -465.868 34.8012 -458.929 34.8012 -450.368L21.5906 18.1261M21.5906 18.1261C22.9865 25.2526 29.2659 30.6296 36.8012 30.6296C45.3616 30.6296 52.3012 23.69 52.3012 15.1296L40.8012 -450.368C40.8012 -458.929 47.7408 -465.868 56.3012 -465.868C64.8616 -465.868 71.8012 -458.929 71.8012 -450.368L58.3012 15.1296C58.3012 23.69 65.2408 30.6296 73.8012 30.6296C82.3616 30.6296 89.3012 23.69 89.3012 15.1296L77.8012 -450.368C77.8012 -458.929 84.7408 -465.868 93.3012 -465.868C101.862 -465.868 108.801 -458.929 108.801 -450.368L95.3012 15.1296C95.3012 23.69 102.241 30.6296 110.801 30.6296C119.362 30.6296 126.301 23.69 126.301 15.1296L114.801 -450.368C114.801 -458.929 121.741 -465.868 130.301 -465.868C138.862 -465.868 145.801 -458.929 145.801 -450.368L132.301 15.1296C132.301 23.69 139.241 30.6296 147.801 30.6296C156.362 30.6296 163.301 23.6901 163.301 15.1296L151.801 -450.368C151.801 -458.929 158.741 -465.868 167.301 -465.868C175.862 -465.868 182.801 -458.929 182.801 -450.368L169.301 15.1296C169.301 23.6901 176.241 30.6296 184.801 30.6296C193.362 30.6296 200.301 23.6901 200.301 15.1296L188.801 -450.368C188.801 -458.929 195.741 -465.868 204.301 -465.868C212.862 -465.868 219.801 -458.929 219.801 -450.368L206.301 15.1296C206.301 23.6901 213.241 30.6296 221.801 30.6296C230.362 30.6296 237.301 23.6901 237.301 15.1296L225.801 -450.368C225.801 -458.929 232.741 -465.868 241.301 -465.868C249.862 -465.868 256.801 -458.929 256.801 -450.368L243.301 15.1296C243.301 23.6901 250.241 30.6296 258.801 30.6296C267.362 30.6296 274.301 23.6901 274.301 15.1296L262.801 -450.368C262.801 -458.929 269.741 -465.868 278.301 -465.868C286.862 -465.868 293.801 -458.929 293.801 -450.368L280.301 15.1296C280.301 23.6901 287.241 30.6296 295.801 30.6296C304.362 30.6296 311.301 23.6901 311.301 15.1296L299.801 -447.823V-450.368C299.801 -458.929 306.741 -465.868 315.301 -465.868C323.862 -465.868 330.801 -458.929 330.801 -450.368V-442.495M21.5906 18.1261C21.4007 17.1566 21.3012 16.1547 21.3012 15.1296" stroke="#0178D5" stroke-width="4" stroke-linecap="round" stroke-linejoin="round"/>
</g>
<defs>
<clipPath id="clip0_2518_4545">
<rect width="407" height="501" fill="white" transform="translate(-74 -468.026)"/>
</clipPath>
</defs>
</svg>
