<svg width="19" height="33" viewBox="0 0 19 33" fill="none" xmlns="http://www.w3.org/2000/svg">
<g clip-path="url(#clip0_2518_4545)">
<path d="M-237.508 -450.368C-234.663 -459.339 -229.259 -465.868 -220.699 -465.868C-212.138 -465.868 -205.199 -458.929 -205.199 -450.368L-218.699 15.1296C-218.699 23.69 -211.759 30.6296 -203.199 30.6296C-194.638 30.6296 -187.699 23.69 -187.699 15.1296L-199.199 -450.368C-199.199 -458.929 -192.259 -465.868 -183.699 -465.868C-175.138 -465.868 -168.199 -458.929 -168.199 -450.368L-181.699 15.1296C-181.699 23.69 -174.759 30.6296 -166.199 30.6296C-157.954 30.6296 -151.213 24.193 -150.727 16.0708M-150.699 15.1296C-150.699 15.4456 -150.708 15.7595 -150.727 16.0708M-150.727 16.0708L-162.199 -450.368C-162.199 -458.929 -155.259 -465.868 -146.699 -465.868C-138.138 -465.868 -131.199 -458.929 -131.199 -450.368L-144.409 18.1261M-144.409 18.1261C-143.014 25.2526 -136.734 30.6296 -129.199 30.6296C-120.638 30.6296 -113.699 23.69 -113.699 15.1296L-125.199 -450.368C-125.199 -458.929 -118.259 -465.868 -109.699 -465.868C-101.138 -465.868 -94.1988 -458.929 -94.1988 -450.368L-107.699 15.1296C-107.699 23.69 -100.759 30.6296 -92.1988 30.6296C-83.6384 30.6296 -76.6988 23.69 -76.6988 15.1296L-88.1988 -450.368C-88.1988 -458.929 -81.2592 -465.868 -72.6988 -465.868C-64.1384 -465.868 -57.1988 -458.929 -57.1988 -450.368L-70.6988 15.1296C-70.6988 23.69 -63.7592 30.6296 -55.1988 30.6296C-46.6384 30.6296 -39.6988 23.69 -39.6988 15.1296L-51.1988 -450.368C-51.1988 -458.929 -44.2592 -465.868 -35.6988 -465.868C-27.1384 -465.868 -20.1988 -458.929 -20.1988 -450.368L-33.6988 15.1296C-33.6988 23.69 -26.7592 30.6296 -18.1988 30.6296C-9.63841 30.6296 -2.69882 23.6901 -2.69882 15.1296L-14.1988 -450.368C-14.1988 -458.929 -7.25923 -465.868 1.30118 -465.868C9.86159 -465.868 16.8012 -458.929 16.8012 -450.368L3.30118 15.1296C3.30118 23.6901 10.2408 30.6296 18.8012 30.6296C27.3616 30.6296 34.3012 23.6901 34.3012 15.1296L22.8012 -450.368C22.8012 -458.929 29.7408 -465.868 38.3012 -465.868C46.8616 -465.868 53.8012 -458.929 53.8012 -450.368L40.3012 15.1296C40.3012 23.6901 47.2408 30.6296 55.8012 30.6296C64.3616 30.6296 71.3012 23.6901 71.3012 15.1296L59.8012 -450.368C59.8012 -458.929 66.7408 -465.868 75.3012 -465.868C83.8616 -465.868 90.8012 -458.929 90.8012 -450.368L77.3012 15.1296C77.3012 23.6901 84.2408 30.6296 92.8012 30.6296C101.362 30.6296 108.301 23.6901 108.301 15.1296L96.8012 -450.368C96.8012 -458.929 103.741 -465.868 112.301 -465.868C120.862 -465.868 127.801 -458.929 127.801 -450.368L114.301 15.1296C114.301 23.6901 121.241 30.6296 129.801 30.6296C138.362 30.6296 145.301 23.6901 145.301 15.1296L133.801 -447.823V-450.368C133.801 -458.929 140.741 -465.868 149.301 -465.868C157.862 -465.868 164.801 -458.929 164.801 -450.368V-442.495M-144.409 18.1261C-144.599 17.1566 -144.699 16.1547 -144.699 15.1296" stroke="#0178D5" stroke-width="4" stroke-linecap="round" stroke-linejoin="round"/>
</g>
<defs>
<clipPath id="clip0_2518_4545">
<rect width="407" height="501" fill="white" transform="translate(-240 -468.026)"/>
</clipPath>
</defs>
</svg>
