<svg width="19" height="39" viewBox="0 0 19 39" fill="none" xmlns="http://www.w3.org/2000/svg">
<g clip-path="url(#clip0_2518_4545)">
<path d="M-385.508 18.6318C-382.663 9.6605 -377.259 3.13184 -368.699 3.13184C-360.138 3.13184 -353.199 10.0714 -353.199 18.6318L-366.699 484.13C-366.699 492.69 -359.759 499.63 -351.199 499.63C-342.638 499.63 -335.699 492.69 -335.699 484.13L-347.199 18.6318C-347.199 10.0714 -340.259 3.13184 -331.699 3.13184C-323.138 3.13184 -316.199 10.0714 -316.199 18.6318L-329.699 484.13C-329.699 492.69 -322.759 499.63 -314.199 499.63C-305.954 499.63 -299.213 493.193 -298.727 485.071M-298.699 484.13C-298.699 484.446 -298.708 484.759 -298.727 485.071M-298.727 485.071L-310.199 18.6318C-310.199 10.0714 -303.259 3.13184 -294.699 3.13184C-286.138 3.13184 -279.199 10.0714 -279.199 18.6318L-292.409 487.126M-292.409 487.126C-291.014 494.253 -284.734 499.63 -277.199 499.63C-268.638 499.63 -261.699 492.69 -261.699 484.13L-273.199 18.6318C-273.199 10.0714 -266.259 3.13184 -257.699 3.13184C-249.138 3.13184 -242.199 10.0714 -242.199 18.6318L-255.699 484.13C-255.699 492.69 -248.759 499.63 -240.199 499.63C-231.638 499.63 -224.699 492.69 -224.699 484.13L-236.199 18.6318C-236.199 10.0714 -229.259 3.13184 -220.699 3.13184C-212.138 3.13184 -205.199 10.0714 -205.199 18.6318L-218.699 484.13C-218.699 492.69 -211.759 499.63 -203.199 499.63C-194.638 499.63 -187.699 492.69 -187.699 484.13L-199.199 18.6318C-199.199 10.0714 -192.259 3.13184 -183.699 3.13184C-175.138 3.13184 -168.199 10.0714 -168.199 18.6318L-181.699 484.13C-181.699 492.69 -174.759 499.63 -166.199 499.63C-157.638 499.63 -150.699 492.69 -150.699 484.13L-162.199 18.6318C-162.199 10.0714 -155.259 3.13184 -146.699 3.13184C-138.138 3.13184 -131.199 10.0714 -131.199 18.6318L-144.699 484.13C-144.699 492.69 -137.759 499.63 -129.199 499.63C-120.638 499.63 -113.699 492.69 -113.699 484.13L-125.199 18.6318C-125.199 10.0714 -118.259 3.13184 -109.699 3.13184C-101.138 3.13184 -94.1988 10.0714 -94.1988 18.6318L-107.699 484.13C-107.699 492.69 -100.759 499.63 -92.1988 499.63C-83.6384 499.63 -76.6988 492.69 -76.6988 484.13L-88.1988 18.6318C-88.1988 10.0714 -81.2592 3.13184 -72.6988 3.13184C-64.1384 3.13184 -57.1988 10.0714 -57.1988 18.6318L-70.6988 484.13C-70.6988 492.69 -63.7592 499.63 -55.1988 499.63C-46.6384 499.63 -39.6988 492.69 -39.6988 484.13L-51.1988 18.6318C-51.1988 10.0714 -44.2592 3.13184 -35.6988 3.13184C-27.1384 3.13184 -20.1988 10.0714 -20.1988 18.6318L-33.6988 484.13C-33.6988 492.69 -26.7592 499.63 -18.1988 499.63C-9.6384 499.63 -2.69882 492.69 -2.69882 484.13L-14.1988 21.1767V18.6318C-14.1988 10.0714 -7.25925 3.13184 1.30118 3.13184C9.8616 3.13184 16.8012 10.0714 16.8012 18.6318V26.5048M-292.409 487.126C-292.599 486.157 -292.699 485.155 -292.699 484.13" stroke="#0178D5" stroke-width="4" stroke-linecap="round" stroke-linejoin="round"/>
</g>
<defs>
<clipPath id="clip0_2518_4545">
<rect width="407" height="501" fill="white" transform="translate(-388 0.973633)"/>
</clipPath>
</defs>
</svg>
