<svg width="19" height="437" viewBox="0 0 19 437" fill="none" xmlns="http://www.w3.org/2000/svg">
<g clip-path="url(#clip0_2518_4545)">
<path d="M-256.508 -13.3682C-253.663 -22.3395 -248.259 -28.8682 -239.699 -28.8682C-231.138 -28.8682 -224.199 -21.9286 -224.199 -13.3682L-237.699 452.13C-237.699 460.69 -230.759 467.63 -222.199 467.63C-213.638 467.63 -206.699 460.69 -206.699 452.13L-218.199 -13.3682C-218.199 -21.9286 -211.259 -28.8682 -202.699 -28.8682C-194.138 -28.8682 -187.199 -21.9286 -187.199 -13.3682L-200.699 452.13C-200.699 460.69 -193.759 467.63 -185.199 467.63C-176.954 467.63 -170.213 461.193 -169.727 453.071M-169.699 452.13C-169.699 452.446 -169.708 452.759 -169.727 453.071M-169.727 453.071L-181.199 -13.3682C-181.199 -21.9286 -174.259 -28.8682 -165.699 -28.8682C-157.138 -28.8682 -150.199 -21.9286 -150.199 -13.3682L-163.409 455.126M-163.409 455.126C-162.014 462.253 -155.734 467.63 -148.199 467.63C-139.638 467.63 -132.699 460.69 -132.699 452.13L-144.199 -13.3682C-144.199 -21.9286 -137.259 -28.8682 -128.699 -28.8682C-120.138 -28.8682 -113.199 -21.9286 -113.199 -13.3682L-126.699 452.13C-126.699 460.69 -119.759 467.63 -111.199 467.63C-102.638 467.63 -95.6988 460.69 -95.6988 452.13L-107.199 -13.3682C-107.199 -21.9286 -100.259 -28.8682 -91.6988 -28.8682C-83.1384 -28.8682 -76.1988 -21.9286 -76.1988 -13.3682L-89.6988 452.13C-89.6988 460.69 -82.7592 467.63 -74.1988 467.63C-65.6384 467.63 -58.6988 460.69 -58.6988 452.13L-70.1988 -13.3682C-70.1988 -21.9286 -63.2592 -28.8682 -54.6988 -28.8682C-46.1384 -28.8682 -39.1988 -21.9286 -39.1988 -13.3682L-52.6988 452.13C-52.6988 460.69 -45.7592 467.63 -37.1988 467.63C-28.6384 467.63 -21.6988 460.69 -21.6988 452.13L-33.1988 -13.3682C-33.1988 -21.9286 -26.2592 -28.8682 -17.6988 -28.8682C-9.13841 -28.8682 -2.19882 -21.9286 -2.19882 -13.3682L-15.6988 452.13C-15.6988 460.69 -8.75923 467.63 -0.198822 467.63C8.3616 467.63 15.3012 460.69 15.3012 452.13L3.80118 -13.3682C3.80118 -21.9286 10.7408 -28.8682 19.3012 -28.8682C27.8616 -28.8682 34.8012 -21.9286 34.8012 -13.3682L21.3012 452.13C21.3012 460.69 28.2408 467.63 36.8012 467.63C45.3616 467.63 52.3012 460.69 52.3012 452.13L40.8012 -13.3682C40.8012 -21.9286 47.7408 -28.8682 56.3012 -28.8682C64.8616 -28.8682 71.8012 -21.9286 71.8012 -13.3682L58.3012 452.13C58.3012 460.69 65.2408 467.63 73.8012 467.63C82.3616 467.63 89.3012 460.69 89.3012 452.13L77.8012 -13.3682C77.8012 -21.9286 84.7408 -28.8682 93.3012 -28.8682C101.862 -28.8682 108.801 -21.9286 108.801 -13.3682L95.3012 452.13C95.3012 460.69 102.241 467.63 110.801 467.63C119.362 467.63 126.301 460.69 126.301 452.13L114.801 -10.8233V-13.3682C114.801 -21.9286 121.741 -28.8682 130.301 -28.8682C138.862 -28.8682 145.801 -21.9286 145.801 -13.3682V-5.49523M-163.409 455.126C-163.599 454.157 -163.699 453.155 -163.699 452.13" stroke="#0178D5" stroke-width="4" stroke-linecap="round" stroke-linejoin="round"/>
</g>
<defs>
<clipPath id="clip0_2518_4545">
<rect width="407" height="501" fill="white" transform="translate(-259 -31.0264)"/>
</clipPath>
</defs>
</svg>
