<svg width="20" height="33" viewBox="0 0 20 33" fill="none" xmlns="http://www.w3.org/2000/svg">
<g clip-path="url(#clip0_2518_4545)">
<path d="M-52.5078 18.6318C-49.663 9.6605 -44.2592 3.13184 -35.6988 3.13184C-27.1384 3.13184 -20.1988 10.0714 -20.1988 18.6318L-33.6988 484.13C-33.6988 492.69 -26.7592 499.63 -18.1988 499.63C-9.63841 499.63 -2.69882 492.69 -2.69882 484.13L-14.1988 18.6318C-14.1988 10.0714 -7.25924 3.13184 1.30118 3.13184C9.86159 3.13184 16.8012 10.0714 16.8012 18.6318L3.30118 484.13C3.30118 492.69 10.2408 499.63 18.8012 499.63C27.0455 499.63 33.7866 493.193 34.2731 485.071M34.3012 484.13C34.3012 484.446 34.2917 484.759 34.2731 485.071M34.2731 485.071L22.8012 18.6318C22.8012 10.0714 29.7408 3.13184 38.3012 3.13184C46.8616 3.13184 53.8012 10.0714 53.8012 18.6318L40.5906 487.126M40.5906 487.126C41.9865 494.253 48.2659 499.63 55.8012 499.63C64.3616 499.63 71.3012 492.69 71.3012 484.13L59.8012 18.6318C59.8012 10.0714 66.7408 3.13184 75.3012 3.13184C83.8616 3.13184 90.8012 10.0714 90.8012 18.6318L77.3012 484.13C77.3012 492.69 84.2408 499.63 92.8012 499.63C101.362 499.63 108.301 492.69 108.301 484.13L96.8012 18.6318C96.8012 10.0714 103.741 3.13184 112.301 3.13184C120.862 3.13184 127.801 10.0714 127.801 18.6318L114.301 484.13C114.301 492.69 121.241 499.63 129.801 499.63C138.362 499.63 145.301 492.69 145.301 484.13L133.801 18.6318C133.801 10.0714 140.741 3.13184 149.301 3.13184C157.862 3.13184 164.801 10.0714 164.801 18.6318L151.301 484.13C151.301 492.69 158.241 499.63 166.801 499.63C175.362 499.63 182.301 492.69 182.301 484.13L170.801 18.6318C170.801 10.0714 177.741 3.13184 186.301 3.13184C194.862 3.13184 201.801 10.0714 201.801 18.6318L188.301 484.13C188.301 492.69 195.241 499.63 203.801 499.63C212.362 499.63 219.301 492.69 219.301 484.13L207.801 18.6318C207.801 10.0714 214.741 3.13184 223.301 3.13184C231.862 3.13184 238.801 10.0714 238.801 18.6318L225.301 484.13C225.301 492.69 232.241 499.63 240.801 499.63C249.362 499.63 256.301 492.69 256.301 484.13L244.801 18.6318C244.801 10.0714 251.741 3.13184 260.301 3.13184C268.862 3.13184 275.801 10.0714 275.801 18.6318L262.301 484.13C262.301 492.69 269.241 499.63 277.801 499.63C286.362 499.63 293.301 492.69 293.301 484.13L281.801 18.6318C281.801 10.0714 288.741 3.13184 297.301 3.13184C305.862 3.13184 312.801 10.0714 312.801 18.6318L299.301 484.13C299.301 492.69 306.241 499.63 314.801 499.63C323.362 499.63 330.301 492.69 330.301 484.13L318.801 21.1767V18.6318C318.801 10.0714 325.741 3.13184 334.301 3.13184C342.862 3.13184 349.801 10.0714 349.801 18.6318V26.5048M40.5906 487.126C40.4007 486.157 40.3012 485.155 40.3012 484.13" stroke="#0178D5" stroke-width="4" stroke-linecap="round" stroke-linejoin="round"/>
</g>
<defs>
<clipPath id="clip0_2518_4545">
<rect width="407" height="501" fill="white" transform="translate(-55 0.973633)"/>
</clipPath>
</defs>
</svg>
