<svg width="20" height="437" viewBox="0 0 20 437" fill="none" xmlns="http://www.w3.org/2000/svg">
<g clip-path="url(#clip0_2518_4545)">
<path d="M-163.508 -13.3682C-160.663 -22.3395 -155.259 -28.8682 -146.699 -28.8682C-138.138 -28.8682 -131.199 -21.9286 -131.199 -13.3682L-144.699 452.13C-144.699 460.69 -137.759 467.63 -129.199 467.63C-120.638 467.63 -113.699 460.69 -113.699 452.13L-125.199 -13.3682C-125.199 -21.9286 -118.259 -28.8682 -109.699 -28.8682C-101.138 -28.8682 -94.1988 -21.9286 -94.1988 -13.3682L-107.699 452.13C-107.699 460.69 -100.759 467.63 -92.1988 467.63C-83.9545 467.63 -77.2134 461.193 -76.7269 453.071M-76.6988 452.13C-76.6988 452.446 -76.7083 452.759 -76.7269 453.071M-76.7269 453.071L-88.1988 -13.3682C-88.1988 -21.9286 -81.2592 -28.8682 -72.6988 -28.8682C-64.1384 -28.8682 -57.1988 -21.9286 -57.1988 -13.3682L-70.4094 455.126M-70.4094 455.126C-69.0135 462.253 -62.7341 467.63 -55.1988 467.63C-46.6384 467.63 -39.6988 460.69 -39.6988 452.13L-51.1988 -13.3682C-51.1988 -21.9286 -44.2592 -28.8682 -35.6988 -28.8682C-27.1384 -28.8682 -20.1988 -21.9286 -20.1988 -13.3682L-33.6988 452.13C-33.6988 460.69 -26.7592 467.63 -18.1988 467.63C-9.63841 467.63 -2.69882 460.69 -2.69882 452.13L-14.1988 -13.3682C-14.1988 -21.9286 -7.25923 -28.8682 1.30118 -28.8682C9.86159 -28.8682 16.8012 -21.9286 16.8012 -13.3682L3.30118 452.13C3.30118 460.69 10.2408 467.63 18.8012 467.63C27.3616 467.63 34.3012 460.69 34.3012 452.13L22.8012 -13.3682C22.8012 -21.9286 29.7408 -28.8682 38.3012 -28.8682C46.8616 -28.8682 53.8012 -21.9286 53.8012 -13.3682L40.3012 452.13C40.3012 460.69 47.2408 467.63 55.8012 467.63C64.3616 467.63 71.3012 460.69 71.3012 452.13L59.8012 -13.3682C59.8012 -21.9286 66.7408 -28.8682 75.3012 -28.8682C83.8616 -28.8682 90.8012 -21.9286 90.8012 -13.3682L77.3012 452.13C77.3012 460.69 84.2408 467.63 92.8012 467.63C101.362 467.63 108.301 460.69 108.301 452.13L96.8012 -13.3682C96.8012 -21.9286 103.741 -28.8682 112.301 -28.8682C120.862 -28.8682 127.801 -21.9286 127.801 -13.3682L114.301 452.13C114.301 460.69 121.241 467.63 129.801 467.63C138.362 467.63 145.301 460.69 145.301 452.13L133.801 -13.3682C133.801 -21.9286 140.741 -28.8682 149.301 -28.8682C157.862 -28.8682 164.801 -21.9286 164.801 -13.3682L151.301 452.13C151.301 460.69 158.241 467.63 166.801 467.63C175.362 467.63 182.301 460.69 182.301 452.13L170.801 -13.3682C170.801 -21.9286 177.741 -28.8682 186.301 -28.8682C194.862 -28.8682 201.801 -21.9286 201.801 -13.3682L188.301 452.13C188.301 460.69 195.241 467.63 203.801 467.63C212.362 467.63 219.301 460.69 219.301 452.13L207.801 -10.8233V-13.3682C207.801 -21.9286 214.741 -28.8682 223.301 -28.8682C231.862 -28.8682 238.801 -21.9286 238.801 -13.3682V-5.49523M-70.4094 455.126C-70.5993 454.157 -70.6988 453.155 -70.6988 452.13" stroke="#0178D5" stroke-width="4" stroke-linecap="round" stroke-linejoin="round"/>
</g>
<defs>
<clipPath id="clip0_2518_4545">
<rect width="407" height="501" fill="white" transform="translate(-166 -31.0264)"/>
</clipPath>
</defs>
</svg>
