<svg width="13" height="250" viewBox="0 0 13 250" fill="none" xmlns="http://www.w3.org/2000/svg">
<g clip-path="url(#clip0_2515_431)">
<path d="M-42.3038 255.047C-42.3038 255.148 -42.3068 255.248 -42.3128 255.347M-42.3128 255.347C-42.468 257.939 -44.6187 259.992 -47.249 259.992C-49.9802 259.992 -52.1943 257.778 -52.1943 255.047L-47.8871 -4.46907C-47.8871 -7.20025 -50.1012 -9.41431 -52.8324 -9.41431C-55.5635 -9.41431 -57.7776 -7.20025 -57.7776 -4.46907L-54.1086 255.047C-54.1086 257.778 -56.3226 259.992 -59.0538 259.992C-61.785 259.992 -63.999 257.778 -63.999 255.047L-59.6919 -4.46907C-59.6919 -7.20025 -61.906 -9.41431 -64.6371 -9.41431C-66.9835 -9.41431 -68.5866 -7.87695 -69.5672 -5.62884C-69.8953 -4.87681 -70 -4.05151 -70 -3.23105V-0.0696888M-42.3128 255.347L-45.9728 -4.46907C-45.9728 -7.20025 -43.7588 -9.41431 -41.0276 -9.41431C-38.2964 -9.41431 -36.0824 -7.20025 -36.0824 -4.46907L-40.2972 256.003M-40.2972 256.003C-39.8518 258.277 -37.8484 259.992 -35.4443 259.992C-32.7131 259.992 -30.499 257.778 -30.499 255.047L-34.1681 -4.46907C-34.1681 -7.20025 -31.954 -9.41431 -29.2228 -9.41431C-26.4917 -9.41431 -24.2776 -7.20025 -24.2776 -4.46907L-28.5848 255.047C-28.5848 257.778 -26.3707 259.992 -23.6395 259.992C-20.9083 259.992 -18.6943 257.778 -18.6943 255.047L-22.3633 -4.46907C-22.3633 -7.20025 -20.1493 -9.41431 -17.4181 -9.41431C-14.6869 -9.41431 -12.4728 -7.20025 -12.4728 -4.46907L-16.78 255.047C-16.78 257.778 -14.5659 259.992 -11.8347 259.992C-9.10357 259.992 -6.88951 257.778 -6.88951 255.047L-10.5586 -4.46907C-10.5586 -7.20025 -8.3445 -9.41431 -5.61332 -9.41431C-2.88214 -9.41431 -0.668083 -7.20025 -0.668083 -4.46907L-4.97523 255.047C-4.97523 257.778 -2.76116 259.992 -0.0299835 259.992C2.70119 259.992 4.91525 257.778 4.91525 255.047L1.2462 -4.46907C1.2462 -7.20025 3.46027 -9.41431 6.19144 -9.41431C8.92262 -9.41431 11.1367 -7.20025 11.1367 -4.46907L6.82954 255.047C6.82954 257.778 9.04359 259.992 11.7748 259.992C14.506 259.992 16.72 257.778 16.72 255.047L13.051 -4.46907C13.051 -7.20025 15.265 -9.41431 17.9962 -9.41431C20.7274 -9.41431 22.9414 -7.20025 22.9414 -4.46907L18.6343 255.047C18.6343 257.778 20.8484 259.992 23.5795 259.992C26.3107 259.992 28.5248 257.778 28.5248 255.047L24.8557 -4.46907C24.8557 -7.20025 27.0698 -9.41431 29.801 -9.41431C32.5321 -9.41431 34.7462 -7.20025 34.7462 -4.46907L30.4391 255.047C30.4391 257.778 32.6531 259.992 35.3843 259.992C38.1155 259.992 40.3295 257.778 40.3295 255.047L36.6605 -4.46907C36.6605 -7.20025 38.8745 -9.41431 41.6057 -9.41431C44.3369 -9.41431 46.551 -7.20025 46.551 -4.46907L42.2438 255.047C42.2438 257.778 44.4579 259.992 47.1891 259.992C49.9202 259.992 52.1343 257.778 52.1343 255.047V-3.65714V-4.46907C52.1343 -7.20025 54.3484 -9.41431 57.0795 -9.41431C59.8107 -9.41431 62.0248 -7.20025 62.0248 -4.46907V-1.95723M-40.2972 256.003C-40.3578 255.694 -40.3895 255.374 -40.3895 255.047" stroke="#0178D5" stroke-width="2" stroke-linecap="round" stroke-linejoin="round"/>
</g>
<defs>
<clipPath id="clip0_2515_431">
<rect width="134.02" height="272" fill="white" transform="translate(-71 -10.5)"/>
</clipPath>
</defs>
</svg>
