<svg width="13" height="13" viewBox="0 0 13 13" fill="none" xmlns="http://www.w3.org/2000/svg">
<g clip-path="url(#clip0_2515_431)">
<path d="M-18.3038 6.04688C-18.3038 6.14771 -18.3068 6.24783 -18.3128 6.34717M-18.3128 6.34717C-18.468 8.93851 -20.6187 10.9921 -23.249 10.9921C-25.9802 10.9921 -28.1943 8.77806 -28.1943 6.04688L-23.8871 -253.469C-23.8871 -256.2 -26.1012 -258.414 -28.8324 -258.414C-31.5635 -258.414 -33.7776 -256.2 -33.7776 -253.469L-30.1086 6.04688C-30.1086 8.77806 -32.3226 10.9921 -35.0538 10.9921C-37.785 10.9921 -39.999 8.77806 -39.999 6.04688L-35.6919 -253.469C-35.6919 -256.2 -37.906 -258.414 -40.6371 -258.414C-42.9835 -258.414 -44.5866 -256.877 -45.5672 -254.629C-45.8953 -253.877 -46 -253.052 -46 -252.231V-249.07M-18.3128 6.34717L-21.9728 -253.469C-21.9728 -256.2 -19.7588 -258.414 -17.0276 -258.414C-14.2964 -258.414 -12.0824 -256.2 -12.0824 -253.469L-16.2972 7.0029M-16.2972 7.0029C-15.8518 9.27658 -13.8484 10.9921 -11.4443 10.9921C-8.71309 10.9921 -6.49903 8.77806 -6.49903 6.04688L-10.1681 -253.469C-10.1681 -256.2 -7.95402 -258.414 -5.22284 -258.414C-2.49166 -258.414 -0.277607 -256.2 -0.277607 -253.469L-4.58475 6.04688C-4.58475 8.77806 -2.37069 10.9921 0.360489 10.9921C3.09167 10.9921 5.30573 8.77806 5.30573 6.04688L1.63668 -253.469C1.63668 -256.2 3.85074 -258.414 6.58192 -258.414C9.3131 -258.414 11.5272 -256.2 11.5272 -253.469L7.22001 6.04688C7.22001 8.77806 9.43407 10.9921 12.1653 10.9921C14.8964 10.9921 17.1105 8.77806 17.1105 6.04688L13.4414 -253.469C13.4414 -256.2 15.6555 -258.414 18.3867 -258.414C21.1179 -258.414 23.3319 -256.2 23.3319 -253.469L19.0248 6.04688C19.0248 8.77806 21.2388 10.9921 23.97 10.9921C26.7012 10.9921 28.9153 8.77806 28.9153 6.04688L25.2462 -253.469C25.2462 -256.2 27.4603 -258.414 30.1914 -258.414C32.9226 -258.414 35.1367 -256.2 35.1367 -253.469L30.8295 6.04688C30.8295 8.77806 33.0436 10.9921 35.7748 10.9921C38.506 10.9921 40.72 8.77806 40.72 6.04688L37.051 -253.469C37.051 -256.2 39.265 -258.414 41.9962 -258.414C44.7274 -258.414 46.9414 -256.2 46.9414 -253.469L42.6343 6.04688C42.6343 8.77806 44.8484 10.9921 47.5795 10.9921C50.3107 10.9921 52.5248 8.77806 52.5248 6.04688L48.8557 -253.469C48.8557 -256.2 51.0698 -258.414 53.801 -258.414C56.5321 -258.414 58.7462 -256.2 58.7462 -253.469L54.4391 6.04688C54.4391 8.77806 56.6531 10.9921 59.3843 10.9921C62.1155 10.9921 64.3295 8.77806 64.3295 6.04688L60.6605 -253.469C60.6605 -256.2 62.8745 -258.414 65.6057 -258.414C68.3369 -258.414 70.551 -256.2 70.551 -253.469L66.2438 6.04688C66.2438 8.77806 68.4579 10.9921 71.1891 10.9921C73.9202 10.9921 76.1343 8.77806 76.1343 6.04688V-252.657V-253.469C76.1343 -256.2 78.3484 -258.414 81.0795 -258.414C83.8107 -258.414 86.0248 -256.2 86.0248 -253.469V-250.957M-16.2972 7.0029C-16.3578 6.69359 -16.3895 6.37394 -16.3895 6.04688" stroke="#0178D5" stroke-width="2" stroke-linecap="round" stroke-linejoin="round"/>
</g>
<defs>
<clipPath id="clip0_2515_431">
<rect width="134.02" height="272" fill="white" transform="translate(-47 -259.5)"/>
</clipPath>
</defs>
</svg>
