<svg width="14" height="13" viewBox="0 0 14 13" fill="none" xmlns="http://www.w3.org/2000/svg">
<g clip-path="url(#clip0_2515_431)">
<path d="M-77.3038 6.04688C-77.3038 6.14771 -77.3068 6.24783 -77.3128 6.34717M-77.3128 6.34717C-77.468 8.93851 -79.6187 10.9921 -82.249 10.9921C-84.9802 10.9921 -87.1943 8.77806 -87.1943 6.04688L-82.8871 -253.469C-82.8871 -256.2 -85.1012 -258.414 -87.8324 -258.414C-90.5635 -258.414 -92.7776 -256.2 -92.7776 -253.469L-89.1086 6.04688C-89.1086 8.77806 -91.3226 10.9921 -94.0538 10.9921C-96.785 10.9921 -98.999 8.77806 -98.999 6.04688L-94.6919 -253.469C-94.6919 -256.2 -96.906 -258.414 -99.6371 -258.414C-101.984 -258.414 -103.587 -256.877 -104.567 -254.629C-104.895 -253.877 -105 -253.052 -105 -252.231V-249.07M-77.3128 6.34717L-80.9728 -253.469C-80.9728 -256.2 -78.7588 -258.414 -76.0276 -258.414C-73.2964 -258.414 -71.0824 -256.2 -71.0824 -253.469L-75.2972 7.0029M-75.2972 7.0029C-74.8518 9.27658 -72.8484 10.9921 -70.4443 10.9921C-67.7131 10.9921 -65.499 8.77806 -65.499 6.04688L-69.1681 -253.469C-69.1681 -256.2 -66.954 -258.414 -64.2228 -258.414C-61.4917 -258.414 -59.2776 -256.2 -59.2776 -253.469L-63.5848 6.04688C-63.5848 8.77806 -61.3707 10.9921 -58.6395 10.9921C-55.9083 10.9921 -53.6943 8.77806 -53.6943 6.04688L-57.3633 -253.469C-57.3633 -256.2 -55.1493 -258.414 -52.4181 -258.414C-49.6869 -258.414 -47.4728 -256.2 -47.4728 -253.469L-51.78 6.04688C-51.78 8.77806 -49.5659 10.9921 -46.8347 10.9921C-44.1036 10.9921 -41.8895 8.77806 -41.8895 6.04688L-45.5586 -253.469C-45.5586 -256.2 -43.3445 -258.414 -40.6133 -258.414C-37.8821 -258.414 -35.6681 -256.2 -35.6681 -253.469L-39.9752 6.04688C-39.9752 8.77806 -37.7612 10.9921 -35.03 10.9921C-32.2988 10.9921 -30.0847 8.77806 -30.0847 6.04688L-33.7538 -253.469C-33.7538 -256.2 -31.5397 -258.414 -28.8086 -258.414C-26.0774 -258.414 -23.8633 -256.2 -23.8633 -253.469L-28.1705 6.04688C-28.1705 8.77806 -25.9564 10.9921 -23.2252 10.9921C-20.494 10.9921 -18.28 8.77806 -18.28 6.04688L-21.949 -253.469C-21.949 -256.2 -19.735 -258.414 -17.0038 -258.414C-14.2726 -258.414 -12.0586 -256.2 -12.0586 -253.469L-16.3657 6.04688C-16.3657 8.77806 -14.1516 10.9921 -11.4205 10.9921C-8.68928 10.9921 -6.47522 8.77806 -6.47522 6.04688L-10.1443 -253.469C-10.1443 -256.2 -7.93022 -258.414 -5.19904 -258.414C-2.46785 -258.414 -0.253792 -256.2 -0.253792 -253.469L-4.56094 6.04688C-4.56094 8.77806 -2.34688 10.9921 0.3843 10.9921C3.11548 10.9921 5.32954 8.77806 5.32954 6.04688L1.66049 -253.469C1.66049 -256.2 3.87454 -258.414 6.60573 -258.414C9.33691 -258.414 11.551 -256.2 11.551 -253.469L7.24383 6.04688C7.24383 8.77806 9.45788 10.9921 12.1891 10.9921C14.9202 10.9921 17.1343 8.77806 17.1343 6.04688V-252.657V-253.469C17.1343 -256.2 19.3484 -258.414 22.0795 -258.414C24.8107 -258.414 27.0248 -256.2 27.0248 -253.469V-250.957M-75.2972 7.0029C-75.3578 6.69359 -75.3895 6.37394 -75.3895 6.04688" stroke="#0178D5" stroke-width="2" stroke-linecap="round" stroke-linejoin="round"/>
</g>
<defs>
<clipPath id="clip0_2515_431">
<rect width="134.02" height="272" fill="white" transform="translate(-106 -259.5)"/>
</clipPath>
</defs>
</svg>
