<svg width="13" height="13" viewBox="0 0 13 13" fill="none" xmlns="http://www.w3.org/2000/svg">
<g clip-path="url(#clip0_2515_431)">
<path d="M-42.3038 6.04688C-42.3038 6.14771 -42.3068 6.24783 -42.3128 6.34717M-42.3128 6.34717C-42.468 8.93851 -44.6187 10.9921 -47.249 10.9921C-49.9802 10.9921 -52.1943 8.77806 -52.1943 6.04688L-47.8871 -253.469C-47.8871 -256.2 -50.1012 -258.414 -52.8324 -258.414C-55.5635 -258.414 -57.7776 -256.2 -57.7776 -253.469L-54.1086 6.04688C-54.1086 8.77806 -56.3226 10.9921 -59.0538 10.9921C-61.785 10.9921 -63.999 8.77806 -63.999 6.04688L-59.6919 -253.469C-59.6919 -256.2 -61.906 -258.414 -64.6371 -258.414C-66.9835 -258.414 -68.5866 -256.877 -69.5672 -254.629C-69.8953 -253.877 -70 -253.052 -70 -252.231V-249.07M-42.3128 6.34717L-45.9728 -253.469C-45.9728 -256.2 -43.7588 -258.414 -41.0276 -258.414C-38.2964 -258.414 -36.0824 -256.2 -36.0824 -253.469L-40.2972 7.0029M-40.2972 7.0029C-39.8518 9.27658 -37.8484 10.9921 -35.4443 10.9921C-32.7131 10.9921 -30.499 8.77806 -30.499 6.04688L-34.1681 -253.469C-34.1681 -256.2 -31.954 -258.414 -29.2228 -258.414C-26.4917 -258.414 -24.2776 -256.2 -24.2776 -253.469L-28.5848 6.04688C-28.5848 8.77806 -26.3707 10.9921 -23.6395 10.9921C-20.9083 10.9921 -18.6943 8.77806 -18.6943 6.04688L-22.3633 -253.469C-22.3633 -256.2 -20.1493 -258.414 -17.4181 -258.414C-14.6869 -258.414 -12.4728 -256.2 -12.4728 -253.469L-16.78 6.04688C-16.78 8.77806 -14.5659 10.9921 -11.8347 10.9921C-9.10357 10.9921 -6.88951 8.77806 -6.88951 6.04688L-10.5586 -253.469C-10.5586 -256.2 -8.3445 -258.414 -5.61332 -258.414C-2.88214 -258.414 -0.668083 -256.2 -0.668083 -253.469L-4.97523 6.04688C-4.97523 8.77806 -2.76116 10.9921 -0.0299835 10.9921C2.70119 10.9921 4.91525 8.77806 4.91525 6.04688L1.2462 -253.469C1.2462 -256.2 3.46027 -258.414 6.19144 -258.414C8.92262 -258.414 11.1367 -256.2 11.1367 -253.469L6.82954 6.04688C6.82954 8.77806 9.04359 10.9921 11.7748 10.9921C14.506 10.9921 16.72 8.77806 16.72 6.04688L13.051 -253.469C13.051 -256.2 15.265 -258.414 17.9962 -258.414C20.7274 -258.414 22.9414 -256.2 22.9414 -253.469L18.6343 6.04688C18.6343 8.77806 20.8484 10.9921 23.5795 10.9921C26.3107 10.9921 28.5248 8.77806 28.5248 6.04688L24.8557 -253.469C24.8557 -256.2 27.0698 -258.414 29.801 -258.414C32.5321 -258.414 34.7462 -256.2 34.7462 -253.469L30.4391 6.04688C30.4391 8.77806 32.6531 10.9921 35.3843 10.9921C38.1155 10.9921 40.3295 8.77806 40.3295 6.04688L36.6605 -253.469C36.6605 -256.2 38.8745 -258.414 41.6057 -258.414C44.3369 -258.414 46.551 -256.2 46.551 -253.469L42.2438 6.04688C42.2438 8.77806 44.4579 10.9921 47.1891 10.9921C49.9202 10.9921 52.1343 8.77806 52.1343 6.04688V-252.657V-253.469C52.1343 -256.2 54.3484 -258.414 57.0795 -258.414C59.8107 -258.414 62.0248 -256.2 62.0248 -253.469V-250.957M-40.2972 7.0029C-40.3578 6.69359 -40.3895 6.37394 -40.3895 6.04688" stroke="#0178D5" stroke-width="2" stroke-linecap="round" stroke-linejoin="round"/>
</g>
<defs>
<clipPath id="clip0_2515_431">
<rect width="134.02" height="272" fill="white" transform="translate(-71 -259.5)"/>
</clipPath>
</defs>
</svg>
