<svg width="13" height="12" viewBox="0 0 13 12" fill="none" xmlns="http://www.w3.org/2000/svg">
<g clip-path="url(#clip0_2515_431)">
<path d="M16.6962 266.047C16.6962 266.148 16.6932 266.248 16.6872 266.347M16.6872 266.347C16.532 268.939 14.3813 270.992 11.751 270.992C9.01979 270.992 6.80573 268.778 6.80573 266.047L11.1129 6.53093C11.1129 3.79975 8.89881 1.58569 6.16763 1.58569C3.43645 1.58569 1.22239 3.79975 1.22239 6.53093L4.89144 266.047C4.89144 268.778 2.67738 270.992 -0.0537977 270.992C-2.78498 270.992 -4.99904 268.778 -4.99904 266.047L-0.691894 6.53093C-0.691894 3.79975 -2.90595 1.58569 -5.63713 1.58569C-7.98351 1.58569 -9.58656 3.12305 -10.5672 5.37116C-10.8953 6.12319 -11 6.94849 -11 7.76895V10.9303M16.6872 266.347L13.0272 6.53093C13.0272 3.79975 15.2412 1.58569 17.9724 1.58569C20.7036 1.58569 22.9176 3.79975 22.9176 6.53093L18.7028 267.003M18.7028 267.003C19.1482 269.277 21.1516 270.992 23.5557 270.992C26.2869 270.992 28.501 268.778 28.501 266.047L24.8319 6.53093C24.8319 3.79975 27.046 1.58569 29.7772 1.58569C32.5083 1.58569 34.7224 3.79975 34.7224 6.53093L30.4152 266.047C30.4152 268.778 32.6293 270.992 35.3605 270.992C38.0917 270.992 40.3057 268.778 40.3057 266.047L36.6367 6.53093C36.6367 3.79975 38.8507 1.58569 41.5819 1.58569C44.3131 1.58569 46.5272 3.79975 46.5272 6.53093L42.22 266.047C42.22 268.778 44.4341 270.992 47.1653 270.992C49.8964 270.992 52.1105 268.778 52.1105 266.047L48.4414 6.53093C48.4414 3.79975 50.6555 1.58569 53.3867 1.58569C56.1179 1.58569 58.3319 3.79975 58.3319 6.53093L54.0248 266.047C54.0248 268.778 56.2388 270.992 58.97 270.992C61.7012 270.992 63.9153 268.778 63.9153 266.047L60.2462 6.53093C60.2462 3.79975 62.4603 1.58569 65.1914 1.58569C67.9226 1.58569 70.1367 3.79975 70.1367 6.53093L65.8295 266.047C65.8295 268.778 68.0436 270.992 70.7748 270.992C73.506 270.992 75.72 268.778 75.72 266.047L72.051 6.53093C72.051 3.79975 74.265 1.58569 76.9962 1.58569C79.7274 1.58569 81.9414 3.79975 81.9414 6.53093L77.6343 266.047C77.6343 268.778 79.8484 270.992 82.5795 270.992C85.3107 270.992 87.5248 268.778 87.5248 266.047L83.8557 6.53093C83.8557 3.79975 86.0698 1.58569 88.801 1.58569C91.5321 1.58569 93.7462 3.79975 93.7462 6.53093L89.4391 266.047C89.4391 268.778 91.6531 270.992 94.3843 270.992C97.1155 270.992 99.3295 268.778 99.3295 266.047L95.6605 6.53093C95.6605 3.79975 97.8745 1.58569 100.606 1.58569C103.337 1.58569 105.551 3.79975 105.551 6.53093L101.244 266.047C101.244 268.778 103.458 270.992 106.189 270.992C108.92 270.992 111.134 268.778 111.134 266.047V7.34286V6.53093C111.134 3.79975 113.348 1.58569 116.08 1.58569C118.811 1.58569 121.025 3.79975 121.025 6.53093V9.04277M18.7028 267.003C18.6422 266.694 18.6105 266.374 18.6105 266.047" stroke="#0178D5" stroke-width="2" stroke-linecap="round" stroke-linejoin="round"/>
</g>
<defs>
<clipPath id="clip0_2515_431">
<rect width="134.02" height="272" fill="white" transform="translate(-12 0.5)"/>
</clipPath>
</defs>
</svg>
