<svg width="13" height="13" viewBox="0 0 13 13" fill="none" xmlns="http://www.w3.org/2000/svg">
<g clip-path="url(#clip0_2515_431)">
<path d="M28.6962 6.04688C28.6962 6.14771 28.6932 6.24783 28.6872 6.34717M28.6872 6.34717C28.532 8.93851 26.3813 10.9921 23.751 10.9921C21.0198 10.9921 18.8057 8.77806 18.8057 6.04688L23.1129 -253.469C23.1129 -256.2 20.8988 -258.414 18.1676 -258.414C15.4365 -258.414 13.2224 -256.2 13.2224 -253.469L16.8914 6.04688C16.8914 8.77806 14.6774 10.9921 11.9462 10.9921C9.21502 10.9921 7.00096 8.77806 7.00096 6.04688L11.3081 -253.469C11.3081 -256.2 9.09405 -258.414 6.36287 -258.414C4.01649 -258.414 2.41344 -256.877 1.43279 -254.629C1.10475 -253.877 1 -253.052 1 -252.231V-249.07M28.6872 6.34717L25.0272 -253.469C25.0272 -256.2 27.2412 -258.414 29.9724 -258.414C32.7036 -258.414 34.9176 -256.2 34.9176 -253.469L30.7028 7.0029M30.7028 7.0029C31.1482 9.27658 33.1516 10.9921 35.5557 10.9921C38.2869 10.9921 40.501 8.77806 40.501 6.04688L36.8319 -253.469C36.8319 -256.2 39.046 -258.414 41.7772 -258.414C44.5083 -258.414 46.7224 -256.2 46.7224 -253.469L42.4152 6.04688C42.4152 8.77806 44.6293 10.9921 47.3605 10.9921C50.0917 10.9921 52.3057 8.77806 52.3057 6.04688L48.6367 -253.469C48.6367 -256.2 50.8507 -258.414 53.5819 -258.414C56.3131 -258.414 58.5272 -256.2 58.5272 -253.469L54.22 6.04688C54.22 8.77806 56.4341 10.9921 59.1653 10.9921C61.8964 10.9921 64.1105 8.77806 64.1105 6.04688L60.4414 -253.469C60.4414 -256.2 62.6555 -258.414 65.3867 -258.414C68.1179 -258.414 70.3319 -256.2 70.3319 -253.469L66.0248 6.04688C66.0248 8.77806 68.2388 10.9921 70.97 10.9921C73.7012 10.9921 75.9153 8.77806 75.9153 6.04688L72.2462 -253.469C72.2462 -256.2 74.4603 -258.414 77.1914 -258.414C79.9226 -258.414 82.1367 -256.2 82.1367 -253.469L77.8295 6.04688C77.8295 8.77806 80.0436 10.9921 82.7748 10.9921C85.506 10.9921 87.72 8.77806 87.72 6.04688L84.051 -253.469C84.051 -256.2 86.265 -258.414 88.9962 -258.414C91.7274 -258.414 93.9414 -256.2 93.9414 -253.469L89.6343 6.04688C89.6343 8.77806 91.8484 10.9921 94.5795 10.9921C97.3107 10.9921 99.5248 8.77806 99.5248 6.04688L95.8557 -253.469C95.8557 -256.2 98.0698 -258.414 100.801 -258.414C103.532 -258.414 105.746 -256.2 105.746 -253.469L101.439 6.04688C101.439 8.77806 103.653 10.9921 106.384 10.9921C109.115 10.9921 111.33 8.77806 111.33 6.04688L107.66 -253.469C107.66 -256.2 109.875 -258.414 112.606 -258.414C115.337 -258.414 117.551 -256.2 117.551 -253.469L113.244 6.04688C113.244 8.77806 115.458 10.9921 118.189 10.9921C120.92 10.9921 123.134 8.77806 123.134 6.04688V-252.657V-253.469C123.134 -256.2 125.348 -258.414 128.08 -258.414C130.811 -258.414 133.025 -256.2 133.025 -253.469V-250.957M30.7028 7.0029C30.6422 6.69359 30.6105 6.37394 30.6105 6.04688" stroke="#0178D5" stroke-width="2" stroke-linecap="round" stroke-linejoin="round"/>
</g>
<defs>
<clipPath id="clip0_2515_431">
<rect width="134.02" height="272" fill="white" transform="translate(0 -259.5)"/>
</clipPath>
</defs>
</svg>
