<svg width="16" height="12" viewBox="0 0 16 12" fill="none" xmlns="http://www.w3.org/2000/svg">
<g clip-path="url(#clip0_2515_431)">
<path d="M-90.3038 266.047C-90.3038 266.148 -90.3068 266.248 -90.3128 266.347M-90.3128 266.347C-90.468 268.939 -92.6187 270.992 -95.249 270.992C-97.9802 270.992 -100.194 268.778 -100.194 266.047L-95.8871 6.53093C-95.8871 3.79975 -98.1012 1.58569 -100.832 1.58569C-103.564 1.58569 -105.778 3.79975 -105.778 6.53093L-102.109 266.047C-102.109 268.778 -104.323 270.992 -107.054 270.992C-109.785 270.992 -111.999 268.778 -111.999 266.047L-107.692 6.53093C-107.692 3.79975 -109.906 1.58569 -112.637 1.58569C-114.984 1.58569 -116.587 3.12305 -117.567 5.37116C-117.895 6.12319 -118 6.94849 -118 7.76895V10.9303M-90.3128 266.347L-93.9728 6.53093C-93.9728 3.79975 -91.7588 1.58569 -89.0276 1.58569C-86.2964 1.58569 -84.0824 3.79975 -84.0824 6.53093L-88.2972 267.003M-88.2972 267.003C-87.8518 269.277 -85.8484 270.992 -83.4443 270.992C-80.7131 270.992 -78.499 268.778 -78.499 266.047L-82.1681 6.53093C-82.1681 3.79975 -79.954 1.58569 -77.2228 1.58569C-74.4917 1.58569 -72.2776 3.79975 -72.2776 6.53093L-76.5848 266.047C-76.5848 268.778 -74.3707 270.992 -71.6395 270.992C-68.9083 270.992 -66.6943 268.778 -66.6943 266.047L-70.3633 6.53093C-70.3633 3.79975 -68.1493 1.58569 -65.4181 1.58569C-62.6869 1.58569 -60.4728 3.79975 -60.4728 6.53093L-64.78 266.047C-64.78 268.778 -62.5659 270.992 -59.8347 270.992C-57.1036 270.992 -54.8895 268.778 -54.8895 266.047L-58.5586 6.53093C-58.5586 3.79975 -56.3445 1.58569 -53.6133 1.58569C-50.8821 1.58569 -48.6681 3.79975 -48.6681 6.53093L-52.9752 266.047C-52.9752 268.778 -50.7612 270.992 -48.03 270.992C-45.2988 270.992 -43.0847 268.778 -43.0847 266.047L-46.7538 6.53093C-46.7538 3.79975 -44.5397 1.58569 -41.8086 1.58569C-39.0774 1.58569 -36.8633 3.79975 -36.8633 6.53093L-41.1705 266.047C-41.1705 268.778 -38.9564 270.992 -36.2252 270.992C-33.494 270.992 -31.28 268.778 -31.28 266.047L-34.949 6.53093C-34.949 3.79975 -32.735 1.58569 -30.0038 1.58569C-27.2726 1.58569 -25.0586 3.79975 -25.0586 6.53093L-29.3657 266.047C-29.3657 268.778 -27.1516 270.992 -24.4205 270.992C-21.6893 270.992 -19.4752 268.778 -19.4752 266.047L-23.1443 6.53093C-23.1443 3.79975 -20.9302 1.58569 -18.199 1.58569C-15.4679 1.58569 -13.2538 3.79975 -13.2538 6.53093L-17.5609 266.047C-17.5609 268.778 -15.3469 270.992 -12.6157 270.992C-9.88452 270.992 -7.67046 268.778 -7.67046 266.047L-11.3395 6.53093C-11.3395 3.79975 -9.12546 1.58569 -6.39427 1.58569C-3.66309 1.58569 -1.44904 3.79975 -1.44904 6.53093L-5.75617 266.047C-5.75617 268.778 -3.54212 270.992 -0.810936 270.992C1.92025 270.992 4.1343 268.778 4.1343 266.047V7.34286V6.53093C4.1343 3.79975 6.34835 1.58569 9.07954 1.58569C11.8107 1.58569 14.0248 3.79975 14.0248 6.53093V9.04277M-88.2972 267.003C-88.3578 266.694 -88.3895 266.374 -88.3895 266.047" stroke="#0178D5" stroke-width="2" stroke-linecap="round" stroke-linejoin="round"/>
</g>
<defs>
<clipPath id="clip0_2515_431">
<rect width="134.02" height="272" fill="white" transform="translate(-119 0.5)"/>
</clipPath>
</defs>
</svg>
