<svg width="13" height="12" viewBox="0 0 13 12" fill="none" xmlns="http://www.w3.org/2000/svg">
<g clip-path="url(#clip0_2515_431)">
<path d="M28.6962 266.047C28.6962 266.148 28.6932 266.248 28.6872 266.347M28.6872 266.347C28.532 268.939 26.3813 270.992 23.751 270.992C21.0198 270.992 18.8057 268.778 18.8057 266.047L23.1129 6.53093C23.1129 3.79975 20.8988 1.58569 18.1676 1.58569C15.4365 1.58569 13.2224 3.79975 13.2224 6.53093L16.8914 266.047C16.8914 268.778 14.6774 270.992 11.9462 270.992C9.21502 270.992 7.00096 268.778 7.00096 266.047L11.3081 6.53093C11.3081 3.79975 9.09405 1.58569 6.36287 1.58569C4.01649 1.58569 2.41344 3.12305 1.43279 5.37116C1.10475 6.12319 1 6.94849 1 7.76895V10.9303M28.6872 266.347L25.0272 6.53093C25.0272 3.79975 27.2412 1.58569 29.9724 1.58569C32.7036 1.58569 34.9176 3.79975 34.9176 6.53093L30.7028 267.003M30.7028 267.003C31.1482 269.277 33.1516 270.992 35.5557 270.992C38.2869 270.992 40.501 268.778 40.501 266.047L36.8319 6.53093C36.8319 3.79975 39.046 1.58569 41.7772 1.58569C44.5083 1.58569 46.7224 3.79975 46.7224 6.53093L42.4152 266.047C42.4152 268.778 44.6293 270.992 47.3605 270.992C50.0917 270.992 52.3057 268.778 52.3057 266.047L48.6367 6.53093C48.6367 3.79975 50.8507 1.58569 53.5819 1.58569C56.3131 1.58569 58.5272 3.79975 58.5272 6.53093L54.22 266.047C54.22 268.778 56.4341 270.992 59.1653 270.992C61.8964 270.992 64.1105 268.778 64.1105 266.047L60.4414 6.53093C60.4414 3.79975 62.6555 1.58569 65.3867 1.58569C68.1179 1.58569 70.3319 3.79975 70.3319 6.53093L66.0248 266.047C66.0248 268.778 68.2388 270.992 70.97 270.992C73.7012 270.992 75.9153 268.778 75.9153 266.047L72.2462 6.53093C72.2462 3.79975 74.4603 1.58569 77.1914 1.58569C79.9226 1.58569 82.1367 3.79975 82.1367 6.53093L77.8295 266.047C77.8295 268.778 80.0436 270.992 82.7748 270.992C85.506 270.992 87.72 268.778 87.72 266.047L84.051 6.53093C84.051 3.79975 86.265 1.58569 88.9962 1.58569C91.7274 1.58569 93.9414 3.79975 93.9414 6.53093L89.6343 266.047C89.6343 268.778 91.8484 270.992 94.5795 270.992C97.3107 270.992 99.5248 268.778 99.5248 266.047L95.8557 6.53093C95.8557 3.79975 98.0698 1.58569 100.801 1.58569C103.532 1.58569 105.746 3.79975 105.746 6.53093L101.439 266.047C101.439 268.778 103.653 270.992 106.384 270.992C109.115 270.992 111.33 268.778 111.33 266.047L107.66 6.53093C107.66 3.79975 109.875 1.58569 112.606 1.58569C115.337 1.58569 117.551 3.79975 117.551 6.53093L113.244 266.047C113.244 268.778 115.458 270.992 118.189 270.992C120.92 270.992 123.134 268.778 123.134 266.047V7.34286V6.53093C123.134 3.79975 125.348 1.58569 128.08 1.58569C130.811 1.58569 133.025 3.79975 133.025 6.53093V9.04277M30.7028 267.003C30.6422 266.694 30.6105 266.374 30.6105 266.047" stroke="#0178D5" stroke-width="2" stroke-linecap="round" stroke-linejoin="round"/>
</g>
<defs>
<clipPath id="clip0_2515_431">
<rect width="134.02" height="272" fill="white" transform="translate(0 0.5)"/>
</clipPath>
</defs>
</svg>
