<svg width="12" height="250" viewBox="0 0 12 250" fill="none" xmlns="http://www.w3.org/2000/svg">
<g clip-path="url(#clip0_2515_431)">
<path d="M-54.3038 255.047C-54.3038 255.148 -54.3068 255.248 -54.3128 255.347M-54.3128 255.347C-54.468 257.939 -56.6187 259.992 -59.249 259.992C-61.9802 259.992 -64.1943 257.778 -64.1943 255.047L-59.8871 -4.46907C-59.8871 -7.20025 -62.1012 -9.41431 -64.8324 -9.41431C-67.5635 -9.41431 -69.7776 -7.20025 -69.7776 -4.46907L-66.1086 255.047C-66.1086 257.778 -68.3226 259.992 -71.0538 259.992C-73.785 259.992 -75.999 257.778 -75.999 255.047L-71.6919 -4.46907C-71.6919 -7.20025 -73.906 -9.41431 -76.6371 -9.41431C-78.9835 -9.41431 -80.5866 -7.87695 -81.5672 -5.62884C-81.8953 -4.87681 -82 -4.05151 -82 -3.23105V-0.0696888M-54.3128 255.347L-57.9728 -4.46907C-57.9728 -7.20025 -55.7588 -9.41431 -53.0276 -9.41431C-50.2964 -9.41431 -48.0824 -7.20025 -48.0824 -4.46907L-52.2972 256.003M-52.2972 256.003C-51.8518 258.277 -49.8484 259.992 -47.4443 259.992C-44.7131 259.992 -42.499 257.778 -42.499 255.047L-46.1681 -4.46907C-46.1681 -7.20025 -43.954 -9.41431 -41.2228 -9.41431C-38.4917 -9.41431 -36.2776 -7.20025 -36.2776 -4.46907L-40.5848 255.047C-40.5848 257.778 -38.3707 259.992 -35.6395 259.992C-32.9083 259.992 -30.6943 257.778 -30.6943 255.047L-34.3633 -4.46907C-34.3633 -7.20025 -32.1493 -9.41431 -29.4181 -9.41431C-26.6869 -9.41431 -24.4728 -7.20025 -24.4728 -4.46907L-28.78 255.047C-28.78 257.778 -26.5659 259.992 -23.8347 259.992C-21.1036 259.992 -18.8895 257.778 -18.8895 255.047L-22.5586 -4.46907C-22.5586 -7.20025 -20.3445 -9.41431 -17.6133 -9.41431C-14.8821 -9.41431 -12.6681 -7.20025 -12.6681 -4.46907L-16.9752 255.047C-16.9752 257.778 -14.7612 259.992 -12.03 259.992C-9.29881 259.992 -7.08475 257.778 -7.08475 255.047L-10.7538 -4.46907C-10.7538 -7.20025 -8.53973 -9.41431 -5.80856 -9.41431C-3.07738 -9.41431 -0.863319 -7.20025 -0.863319 -4.46907L-5.17046 255.047C-5.17046 257.778 -2.95641 259.992 -0.225227 259.992C2.50596 259.992 4.72002 257.778 4.72002 255.047L1.05096 -4.46907C1.05096 -7.20025 3.26502 -9.41431 5.99621 -9.41431C8.72739 -9.41431 10.9414 -7.20025 10.9414 -4.46907L6.6343 255.047C6.6343 257.778 8.84835 259.992 11.5795 259.992C14.3107 259.992 16.5248 257.778 16.5248 255.047L12.8557 -4.46907C12.8557 -7.20025 15.0698 -9.41431 17.801 -9.41431C20.5321 -9.41431 22.7462 -7.20025 22.7462 -4.46907L18.4391 255.047C18.4391 257.778 20.6531 259.992 23.3843 259.992C26.1155 259.992 28.3295 257.778 28.3295 255.047L24.6605 -4.46907C24.6605 -7.20025 26.8745 -9.41431 29.6057 -9.41431C32.3369 -9.41431 34.551 -7.20025 34.551 -4.46907L30.2438 255.047C30.2438 257.778 32.4579 259.992 35.1891 259.992C37.9202 259.992 40.1343 257.778 40.1343 255.047V-3.65714V-4.46907C40.1343 -7.20025 42.3484 -9.41431 45.0795 -9.41431C47.8107 -9.41431 50.0248 -7.20025 50.0248 -4.46907V-1.95723M-52.2972 256.003C-52.3578 255.694 -52.3895 255.374 -52.3895 255.047" stroke="#0178D5" stroke-width="2" stroke-linecap="round" stroke-linejoin="round"/>
</g>
<defs>
<clipPath id="clip0_2515_431">
<rect width="134.02" height="272" fill="white" transform="translate(-83 -10.5)"/>
</clipPath>
</defs>
</svg>
