<svg width="12" height="12" viewBox="0 0 12 12" fill="none" xmlns="http://www.w3.org/2000/svg">
<path d="M0.705882 0.5H11.2941C11.4078 0.5 11.5 0.592177 11.5 0.705882V11.2941C11.5 11.4078 11.4078 11.5 11.2941 11.5H0.705882C0.592177 11.5 0.5 11.4078 0.5 11.2941V0.705882C0.5 0.592177 0.592177 0.5 0.705882 0.5Z" fill="#999999" stroke="black"/>
<path d="M11.2943 11.2943H0.706055L6.00017 0.706055L11.2943 11.2943Z" fill="black"/>
<path d="M6.06341 10.511C5.71046 10.511 5.39988 10.4616 5.13164 10.3627C4.86811 10.2592 4.64693 10.1039 4.46811 9.89685C4.28929 9.68509 4.15517 9.41685 4.06576 9.09214C3.97635 8.76744 3.93164 8.38391 3.93164 7.94156V5.15332H5.18811V8.07567C5.18811 8.40509 5.22105 8.66861 5.28693 8.86626C5.35282 9.06391 5.44929 9.20744 5.57635 9.29685C5.70811 9.38156 5.87046 9.42391 6.06341 9.42391C6.25635 9.42391 6.4187 9.38156 6.55046 9.29685C6.68223 9.20744 6.78105 9.06391 6.84693 8.86626C6.91752 8.66861 6.95282 8.40509 6.95282 8.07567V5.15332H8.16693V7.94156C8.16693 8.38391 8.12223 8.76744 8.03282 9.09214C7.94811 9.41685 7.81635 9.68509 7.63752 9.89685C7.46341 10.1039 7.24458 10.2592 6.98105 10.3627C6.71752 10.4616 6.41164 10.511 6.06341 10.511Z" fill="white"/>
</svg>
