<svg width="62" height="62" viewBox="0 0 62 62" fill="none" xmlns="http://www.w3.org/2000/svg">
<path d="M27.7298 25.2296L28.0837 25.5112L28.3993 25.1872C28.8901 24.6833 29.5241 24.3218 30.2337 24.1687L30.5771 24.0946L30.6238 23.7465C31.1978 19.4741 33.1766 16.4472 35.0327 14.4672C35.9613 13.4766 36.8582 12.7492 37.5306 12.2616C37.8666 12.018 38.1464 11.8342 38.3466 11.7071C38.4273 11.6559 38.4944 11.6142 38.5492 11.5802C38.5629 11.5717 38.5758 11.5637 38.588 11.5561C38.6172 11.538 38.6452 11.5204 38.6678 11.5057L38.6686 11.5052C38.6763 11.5003 38.7334 11.4641 38.7796 11.4183L39.2969 10.9048L38.6316 10.607C33.3343 8.23585 27.0981 8.43171 21.8688 11.3622L21.5395 11.5467L21.6254 11.908C21.6253 11.9075 21.6252 11.9072 21.6251 11.9072C21.6247 11.9073 21.6281 11.9327 21.6312 12.004C21.6346 12.0797 21.6369 12.1773 21.6399 12.3027L21.6404 12.3218C21.6467 12.587 21.6557 12.9474 21.6834 13.3807C21.739 14.2474 21.8698 15.4072 22.2058 16.7166C22.8787 19.3388 24.3755 22.5612 27.7298 25.2296ZM38.126 10.6651C38.1303 10.6619 38.1329 10.6602 38.1332 10.6601C38.1334 10.66 38.1313 10.6616 38.126 10.6651Z" fill="#E0E0E0" stroke="black"/>
<path d="M27.2047 29.305L27.6259 29.1393L27.5028 28.7037C27.3072 28.012 27.321 27.2842 27.5403 26.6046L27.6481 26.2703L27.3702 26.0555C23.4685 23.0404 21.0298 18.3751 20.8091 13.4327L20.8091 13.4324L20.787 12.9423L20.7451 12.0132L19.9932 12.5606C15.3805 15.9191 12.3518 21.331 12.2637 27.4436L12.2583 27.8218L12.6084 27.9263C12.609 27.9271 12.6309 27.9366 12.6875 27.9665C12.7466 27.9978 12.8207 28.0387 12.9149 28.0907C12.9298 28.0989 12.9452 28.1074 12.9611 28.1162C13.1903 28.2427 13.5042 28.4147 13.8917 28.6072C14.6668 28.9923 15.7375 29.4601 17.0425 29.8254C19.6556 30.5569 23.2098 30.8772 27.2047 29.305Z" fill="#E0E0E0" stroke="black"/>
<path d="M30.4801 31.8006L30.5472 31.353L30.1085 31.2418C29.4061 31.0638 28.7833 30.6801 28.3095 30.1575L28.0739 29.8975L27.7493 30.0307C23.1682 31.9106 18.038 31.7748 13.0938 29.1784L12.2674 28.7445L12.364 29.6728C12.989 35.6785 16.4612 40.8471 21.4001 43.8057L21.7251 44.0004L21.9919 43.7482C21.9922 43.7486 22.0113 43.7343 22.0672 43.6991C22.1248 43.6628 22.1988 43.6181 22.2929 43.5611C22.3062 43.5531 22.32 43.5448 22.3341 43.5362C22.5585 43.4005 22.8645 43.2142 23.225 42.9745C23.946 42.4951 24.8858 41.8015 25.8539 40.8542C27.7924 38.9573 29.8444 36.0417 30.4801 31.8006Z" fill="#E0E0E0" stroke="black"/>
<path d="M34.2702 30.2103L33.9163 29.9287L33.6007 30.2527C33.1099 30.7566 32.4759 31.1181 31.7662 31.2712L31.4229 31.3453L31.3761 31.6934C30.7395 36.4332 28.1654 40.8922 23.2985 43.9494L22.5069 44.4467L23.3599 44.8291C28.6053 47.1802 34.8494 47.0377 40.1312 44.0777L40.4607 43.8931L40.3747 43.5319C40.3748 43.5323 40.3749 43.5326 40.3749 43.5326C40.3754 43.5325 40.372 43.5072 40.3688 43.4358C40.3655 43.3602 40.3631 43.2626 40.3602 43.1373L40.3597 43.1181C40.3534 42.8529 40.3444 42.4924 40.3166 42.0592C40.261 41.1925 40.1302 40.0327 39.7942 38.7232C39.1213 36.1011 37.6245 32.8787 34.2702 30.2103Z" fill="#E0E0E0" stroke="black"/>
<path d="M34.7933 26.1296L34.3721 26.2954L34.4952 26.7309C34.6908 27.4227 34.677 28.1504 34.4577 28.8301L34.3499 29.1644L34.6279 29.3792C38.5295 32.3943 40.9682 37.0595 41.1889 42.002L41.1889 42.0022L41.211 42.4923L41.2529 43.4215L42.0048 42.874C46.6175 39.5155 49.6462 34.1037 49.7343 27.991L49.7397 27.6128L49.3895 27.5083C49.3889 27.5076 49.367 27.498 49.3105 27.4681C49.2513 27.4369 49.1771 27.3959 49.0828 27.3438C49.068 27.3356 49.0527 27.3272 49.0369 27.3185C48.8077 27.192 48.4938 27.02 48.1063 26.8275C47.3312 26.4424 46.2605 25.9746 44.9555 25.6093C42.3424 24.8777 38.7881 24.5574 34.7933 26.1296Z" fill="#E0E0E0" stroke="black"/>
<path d="M53.0624 56.3125V55.8125H52.5624H9.4375H8.9375V56.3125V59.7188C8.9375 60.7015 9.73615 61.5 10.7187 61.5H51.2812C52.2639 61.5 53.0624 60.7013 53.0624 59.7188V56.3125Z" fill="#E0E0E0" stroke="black"/>
<path d="M31.5211 23.6385L31.4541 24.0861L31.8928 24.1973C32.5951 24.3754 33.2178 24.759 33.6917 25.2815L33.9275 25.5416L34.2522 25.408C38.8427 23.5202 44.0507 23.7459 48.4658 26.0372C48.4658 26.0372 48.4659 26.0372 48.4659 26.0372L48.9105 26.268L49.7338 26.6953L49.6381 25.7726C49.0148 19.7643 45.5419 14.5932 40.6014 11.6336L40.2766 11.4389L40.0097 11.6909C40.0094 11.6905 39.9903 11.7049 39.9343 11.7401C39.8768 11.7763 39.803 11.821 39.7091 11.8778C39.6956 11.8859 39.6817 11.8943 39.6674 11.903C39.4429 12.0387 39.1369 12.225 38.7764 12.4647C38.0554 12.9441 37.1155 13.6376 36.1474 14.585C34.2089 16.4818 32.1568 19.3975 31.5211 23.6385Z" fill="#E0E0E0" stroke="black"/>
<path d="M31.0007 30.478C32.5242 30.478 33.7592 29.2429 33.7592 27.7194C33.7592 26.196 32.5242 24.9609 31.0007 24.9609C29.4772 24.9609 28.2422 26.196 28.2422 27.7194C28.2422 29.2429 29.4772 30.478 31.0007 30.478Z" fill="#E0E0E0" stroke="black"/>
<path d="M56.2175 0.5H5.78252C2.86936 0.5 0.5 2.86922 0.5 5.78252V49.655C0.5 52.5681 2.86922 54.9375 5.78252 54.9375H56.2175C59.1306 54.9375 61.5 52.5683 61.5 49.655V5.78252C61.5 2.86923 59.1308 0.5 56.2175 0.5ZM6.62504 3.37501C7.89965 3.37501 8.93751 4.41287 8.93751 5.68748C8.93751 6.96211 7.89962 8.00006 6.62504 8.00006C5.35045 8.00006 4.31258 6.96222 4.31258 5.68748C4.31258 4.41277 5.35042 3.37501 6.62504 3.37501ZM6.62504 52.0625C5.35044 52.0625 4.31258 51.0246 4.31258 49.75C4.31258 48.4754 5.35044 47.4376 6.62504 47.4376C7.89967 47.4376 8.93751 48.4753 8.93751 49.75C8.93751 51.0247 7.89967 52.0625 6.62504 52.0625ZM31 51.5938C17.8358 51.5938 7.12504 40.8831 7.12504 27.7188C7.12504 14.5546 17.8358 3.84374 31 3.84374C44.1642 3.84374 54.875 14.5545 54.875 27.7187C54.875 40.8829 44.1642 51.5938 31 51.5938ZM56.3125 52.0625C55.0379 52.0625 54.0001 51.0246 54.0001 49.75C54.0001 48.4754 55.0379 47.4376 56.3125 47.4376C57.5871 47.4376 58.625 48.4754 58.625 49.75C58.625 51.0246 57.5871 52.0625 56.3125 52.0625ZM56.3125 8.00006C55.0379 8.00006 54.0001 6.9622 54.0001 5.6876C54.0001 4.41299 55.0379 3.37513 56.3125 3.37513C57.5871 3.37513 58.625 4.41299 58.625 5.6876C58.625 6.9622 57.5871 8.00006 56.3125 8.00006Z" fill="#E0E0E0" stroke="black"/>
<path d="M21.5397 44.895L21.5196 44.8839L21.4986 44.8747C21.4749 44.8643 21.4526 44.8517 21.4318 44.8372L21.4126 44.8239L21.3923 44.8125C15.4235 41.444 11.3864 35.0435 11.3864 27.7188C11.3864 12.3635 28.152 3.40785 40.5381 10.5861L40.538 10.5862L40.5446 10.5899C46.548 13.9488 50.6136 20.3684 50.6136 27.7188C50.6136 42.6938 34.4736 52.0477 21.5397 44.895ZM30.9999 4.71875C18.3173 4.71875 8 15.0361 8 27.7187C8 40.4013 18.3173 50.7186 30.9999 50.7186C43.6826 50.7186 53.9999 40.4013 53.9999 27.7187C53.9999 15.0361 43.6826 4.71875 30.9999 4.71875Z" fill="#E0E0E0" stroke="black"/>
</svg>
