<svg width="24" height="24" viewBox="0 0 24 24" fill="none" xmlns="http://www.w3.org/2000/svg">
<rect x="0.5" y="0.5" width="23" height="23" rx="5.5" fill="white" stroke="#333333"/>
<path fill-rule="evenodd" clip-rule="evenodd" d="M5.13559 7.39825C5.04685 7.51872 5 7.65629 5 7.79645C5 7.93662 5.04685 8.07419 5.13559 8.19465L11.1482 16.6014C11.2343 16.7225 11.3584 16.8231 11.5081 16.8931C11.6577 16.9631 11.8276 17 12.0005 17C12.1734 17 12.3433 16.9632 12.493 16.8933C12.6427 16.8233 12.7668 16.7227 12.853 16.6016L18.8657 8.1945C18.9536 8.07385 19 7.93642 19 7.79643C19 7.65645 18.9536 7.51901 18.8657 7.39837C18.7801 7.27693 18.6561 7.17604 18.5063 7.10604C18.3566 7.03605 18.1865 6.99946 18.0134 7.00002L5.98821 7.00002C5.81502 6.99894 5.64463 7.0353 5.4947 7.10533C5.34478 7.17535 5.22079 7.27649 5.13559 7.39825Z" fill="black"/>
</svg>
