<svg width="27" height="30" viewBox="0 0 27 30" fill="none" xmlns="http://www.w3.org/2000/svg">
<path d="M6.07178 26.7527H18.6019V26.2527V25.7527C17.7051 25.7527 17.0133 25.031 16.5069 24.1044C16.2643 23.6604 16.0889 23.2119 15.9739 22.8718C15.9167 22.7026 15.8751 22.5622 15.8481 22.4653C15.8347 22.417 15.8248 22.3795 15.8186 22.3549L15.8118 22.3279L15.8104 22.3221L15.8103 22.3216L15.8102 22.3214L15.8102 22.3212L15.8102 22.3212L15.8102 22.3212L15.72 21.9355H15.3967L12.5787 21.0652L12.4358 21.0211L12.2921 21.0627L9.21111 21.9553L8.93005 22.0367L8.86349 22.3212L8.86348 22.3212L8.86344 22.3214L8.86339 22.3216L8.86327 22.3221L8.86186 22.3279L8.85511 22.3549C8.84884 22.3795 8.83903 22.417 8.82555 22.4653C8.79855 22.5622 8.75698 22.7026 8.69976 22.8718C8.58476 23.2119 8.40935 23.6604 8.16674 24.1044C7.66043 25.031 6.9686 25.7527 6.07178 25.7527V26.2527V26.7527Z" fill="#FEF546" stroke="black"/>
<path d="M20.7786 29.5009H21.2786V29.0009V26.6872C21.2786 26.1667 20.8512 25.7539 20.3397 25.7539H4.52238C4.01093 25.7539 3.5835 26.1667 3.5835 26.6872V29.0009V29.5009H4.0835H20.7786Z" fill="#FEF546" stroke="black"/>
<path d="M23.1513 11.496L23.1382 11.496C23.0679 9.89157 22.6605 8.37552 21.9848 7.01876L25.6401 7.01876L26.1401 7.01876L26.1401 6.51876L26.1401 1.41674L26.1401 0.91674L25.6401 0.91674L12.4541 0.916739C12.4232 0.916739 12.3907 0.915536 12.3468 0.913826L12.3434 0.913691C12.3033 0.912127 12.2527 0.910156 12.2006 0.910156C6.14719 0.910155 1.24996 5.88003 1.24996 11.996C1.24996 18.112 6.14718 23.0819 12.2006 23.0819C18.2541 23.0819 23.1513 18.112 23.1513 11.996L23.1513 11.496Z" fill="#FEF546" stroke="black"/>
<path d="M25.6655 7.91665L26.1655 7.91665L26.1655 7.41665L26.1655 1L26.1655 0.5L25.6655 0.5L24.4989 0.5L23.9989 0.5L23.9989 1L23.9989 7.41665L23.9989 7.91665L24.4989 7.91665L25.6655 7.91665Z" fill="#FEF546" stroke="black"/>
<path d="M19.8891 15.0616L19.2746 13.8983V10.9801L19.8869 9.82545C19.9812 9.6478 19.9747 9.43549 19.8737 9.26435L18.8094 7.44674C18.7085 7.27343 18.5241 7.16295 18.3223 7.15428L16.9924 7.09579L14.4337 5.63781L13.7206 4.52861C13.613 4.35963 13.4243 4.25781 13.2224 4.25781H11.0938C10.892 4.25781 10.7032 4.35963 10.5957 4.52861L9.88252 5.63781L7.32603 7.08929L5.99621 7.14778C5.79432 7.15645 5.60999 7.26693 5.50905 7.44025L4.44476 9.25785C4.34381 9.43116 4.33942 9.64347 4.43159 9.81895L5.04603 10.9823V13.9004L4.43159 15.0638C4.33723 15.2414 4.34381 15.4537 4.44476 15.6249L5.50905 17.4425C5.60999 17.6158 5.79432 17.7263 5.99621 17.7349L7.32603 17.7934L9.88472 19.2514L10.5979 20.3606C10.7054 20.5296 10.8942 20.6314 11.096 20.6314H13.2246C13.4265 20.6314 13.6152 20.5296 13.7228 20.3606L14.4359 19.2514L16.9946 17.7934L18.3245 17.7349C18.5263 17.7263 18.7107 17.6158 18.8116 17.4425L19.8759 15.6249C19.9768 15.4516 19.9812 15.2393 19.8891 15.0638V15.0616ZM12.1603 17.1002C9.54897 17.1002 7.43136 15.014 7.43136 12.4381C7.43136 9.86227 9.54897 7.77604 12.1603 7.77604C14.7717 7.77604 16.8893 9.86227 16.8893 12.4381C16.8893 15.014 14.7717 17.1002 12.1603 17.1002Z" fill="black"/>
<path d="M12.161 14.9419C13.5608 14.9419 14.6956 13.8216 14.6956 12.4397C14.6956 11.0578 13.5608 9.9375 12.161 9.9375C10.7612 9.9375 9.62646 11.0578 9.62646 12.4397C9.62646 13.8216 10.7612 14.9419 12.161 14.9419Z" fill="black"/>
</svg>
