<svg width="37" height="18" viewBox="0 0 37 18" fill="none" xmlns="http://www.w3.org/2000/svg">
<path d="M1 17L36 17L36 0.999996L0.999999 0.999999L1 17Z" stroke="#666666"/>
<path d="M30.1582 13.6394L30.1582 9.9999" stroke="black" stroke-width="0.5"/>
<path d="M30.1588 13.5964L31.1299 10.043" stroke="black" stroke-width="0.5"/>
<path d="M30.1635 13.6035L32.0937 10.3209" stroke="black" stroke-width="0.5"/>
<path d="M30.1582 13.5964L29.1888 10.043" stroke="black" stroke-width="0.5"/>
<path d="M30.1533 13.6035L28.223 10.3209" stroke="black" stroke-width="0.5"/>
<path d="M30.1582 12.734C29.0562 12.734 28.1582 13.4672 28.1582 14.367C28.1582 15.2668 29.0562 16 30.1582 16C31.2602 16 32.1582 15.2668 32.1582 14.367C32.1582 13.4672 31.2602 12.734 30.1582 12.734Z" fill="#999999" stroke="black" stroke-width="0.5"/>
<path d="M6 4.3606V8.0001" stroke="black" stroke-width="0.5"/>
<path d="M5.99941 4.40356L5.02832 7.95698" stroke="black" stroke-width="0.5"/>
<path d="M5.99472 4.39648L4.06445 7.67912" stroke="black" stroke-width="0.5"/>
<path d="M6 4.40356L6.96939 7.95698" stroke="black" stroke-width="0.5"/>
<path d="M6.00488 4.39648L7.93515 7.67912" stroke="black" stroke-width="0.5"/>
<path d="M6 5.26597C7.10204 5.26597 8 4.53279 8 3.63299C8 2.73318 7.10204 2 6 2C4.89796 2 4 2.73318 4 3.63299C4 4.53279 4.89796 5.26597 6 5.26597Z" fill="#999999" stroke="black" stroke-width="0.5"/>
<path d="M22.1045 13.6394L22.1045 9.9999" stroke="black" stroke-width="0.5"/>
<path d="M22.1051 13.5964L23.0762 10.043" stroke="black" stroke-width="0.5"/>
<path d="M22.1107 13.6035L24.041 10.3209" stroke="black" stroke-width="0.5"/>
<path d="M22.1045 13.5964L21.1351 10.043" stroke="black" stroke-width="0.5"/>
<path d="M22.1006 13.6035L20.1703 10.3209" stroke="black" stroke-width="0.5"/>
<path d="M22.1055 12.734C21.0034 12.734 20.1055 13.4672 20.1055 14.367C20.1055 15.2668 21.0034 16 22.1055 16C23.2075 16 24.1055 15.2668 24.1055 14.367C24.1055 13.4672 23.2075 12.734 22.1055 12.734Z" fill="#999999" stroke="black" stroke-width="0.5"/>
<path d="M14.0537 4.3606V8.0001" stroke="black" stroke-width="0.5"/>
<path d="M14.0531 4.40356L13.082 7.95698" stroke="black" stroke-width="0.5"/>
<path d="M14.0475 4.39648L12.1172 7.67912" stroke="black" stroke-width="0.5"/>
<path d="M14.0537 4.40356L15.0231 7.95698" stroke="black" stroke-width="0.5"/>
<path d="M14.0576 4.39648L15.9879 7.67912" stroke="black" stroke-width="0.5"/>
<path d="M14.0527 5.26597C15.1548 5.26597 16.0527 4.53279 16.0527 3.63299C16.0527 2.73318 15.1548 2 14.0527 2C12.9507 2 12.0527 2.73318 12.0527 3.63299C12.0527 4.53279 12.9507 5.26597 14.0527 5.26597Z" fill="#999999" stroke="black" stroke-width="0.5"/>
<path d="M14.0518 13.6394L14.0518 9.9999" stroke="black" stroke-width="0.5"/>
<path d="M14.0533 13.5964L15.0244 10.043" stroke="black" stroke-width="0.5"/>
<path d="M14.058 13.6035L15.9883 10.3209" stroke="black" stroke-width="0.5"/>
<path d="M14.0518 13.5964L13.0824 10.043" stroke="black" stroke-width="0.5"/>
<path d="M14.0479 13.6035L12.1176 10.3209" stroke="black" stroke-width="0.5"/>
<path d="M14.0527 12.734C12.9507 12.734 12.0527 13.4672 12.0527 14.367C12.0527 15.2668 12.9507 16 14.0527 16C15.1548 16 16.0527 15.2668 16.0527 14.367C16.0527 13.4672 15.1548 12.734 14.0527 12.734Z" fill="#999999" stroke="black" stroke-width="0.5"/>
<path d="M22.1064 4.3606V8.0001" stroke="black" stroke-width="0.5"/>
<path d="M22.1049 4.40356L21.1338 7.95698" stroke="black" stroke-width="0.5"/>
<path d="M22.1002 4.39648L20.1699 7.67912" stroke="black" stroke-width="0.5"/>
<path d="M22.1064 4.40356L23.0758 7.95698" stroke="black" stroke-width="0.5"/>
<path d="M22.1104 4.39648L24.0406 7.67912" stroke="black" stroke-width="0.5"/>
<path d="M22.1055 5.26597C23.2075 5.26597 24.1055 4.53279 24.1055 3.63299C24.1055 2.73318 23.2075 2 22.1055 2C21.0034 2 20.1055 2.73318 20.1055 3.63299C20.1055 4.53279 21.0034 5.26597 22.1055 5.26597Z" fill="#999999" stroke="black" stroke-width="0.5"/>
<path d="M5.99902 13.6394L5.99902 9.9999" stroke="black" stroke-width="0.5"/>
<path d="M5.99961 13.5964L6.9707 10.043" stroke="black" stroke-width="0.5"/>
<path d="M6.00528 13.6035L7.93555 10.3209" stroke="black" stroke-width="0.5"/>
<path d="M5.99902 13.5964L5.02964 10.043" stroke="black" stroke-width="0.5"/>
<path d="M5.99512 13.6035L4.06485 10.3209" stroke="black" stroke-width="0.5"/>
<path d="M6 12.734C4.89796 12.734 4 13.4672 4 14.367C4 15.2668 4.89796 16 6 16C7.10204 16 8 15.2668 8 14.367C8 13.4672 7.10204 12.734 6 12.734Z" fill="#999999" stroke="black" stroke-width="0.5"/>
<path d="M30.1592 4.3606V8.0001" stroke="black" stroke-width="0.5"/>
<path d="M30.1586 4.40356L29.1875 7.95698" stroke="black" stroke-width="0.5"/>
<path d="M30.1529 4.39648L28.2227 7.67912" stroke="black" stroke-width="0.5"/>
<path d="M30.1592 4.40356L31.1286 7.95698" stroke="black" stroke-width="0.5"/>
<path d="M30.1631 4.39648L32.0934 7.67912" stroke="black" stroke-width="0.5"/>
<path d="M30.1582 5.26597C31.2602 5.26597 32.1582 4.53279 32.1582 3.63299C32.1582 2.73318 31.2602 2 30.1582 2C29.0562 2 28.1582 2.73318 28.1582 3.63299C28.1582 4.53279 29.0562 5.26597 30.1582 5.26597Z" fill="#999999" stroke="black" stroke-width="0.5"/>
</svg>
