<svg width="31" height="64" viewBox="0 0 31 64" fill="none" xmlns="http://www.w3.org/2000/svg">
<path d="M1 0.999855L1 62.4814L29.1059 62.4814L29.1059 0.999855L1 0.999855Z" stroke="#666666" stroke-width="2" stroke-miterlimit="10"/>
<path d="M6.90308 52.2202L13.2963 52.2202" stroke="black" stroke-width="0.5"/>
<path d="M6.97876 52.2219L13.2207 53.9277" stroke="black" stroke-width="0.5"/>
<path d="M6.96631 52.2294L12.7326 55.6201" stroke="black" stroke-width="0.5"/>
<path d="M6.97852 52.2202L13.2205 50.5174" stroke="black" stroke-width="0.5"/>
<path d="M6.96631 52.2109L12.7326 48.8202" stroke="black" stroke-width="0.5"/>
<path d="M8.49365 52.2202C8.49365 50.2843 7.20574 48.7069 5.62512 48.7069C4.0445 48.7069 2.75659 50.2843 2.75659 52.2202C2.75659 54.156 4.0445 55.7334 5.62512 55.7334C7.20574 55.7334 8.49365 54.156 8.49365 52.2202Z" fill="#999999" stroke="black" stroke-width="0.5"/>
<path d="M23.2029 9.78271L16.8097 9.78271" stroke="black" stroke-width="0.5"/>
<path d="M23.1272 9.78249L16.8852 8.07666" stroke="black" stroke-width="0.5"/>
<path d="M23.1399 9.77356L17.3736 6.38281" stroke="black" stroke-width="0.5"/>
<path d="M23.1272 9.78271L16.8852 11.4856" stroke="black" stroke-width="0.5"/>
<path d="M23.1399 9.79199L17.3736 13.1827" stroke="black" stroke-width="0.5"/>
<path d="M21.6123 9.78276C21.6123 11.7186 22.9002 13.296 24.4808 13.296C26.0615 13.296 27.3494 11.7186 27.3494 9.78276C27.3494 7.8469 26.0615 6.26953 24.4808 6.26953C22.9002 6.26953 21.6123 7.8469 21.6123 9.78276Z" fill="#999999" stroke="black" stroke-width="0.5"/>
<path d="M6.90308 38.0718L13.2963 38.0718" stroke="black" stroke-width="0.5"/>
<path d="M6.97876 38.0735L13.2207 39.7793" stroke="black" stroke-width="0.5"/>
<path d="M6.96631 38.0834L12.7326 41.4741" stroke="black" stroke-width="0.5"/>
<path d="M6.97852 38.0718L13.2205 36.3689" stroke="black" stroke-width="0.5"/>
<path d="M6.96631 38.0649L12.7326 34.6742" stroke="black" stroke-width="0.5"/>
<path d="M8.49365 38.0742C8.49365 36.1383 7.20574 34.5609 5.62512 34.5609C4.0445 34.5609 2.75659 36.1383 2.75659 38.0742C2.75659 40.01 4.0445 41.5874 5.62512 41.5874C7.20574 41.5874 8.49365 40.01 8.49365 38.0742Z" fill="#999999" stroke="black" stroke-width="0.5"/>
<path d="M23.2029 23.9297L16.8097 23.9297" stroke="black" stroke-width="0.5"/>
<path d="M23.1272 23.929L16.8852 22.2231" stroke="black" stroke-width="0.5"/>
<path d="M23.1399 23.9191L17.3736 20.5283" stroke="black" stroke-width="0.5"/>
<path d="M23.1272 23.9297L16.8852 25.6325" stroke="black" stroke-width="0.5"/>
<path d="M23.1399 23.9365L17.3736 27.3273" stroke="black" stroke-width="0.5"/>
<path d="M21.6123 23.9283C21.6123 25.8641 22.9002 27.4415 24.4808 27.4415C26.0615 27.4415 27.3494 25.8641 27.3494 23.9283C27.3494 21.9924 26.0615 20.415 24.4808 20.415C22.9002 20.415 21.6123 21.9924 21.6123 23.9283Z" fill="#999999" stroke="black" stroke-width="0.5"/>
<path d="M6.90308 23.9263L13.2963 23.9263" stroke="black" stroke-width="0.5"/>
<path d="M6.97876 23.9304L13.2207 25.6362" stroke="black" stroke-width="0.5"/>
<path d="M6.96631 23.9379L12.7326 27.3286" stroke="black" stroke-width="0.5"/>
<path d="M6.97852 23.9263L13.2205 22.2234" stroke="black" stroke-width="0.5"/>
<path d="M6.96631 23.9194L12.7326 20.5287" stroke="black" stroke-width="0.5"/>
<path d="M8.49365 23.9287C8.49365 21.9928 7.20574 20.4154 5.62512 20.4154C4.0445 20.4154 2.75659 21.9928 2.75659 23.9287C2.75659 25.8645 4.0445 27.4419 5.62512 27.4419C7.20574 27.4419 8.49365 25.8645 8.49365 23.9287Z" fill="#999999" stroke="black" stroke-width="0.5"/>
<path d="M23.2029 38.0767L16.8097 38.0767" stroke="black" stroke-width="0.5"/>
<path d="M23.1272 38.074L16.8852 36.3682" stroke="black" stroke-width="0.5"/>
<path d="M23.1399 38.0651L17.3736 34.6743" stroke="black" stroke-width="0.5"/>
<path d="M23.1272 38.0767L16.8852 39.7795" stroke="black" stroke-width="0.5"/>
<path d="M23.1399 38.0835L17.3736 41.4742" stroke="black" stroke-width="0.5"/>
<path d="M21.6123 38.0743C21.6123 40.0101 22.9002 41.5875 24.4808 41.5875C26.0615 41.5875 27.3494 40.0101 27.3494 38.0743C27.3494 36.1384 26.0615 34.561 24.4808 34.561C22.9002 34.561 21.6123 36.1384 21.6123 38.0743Z" fill="#999999" stroke="black" stroke-width="0.5"/>
<path d="M6.90332 9.78076L13.2965 9.78076" stroke="black" stroke-width="0.5"/>
<path d="M6.979 9.78245L13.221 11.4883" stroke="black" stroke-width="0.5"/>
<path d="M6.96631 9.79236L12.7326 13.1831" stroke="black" stroke-width="0.5"/>
<path d="M6.97876 9.78076L13.2207 8.07792" stroke="black" stroke-width="0.5"/>
<path d="M6.96631 9.77393L12.7326 6.38318" stroke="black" stroke-width="0.5"/>
<path d="M8.4939 9.78266C8.4939 7.8468 7.20599 6.26943 5.62537 6.26943C4.04475 6.26943 2.75684 7.8468 2.75684 9.78266C2.75684 11.7185 4.04475 13.2959 5.62537 13.2959C7.20599 13.2959 8.4939 11.7185 8.4939 9.78266Z" fill="#999999" stroke="black" stroke-width="0.5"/>
<path d="M23.2029 52.2207L16.8097 52.2207" stroke="black" stroke-width="0.5"/>
<path d="M23.1274 52.2205L16.8855 50.5146" stroke="black" stroke-width="0.5"/>
<path d="M23.1399 52.2106L17.3736 48.8198" stroke="black" stroke-width="0.5"/>
<path d="M23.1274 52.2207L16.8855 53.9235" stroke="black" stroke-width="0.5"/>
<path d="M23.1399 52.2275L17.3736 55.6183" stroke="black" stroke-width="0.5"/>
<path d="M21.6125 52.2198C21.6125 54.1556 22.9005 55.733 24.4811 55.733C26.0617 55.733 27.3496 54.1556 27.3496 52.2198C27.3496 50.2839 26.0617 48.7065 24.4811 48.7065C22.9005 48.7065 21.6125 50.2839 21.6125 52.2198Z" fill="#999999" stroke="black" stroke-width="0.5"/>
</svg>
