<svg width="64" height="31" viewBox="0 0 64 31" fill="none" xmlns="http://www.w3.org/2000/svg">
<path d="M1.0001 29.106L62.4817 29.106L62.4817 1.00008L1.0001 1.00009L1.0001 29.106Z" stroke="#666666" stroke-width="2" stroke-miterlimit="10"/>
<path d="M52.2202 23.2026L52.2202 16.8094" stroke="black" stroke-width="0.5"/>
<path d="M52.2217 23.127L53.9275 16.885" stroke="black" stroke-width="0.5"/>
<path d="M52.2294 23.1396L55.6201 17.3733" stroke="black" stroke-width="0.5"/>
<path d="M52.2202 23.127L50.5174 16.885" stroke="black" stroke-width="0.5"/>
<path d="M52.2109 23.1396L48.8202 17.3733" stroke="black" stroke-width="0.5"/>
<path d="M52.2202 21.6121C50.2843 21.6121 48.7069 22.9 48.7069 24.4806C48.7069 26.0612 50.2843 27.3491 52.2202 27.3491C54.156 27.3491 55.7334 26.0612 55.7334 24.4806C55.7334 22.9 54.156 21.6121 52.2202 21.6121Z" fill="white" stroke="black" stroke-width="0.5"/>
<path d="M9.7832 6.90332V13.2965" stroke="black" stroke-width="0.5"/>
<path d="M9.78273 6.979L8.0769 13.221" stroke="black" stroke-width="0.5"/>
<path d="M9.7738 6.96631L6.38306 12.7326" stroke="black" stroke-width="0.5"/>
<path d="M9.7832 6.979L11.486 13.221" stroke="black" stroke-width="0.5"/>
<path d="M9.79224 6.96631L13.183 12.7326" stroke="black" stroke-width="0.5"/>
<path d="M9.78301 8.4939C11.7189 8.4939 13.2962 7.20599 13.2962 5.62537C13.2962 4.04475 11.7189 2.75684 9.78301 2.75684C7.84715 2.75684 6.26978 4.04475 6.26978 5.62537C6.26978 7.20599 7.84715 8.4939 9.78301 8.4939Z" fill="white" stroke="black" stroke-width="0.5"/>
<path d="M38.0723 23.2026L38.0723 16.8094" stroke="black" stroke-width="0.5"/>
<path d="M38.074 23.127L39.7798 16.885" stroke="black" stroke-width="0.5"/>
<path d="M38.0839 23.1396L41.4746 17.3733" stroke="black" stroke-width="0.5"/>
<path d="M38.0723 23.127L36.3694 16.885" stroke="black" stroke-width="0.5"/>
<path d="M38.0654 23.1396L34.6747 17.3733" stroke="black" stroke-width="0.5"/>
<path d="M38.0747 21.6121C36.1388 21.6121 34.5614 22.9 34.5614 24.4806C34.5614 26.0612 36.1388 27.3491 38.0747 27.3491C40.0105 27.3491 41.5879 26.0612 41.5879 24.4806C41.5879 22.9 40.0105 21.6121 38.0747 21.6121Z" fill="white" stroke="black" stroke-width="0.5"/>
<path d="M23.9302 6.90332V13.2965" stroke="black" stroke-width="0.5"/>
<path d="M23.9297 6.979L22.2239 13.221" stroke="black" stroke-width="0.5"/>
<path d="M23.9196 6.96631L20.5288 12.7326" stroke="black" stroke-width="0.5"/>
<path d="M23.9302 6.979L25.633 13.221" stroke="black" stroke-width="0.5"/>
<path d="M23.937 6.96631L27.3278 12.7326" stroke="black" stroke-width="0.5"/>
<path d="M23.9288 8.4939C25.8646 8.4939 27.442 7.20599 27.442 5.62537C27.442 4.04475 25.8646 2.75684 23.9288 2.75684C21.9929 2.75684 20.4155 4.04475 20.4155 5.62537C20.4155 7.20599 21.9929 8.4939 23.9288 8.4939Z" fill="white" stroke="black" stroke-width="0.5"/>
<path d="M23.9265 23.2026L23.9265 16.8094" stroke="black" stroke-width="0.5"/>
<path d="M23.9304 23.127L25.6362 16.885" stroke="black" stroke-width="0.5"/>
<path d="M23.9381 23.1396L27.3289 17.3733" stroke="black" stroke-width="0.5"/>
<path d="M23.9265 23.127L22.2237 16.885" stroke="black" stroke-width="0.5"/>
<path d="M23.9197 23.1396L20.5289 17.3733" stroke="black" stroke-width="0.5"/>
<path d="M23.9289 21.6121C21.993 21.6121 20.4157 22.9 20.4157 24.4806C20.4157 26.0612 21.993 27.3491 23.9289 27.3491C25.8648 27.3491 27.4421 26.0612 27.4421 24.4806C27.4421 22.9 25.8648 21.6121 23.9289 21.6121Z" fill="white" stroke="black" stroke-width="0.5"/>
<path d="M38.0769 6.90332V13.2965" stroke="black" stroke-width="0.5"/>
<path d="M38.074 6.979L36.3682 13.221" stroke="black" stroke-width="0.5"/>
<path d="M38.0653 6.96631L34.6746 12.7326" stroke="black" stroke-width="0.5"/>
<path d="M38.0769 6.979L39.7797 13.221" stroke="black" stroke-width="0.5"/>
<path d="M38.0837 6.96631L41.4745 12.7326" stroke="black" stroke-width="0.5"/>
<path d="M38.0743 8.4939C40.0101 8.4939 41.5875 7.20599 41.5875 5.62537C41.5875 4.04475 40.0101 2.75684 38.0743 2.75684C36.1384 2.75684 34.561 4.04475 34.561 5.62537C34.561 7.20599 36.1384 8.4939 38.0743 8.4939Z" fill="white" stroke="black" stroke-width="0.5"/>
<path d="M9.78101 23.2026L9.78101 16.8094" stroke="black" stroke-width="0.5"/>
<path d="M9.7827 23.127L11.4885 16.885" stroke="black" stroke-width="0.5"/>
<path d="M9.7926 23.1396L13.1833 17.3733" stroke="black" stroke-width="0.5"/>
<path d="M9.78101 23.1274L8.07816 16.8855" stroke="black" stroke-width="0.5"/>
<path d="M9.77417 23.1396L6.38342 17.3733" stroke="black" stroke-width="0.5"/>
<path d="M9.78315 21.6121C7.84729 21.6121 6.26992 22.9 6.26992 24.4806C6.26992 26.0612 7.84729 27.3491 9.78315 27.3491C11.719 27.3491 13.2964 26.0612 13.2964 24.4806C13.2964 22.9 11.719 21.6121 9.78315 21.6121Z" fill="white" stroke="black" stroke-width="0.5"/>
<path d="M52.2214 6.90332V13.2965" stroke="black" stroke-width="0.5"/>
<path d="M52.221 6.97852L50.5151 13.2205" stroke="black" stroke-width="0.5"/>
<path d="M52.2111 6.96582L48.8203 12.7322" stroke="black" stroke-width="0.5"/>
<path d="M52.2214 6.97852L53.9243 13.2205" stroke="black" stroke-width="0.5"/>
<path d="M52.2283 6.96582L55.619 12.7322" stroke="black" stroke-width="0.5"/>
<path d="M52.2203 8.49341C54.1561 8.49341 55.7335 7.2055 55.7335 5.62488C55.7335 4.04426 54.1561 2.75635 52.2203 2.75635C50.2844 2.75635 48.707 4.04426 48.707 5.62488C48.707 7.2055 50.2844 8.49341 52.2203 8.49341Z" fill="white" stroke="black" stroke-width="0.5"/>
</svg>
