<svg width="36" height="40" viewBox="0 0 36 40" fill="none" xmlns="http://www.w3.org/2000/svg">
<path d="M7.78125 35.7707H24.7864V35.2707V34.7707C23.4637 34.7707 22.4791 33.7081 21.7866 32.4407C21.4508 31.8263 21.2089 31.2074 21.0507 30.7395C20.9719 30.5064 20.9145 30.3128 20.8771 30.1786C20.8585 30.1116 20.8448 30.0595 20.836 30.025L20.8264 29.9865L20.8243 29.9778L20.8239 29.9763L20.8239 29.9761L20.8239 29.9761L20.8239 29.976L20.7336 29.5902H20.4096L16.5594 28.4012L16.4165 28.357L16.2728 28.3987L12.0915 29.61L11.8104 29.6914L11.7438 29.976L11.7438 29.9761L11.7438 29.9761L11.7437 29.9763L11.7434 29.9778L11.7413 29.9865L11.7317 30.025C11.7229 30.0595 11.7092 30.1116 11.6905 30.1786C11.6531 30.3128 11.5958 30.5064 11.517 30.7395C11.3587 31.2074 11.1168 31.8263 10.7811 32.4407C10.0886 33.7081 9.10402 34.7707 7.78125 34.7707V35.2707V35.7707Z" fill="white" stroke="black"/>
<path d="M27.7407 39.5015H28.2407V39.0015V35.8615C28.2407 35.2559 27.7427 34.7734 27.1451 34.7734H5.67864C5.08098 34.7734 4.58301 35.2559 4.58301 35.8615V39.0015V39.5015H5.08301H27.7407Z" fill="white" stroke="black"/>
<path d="M30.7836 15.4251L30.7725 15.4251C30.6969 13.1072 30.097 10.9236 29.0874 8.9917L34.3398 8.9917L34.8398 8.9917L34.8398 8.4917L34.8398 1.56753L34.8398 1.06753L34.3398 1.06753L16.4445 1.06753C16.3985 1.06753 16.3509 1.06574 16.292 1.06344L16.2882 1.06329C16.2333 1.06115 16.1677 1.05859 16.1005 1.05859C7.9859 1.05859 1.41746 7.72131 1.41746 15.9251C1.41746 24.129 7.9859 30.7917 16.1005 30.7917C24.2151 30.7917 30.7836 24.129 30.7836 15.9251L30.7836 15.4251Z" fill="white" stroke="black"/>
<path d="M34.3755 10.2083L34.8755 10.2083L34.8755 9.70831L34.8755 1L34.8755 0.5L34.3755 0.5L32.7922 0.5L32.2922 0.5L32.2922 1L32.2922 9.70831L32.2922 10.2083L32.7922 10.2083L34.3755 10.2083Z" fill="white" stroke="black"/>
<path d="M26.536 20.0842L25.7021 18.5053V14.545L26.533 12.9779C26.6611 12.7369 26.6522 12.4487 26.5152 12.2165L25.0708 9.74971C24.9338 9.5145 24.6836 9.36456 24.4096 9.3528L22.6049 9.27341L19.1324 7.29472L18.1645 5.78939C18.0185 5.56006 17.7624 5.42188 17.4884 5.42188H14.5996C14.3256 5.42188 14.0695 5.56006 13.9236 5.78939L12.9557 7.29472L9.48617 9.26459L7.68141 9.34398C7.40742 9.35574 7.15726 9.50568 7.02027 9.74089L5.57587 12.2076C5.43887 12.4428 5.43292 12.731 5.558 12.9691L6.39188 14.548V18.5083L5.558 20.0871C5.42994 20.3282 5.43887 20.6163 5.57587 20.8486L7.02027 23.3154C7.15726 23.5506 7.40742 23.7005 7.68141 23.7123L9.48617 23.7917L12.9587 25.7703L13.9266 27.2757C14.0725 27.505 14.3286 27.6432 14.6026 27.6432H17.4914C17.7654 27.6432 18.0215 27.505 18.1674 27.2757L19.1353 25.7703L22.6078 23.7917L24.4126 23.7123C24.6866 23.7005 24.9368 23.5506 25.0737 23.3154L26.5181 20.8486C26.6551 20.6134 26.6611 20.3253 26.536 20.0871V20.0842ZM16.047 22.8508C12.503 22.8508 9.62912 20.0195 9.62912 16.5237C9.62912 13.0279 12.503 10.1966 16.047 10.1966C19.591 10.1966 22.4649 13.0279 22.4649 16.5237C22.4649 20.0195 19.591 22.8508 16.047 22.8508Z" fill="black"/>
<path d="M16.0467 19.9206C17.9464 19.9206 19.4864 18.4002 19.4864 16.5247C19.4864 14.6493 17.9464 13.1289 16.0467 13.1289C14.147 13.1289 12.6069 14.6493 12.6069 16.5247C12.6069 18.4002 14.147 19.9206 16.0467 19.9206Z" fill="black"/>
</svg>
