<svg width="106" height="56" viewBox="0 0 106 56" fill="none" xmlns="http://www.w3.org/2000/svg">
<path d="M105.27 0.980469L1.26978 0.980469L1.26978 54.9805L105.27 54.9805V0.980469Z" stroke="#666666"/>
<path d="M13.9847 12.322V24.6053" stroke="black" stroke-width="0.5"/>
<path d="M13.9838 12.4668L10.7064 24.4596" stroke="black" stroke-width="0.5"/>
<path d="M13.9672 12.4429L7.45251 23.5218" stroke="black" stroke-width="0.5"/>
<path d="M13.9847 12.4666L17.2564 24.4593" stroke="black" stroke-width="0.5"/>
<path d="M14.0011 12.4429L20.5158 23.5218" stroke="black" stroke-width="0.5"/>
<path d="M13.9847 15.3781C17.7041 15.3781 20.7347 12.9036 20.7347 9.8668C20.7347 6.82994 17.7041 4.35547 13.9847 4.35547C10.2654 4.35547 7.23474 6.82994 7.23474 9.8668C7.23474 12.9036 10.2654 15.3781 13.9847 15.3781Z" fill="white" stroke="black" stroke-width="0.5"/>
<path d="M95.5198 43.6389L95.5198 31.3556" stroke="black" stroke-width="0.5"/>
<path d="M95.5207 43.4941L98.7981 31.5014" stroke="black" stroke-width="0.5"/>
<path d="M95.5373 43.5181L102.052 32.4392" stroke="black" stroke-width="0.5"/>
<path d="M95.5198 43.4944L92.2481 31.5016" stroke="black" stroke-width="0.5"/>
<path d="M95.5034 43.5181L88.9888 32.4392" stroke="black" stroke-width="0.5"/>
<path d="M95.5198 40.5828C91.8004 40.5828 88.7698 43.0573 88.7698 46.0941C88.7698 49.131 91.8004 51.6055 95.5198 51.6055C99.2392 51.6055 102.27 49.131 102.27 46.0941C102.27 43.0573 99.2392 40.5828 95.5198 40.5828Z" fill="white" stroke="black" stroke-width="0.5"/>
<path d="M41.167 12.322V24.6053" stroke="black" stroke-width="0.5"/>
<path d="M41.1654 12.4668L37.8879 24.4596" stroke="black" stroke-width="0.5"/>
<path d="M41.1458 12.4429L34.6311 23.5218" stroke="black" stroke-width="0.5"/>
<path d="M41.167 12.4666L44.4387 24.4593" stroke="black" stroke-width="0.5"/>
<path d="M41.1797 12.4429L47.6944 23.5218" stroke="black" stroke-width="0.5"/>
<path d="M41.1633 15.3781C44.8827 15.3781 47.9133 12.9036 47.9133 9.8668C47.9133 6.82994 44.8827 4.35547 41.1633 4.35547C37.4439 4.35547 34.4133 6.82994 34.4133 9.8668C34.4133 12.9036 37.4439 15.3781 41.1633 15.3781Z" fill="white" stroke="black" stroke-width="0.5"/>
<path d="M68.3372 43.6392L68.3372 31.3558" stroke="black" stroke-width="0.5"/>
<path d="M68.339 43.4941L71.6165 31.5014" stroke="black" stroke-width="0.5"/>
<path d="M68.3586 43.5181L74.8733 32.4392" stroke="black" stroke-width="0.5"/>
<path d="M68.3372 43.4941L65.0655 31.5014" stroke="black" stroke-width="0.5"/>
<path d="M68.3247 43.5181L61.81 32.4392" stroke="black" stroke-width="0.5"/>
<path d="M68.3411 40.5828C64.6217 40.5828 61.5911 43.0573 61.5911 46.0941C61.5911 49.131 64.6217 51.6055 68.3411 51.6055C72.0605 51.6055 75.0911 49.131 75.0911 46.0941C75.0911 43.0573 72.0605 40.5828 68.3411 40.5828Z" fill="white" stroke="black" stroke-width="0.5"/>
<path d="M68.3429 12.322V24.6053" stroke="black" stroke-width="0.5"/>
<path d="M68.3381 12.4666L65.0607 24.4593" stroke="black" stroke-width="0.5"/>
<path d="M68.3225 12.4429L61.8079 23.5218" stroke="black" stroke-width="0.5"/>
<path d="M68.3429 12.4666L71.6146 24.4593" stroke="black" stroke-width="0.5"/>
<path d="M68.3574 12.4429L74.8721 23.5218" stroke="black" stroke-width="0.5"/>
<path d="M68.3411 15.3781C72.0604 15.3781 75.0911 12.9036 75.0911 9.8668C75.0911 6.82994 72.0604 4.35547 68.3411 4.35547C64.6217 4.35547 61.5911 6.82994 61.5911 9.8668C61.5911 12.9036 64.6217 15.3781 68.3411 15.3781Z" fill="white" stroke="black" stroke-width="0.5"/>
<path d="M41.1594 43.6392L41.1594 31.3558" stroke="black" stroke-width="0.5"/>
<path d="M41.1664 43.4944L44.4438 31.5016" stroke="black" stroke-width="0.5"/>
<path d="M41.1819 43.5181L47.6965 32.4392" stroke="black" stroke-width="0.5"/>
<path d="M41.1594 43.4941L37.8877 31.5014" stroke="black" stroke-width="0.5"/>
<path d="M41.1467 43.5181L34.6321 32.4392" stroke="black" stroke-width="0.5"/>
<path d="M41.1633 40.5828C37.4439 40.5828 34.4133 43.0573 34.4133 46.0941C34.4133 49.131 37.4439 51.6055 41.1633 51.6055C44.8827 51.6055 47.9133 49.131 47.9133 46.0941C47.9133 43.0573 44.8827 40.5828 41.1633 40.5828Z" fill="white" stroke="black" stroke-width="0.5"/>
<path d="M95.5237 12.3218V24.6051" stroke="black" stroke-width="0.5"/>
<path d="M95.5208 12.4668L92.2434 24.4596" stroke="black" stroke-width="0.5"/>
<path d="M95.5022 12.4429L88.9875 23.5218" stroke="black" stroke-width="0.5"/>
<path d="M95.5237 12.4668L98.7954 24.4596" stroke="black" stroke-width="0.5"/>
<path d="M95.5361 12.4429L102.051 23.5218" stroke="black" stroke-width="0.5"/>
<path d="M95.5198 15.3781C99.2392 15.3781 102.27 12.9036 102.27 9.8668C102.27 6.82994 99.2392 4.35547 95.5198 4.35547C91.8004 4.35547 88.7698 6.82994 88.7698 9.8668C88.7698 12.9036 91.8004 15.3781 95.5198 15.3781Z" fill="white" stroke="black" stroke-width="0.5"/>
<path d="M13.9829 43.6389L13.9829 31.3556" stroke="black" stroke-width="0.5"/>
<path d="M13.9837 43.4941L17.2611 31.5014" stroke="black" stroke-width="0.5"/>
<path d="M14.0023 43.5181L20.517 32.4392" stroke="black" stroke-width="0.5"/>
<path d="M13.9829 43.4944L10.7112 31.5016" stroke="black" stroke-width="0.5"/>
<path d="M13.9684 43.5181L7.45372 32.4392" stroke="black" stroke-width="0.5"/>
<path d="M13.9847 40.5828C10.2654 40.5828 7.23475 43.0573 7.23475 46.0941C7.23475 49.131 10.2654 51.6055 13.9847 51.6055C17.7041 51.6055 20.7347 49.131 20.7347 46.0941C20.7347 43.0573 17.7041 40.5828 13.9847 40.5828Z" fill="white" stroke="black" stroke-width="0.5"/>
</svg>
