<svg width="36" height="40" viewBox="0 0 36 40" fill="none" xmlns="http://www.w3.org/2000/svg">
<path d="M7.61572 35.7707H24.621V35.2707V34.7707C23.2982 34.7707 22.3136 33.7081 21.6211 32.4407C21.2853 31.8263 21.0434 31.2075 20.8852 30.7395C20.8064 30.5064 20.749 30.3128 20.7117 30.1786C20.693 30.1116 20.6793 30.0595 20.6705 30.025L20.6609 29.9865L20.6588 29.9778L20.6584 29.9763L20.6584 29.9761L20.6584 29.9761L20.6584 29.976L20.5681 29.5902H20.2441L16.3939 28.4012L16.251 28.357L16.1073 28.3987L11.9259 29.61L11.6449 29.6914L11.5783 29.976L11.5783 29.9761L11.5783 29.9761L11.5782 29.9763L11.5779 29.9778L11.5758 29.9865L11.5662 30.025C11.5573 30.0595 11.5437 30.1116 11.525 30.1786C11.4876 30.3128 11.4303 30.5064 11.3514 30.7395C11.1932 31.2075 10.9513 31.8263 10.6156 32.4407C9.92306 33.7081 8.9385 34.7707 7.61572 34.7707V35.2707V35.7707Z" fill="#FEF546" stroke="black"/>
<path d="M27.5752 39.5015H28.0752V39.0015V35.8615C28.0752 35.2559 27.5773 34.7734 26.9796 34.7734H5.51311C4.91545 34.7734 4.41748 35.2559 4.41748 35.8615V39.0015V39.5015H4.91748H27.5752Z" fill="#FEF546" stroke="black"/>
<path d="M30.6166 15.4252L30.6055 15.4252C30.5298 13.1072 29.93 10.9236 28.9204 8.99172L34.1729 8.99172L34.6729 8.99172L34.6729 8.49172L34.6729 1.56753L34.6729 1.06753L34.1729 1.06753L16.2775 1.06753C16.2315 1.06753 16.1839 1.06574 16.1249 1.06344L16.1212 1.06329C16.0662 1.06115 16.0006 1.05859 15.9335 1.05859C7.81883 1.05859 1.25037 7.72133 1.25037 15.9252C1.25037 24.129 7.81883 30.7918 15.9335 30.7918C24.0481 30.7918 30.6166 24.129 30.6166 15.9252L30.6166 15.4252Z" fill="#FEF546" stroke="black"/>
<path d="M34.2075 10.2083L34.7075 10.2083L34.7075 9.70833L34.7075 1L34.7075 0.5L34.2075 0.5L32.6242 0.5L32.1242 0.5L32.1242 1L32.1242 9.70833L32.1242 10.2083L32.6242 10.2083L34.2075 10.2083Z" fill="#FEF546" stroke="black"/>
<path d="M26.3681 20.0842L25.5342 18.5054V14.5451L26.3651 12.978C26.4932 12.7369 26.4843 12.4487 26.3473 12.2165L24.9029 9.74972C24.7659 9.51451 24.5157 9.36457 24.2417 9.35281L22.437 9.27343L18.9644 7.29473L17.9965 5.78939C17.8506 5.56006 17.5945 5.42188 17.3205 5.42188H14.4317C14.1577 5.42188 13.9016 5.56006 13.7557 5.78939L12.7878 7.29473L9.31821 9.2646L7.51345 9.34399C7.23946 9.35575 6.9893 9.50569 6.8523 9.7409L5.4079 12.2077C5.27091 12.4429 5.26495 12.731 5.39003 12.9691L6.22391 14.548V18.5083L5.39003 20.0872C5.26197 20.3283 5.27091 20.6164 5.4079 20.8487L6.8523 23.3154C6.9893 23.5506 7.23946 23.7006 7.51345 23.7123L9.31821 23.7917L12.7907 25.7704L13.7586 27.2757C13.9046 27.5051 14.1607 27.6433 14.4347 27.6433H17.3235C17.5975 27.6433 17.8536 27.5051 17.9995 27.2757L18.9674 25.7704L22.4399 23.7917L24.2447 23.7123C24.5187 23.7006 24.7688 23.5506 24.9058 23.3154L26.3502 20.8487C26.4872 20.6134 26.4932 20.3253 26.3681 20.0872V20.0842ZM15.8791 22.8509C12.3351 22.8509 9.46116 20.0195 9.46116 16.5237C9.46116 13.028 12.3351 10.1966 15.8791 10.1966C19.4231 10.1966 22.297 13.028 22.297 16.5237C22.297 20.0195 19.4231 22.8509 15.8791 22.8509Z" fill="black"/>
<path d="M15.8797 19.9206C17.7794 19.9206 19.3195 18.4002 19.3195 16.5247C19.3195 14.6493 17.7794 13.1289 15.8797 13.1289C13.98 13.1289 12.4399 14.6493 12.4399 16.5247C12.4399 18.4002 13.98 19.9206 15.8797 19.9206Z" fill="black"/>
</svg>
