<svg width="106" height="56" viewBox="0 0 106 56" fill="none" xmlns="http://www.w3.org/2000/svg">
<path d="M105.158 0.980469L1.1582 0.980469L1.1582 54.9805L105.158 54.9805V0.980469Z" stroke="#666666"/>
<path d="M13.8732 12.322V24.6053" stroke="black" stroke-width="0.5"/>
<path d="M13.8723 12.4668L10.5948 24.4596" stroke="black" stroke-width="0.5"/>
<path d="M13.8556 12.4429L7.34094 23.5218" stroke="black" stroke-width="0.5"/>
<path d="M13.8732 12.4666L17.1449 24.4593" stroke="black" stroke-width="0.5"/>
<path d="M13.8895 12.4429L20.4042 23.5218" stroke="black" stroke-width="0.5"/>
<path d="M13.8732 15.3781C17.5926 15.3781 20.6232 12.9036 20.6232 9.8668C20.6232 6.82994 17.5926 4.35547 13.8732 4.35547C10.1538 4.35547 7.12317 6.82994 7.12317 9.8668C7.12317 12.9036 10.1538 15.3781 13.8732 15.3781Z" fill="#999999" stroke="black" stroke-width="0.5"/>
<path d="M95.4082 43.6389L95.4082 31.3556" stroke="black" stroke-width="0.5"/>
<path d="M95.4091 43.4941L98.6865 31.5014" stroke="black" stroke-width="0.5"/>
<path d="M95.4258 43.5181L101.94 32.4392" stroke="black" stroke-width="0.5"/>
<path d="M95.4082 43.4944L92.1365 31.5016" stroke="black" stroke-width="0.5"/>
<path d="M95.3918 43.5181L88.8772 32.4392" stroke="black" stroke-width="0.5"/>
<path d="M95.4082 40.5828C91.6888 40.5828 88.6582 43.0573 88.6582 46.0941C88.6582 49.131 91.6888 51.6055 95.4082 51.6055C99.1276 51.6055 102.158 49.131 102.158 46.0941C102.158 43.0573 99.1276 40.5828 95.4082 40.5828Z" fill="#999999" stroke="black" stroke-width="0.5"/>
<path d="M41.0554 12.322V24.6053" stroke="black" stroke-width="0.5"/>
<path d="M41.0538 12.4668L37.7764 24.4596" stroke="black" stroke-width="0.5"/>
<path d="M41.0342 12.4429L34.5195 23.5218" stroke="black" stroke-width="0.5"/>
<path d="M41.0554 12.4666L44.3271 24.4593" stroke="black" stroke-width="0.5"/>
<path d="M41.0681 12.4429L47.5828 23.5218" stroke="black" stroke-width="0.5"/>
<path d="M41.0518 15.3781C44.7711 15.3781 47.8018 12.9036 47.8018 9.8668C47.8018 6.82994 44.7711 4.35547 41.0518 4.35547C37.3324 4.35547 34.3018 6.82994 34.3018 9.8668C34.3018 12.9036 37.3324 15.3781 41.0518 15.3781Z" fill="#999999" stroke="black" stroke-width="0.5"/>
<path d="M68.2256 43.6392L68.2256 31.3558" stroke="black" stroke-width="0.5"/>
<path d="M68.2275 43.4941L71.5049 31.5014" stroke="black" stroke-width="0.5"/>
<path d="M68.2471 43.5181L74.7617 32.4392" stroke="black" stroke-width="0.5"/>
<path d="M68.2256 43.4941L64.9539 31.5014" stroke="black" stroke-width="0.5"/>
<path d="M68.2131 43.5181L61.6985 32.4392" stroke="black" stroke-width="0.5"/>
<path d="M68.2295 40.5828C64.5101 40.5828 61.4795 43.0573 61.4795 46.0941C61.4795 49.131 64.5101 51.6055 68.2295 51.6055C71.9489 51.6055 74.9795 49.131 74.9795 46.0941C74.9795 43.0573 71.9489 40.5828 68.2295 40.5828Z" fill="#999999" stroke="black" stroke-width="0.5"/>
<path d="M68.2313 12.322V24.6053" stroke="black" stroke-width="0.5"/>
<path d="M68.2265 12.4666L64.9491 24.4593" stroke="black" stroke-width="0.5"/>
<path d="M68.211 12.4429L61.6963 23.5218" stroke="black" stroke-width="0.5"/>
<path d="M68.2313 12.4666L71.503 24.4593" stroke="black" stroke-width="0.5"/>
<path d="M68.2458 12.4429L74.7605 23.5218" stroke="black" stroke-width="0.5"/>
<path d="M68.2295 15.3781C71.9489 15.3781 74.9795 12.9036 74.9795 9.8668C74.9795 6.82994 71.9489 4.35547 68.2295 4.35547C64.5101 4.35547 61.4795 6.82994 61.4795 9.8668C61.4795 12.9036 64.5101 15.3781 68.2295 15.3781Z" fill="#999999" stroke="black" stroke-width="0.5"/>
<path d="M41.0479 43.6392L41.0479 31.3558" stroke="black" stroke-width="0.5"/>
<path d="M41.0549 43.4944L44.3323 31.5016" stroke="black" stroke-width="0.5"/>
<path d="M41.0703 43.5181L47.585 32.4392" stroke="black" stroke-width="0.5"/>
<path d="M41.0479 43.4941L37.7762 31.5014" stroke="black" stroke-width="0.5"/>
<path d="M41.0352 43.5181L34.5205 32.4392" stroke="black" stroke-width="0.5"/>
<path d="M41.0518 40.5828C37.3324 40.5828 34.3018 43.0573 34.3018 46.0941C34.3018 49.131 37.3324 51.6055 41.0518 51.6055C44.7711 51.6055 47.8018 49.131 47.8018 46.0941C47.8018 43.0573 44.7711 40.5828 41.0518 40.5828Z" fill="#999999" stroke="black" stroke-width="0.5"/>
<path d="M95.4121 12.3218V24.6051" stroke="black" stroke-width="0.5"/>
<path d="M95.4093 12.4668L92.1318 24.4596" stroke="black" stroke-width="0.5"/>
<path d="M95.3906 12.4429L88.876 23.5218" stroke="black" stroke-width="0.5"/>
<path d="M95.4121 12.4668L98.6838 24.4596" stroke="black" stroke-width="0.5"/>
<path d="M95.4246 12.4429L101.939 23.5218" stroke="black" stroke-width="0.5"/>
<path d="M95.4082 15.3781C99.1276 15.3781 102.158 12.9036 102.158 9.8668C102.158 6.82994 99.1276 4.35547 95.4082 4.35547C91.6888 4.35547 88.6582 6.82994 88.6582 9.8668C88.6582 12.9036 91.6888 15.3781 95.4082 15.3781Z" fill="#999999" stroke="black" stroke-width="0.5"/>
<path d="M13.8713 43.6389L13.8713 31.3556" stroke="black" stroke-width="0.5"/>
<path d="M13.8721 43.4941L17.1495 31.5014" stroke="black" stroke-width="0.5"/>
<path d="M13.8907 43.5181L20.4054 32.4392" stroke="black" stroke-width="0.5"/>
<path d="M13.8713 43.4944L10.5997 31.5016" stroke="black" stroke-width="0.5"/>
<path d="M13.8568 43.5181L7.34215 32.4392" stroke="black" stroke-width="0.5"/>
<path d="M13.8732 40.5828C10.1538 40.5828 7.12317 43.0573 7.12317 46.0941C7.12317 49.131 10.1538 51.6055 13.8732 51.6055C17.5926 51.6055 20.6232 49.131 20.6232 46.0941C20.6232 43.0573 17.5926 40.5828 13.8732 40.5828Z" fill="#999999" stroke="black" stroke-width="0.5"/>
</svg>
