<svg width="35" height="40" viewBox="0 0 35 40" fill="none" xmlns="http://www.w3.org/2000/svg">
<path d="M6.86426 35.7707H23.8694V35.2707V34.7707C22.5467 34.7707 21.5621 33.7081 20.8696 32.4407C20.5338 31.8263 20.2919 31.2074 20.1337 30.7395C20.0549 30.5064 19.9975 30.3128 19.9602 30.1786C19.9415 30.1116 19.9278 30.0595 19.919 30.025L19.9094 29.9865L19.9073 29.9778L19.9069 29.9763L19.9069 29.9761L19.9069 29.9761L19.9069 29.976L19.8166 29.5902H19.4926L15.6424 28.4012L15.4995 28.357L15.3558 28.3987L11.1745 29.61L10.8934 29.6914L10.8268 29.976L10.8268 29.9761L10.8268 29.9761L10.8267 29.9763L10.8264 29.9778L10.8243 29.9865L10.8147 30.025C10.8059 30.0595 10.7922 30.1116 10.7735 30.1786C10.7362 30.3128 10.6788 30.5064 10.6 30.7395C10.4418 31.2074 10.1999 31.8263 9.86412 32.4407C9.17158 33.7081 8.18703 34.7707 6.86426 34.7707V35.2707V35.7707Z" fill="#E0E0E0" stroke="black"/>
<path d="M26.8237 39.5015H27.3237V39.0015V35.8615C27.3237 35.2559 26.8257 34.7734 26.2281 34.7734H4.76164C4.16398 34.7734 3.66602 35.2559 3.66602 35.8615V39.0015V39.5015H4.16602H26.8237Z" fill="#E0E0E0" stroke="black"/>
<path d="M29.8666 15.4251L29.8555 15.4251C29.7799 13.1072 29.1801 10.9236 28.1704 8.9917L33.4229 8.9917L33.9229 8.9917L33.9229 8.4917L33.9229 1.56753L33.9229 1.06753L33.4229 1.06753L15.5275 1.06753C15.4816 1.06753 15.434 1.06574 15.375 1.06344L15.3712 1.06329C15.3163 1.06115 15.2507 1.05859 15.1835 1.05859C7.06891 1.05859 0.500465 7.72131 0.500465 15.9251C0.500464 24.129 7.06891 30.7917 15.1835 30.7917C23.2982 30.7917 29.8666 24.129 29.8666 15.9251L29.8666 15.4251Z" fill="#E0E0E0" stroke="black"/>
<path d="M33.4585 10.2083L33.9585 10.2083L33.9585 9.70831L33.9585 1L33.9585 0.5L33.4585 0.5L31.8752 0.5L31.3752 0.5L31.3752 1L31.3752 9.70831L31.3752 10.2083L31.8752 10.2083L33.4585 10.2083Z" fill="#E0E0E0" stroke="black"/>
<path d="M25.619 20.0842L24.7851 18.5053V14.545L25.616 12.9779C25.7441 12.7369 25.7352 12.4487 25.5982 12.2165L24.1538 9.74971C24.0168 9.5145 23.7666 9.36456 23.4926 9.3528L21.6879 9.27341L18.2154 7.29472L17.2475 5.78939C17.1015 5.56006 16.8454 5.42188 16.5714 5.42188H13.6826C13.4087 5.42188 13.1525 5.56006 13.0066 5.78939L12.0387 7.29472L8.56917 9.26459L6.76442 9.34398C6.49043 9.35574 6.24027 9.50568 6.10327 9.74089L4.65888 12.2076C4.52188 12.4428 4.51593 12.731 4.64101 12.9691L5.47489 14.548V18.5083L4.64101 20.0871C4.51295 20.3282 4.52188 20.6163 4.65888 20.8486L6.10327 23.3154C6.24027 23.5506 6.49043 23.7005 6.76442 23.7123L8.56917 23.7917L12.0417 25.7703L13.0096 27.2757C13.1555 27.505 13.4116 27.6432 13.6856 27.6432H16.5744C16.8484 27.6432 17.1045 27.505 17.2505 27.2757L18.2183 25.7703L21.6909 23.7917L23.4956 23.7123C23.7696 23.7005 24.0198 23.5506 24.1568 23.3154L25.6012 20.8486C25.7381 20.6134 25.7441 20.3253 25.619 20.0871V20.0842ZM15.13 22.8508C11.586 22.8508 8.71212 20.0195 8.71212 16.5237C8.71212 13.0279 11.586 10.1966 15.13 10.1966C18.674 10.1966 21.5479 13.0279 21.5479 16.5237C21.5479 20.0195 18.674 22.8508 15.13 22.8508Z" fill="black"/>
<path d="M15.1297 19.9206C17.0294 19.9206 18.5694 18.4002 18.5694 16.5247C18.5694 14.6493 17.0294 13.1289 15.1297 13.1289C13.23 13.1289 11.6899 14.6493 11.6899 16.5247C11.6899 18.4002 13.23 19.9206 15.1297 19.9206Z" fill="black"/>
</svg>
