<svg width="56" height="56" viewBox="0 0 56 56" fill="none" xmlns="http://www.w3.org/2000/svg">
<circle cx="28" cy="28" r="27.5" fill="white" stroke="black"/>
<path d="M54.987 28C54.987 27.8528 54.9998 27.7121 54.9998 27.5649C54.9998 12.8941 42.9088 1 27.9966 1V28H54.987Z" fill="#CCCCCC"/>
<path d="M54.9874 28C54.9874 28.1472 55.0002 28.2879 55.0002 28.4351C55.0002 43.1059 42.9156 55 28.0034 55V28H54.9938H54.9874Z" fill="#999999"/>
<path d="M1.01279 28C1.01279 27.8528 1 27.7121 1 27.5649C1 12.8941 13.0846 1 27.9968 1V28H1.01279Z" fill="#999999"/>
<path d="M1.01279 28C1.01279 28.1472 1 28.2879 1 28.4351C1 43.1059 13.0846 55 27.9968 55V28H1.0064H1.01279Z" fill="#CCCCCC"/>
<path d="M27.9997 38.2607C33.6662 38.2607 38.2597 33.6672 38.2597 28.0007C38.2597 22.3343 33.6662 17.7407 27.9997 17.7407C22.3333 17.7407 17.7397 22.3343 17.7397 28.0007C17.7397 33.6672 22.3333 38.2607 27.9997 38.2607Z" fill="black"/>
</svg>
