<svg width="28" height="28" viewBox="0 0 28 28" fill="none" xmlns="http://www.w3.org/2000/svg">
<circle cx="14" cy="14" r="13.5" fill="white" stroke="black"/>
<path d="M26.9939 14C26.9939 13.9291 27.0001 13.8614 27.0001 13.7905C27.0001 6.72677 21.1785 1 13.9985 1V14H26.9939Z" fill="#CCCCCC"/>
<path d="M26.9938 14C26.9938 14.0709 26.9999 14.1386 26.9999 14.2095C26.9999 21.2732 21.1814 27 14.0015 27V14H26.9969H26.9938Z" fill="#999999"/>
<path d="M1.00616 14C1.00616 13.9291 1 13.8614 1 13.7905C1 6.72677 6.81851 1 13.9985 1V14H1.00616Z" fill="#999999"/>
<path d="M1.00616 14C1.00616 14.0709 1 14.1386 1 14.2095C1 21.2732 6.81851 27 13.9985 27V14H1.00308H1.00616Z" fill="#CCCCCC"/>
<path d="M14.0001 18.9401C16.7283 18.9401 18.9401 16.7283 18.9401 14.0001C18.9401 11.2718 16.7283 9.06006 14.0001 9.06006C11.2718 9.06006 9.06006 11.2718 9.06006 14.0001C9.06006 16.7283 11.2718 18.9401 14.0001 18.9401Z" fill="black"/>
</svg>
