<svg width="42" height="42" viewBox="0 0 42 42" fill="none" xmlns="http://www.w3.org/2000/svg">
<circle cx="21" cy="21" r="20.5" fill="#0178D5" stroke="black"/>
<g filter="url(#filter0_i_1833_22042)">
<path d="M40.9909 21C40.9909 20.891 41.0004 20.7867 41.0004 20.6777C41.0004 9.81042 32.0441 1 20.998 1V21H40.9909Z" fill="#56AFF4"/>
</g>
<path d="M40.9901 21C40.9901 21.109 40.9996 21.2133 40.9996 21.3223C40.9996 32.1896 32.048 41 21.002 41V21H40.9949H40.9901Z" fill="#56AFF4"/>
<g filter="url(#filter1_i_1833_22042)">
<path d="M1.00948 21C1.00948 20.891 1 20.7867 1 20.6777C1 9.81042 9.95155 1 20.9976 1V21H1.00948Z" fill="#56AFF4"/>
</g>
<g filter="url(#filter2_i_1833_22042)">
<path d="M1.00948 21C1.00948 21.109 1 21.2133 1 21.3223C1 32.1896 9.95155 41 20.9976 41V21H1.00474H1.00948Z" fill="#56AFF4"/>
</g>
<path d="M21.0004 28.6004C25.1978 28.6004 28.6004 25.1978 28.6004 21.0004C28.6004 16.803 25.1978 13.4004 21.0004 13.4004C16.803 13.4004 13.4004 16.803 13.4004 21.0004C13.4004 25.1978 16.803 28.6004 21.0004 28.6004Z" fill="black"/>
<defs>
<filter id="filter0_i_1833_22042" x="20.998" y="1" width="20.002" height="20" filterUnits="userSpaceOnUse" color-interpolation-filters="sRGB">
<feFlood flood-opacity="0" result="BackgroundImageFix"/>
<feBlend mode="normal" in="SourceGraphic" in2="BackgroundImageFix" result="shape"/>
<feColorMatrix in="SourceAlpha" type="matrix" values="0 0 0 0 0 0 0 0 0 0 0 0 0 0 0 0 0 0 127 0" result="hardAlpha"/>
<feOffset dy="-1"/>
<feComposite in2="hardAlpha" operator="arithmetic" k2="-1" k3="1"/>
<feColorMatrix type="matrix" values="0 0 0 0 0.398112 0 0 0 0 0.398112 0 0 0 0 0.398112 0 0 0 1 0"/>
<feBlend mode="normal" in2="shape" result="effect1_innerShadow_1833_22042"/>
</filter>
<filter id="filter1_i_1833_22042" x="1" y="1" width="19.998" height="20" filterUnits="userSpaceOnUse" color-interpolation-filters="sRGB">
<feFlood flood-opacity="0" result="BackgroundImageFix"/>
<feBlend mode="normal" in="SourceGraphic" in2="BackgroundImageFix" result="shape"/>
<feColorMatrix in="SourceAlpha" type="matrix" values="0 0 0 0 0 0 0 0 0 0 0 0 0 0 0 0 0 0 127 0" result="hardAlpha"/>
<feOffset dx="-1" dy="-1"/>
<feComposite in2="hardAlpha" operator="arithmetic" k2="-1" k3="1"/>
<feColorMatrix type="matrix" values="0 0 0 0 0.398112 0 0 0 0 0.398112 0 0 0 0 0.398112 0 0 0 1 0"/>
<feBlend mode="normal" in2="shape" result="effect1_innerShadow_1833_22042"/>
</filter>
<filter id="filter2_i_1833_22042" x="1" y="21" width="19.998" height="20" filterUnits="userSpaceOnUse" color-interpolation-filters="sRGB">
<feFlood flood-opacity="0" result="BackgroundImageFix"/>
<feBlend mode="normal" in="SourceGraphic" in2="BackgroundImageFix" result="shape"/>
<feColorMatrix in="SourceAlpha" type="matrix" values="0 0 0 0 0 0 0 0 0 0 0 0 0 0 0 0 0 0 127 0" result="hardAlpha"/>
<feOffset dx="-1"/>
<feComposite in2="hardAlpha" operator="arithmetic" k2="-1" k3="1"/>
<feColorMatrix type="matrix" values="0 0 0 0 0.398112 0 0 0 0 0.398112 0 0 0 0 0.398112 0 0 0 1 0"/>
<feBlend mode="normal" in2="shape" result="effect1_innerShadow_1833_22042"/>
</filter>
</defs>
</svg>
