<svg width="18" height="18" viewBox="0 0 18 18" fill="none" xmlns="http://www.w3.org/2000/svg">
<circle cx="9" cy="9" r="8.5" fill="white" stroke="black"/>
<path d="M16.9962 9C16.9962 8.95639 17 8.91469 17 8.87109C17 4.52417 13.4175 1 8.99902 1V9H16.9962Z" fill="#CCCCCC"/>
<path d="M16.9962 9C16.9962 9.0436 17 9.08531 17 9.12891C17 13.4758 13.4194 17 9.00098 17V9H16.9981H16.9962Z" fill="white"/>
<path d="M1.00379 9C1.00379 8.95639 1 8.91469 1 8.87109C1 4.52417 4.58062 1 8.99906 1V9H1.00379Z" fill="white"/>
<path d="M1.00379 9C1.00379 9.0436 1 9.08531 1 9.12891C1 13.4758 4.58062 17 8.99906 17V9H1.0019H1.00379Z" fill="#CCCCCC"/>
<path d="M8.99996 12.04C10.6789 12.04 12.04 10.6789 12.04 8.99996C12.04 7.32102 10.6789 5.95996 8.99996 5.95996C7.32102 5.95996 5.95996 7.32102 5.95996 8.99996C5.95996 10.6789 7.32102 12.04 8.99996 12.04Z" fill="black"/>
</svg>
