<svg width="8" height="8" viewBox="0 0 8 8" fill="none" xmlns="http://www.w3.org/2000/svg">
<circle cx="4" cy="4" r="3.5" fill="white" stroke="black"/>
<path d="M6.99845 4C6.99845 3.98365 6.99987 3.96801 6.99987 3.95166C6.99987 2.32156 5.65642 1 3.99951 1V4H6.99845Z" fill="#CCCCCC"/>
<path d="M6.99871 4C6.99871 4.01635 7.00013 4.03199 7.00013 4.04834C7.00013 5.67844 5.6574 7 4.00049 7V4H6.99942H6.99871Z" fill="#FEF546"/>
<path d="M1.00142 4C1.00142 3.98365 1 3.96801 1 3.95166C1 2.32156 2.34273 1 3.99965 1V4H1.00142Z" fill="#FEF546"/>
<path d="M1.00142 4C1.00142 4.01635 1 4.03199 1 4.04834C1 5.67844 2.34273 7 3.99965 7V4H1.00071H1.00142Z" fill="#CCCCCC"/>
<path d="M3.99986 5.14011C4.62947 5.14011 5.13986 4.62971 5.13986 4.00011C5.13986 3.3705 4.62947 2.86011 3.99986 2.86011C3.37026 2.86011 2.85986 3.3705 2.85986 4.00011C2.85986 4.62971 3.37026 5.14011 3.99986 5.14011Z" fill="black"/>
</svg>
