<svg width="14" height="14" viewBox="0 0 14 14" fill="none" xmlns="http://www.w3.org/2000/svg">
<circle cx="7" cy="7" r="6.5" fill="white" stroke="black"/>
<path d="M12.9971 7C12.9971 6.9673 13 6.93602 13 6.90332C13 3.64313 10.3131 1 6.99927 1V7H12.9971Z" fill="#CCCCCC"/>
<path d="M12.9972 7C12.9972 7.0327 13 7.06398 13 7.09668C13 10.3569 10.3146 13 7.00073 13V7H12.9986H12.9972Z" fill="#E0E0E0"/>
<path d="M1.00284 7C1.00284 6.9673 1 6.93602 1 6.90332C1 3.64313 3.68547 1 6.99929 1V7H1.00284Z" fill="#E0E0E0"/>
<path d="M1.00284 7C1.00284 7.0327 1 7.06398 1 7.09668C1 10.3569 3.68547 13 6.99929 13V7H1.00142H1.00284Z" fill="#CCCCCC"/>
<path d="M6.99997 9.27997C8.25918 9.27997 9.27997 8.25918 9.27997 6.99997C9.27997 5.74076 8.25918 4.71997 6.99997 4.71997C5.74076 4.71997 4.71997 5.74076 4.71997 6.99997C4.71997 8.25918 5.74076 9.27997 6.99997 9.27997Z" fill="black"/>
</svg>
