<svg width="41" height="38" viewBox="0 0 41 38" fill="none" xmlns="http://www.w3.org/2000/svg">
<path d="M30.8084 3.6887L38.5496 16.3497C38.6731 16.552 38.737 16.7851 38.7338 17.0222C38.7306 17.2592 38.6606 17.4906 38.5317 17.6895C38.4028 17.8885 38.2203 18.047 38.0052 18.1468C37.7902 18.2466 37.5513 18.2836 37.3161 18.2536L32.7165 17.6635C32.6421 17.6539 32.5708 17.6277 32.5078 17.5868C32.4449 17.546 32.3919 17.4915 32.3528 17.4275L27.0247 8.71311C26.9855 8.64912 26.9612 8.57715 26.9535 8.50251C26.9458 8.42787 26.955 8.35246 26.9804 8.28184L28.5516 3.91878C28.632 3.69578 28.7738 3.50004 28.9607 3.35411C29.1475 3.20818 29.3718 3.11799 29.6076 3.09395C29.8435 3.0699 30.0813 3.11297 30.2938 3.21819C30.5062 3.32342 30.6846 3.48651 30.8084 3.6887ZM31.0371 20.0811L24.0631 8.6748C23.7907 8.0431 23.3751 7.48347 22.849 7.04021C22.323 6.59695 21.701 6.28224 21.0322 6.12097C20.3635 5.95971 19.6664 5.95634 18.9961 6.11111C18.3259 6.26589 17.7008 6.57456 17.1705 7.0127L4.33844 14.8585C3.70674 15.1308 3.14711 15.5465 2.70385 16.0725C2.26059 16.5986 1.94588 17.2206 1.78462 17.8893C1.62336 18.5581 1.61998 19.2552 1.77475 19.9254C1.92953 20.5957 2.2382 21.2207 2.67634 21.7511L9.65035 33.1573C9.9227 33.789 10.3384 34.3487 10.8644 34.7919C11.3905 35.2352 12.0125 35.5499 12.6812 35.7112C13.35 35.8724 14.0471 35.8758 14.7173 35.721C15.3876 35.5662 16.0126 35.2576 16.543 34.8194L29.375 26.9737C30.0067 26.7013 30.5663 26.2857 31.0096 25.7596C31.4528 25.2336 31.7676 24.6115 31.9288 23.9428C32.0901 23.2741 32.0935 22.577 31.9387 21.9067C31.7839 21.2364 31.4752 20.6114 31.0371 20.0811Z" fill="black"/>
</svg>
