<svg width="25" height="22" viewBox="0 0 25 22" fill="none" xmlns="http://www.w3.org/2000/svg">
<path d="M1.23712 11.8335L5.48204 19.5929C5.54994 19.7168 5.65146 19.819 5.77491 19.8878C5.89836 19.9565 6.03871 19.989 6.17981 19.9814C6.32091 19.9739 6.457 19.9266 6.57242 19.8451C6.68784 19.7636 6.77788 19.6512 6.83218 19.5207L7.89276 16.9685C7.90988 16.9271 7.91751 16.8825 7.91509 16.8379C7.91267 16.7932 7.90025 16.7497 7.87876 16.7104L4.95704 11.3697C4.9356 11.3305 4.90563 11.2966 4.86933 11.2704C4.83303 11.2443 4.79134 11.2267 4.74731 11.2188L2.02606 10.7355C1.88692 10.7108 1.74366 10.726 1.61277 10.7793C1.48189 10.8325 1.3687 10.9216 1.28625 11.0364C1.20381 11.1511 1.15545 11.2868 1.14676 11.4279C1.13807 11.5689 1.16939 11.7095 1.23712 11.8335ZM9.64073 16.8183L5.81648 9.82782C5.57088 9.49954 5.40507 9.11859 5.33217 8.71513C5.25927 8.31167 5.28129 7.89678 5.39649 7.5033C5.51169 7.10983 5.7169 6.74857 5.99587 6.44813C6.27485 6.14769 6.61994 5.91631 7.00381 5.77231L14.8681 1.47004C15.1963 1.22443 15.5773 1.05862 15.9808 0.985721C16.3842 0.912825 16.7991 0.934846 17.1926 1.05004C17.5861 1.16524 17.9473 1.37045 18.2478 1.64943C18.5482 1.9284 18.7796 2.27349 18.9236 2.65736L22.7478 9.64781C22.9934 9.97609 23.1592 10.357 23.2321 10.7605C23.305 11.164 23.283 11.5789 23.1678 11.9723C23.0526 12.3658 22.8474 12.7271 22.5684 13.0275C22.2895 13.3279 21.9444 13.5593 21.5605 13.7033L13.6962 18.0056C13.368 18.2512 12.987 18.417 12.5835 18.4899C12.1801 18.5628 11.7652 18.5408 11.3717 18.4256C10.9782 18.3104 10.617 18.1052 10.3165 17.8262C10.0161 17.5472 9.78473 17.2021 9.64073 16.8183Z" fill="black"/>
</svg>
