<svg width="32" height="32" viewBox="0 0 32 32" fill="none" xmlns="http://www.w3.org/2000/svg">
<circle cx="16" cy="16" r="15.5" fill="white" stroke="black"/>
<path d="M30.9927 16C30.9927 15.9182 30.9998 15.84 30.9998 15.7583C30.9998 7.60782 24.2826 1 15.998 1V16H30.9927Z" fill="#CCCCCC"/>
<path d="M30.9931 16C30.9931 16.0818 31.0002 16.16 31.0002 16.2417C31.0002 24.3922 24.2865 31 16.002 31V16H30.9966H30.9931Z" fill="#E0E0E0"/>
<path d="M1.00711 16C1.00711 15.9182 1 15.84 1 15.7583C1 7.60782 7.71366 1 15.9982 1V16H1.00711Z" fill="#E0E0E0"/>
<path d="M1.00711 16C1.00711 16.0818 1 16.16 1 16.2417C1 24.3922 7.71366 31 15.9982 31V16H1.00355H1.00711Z" fill="#CCCCCC"/>
<path d="M15.9998 21.7003C19.1478 21.7003 21.6998 19.1483 21.6998 16.0003C21.6998 12.8523 19.1478 10.3003 15.9998 10.3003C12.8518 10.3003 10.2998 12.8523 10.2998 16.0003C10.2998 19.1483 12.8518 21.7003 15.9998 21.7003Z" fill="black"/>
</svg>
