<svg width="19" height="17" viewBox="0 0 19 17" fill="none" xmlns="http://www.w3.org/2000/svg">
<path d="M17.5512 7.59394L14.2319 1.71247C14.1788 1.61854 14.1003 1.54153 14.0053 1.49029C13.9104 1.43905 13.8029 1.41568 13.6952 1.42286C13.5876 1.43005 13.4842 1.4675 13.3969 1.53089C13.3096 1.59429 13.242 1.68106 13.2018 1.7812L12.4178 3.74056C12.4052 3.77228 12.3998 3.80643 12.4021 3.8405C12.4044 3.87457 12.4143 3.90769 12.4311 3.93741L14.7157 7.98556C14.7325 8.01531 14.7557 8.04092 14.7837 8.0605C14.8117 8.08008 14.8437 8.09313 14.8774 8.09868L16.96 8.44025C17.0664 8.45765 17.1757 8.44462 17.2751 8.40265C17.3745 8.36069 17.46 8.2915 17.5218 8.20305C17.5835 8.11461 17.6191 8.01051 17.6243 7.90275C17.6295 7.79498 17.6042 7.68794 17.5512 7.59394ZM11.0847 3.87287L14.0751 9.1715C14.2659 9.41967 14.3964 9.70885 14.4561 10.0162C14.5158 10.3235 14.5032 10.6405 14.4192 10.942C14.3353 11.2436 14.1822 11.5215 13.9723 11.7537C13.7623 11.9859 13.5012 12.1661 13.2095 12.2799L7.24856 15.644C7.00039 15.8349 6.71121 15.9653 6.4039 16.025C6.0966 16.0848 5.77961 16.0721 5.47802 15.9882C5.17644 15.9042 4.89855 15.7511 4.66635 15.5412C4.43414 15.3312 4.254 15.0701 4.14019 14.7784L1.14982 9.47981C0.958991 9.23164 0.828547 8.94245 0.768819 8.63515C0.70909 8.32784 0.721717 8.01085 0.805699 7.70927C0.889682 7.40769 1.04271 7.1298 1.25268 6.89759C1.46265 6.66539 1.72379 6.48525 2.01542 6.37143L7.97638 3.00727C8.22454 2.81644 8.51373 2.686 8.82103 2.62627C9.12834 2.56654 9.44533 2.57917 9.74691 2.66315C10.0485 2.74713 10.3264 2.90016 10.5586 3.11013C10.7908 3.3201 10.9709 3.58123 11.0847 3.87287Z" fill="black"/>
</svg>
