<svg width="22" height="22" viewBox="0 0 22 22" fill="none" xmlns="http://www.w3.org/2000/svg">
<circle cx="11" cy="11" r="10.5" fill="white" stroke="black"/>
<path d="M20.9955 11C20.9955 10.9455 21.0002 10.8934 21.0002 10.8389C21.0002 5.40521 16.5221 1 10.999 1V11H20.9955Z" fill="#CCCCCC"/>
<path d="M20.9951 11C20.9951 11.0545 20.9998 11.1066 20.9998 11.1611C20.9998 16.5948 16.524 21 11.001 21V11H20.9974H20.9951Z" fill="#FEF546"/>
<path d="M1.00474 11C1.00474 10.9455 1 10.8934 1 10.8389C1 5.40521 5.47578 1 10.9988 1V11H1.00474Z" fill="#FEF546"/>
<path d="M1.00474 11C1.00474 11.0545 1 11.1066 1 11.1611C1 16.5948 5.47578 21 10.9988 21V11H1.00237H1.00474Z" fill="#CCCCCC"/>
<path d="M11.0002 14.8002C13.0989 14.8002 14.8002 13.0989 14.8002 11.0002C14.8002 8.90151 13.0989 7.2002 11.0002 7.2002C8.90151 7.2002 7.2002 8.90151 7.2002 11.0002C7.2002 13.0989 8.90151 14.8002 11.0002 14.8002Z" fill="black"/>
</svg>
