<svg width="52" height="52" viewBox="0 0 52 52" fill="none" xmlns="http://www.w3.org/2000/svg">
<circle cx="26" cy="26" r="25.5" fill="white" stroke="black"/>
<path d="M50.9882 26C50.9882 25.8637 51 25.7334 51 25.5971C51 12.013 39.8047 1 25.9971 1V26H50.9882Z" fill="#CCCCCC"/>
<path d="M50.9881 26C50.9881 26.1363 51 26.2666 51 26.4028C51 39.987 39.8105 51 26.0029 51V26H50.9941H50.9881Z" fill="#999999"/>
<path d="M1.01185 26C1.01185 25.8637 1 25.7334 1 25.5971C1 12.013 12.1894 1 25.997 1V26H1.01185Z" fill="#999999"/>
<path d="M1.01185 26C1.01185 26.1363 1 26.2666 1 26.4028C1 39.987 12.1894 51 25.997 51V26H1.00592H1.01185Z" fill="#CCCCCC"/>
<path d="M26 35.5C31.2467 35.5 35.5 31.2467 35.5 26C35.5 20.7533 31.2467 16.5 26 16.5C20.7533 16.5 16.5 20.7533 16.5 26C16.5 31.2467 20.7533 35.5 26 35.5Z" fill="black"/>
</svg>
