<svg width="30" height="30" viewBox="0 0 30 30" fill="none" xmlns="http://www.w3.org/2000/svg">
<circle cx="14.9998" cy="14.9998" r="14.4998" fill="white" stroke="black"/>
<path d="M28.9929 14.9998C28.9929 14.9235 28.9996 14.8506 28.9996 14.7743C28.9996 7.16723 22.7302 1 14.998 1V14.9998H28.9929Z" fill="#CCCCCC"/>
<path d="M28.9933 15C28.9933 15.0763 28.9999 15.1493 28.9999 15.2256C28.9999 22.8326 22.7339 28.9998 15.0017 28.9998V15H28.9966H28.9933Z" fill="#FEF546"/>
<path d="M1.00663 14.9998C1.00663 14.9235 1 14.8506 1 14.7743C1 7.16723 7.26602 1 14.9982 1V14.9998H1.00663Z" fill="#FEF546"/>
<path d="M1.00663 15C1.00663 15.0763 1 15.1493 1 15.2256C1 22.8326 7.26602 28.9998 14.9982 28.9998V15H1.00332H1.00663Z" fill="#CCCCCC"/>
<path d="M14.9996 20.3196C17.9378 20.3196 20.3196 17.9378 20.3196 14.9996C20.3196 12.0615 17.9378 9.67969 14.9996 9.67969C12.0615 9.67969 9.67969 12.0615 9.67969 14.9996C9.67969 17.9378 12.0615 20.3196 14.9996 20.3196Z" fill="black"/>
</svg>
