<svg width="22" height="11" viewBox="0 0 22 11" fill="none" xmlns="http://www.w3.org/2000/svg">
<path d="M21 9.38166L21 1.61834C21 1.27825 20.7217 1 20.3817 1L13.1502 1L13.1501 7.94401L8.3707 4.48127L8.3707 1L1.13919 0.999999C0.799105 0.999999 0.520851 1.27825 0.520851 1.61834L0.520851 9.38166C0.520851 9.72174 0.799104 10 1.13919 10L20.3817 10C20.7217 10 21 9.72175 21 9.38166Z" fill="#E0E0E0" stroke="black" stroke-miterlimit="10"/>
<path d="M19.6025 8.3151L19.6025 2.52124L14.594 2.52124L14.594 8.3151L19.6025 8.3151Z" fill="#CCCCCC"/>
<path d="M7.47607 8.3151L7.47607 2.52124L2.46751 2.52124L2.46751 8.3151L7.47607 8.3151Z" fill="#CCCCCC"/>
</svg>
