<svg width="41" height="21" viewBox="0 0 41 21" fill="none" xmlns="http://www.w3.org/2000/svg">
<path d="M39.8899 18.6394L39.8899 2.30132C39.8899 1.58559 39.3043 1 38.5886 1L23.3697 0.999999L23.3697 15.6138L17.5202 8.32642L17.5202 0.999999L2.30133 0.999998C1.58561 0.999998 1.00002 1.58559 1.00002 2.30132L1.00001 18.6394C1.00001 19.3552 1.5856 19.9407 2.30133 19.9407L38.5886 19.9407C39.3043 19.9407 39.8899 19.3552 39.8899 18.6394Z" fill="#E0E0E0" stroke="black" stroke-miterlimit="10"/>
<path d="M36.949 16.3945L36.949 4.20117L26.4083 4.20117L26.4083 16.3945L36.949 16.3945Z" fill="#CCCCCC"/>
<path d="M14.9045 16.3945L14.9045 4.20117L4.36387 4.20117L4.36387 16.3945L14.9045 16.3945Z" fill="#CCCCCC"/>
</svg>
