<svg width="16" height="16" viewBox="0 0 16 16" fill="none" xmlns="http://www.w3.org/2000/svg">
<circle cx="8" cy="8" r="7.5" fill="white" stroke="black"/>
<path d="M14.9968 8C14.9968 7.96185 15.0001 7.92535 15.0001 7.8872C15.0001 4.08365 11.8654 1 7.99927 1V8H14.9968Z" fill="#CCCCCC"/>
<path d="M14.9966 8C14.9966 8.03815 14.9999 8.07464 14.9999 8.1128C14.9999 11.9163 11.8669 15 8.00073 15V8H14.9982H14.9966Z" fill="#999999"/>
<path d="M1.00332 8C1.00332 7.96185 1 7.92535 1 7.8872C1 4.08365 4.13304 1 7.99917 1V8H1.00332Z" fill="#999999"/>
<path d="M1.00332 8C1.00332 8.03815 1 8.07464 1 8.1128C1 11.9163 4.13304 15 7.99917 15V8H1.00166H1.00332Z" fill="#CCCCCC"/>
<path d="M8.00009 10.6601C9.46917 10.6601 10.6601 9.46917 10.6601 8.00009C10.6601 6.53101 9.46917 5.34009 8.00009 5.34009C6.53101 5.34009 5.34009 6.53101 5.34009 8.00009C5.34009 9.46917 6.53101 10.6601 8.00009 10.6601Z" fill="black"/>
</svg>
