<svg width="24" height="24" viewBox="0 0 24 24" fill="none" xmlns="http://www.w3.org/2000/svg">
<circle cx="12" cy="12" r="11.5" fill="white" stroke="black"/>
<path d="M22.9946 12C22.9946 11.94 22.9998 11.8827 22.9998 11.8227C22.9998 5.84573 18.0739 1 11.9985 1V12H22.9946Z" fill="#CCCCCC"/>
<path d="M22.995 12C22.995 12.06 23.0002 12.1173 23.0002 12.1773C23.0002 18.1543 18.0768 23 12.0015 23V12H22.9976H22.995Z" fill="#E0E0E0"/>
<path d="M1.00521 12C1.00521 11.94 1 11.8827 1 11.8227C1 5.84573 5.92335 1 11.9987 1V12H1.00521Z" fill="#E0E0E0"/>
<path d="M1.00521 12C1.00521 12.06 1 12.1173 1 12.1773C1 18.1543 5.92335 23 11.9987 23V12H1.00261H1.00521Z" fill="#CCCCCC"/>
<path d="M11.9998 16.1803C14.3084 16.1803 16.1798 14.3089 16.1798 12.0003C16.1798 9.69176 14.3084 7.82031 11.9998 7.82031C9.69127 7.82031 7.81982 9.69176 7.81982 12.0003C7.81982 14.3089 9.69127 16.1803 11.9998 16.1803Z" fill="black"/>
</svg>
