<svg width="122" height="122" viewBox="0 0 122 122" fill="none" xmlns="http://www.w3.org/2000/svg">
<circle cx="61" cy="61" r="60.5" fill="#008C3C" stroke="black"/>
<g filter="url(#filter0_i_1833_33002)">
<path d="M120.971 61C120.971 60.673 120.999 60.3602 120.999 60.0331C120.999 27.4313 94.1305 1 60.9922 1V61H120.971Z" fill="#53E08F"/>
</g>
<path d="M120.972 61C120.972 61.327 121.001 61.6398 121.001 61.9668C121.001 94.5687 94.1461 121 61.0078 121V61H120.987H120.972Z" fill="#53E08F"/>
<g filter="url(#filter1_i_1833_33002)">
<path d="M1.02843 61C1.02843 60.673 1 60.3602 1 60.0331C1 27.4313 27.8546 1 60.9929 1V61H1.02843Z" fill="#53E08F"/>
</g>
<g filter="url(#filter2_i_1833_33002)">
<path d="M1.02843 61C1.02843 61.327 1 61.6398 1 61.9668C1 94.5687 27.8546 121 60.9929 121V61H1.01422H1.02843Z" fill="#53E08F"/>
</g>
<path d="M60.9992 83.7997C73.5913 83.7997 83.7992 73.5918 83.7992 60.9997C83.7992 48.4076 73.5913 38.1997 60.9992 38.1997C48.4071 38.1997 38.1992 48.4076 38.1992 60.9997C38.1992 73.5918 48.4071 83.7997 60.9992 83.7997Z" fill="black"/>
<defs>
<filter id="filter0_i_1833_33002" x="60.9922" y="1" width="60.0078" height="60" filterUnits="userSpaceOnUse" color-interpolation-filters="sRGB">
<feFlood flood-opacity="0" result="BackgroundImageFix"/>
<feBlend mode="normal" in="SourceGraphic" in2="BackgroundImageFix" result="shape"/>
<feColorMatrix in="SourceAlpha" type="matrix" values="0 0 0 0 0 0 0 0 0 0 0 0 0 0 0 0 0 0 127 0" result="hardAlpha"/>
<feOffset dy="-1"/>
<feComposite in2="hardAlpha" operator="arithmetic" k2="-1" k3="1"/>
<feColorMatrix type="matrix" values="0 0 0 0 0.398112 0 0 0 0 0.398112 0 0 0 0 0.398112 0 0 0 1 0"/>
<feBlend mode="normal" in2="shape" result="effect1_innerShadow_1833_33002"/>
</filter>
<filter id="filter1_i_1833_33002" x="1" y="1" width="59.9922" height="60" filterUnits="userSpaceOnUse" color-interpolation-filters="sRGB">
<feFlood flood-opacity="0" result="BackgroundImageFix"/>
<feBlend mode="normal" in="SourceGraphic" in2="BackgroundImageFix" result="shape"/>
<feColorMatrix in="SourceAlpha" type="matrix" values="0 0 0 0 0 0 0 0 0 0 0 0 0 0 0 0 0 0 127 0" result="hardAlpha"/>
<feOffset dx="-1" dy="-1"/>
<feComposite in2="hardAlpha" operator="arithmetic" k2="-1" k3="1"/>
<feColorMatrix type="matrix" values="0 0 0 0 0.398112 0 0 0 0 0.398112 0 0 0 0 0.398112 0 0 0 1 0"/>
<feBlend mode="normal" in2="shape" result="effect1_innerShadow_1833_33002"/>
</filter>
<filter id="filter2_i_1833_33002" x="1" y="61" width="59.9922" height="60" filterUnits="userSpaceOnUse" color-interpolation-filters="sRGB">
<feFlood flood-opacity="0" result="BackgroundImageFix"/>
<feBlend mode="normal" in="SourceGraphic" in2="BackgroundImageFix" result="shape"/>
<feColorMatrix in="SourceAlpha" type="matrix" values="0 0 0 0 0 0 0 0 0 0 0 0 0 0 0 0 0 0 127 0" result="hardAlpha"/>
<feOffset dx="-1"/>
<feComposite in2="hardAlpha" operator="arithmetic" k2="-1" k3="1"/>
<feColorMatrix type="matrix" values="0 0 0 0 0.398112 0 0 0 0 0.398112 0 0 0 0 0.398112 0 0 0 1 0"/>
<feBlend mode="normal" in2="shape" result="effect1_innerShadow_1833_33002"/>
</filter>
</defs>
</svg>
