<svg width="25" height="23" viewBox="0 0 25 23" fill="none" xmlns="http://www.w3.org/2000/svg">
<path d="M18.3618 2.1972L22.9756 9.74313C23.0492 9.86373 23.0872 10.0027 23.0853 10.144C23.0835 10.2852 23.0417 10.4231 22.9649 10.5417C22.888 10.6603 22.7793 10.7548 22.6511 10.8142C22.5229 10.8737 22.3806 10.8958 22.2404 10.8779L19.499 10.5262C19.4547 10.5205 19.4122 10.5048 19.3747 10.4805C19.3372 10.4562 19.3056 10.4237 19.2823 10.3855L16.1067 5.19175C16.0834 5.15362 16.0689 5.11072 16.0643 5.06624C16.0597 5.02175 16.0652 4.97681 16.0803 4.93472L17.0167 2.33434C17.0647 2.20143 17.1492 2.08476 17.2606 1.99779C17.3719 1.91082 17.5056 1.85707 17.6461 1.84273C17.7867 1.8284 17.9285 1.85407 18.0551 1.91679C18.1817 1.9795 18.288 2.0767 18.3618 2.1972ZM18.4981 11.9671L14.3416 5.16892C14.1793 4.79243 13.9316 4.45889 13.618 4.19471C13.3045 3.93053 12.9338 3.74295 12.5352 3.64684C12.1366 3.55073 11.7212 3.54872 11.3217 3.64096C10.9222 3.73321 10.5497 3.91718 10.2336 4.17831L2.58571 8.85439C2.20922 9.0167 1.87568 9.26443 1.6115 9.57796C1.34731 9.89149 1.15974 10.2622 1.06363 10.6608C0.96752 11.0594 0.965508 11.4748 1.05775 11.8743C1.15 12.2738 1.33397 12.6463 1.5951 12.9624L5.75161 19.7605C5.91393 20.137 6.16166 20.4705 6.47519 20.7347C6.78872 20.9989 7.15944 21.1865 7.55801 21.2826C7.95658 21.3787 8.37204 21.3807 8.77152 21.2885C9.171 21.1962 9.54353 21.0123 9.8596 20.7511L17.5075 16.075C17.884 15.9127 18.2175 15.665 18.4817 15.3515C18.7459 15.0379 18.9335 14.6672 19.0296 14.2686C19.1257 13.8701 19.1277 13.4546 19.0355 13.0551C18.9432 12.6557 18.7592 12.2831 18.4981 11.9671Z" fill="black"/>
</svg>
