<svg width="36" height="36" viewBox="0 0 36 36" fill="none" xmlns="http://www.w3.org/2000/svg">
<circle cx="18" cy="18" r="17.5" fill="white" stroke="black"/>
<path d="M34.992 18C34.992 17.9073 35.0001 17.8187 35.0001 17.7261C35.0001 8.48886 27.3872 1 17.998 1V18H34.992Z" fill="#CCCCCC"/>
<path d="M34.9919 18C34.9919 18.0927 34.9999 18.1813 34.9999 18.2739C34.9999 27.5111 27.3911 35 18.002 35V18H34.9959H34.9919Z" fill="#FEF546"/>
<path d="M1.00806 18C1.00806 17.9073 1 17.8187 1 17.7261C1 8.48886 8.60882 1 17.998 1V18H1.00806Z" fill="#FEF546"/>
<path d="M1.00806 18C1.00806 18.0927 1 18.1813 1 18.2739C1 27.5111 8.60882 35 17.998 35V18H1.00403H1.00806Z" fill="#CCCCCC"/>
<path d="M18 24.46C21.5678 24.46 24.46 21.5678 24.46 18C24.46 14.4323 21.5678 11.54 18 11.54C14.4323 11.54 11.54 14.4323 11.54 18C11.54 21.5678 14.4323 24.46 18 24.46Z" fill="black"/>
</svg>
