<svg width="7" height="30" viewBox="0 0 7 30" fill="none" xmlns="http://www.w3.org/2000/svg">
<path d="M4.23088 27.2266C4.23088 27.2266 -3.0386 15.3412 4.23088 2.76707" stroke="black" stroke-linecap="round" stroke-linejoin="round"/>
<path d="M6.00011 27.227C6.00011 26.2499 5.20806 25.4579 4.23101 25.4579C3.25397 25.4579 2.46191 26.2499 2.46191 27.227C2.46191 28.204 3.25397 28.9961 4.23101 28.9961C5.20806 28.9961 6.00011 28.204 6.00011 27.227Z" fill="#999999" stroke="black" stroke-linecap="round" stroke-linejoin="round"/>
<path d="M6.00011 2.76801C6.00011 1.79096 5.20806 0.99891 4.23101 0.99891C3.25397 0.99891 2.46191 1.79096 2.46191 2.76801C2.46191 3.74506 3.25397 4.53711 4.23101 4.53711C5.20806 4.53711 6.00011 3.74506 6.00011 2.76801Z" fill="#999999" stroke="black" stroke-linecap="round" stroke-linejoin="round"/>
</svg>
