<svg width="19" height="30" viewBox="0 0 19 30" fill="none" xmlns="http://www.w3.org/2000/svg">
<path d="M7.20602 29H10.917L10.917 1H7.20602L7.20602 29Z" fill="#E0E0E0" stroke="black" stroke-linecap="round" stroke-linejoin="round"/>
<path d="M6.23794 25.8516H11.8848L11.8848 4.14833H6.23794L6.23794 25.8516Z" fill="#E0E0E0" stroke="black" stroke-linecap="round" stroke-linejoin="round"/>
<path d="M0.999987 14.9976C0.999987 19.7122 4.82197 23.5342 9.53661 23.5342C14.2513 23.5342 18.0732 19.7122 18.0732 14.9976C18.0732 10.2829 14.2513 6.46094 9.53661 6.46094C4.82197 6.46094 0.999987 10.2829 0.999987 14.9976Z" fill="#E0E0E0" stroke="black" stroke-linecap="round" stroke-linejoin="round"/>
<path d="M9.12793 15.0003L5.39949 16.9746C4.64821 17.2576 3.76764 17.0969 3.15963 16.4924C2.33497 15.6677 2.33497 14.3329 3.15963 13.5082C3.76415 12.9037 4.64821 12.743 5.39949 13.026L9.12793 15.0003Z" fill="#E0E0E0" stroke="black" stroke-linecap="round" stroke-linejoin="round"/>
<path d="M13.7363 12.4278V10.2578H10.7277V12.4278H13.7363Z" fill="#E0E0E0" stroke="black" stroke-linecap="round" stroke-linejoin="round"/>
<path d="M13.7363 16.0762V13.9062H10.7277V16.0762H13.7363Z" fill="#E0E0E0" stroke="black" stroke-linecap="round" stroke-linejoin="round"/>
<path d="M13.7363 19.7442V17.5742H10.7277V19.7442H13.7363Z" fill="#E0E0E0" stroke="black" stroke-linecap="round" stroke-linejoin="round"/>
</svg>
