<svg width="58" height="28" viewBox="0 0 58 28" fill="none" xmlns="http://www.w3.org/2000/svg">
<rect x="2" y="2" width="54" height="24" fill="#E0E0E0" stroke="#747474" stroke-width="4"/>
<path d="M18.9482 21L18.9482 9.144L26.2442 9.144V11.128L21.3162 11.128L21.3162 14.216L25.5242 14.216L25.5242 16.2H21.3162L21.3162 21H18.9482ZM28.3076 21L28.3076 9.144H30.9316L32.9476 14.696C33.2036 15.432 33.4276 16.216 33.6676 16.968H33.7476C34.0036 16.216 34.2116 15.432 34.4676 14.696L36.4356 9.144L39.0596 9.144V21H36.8996V16.056C36.8996 14.936 37.0756 13.288 37.2036 12.168H37.1236L36.1636 14.952L34.3396 19.928H32.9796L31.1396 14.952L30.1956 12.168H30.1316C30.2436 13.288 30.4356 14.936 30.4356 16.056L30.4356 21H28.3076Z" fill="black"/>
</svg>
