<svg width="28" height="48" viewBox="0 0 28 48" fill="none" xmlns="http://www.w3.org/2000/svg">
<rect x="2" y="46" width="44" height="24" transform="rotate(-90 2 46)" fill="#F0F0F0" stroke="#747474" stroke-width="4"/>
<path d="M20 33.544L8.16 33.544L8.16 26.248L10.128 26.248L10.128 31.176L13.232 31.176L13.232 26.968L15.2 26.968L15.2 31.176L20 31.176L20 33.544ZM20 24.1846L8.16 24.1846L8.16 21.5766L13.712 19.5606C14.448 19.2886 15.216 19.0806 15.984 18.8246L15.984 18.7606C15.216 18.4886 14.448 18.2806 13.712 18.0406L8.16 16.0726L8.16 13.4486L20 13.4486L20 15.6086L15.056 15.6086C13.936 15.6086 12.288 15.4166 11.168 15.2886L11.168 15.3686L13.952 16.3446L18.944 18.1686L18.944 19.5286L13.952 21.3526L11.168 22.3126L11.168 22.3766C12.288 22.2486 13.936 22.0726 15.056 22.0726L20 22.0726L20 24.1846Z" fill="black"/>
</svg>
