<svg width="19" height="30" viewBox="0 0 19 30" fill="none" xmlns="http://www.w3.org/2000/svg">
<path d="M7.35251 29H11.0635L11.0635 1H7.35251L7.35251 29Z" fill="#999999" stroke="black" stroke-linecap="round" stroke-linejoin="round"/>
<path d="M6.3854 25.8516H12.0322L12.0322 4.14833H6.3854L6.3854 25.8516Z" fill="#999999" stroke="black" stroke-linecap="round" stroke-linejoin="round"/>
<path d="M1.14647 14.9976C1.14647 19.7122 4.96845 23.5342 9.6831 23.5342C14.3977 23.5342 18.2197 19.7122 18.2197 14.9976C18.2197 10.2829 14.3977 6.46094 9.6831 6.46094C4.96845 6.46094 1.14647 10.2829 1.14647 14.9976Z" fill="#999999" stroke="black" stroke-linecap="round" stroke-linejoin="round"/>
<path d="M9.27441 15.0003L5.54597 16.9746C4.79469 17.2576 3.91412 17.0969 3.30611 16.4924C2.48145 15.6677 2.48145 14.3329 3.30611 13.5082C3.91063 12.9037 4.79469 12.743 5.54597 13.026L9.27441 15.0003Z" stroke="black" stroke-linecap="round" stroke-linejoin="round"/>
<path d="M13.8838 12.4278V10.2578H10.8752V12.4278H13.8838Z" fill="#999999" stroke="black" stroke-linecap="round" stroke-linejoin="round"/>
<path d="M13.8838 16.0762V13.9062H10.8752V16.0762H13.8838Z" fill="#999999" stroke="black" stroke-linecap="round" stroke-linejoin="round"/>
<path d="M13.8838 19.7442V17.5742H10.8752V19.7442H13.8838Z" fill="#999999" stroke="black" stroke-linecap="round" stroke-linejoin="round"/>
</svg>
