<svg width="19" height="30" viewBox="0 0 19 30" fill="none" xmlns="http://www.w3.org/2000/svg">
<path d="M7.42575 29H11.1367L11.1367 1H7.42575L7.42575 29Z" fill="#FEF546" stroke="black" stroke-linecap="round" stroke-linejoin="round"/>
<path d="M6.45865 25.8516H12.1055L12.1055 4.14833H6.45865L6.45865 25.8516Z" fill="#FEF546" stroke="black" stroke-linecap="round" stroke-linejoin="round"/>
<path d="M1.21971 14.9976C1.21971 19.7122 5.04169 23.5342 9.75634 23.5342C14.471 23.5342 18.293 19.7122 18.293 14.9976C18.293 10.2829 14.471 6.46094 9.75634 6.46094C5.04169 6.46094 1.21971 10.2829 1.21971 14.9976Z" fill="#FEF546" stroke="black" stroke-linecap="round" stroke-linejoin="round"/>
<path d="M9.34766 15.0003L5.61922 16.9746C4.86794 17.2576 3.98737 17.0969 3.37935 16.4924C2.5547 15.6677 2.5547 14.3329 3.37935 13.5082C3.98387 12.9037 4.86794 12.743 5.61922 13.026L9.34766 15.0003Z" fill="#FEF546" stroke="black" stroke-linecap="round" stroke-linejoin="round"/>
<path d="M13.957 12.4278V10.2578H10.9484V12.4278H13.957Z" fill="#FEF546" stroke="black" stroke-linecap="round" stroke-linejoin="round"/>
<path d="M13.957 16.0762V13.9062H10.9484V16.0762H13.957Z" fill="#FEF546" stroke="black" stroke-linecap="round" stroke-linejoin="round"/>
<path d="M13.957 19.7442V17.5742H10.9484V19.7442H13.957Z" fill="#FEF546" stroke="black" stroke-linecap="round" stroke-linejoin="round"/>
</svg>
