<svg width="28" height="44" viewBox="0 0 28 44" fill="none" xmlns="http://www.w3.org/2000/svg">
<path d="M10.7724 43H16.3389L16.3389 1H10.7724L10.7724 43Z" fill="#E0E0E0" stroke="black" stroke-linecap="round" stroke-linejoin="round"/>
<path d="M9.32029 38.2773H17.7905L17.7905 5.7225H9.32029L9.32029 38.2773Z" fill="#E0E0E0" stroke="black" stroke-linecap="round" stroke-linejoin="round"/>
<path d="M1.46336 21.9963C1.46336 29.0683 7.19633 34.8013 14.2683 34.8013C21.3403 34.8013 27.0732 29.0683 27.0732 21.9963C27.0732 14.9244 21.3403 9.19141 14.2683 9.19141C7.19633 9.19141 1.46336 14.9244 1.46336 21.9963Z" fill="#E0E0E0" stroke="black" stroke-linecap="round" stroke-linejoin="round"/>
<path d="M13.6553 21.9966L8.06261 24.958C6.93569 25.3826 5.61484 25.1414 4.70282 24.2347C3.46583 22.9977 3.46583 20.9954 4.70282 19.7584C5.6096 18.8517 6.93569 18.6106 8.06261 19.0351L13.6553 21.9966Z" fill="#E0E0E0" stroke="black" stroke-linecap="round" stroke-linejoin="round"/>
<path d="M20.5674 18.1417V14.8867L16.0545 14.8867V18.1417H20.5674Z" fill="#E0E0E0" stroke="black" stroke-linecap="round" stroke-linejoin="round"/>
<path d="M20.5674 23.6143V20.3594H16.0545V23.6143H20.5674Z" fill="#E0E0E0" stroke="black" stroke-linecap="round" stroke-linejoin="round"/>
<path d="M20.5674 29.1182V25.8633H16.0545V29.1182H20.5674Z" fill="#E0E0E0" stroke="black" stroke-linecap="round" stroke-linejoin="round"/>
</svg>
