<svg width="32" height="35" viewBox="0 0 32 35" fill="none" xmlns="http://www.w3.org/2000/svg">
<path d="M2.16702 34.1425H29.833C30.5195 34.1425 31 33.6234 31 33.0394V13.7027C31 13.0538 30.4508 12.5996 29.833 12.5996H2.16702C1.48052 12.5996 1 13.1187 1 13.7027V33.0394C1 33.6882 1.54917 34.1425 2.16702 34.1425Z" fill="#FA3232" stroke="black"/>
<path d="M3.41497 4.31429H28.7565C29.5283 4.31429 30.1714 3.56103 30.1714 2.65714C30.1714 1.75325 29.5283 1 28.7565 1H3.41497C2.64315 1 2 1.75325 2 2.65714C2 3.56103 2.64315 4.31429 3.41497 4.31429Z" fill="#FA3232" stroke="black"/>
<path d="M5.14453 12.6002H26.6874V4.31445H5.14453V12.6002Z" fill="#FA3232" stroke="black"/>
<path d="M25.0273 32.4864V14.2578V32.4864Z" fill="#FA3232"/>
<path d="M25.0273 32.4864V14.2578" stroke="black" stroke-linecap="round" stroke-linejoin="bevel"/>
<path d="M20.0586 32.4864V14.2578V32.4864Z" fill="#FA3232"/>
<path d="M20.0586 32.4864V14.2578" stroke="black" stroke-linecap="round" stroke-linejoin="bevel"/>
<path d="M15.9141 32.4864V14.2578V32.4864Z" fill="#FA3232"/>
<path d="M15.9141 32.4864V14.2578" stroke="black" stroke-linecap="round" stroke-linejoin="bevel"/>
<path d="M10.9414 32.4864V14.2578V32.4864Z" fill="#FA3232"/>
<path d="M10.9414 32.4864V14.2578" stroke="black" stroke-linecap="round" stroke-linejoin="bevel"/>
<path d="M6.80078 32.4864V14.2578V32.4864Z" fill="#FA3232"/>
<path d="M6.80078 32.4864V14.2578" stroke="black" stroke-linecap="round" stroke-linejoin="bevel"/>
<path d="M23.3711 10.9421V5.9707V10.9421Z" fill="#FA3232"/>
<path d="M23.3711 10.9421V5.9707" stroke="black" stroke-linecap="round" stroke-linejoin="bevel"/>
<path d="M20.0586 10.9421V5.9707V10.9421Z" fill="#FA3232"/>
<path d="M20.0586 10.9421V5.9707" stroke="black" stroke-linecap="round" stroke-linejoin="bevel"/>
<path d="M15.9141 10.9421V5.9707V10.9421Z" fill="#FA3232"/>
<path d="M15.9141 10.9421V5.9707" stroke="black" stroke-linecap="round" stroke-linejoin="bevel"/>
<path d="M11.7695 10.9421V5.9707V10.9421Z" fill="#FA3232"/>
<path d="M11.7695 10.9421V5.9707" stroke="black" stroke-linecap="round" stroke-linejoin="bevel"/>
<path d="M7.62891 10.9421V5.9707V10.9421Z" fill="#FA3232"/>
<path d="M7.62891 10.9421V5.9707" stroke="black" stroke-linecap="round" stroke-linejoin="bevel"/>
</svg>
