<svg width="34" height="34" viewBox="0 0 34 34" fill="none" xmlns="http://www.w3.org/2000/svg">
<path d="M17 33C25.8366 33 33 25.8366 33 17C33 8.16344 25.8366 1 17 1C8.16344 1 1 8.16344 1 17C1 25.8366 8.16344 33 17 33Z" fill="white" stroke="black" stroke-width="2" stroke-linecap="round" stroke-linejoin="round"/>
<path d="M21.3015 23.5963C18.401 23.5963 16.106 21.7659 16.106 18.2178C16.106 14.7259 18.4573 12.7266 21.2592 12.7266C22.794 12.7266 23.8922 13.3742 24.6103 14.0923L23.2868 15.6974C22.7658 15.2328 22.2167 14.8808 21.3437 14.8808C19.7949 14.8808 18.6826 16.0917 18.6826 18.1333C18.6826 20.2171 19.6119 21.428 21.569 21.428C21.9351 21.428 22.3293 21.3294 22.5546 21.1605V19.4709H20.8932V17.4152H24.7933V22.315C24.0612 23.019 22.7658 23.5963 21.3015 23.5963Z" fill="black"/>
<path d="M8.87109 23.3998V12.9102H11.3914V21.2878H15.4746V23.3998H8.87109Z" fill="black"/>
</svg>
