<svg width="34" height="34" viewBox="0 0 34 34" fill="none" xmlns="http://www.w3.org/2000/svg">
<path d="M17 33C25.8366 33 33 25.8366 33 17C33 8.16344 25.8366 1 17 1C8.16344 1 1 8.16344 1 17C1 25.8366 8.16344 33 17 33Z" fill="white" stroke="black" stroke-width="2" stroke-linecap="round" stroke-linejoin="round"/>
<path d="M11.8809 22.3685V11.8789H14.5983L16.2597 16.4127C16.363 16.713 16.4616 17.0275 16.5554 17.356C16.6493 17.6752 16.7432 17.9943 16.837 18.3135H16.9074C17.0107 17.9943 17.1092 17.6752 17.2031 17.356C17.297 17.0275 17.3908 16.713 17.4847 16.4127L19.0898 11.8789H21.8213V22.3685H19.5263V18.7781C19.5263 18.4308 19.5451 18.0413 19.5826 17.6095C19.6202 17.1777 19.6624 16.7459 19.7093 16.3141C19.7657 15.8729 19.8173 15.4834 19.8642 15.1455H19.7938L18.9209 17.6517L17.5129 21.4815H16.133L14.7109 17.6517L13.8661 15.1455H13.8098C13.8568 15.4834 13.9037 15.8729 13.9506 16.3141C13.9976 16.7459 14.0398 17.1777 14.0773 17.6095C14.1149 18.0413 14.1337 18.4308 14.1337 18.7781V22.3685H11.8809Z" fill="black"/>
</svg>
