<svg width="26" height="26" viewBox="0 0 26 26" fill="none" xmlns="http://www.w3.org/2000/svg">
<rect x="0.5" y="0.5" width="25" height="25" rx="4.5" fill="white" stroke="black"/>
<rect x="1.91187" y="1.91016" width="22.1765" height="22.1765" rx="4.5" fill="#FEF546" stroke="black"/>
<path d="M8.52148 17.9424V8.47656H10.9737L12.473 12.5679C12.5662 12.8389 12.6551 13.1227 12.7398 13.4192C12.8245 13.7072 12.9092 13.9952 12.994 14.2832H13.0575C13.1507 13.9952 13.2396 13.7072 13.3243 13.4192C13.409 13.1227 13.4937 12.8389 13.5784 12.5679L15.0269 8.47656H17.4918V17.9424H15.4208V14.7024C15.4208 14.389 15.4377 14.0375 15.4716 13.6479C15.5055 13.2582 15.5436 12.8686 15.586 12.4789C15.6368 12.0808 15.6834 11.7293 15.7257 11.4243H15.6622L14.8744 13.686L13.6038 17.142H12.3587L11.0754 13.686L10.313 11.4243H10.2622C10.3045 11.7293 10.3469 12.0808 10.3892 12.4789C10.4316 12.8686 10.4697 13.2582 10.5036 13.6479C10.5375 14.0375 10.5544 14.389 10.5544 14.7024V17.9424H8.52148Z" fill="black"/>
</svg>
