<svg width="24" height="24" viewBox="0 0 24 24" fill="none" xmlns="http://www.w3.org/2000/svg">
<path d="M10.653 11.8667V5.93361C10.653 5.686 10.7514 5.44853 10.9264 5.27345C11.1015 5.09836 11.339 5 11.5866 5C11.8342 5 12.0717 5.09836 12.2468 5.27345C12.4219 5.44853 12.5202 5.686 12.5202 5.93361V11.8667C12.5202 12.1143 12.4219 12.3518 12.2468 12.5269C12.0717 12.7019 11.8342 12.8003 11.5866 12.8003C11.339 12.8003 11.1015 12.7019 10.9264 12.5269C10.7514 12.3518 10.653 12.1143 10.653 11.8667ZM15.3957 7.03994C15.2958 6.96883 15.1829 6.91809 15.0633 6.89063C14.9438 6.86318 14.82 6.85953 14.6991 6.8799C14.5782 6.90027 14.4624 6.94427 14.3585 7.00937C14.2546 7.07447 14.1645 7.15941 14.0934 7.25933C14.0222 7.35926 13.9715 7.4722 13.944 7.59173C13.9166 7.71126 13.9129 7.83503 13.9333 7.95596C13.9537 8.0769 13.9977 8.19264 14.0628 8.29658C14.1279 8.40051 14.2128 8.49061 14.3127 8.56172C15.1304 9.14033 15.7427 9.96409 16.0612 10.9138C16.3796 11.8635 16.3876 12.8899 16.084 13.8444C15.7804 14.799 15.181 15.6322 14.3725 16.2235C13.564 16.8148 12.5883 17.1335 11.5866 17.1335C10.5849 17.1335 9.60925 16.8148 8.80073 16.2235C7.9922 15.6322 7.39277 14.799 7.08919 13.8444C6.78561 12.8899 6.79361 11.8635 7.11204 10.9138C7.43048 9.96409 8.04282 9.14033 8.86047 8.56172C8.96039 8.49061 9.04533 8.40051 9.11043 8.29658C9.17554 8.19264 9.21953 8.0769 9.2399 7.95596C9.26028 7.83503 9.25663 7.71126 9.22917 7.59173C9.20171 7.4722 9.15098 7.35926 9.07987 7.25933C9.00876 7.15941 8.91867 7.07447 8.81473 7.00937C8.7108 6.94427 8.59505 6.90027 8.47412 6.8799C8.22987 6.83876 7.97929 6.89632 7.77749 7.03994C6.63737 7.84814 5.78387 8.99803 5.34041 10.3233C4.89695 11.6486 4.88651 13.0806 5.31061 14.4122C5.73471 15.7438 6.57137 16.906 7.69958 17.7308C8.8278 18.5555 10.1891 19 11.5866 19C12.9841 19 14.3454 18.5555 15.4736 17.7308C16.6019 16.906 17.4385 15.7438 17.8626 14.4122C18.2867 13.0806 18.2763 11.6486 17.8328 10.3233C17.3894 8.99803 16.5358 7.84814 15.3957 7.03994Z" fill="white"/>
</svg>
