<svg width="42" height="48" viewBox="0 0 42 48" fill="none" xmlns="http://www.w3.org/2000/svg">
<path d="M41 41.1875H1V47.3051H41V41.1875Z" fill="#999999" stroke="black" stroke-miterlimit="22.9256" stroke-linecap="round" stroke-linejoin="round"/>
<path d="M41 5.70703H1V11.8247H41V5.70703Z" fill="#999999" stroke="black" stroke-miterlimit="22.9256" stroke-linecap="round" stroke-linejoin="round"/>
<path fill-rule="evenodd" clip-rule="evenodd" d="M11.353 5.23531V3.35295C11.353 2.05883 12.4119 1 13.706 1H27.8236C29.1177 1 30.1765 2.05883 30.1765 3.35295V5.23531" fill="#999999"/>
<path d="M11.353 5.23531V3.35295C11.353 2.05883 12.4119 1 13.706 1H27.8236C29.1177 1 30.1765 2.05883 30.1765 3.35295V5.23531" stroke="black" stroke-miterlimit="22.9256" stroke-linecap="round" stroke-linejoin="round"/>
<path fill-rule="evenodd" clip-rule="evenodd" d="M8.31825 12.625V40.3897V12.625ZM3.20898 40.3897V12.625V40.3897Z" fill="#999999"/>
<path d="M8.31825 12.625V40.3897M3.20898 40.3897V12.625" stroke="black" stroke-miterlimit="22.9256" stroke-linecap="round" stroke-linejoin="round"/>
<path fill-rule="evenodd" clip-rule="evenodd" d="M18.5366 12.625V40.3897V12.625ZM13.4274 40.3897V12.625V40.3897Z" fill="#999999"/>
<path d="M18.5366 12.625V40.3897M13.4274 40.3897V12.625" stroke="black" stroke-miterlimit="22.9256" stroke-linecap="round" stroke-linejoin="round"/>
<path fill-rule="evenodd" clip-rule="evenodd" d="M28.755 12.625V40.3897V12.625ZM23.6458 40.3897V12.625V40.3897Z" fill="#999999"/>
<path d="M28.755 12.625V40.3897M23.6458 40.3897V12.625" stroke="black" stroke-miterlimit="22.9256" stroke-linecap="round" stroke-linejoin="round"/>
<path fill-rule="evenodd" clip-rule="evenodd" d="M38.9732 12.625V40.3897V12.625ZM33.864 40.3897V12.625V40.3897Z" fill="#999999"/>
<path d="M38.9732 12.625V40.3897M33.864 40.3897V12.625" stroke="black" stroke-miterlimit="22.9256" stroke-linecap="round" stroke-linejoin="round"/>
</svg>
