<svg width="30" height="44" viewBox="0 0 30 44" fill="none" xmlns="http://www.w3.org/2000/svg">
<path d="M20.6591 35.0076L20.659 35.0073C20.6511 34.9738 20.6148 34.8249 20.4653 34.7166C20.4045 34.6725 20.343 34.648 20.2874 34.6349L17.9929 33.9263C17.1535 33.667 16.2566 33.6592 15.4128 33.9036L15.1138 33.9902C13.5405 34.446 12.4326 35.7315 11.7272 37.0696C11.1166 38.228 10.2428 39.2025 9.07031 39.2025V39.7025V40.2025H24.1065V39.7025V39.2025C22.9771 39.2025 22.1243 38.2996 21.5138 37.1889C21.219 36.6524 21.0054 36.1101 20.8646 35.6964C20.7945 35.4903 20.7431 35.3182 20.7092 35.1973C20.6753 35.0765 20.6591 35.0074 20.6591 35.0076ZM20.317 34.644L20.3168 34.644L20.317 34.644Z" fill="#999999" stroke="black"/>
<path d="M26.7188 43.4995H27.2188V42.9995V40.2231C27.2188 39.6549 26.7518 39.2031 26.1921 39.2031H7.21123C6.6515 39.2031 6.18457 39.6549 6.18457 40.2231V42.9995V43.4995H6.68457H26.7188Z" fill="#999999" stroke="black"/>
<path d="M15.7978 10.3866V10.3984C13.794 10.472 11.9042 10.9869 10.2251 11.849V1V0.5H9.72507H3.60263H3.10263V1V23.1233C3.10263 23.1626 3.10109 23.2035 3.09906 23.2559L3.09891 23.2595C3.09703 23.3079 3.09473 23.3669 3.09473 23.4274C3.09473 30.6351 9.01261 36.4683 16.2978 36.4683C23.583 36.4683 29.5009 30.6351 29.5009 23.4274C29.5009 16.2197 23.583 10.3866 16.2978 10.3866H15.7978Z" fill="#999999" stroke="black"/>
<path d="M12.868 4.65234V4.15234H12.368H1H0.5V4.65234V8.65585V9.15585H1H12.368H12.868V8.65585V4.65234Z" fill="#999999" stroke="black"/>
<path d="M25.5667 26.2732L24.8294 24.8772V21.3754L25.5641 19.9898C25.6773 19.7766 25.6694 19.5218 25.5483 19.3164L24.2711 17.1353C24.15 16.9273 23.9288 16.7948 23.6865 16.7844L22.0908 16.7142L19.0203 14.9646L18.1645 13.6336C18.0355 13.4308 17.809 13.3086 17.5667 13.3086H15.0124C14.7702 13.3086 14.5437 13.4308 14.4147 13.6336L13.5588 14.9646L10.491 16.7064L8.89526 16.7766C8.65299 16.787 8.4318 16.9195 8.31067 17.1275L7.03351 19.3087C6.91238 19.5166 6.90711 19.7714 7.01771 19.982L7.75504 21.378V24.8798L7.01771 26.2758C6.90448 26.489 6.91238 26.7437 7.03351 26.9491L8.31067 29.1302C8.4318 29.3382 8.65299 29.4708 8.89526 29.4812L10.491 29.5514L13.5615 31.301L14.4173 32.632C14.5463 32.8348 14.7728 32.957 15.0151 32.957H17.5694C17.8116 32.957 18.0381 32.8348 18.1671 32.632L19.023 31.301L22.0934 29.5514L23.6892 29.4812C23.9314 29.4708 24.1526 29.3382 24.2738 29.1302L25.5509 26.9491C25.6721 26.7411 25.6773 26.4864 25.5667 26.2758V26.2732ZM16.2922 28.7195C13.1586 28.7195 10.6174 26.216 10.6174 23.125C10.6174 20.034 13.1586 17.5305 16.2922 17.5305C19.4259 17.5305 21.967 20.034 21.967 23.125C21.967 26.216 19.4259 28.7195 16.2922 28.7195Z" fill="black"/>
<path d="M16.2944 26.1303C17.9742 26.1303 19.3359 24.7859 19.3359 23.1276C19.3359 21.4693 17.9742 20.125 16.2944 20.125C14.6146 20.125 13.2529 21.4693 13.2529 23.1276C13.2529 24.7859 14.6146 26.1303 16.2944 26.1303Z" fill="black"/>
</svg>
