<svg width="24" height="24" viewBox="0 0 24 24" fill="none" xmlns="http://www.w3.org/2000/svg">
<path d="M20.6245 10.1117H13.8884V3.37546C13.8884 3.17668 13.7117 3 13.5129 3H10.4871C10.2883 3 10.1117 3.17668 10.1117 3.37546V10.1117H3.37546C3.1546 10.1117 3 10.2883 3 10.4871V13.4908C3 13.6896 3.17668 13.8663 3.37546 13.8663H10.1117V20.6466C10.1117 20.8454 10.2883 21.0221 10.4871 21.0221H13.5129C13.7337 21.0221 13.8884 20.8454 13.8884 20.6466V13.8663H20.6245C20.8233 13.8663 21 13.6896 21 13.4908V10.4871C21 10.2883 20.8233 10.1117 20.6245 10.1117Z" fill="black"/>
</svg>
