<svg width="30" height="44" viewBox="0 0 30 44" fill="none" xmlns="http://www.w3.org/2000/svg">
<path d="M9.07031 40.2025H24.1065V39.7025V39.2025C22.9711 39.2025 22.1154 38.2899 21.5048 37.1724C21.21 36.633 20.9974 36.0891 20.8582 35.6774C20.7889 35.4724 20.7384 35.3022 20.7056 35.1845C20.6892 35.1256 20.6773 35.08 20.6696 35.0498L20.6612 35.0164L20.6594 35.009L20.6592 35.0079L20.6591 35.0077L20.6591 35.0076L20.6591 35.0076L20.5689 34.6218H20.2452L16.8492 33.573L16.7062 33.5289L16.5625 33.5705L12.8653 34.6416L12.5843 34.723L12.5177 35.0076L12.5177 35.0076L12.5177 35.0077L12.5176 35.0079L12.5174 35.009L12.5156 35.0164L12.5072 35.0498C12.4995 35.08 12.4876 35.1256 12.4712 35.1845C12.4384 35.3022 12.3879 35.4724 12.3186 35.6774C12.1794 36.0891 11.9668 36.633 11.672 37.1724C11.0614 38.2899 10.2057 39.2025 9.07031 39.2025V39.7025V40.2025Z" fill="#E0E0E0" stroke="black"/>
<path d="M26.7188 43.4995H27.2188V42.9995V40.2231C27.2188 39.6549 26.7518 39.2031 26.1921 39.2031H7.21123C6.6515 39.2031 6.18457 39.6549 6.18457 40.2231V42.9995V43.4995H6.68457H26.7188Z" fill="#E0E0E0" stroke="black"/>
<path d="M15.7978 10.3866V10.3984C13.794 10.472 11.9042 10.9869 10.2251 11.849V1V0.5H9.72507H3.60263H3.10263V1V23.1233C3.10263 23.1626 3.10109 23.2035 3.09906 23.2559L3.09891 23.2595C3.09703 23.3079 3.09473 23.3669 3.09473 23.4274C3.09473 30.6351 9.01261 36.4683 16.2978 36.4683C23.583 36.4683 29.5009 30.6351 29.5009 23.4274C29.5009 16.2197 23.583 10.3866 16.2978 10.3866H15.7978Z" fill="#E0E0E0" stroke="black"/>
<path d="M12.868 4.65234V4.15234H12.368H1H0.5V4.65234V8.65585V9.15585H1H12.368H12.868V8.65585V4.65234Z" fill="#E0E0E0" stroke="black"/>
<path d="M25.5667 26.2732L24.8294 24.8772V21.3754L25.5641 19.9898C25.6773 19.7766 25.6694 19.5218 25.5483 19.3164L24.2711 17.1353C24.15 16.9273 23.9288 16.7948 23.6865 16.7844L22.0908 16.7142L19.0203 14.9646L18.1645 13.6336C18.0355 13.4308 17.809 13.3086 17.5667 13.3086H15.0124C14.7702 13.3086 14.5437 13.4308 14.4147 13.6336L13.5588 14.9646L10.491 16.7064L8.89526 16.7766C8.65299 16.787 8.4318 16.9195 8.31067 17.1275L7.03351 19.3087C6.91238 19.5166 6.90711 19.7714 7.01771 19.982L7.75504 21.378V24.8798L7.01771 26.2758C6.90448 26.489 6.91238 26.7437 7.03351 26.9491L8.31067 29.1302C8.4318 29.3382 8.65299 29.4708 8.89526 29.4812L10.491 29.5514L13.5615 31.301L14.4173 32.632C14.5463 32.8348 14.7728 32.957 15.0151 32.957H17.5694C17.8116 32.957 18.0381 32.8348 18.1671 32.632L19.023 31.301L22.0934 29.5514L23.6892 29.4812C23.9314 29.4708 24.1526 29.3382 24.2738 29.1302L25.5509 26.9491C25.6721 26.7411 25.6773 26.4864 25.5667 26.2758V26.2732ZM16.2922 28.7195C13.1586 28.7195 10.6174 26.216 10.6174 23.125C10.6174 20.034 13.1586 17.5305 16.2922 17.5305C19.4259 17.5305 21.967 20.034 21.967 23.125C21.967 26.216 19.4259 28.7195 16.2922 28.7195Z" fill="black"/>
<path d="M16.2944 26.1303C17.9742 26.1303 19.3359 24.7859 19.3359 23.1276C19.3359 21.4693 17.9742 20.125 16.2944 20.125C14.6146 20.125 13.2529 21.4693 13.2529 23.1276C13.2529 24.7859 14.6146 26.1303 16.2944 26.1303Z" fill="black"/>
</svg>
