<svg width="26" height="26" viewBox="0 0 26 26" fill="none" xmlns="http://www.w3.org/2000/svg">
<rect x="0.5" y="0.5" width="25" height="25" rx="4.5" fill="white" stroke="black"/>
<rect x="1.91187" y="1.91016" width="22.1765" height="22.1765" rx="4.5" fill="white" stroke="black"/>
<path d="M9.94751 17.9424V8.47656H13.4162C14.0939 8.47656 14.7122 8.5655 15.2713 8.74339C15.8303 8.92127 16.275 9.23045 16.6054 9.67092C16.9442 10.1029 17.1136 10.7001 17.1136 11.4624C17.1136 12.1994 16.9442 12.8008 16.6054 13.2667C16.275 13.7326 15.8303 14.0756 15.2713 14.2959C14.7122 14.5076 14.0939 14.6135 13.4162 14.6135H12.2219V17.9424H9.94751ZM12.2219 12.822H13.2383C13.7805 12.822 14.1913 12.7076 14.4708 12.4789C14.7588 12.2417 14.9028 11.9029 14.9028 11.4624C14.9028 11.0135 14.7588 10.7043 14.4708 10.5349C14.1913 10.3655 13.7805 10.2808 13.2383 10.2808H12.2219V12.822ZM15.0553 17.9424L13.0096 14.029L14.547 12.5424L17.5965 17.9424H15.0553Z" fill="black"/>
</svg>
