<svg width="40" height="86" viewBox="0 0 40 86" fill="none" xmlns="http://www.w3.org/2000/svg">
<path d="M37.397 1.45996H22.207C21.1025 1.45996 20.207 2.35539 20.207 3.45996V82.54C20.207 83.6445 21.1025 84.54 22.207 84.54H37.397C38.5016 84.54 39.397 83.6445 39.397 82.54V3.45996C39.397 2.35539 38.5016 1.45996 37.397 1.45996Z" fill="#999999" stroke="black" stroke-miterlimit="10"/>
<path d="M20.207 48.7698V81.3398C20.207 83.1098 21.637 84.5398 23.407 84.5398H31.4971C33.2671 84.5398 34.697 83.1098 34.697 81.3398V63.7098L20.207 48.7598V48.7698Z" fill="#CCCCCC" stroke="black" stroke-miterlimit="10"/>
<path d="M18.1978 1.45996H3.00781C1.90324 1.45996 1.00781 2.35539 1.00781 3.45996V82.54C1.00781 83.6445 1.90324 84.54 3.00781 84.54H18.1978C19.3024 84.54 20.1978 83.6445 20.1978 82.54V3.45996C20.1978 2.35539 19.3024 1.45996 18.1978 1.45996Z" fill="#999999" stroke="black" stroke-miterlimit="10"/>
<path d="M20.2087 46.62V4.65996C20.2087 2.88996 18.7787 1.45996 17.0087 1.45996H8.91876C7.14876 1.45996 5.71875 2.88996 5.71875 4.65996V31.67L20.2087 46.62Z" fill="#CCCCCC" stroke="black" stroke-miterlimit="10"/>
</svg>
