<svg width="22" height="23" viewBox="0 0 22 23" fill="none" xmlns="http://www.w3.org/2000/svg">
<path d="M11 16.4051V9.81641" stroke="black" stroke-miterlimit="10"/>
<path d="M16.8495 1H5.15137V10.0566H16.8495V1Z" fill="#999999" stroke="black" stroke-miterlimit="10"/>
<path d="M11.3223 8.16975V3.10938H13.1766C14.2566 3.10938 15.1532 3.48296 15.1532 4.7056C15.1532 5.89428 14.2566 6.39013 13.1766 6.39013H12.5381V8.16975H11.3223ZM12.5381 5.43239H13.0815C13.6589 5.43239 13.9713 5.18107 13.9713 4.7056C13.9713 4.23013 13.6589 4.0739 13.0815 4.0739H12.5381V5.43239ZM14.0528 8.16975L12.9592 6.07768L13.7811 5.28296L15.4113 8.16975H14.0528Z" fill="black"/>
<path d="M6.65918 8.16975V3.10938H8.4388C9.54597 3.10938 10.463 3.51013 10.463 4.75994C10.463 5.96221 9.53918 6.49202 8.46597 6.49202H7.87503V8.16975H6.65918ZM7.87503 5.53428H8.40484C8.99578 5.53428 9.28107 5.25579 9.28107 4.75994C9.28107 4.25051 8.95503 4.0739 8.37088 4.0739H7.87503V5.53428Z" fill="black"/>
<path d="M1 22.5052L11 16.4674L1 10.4297V22.5052Z" fill="#999999" stroke="black" stroke-linecap="round" stroke-linejoin="round"/>
<path d="M21 22.5052L11 16.4674L21 10.4297V22.5052Z" fill="#999999" stroke="black" stroke-linecap="round" stroke-linejoin="round"/>
</svg>
