<svg width="40" height="85" viewBox="0 0 40 85" fill="none" xmlns="http://www.w3.org/2000/svg">
<path d="M37.39 1H22.2C21.0954 1 20.2 1.89543 20.2 3V82.08C20.2 83.1846 21.0954 84.08 22.2 84.08H37.39C38.4945 84.08 39.39 83.1846 39.39 82.08V3C39.39 1.89543 38.4945 1 37.39 1Z" fill="#CCCCCC" stroke="black" stroke-miterlimit="10"/>
<path d="M20.2 48.3108V80.8808C20.2 82.6508 21.63 84.0808 23.4 84.0808H31.49C33.26 84.0808 34.6899 82.6508 34.6899 80.8808V63.2508L20.2 48.3008V48.3108Z" fill="#999999" stroke="black" stroke-miterlimit="10"/>
<path d="M18.19 1H3C1.89543 1 1 1.89543 1 3V82.08C1 83.1846 1.89543 84.08 3 84.08H18.19C19.2946 84.08 20.19 83.1846 20.19 82.08V3C20.19 1.89543 19.2946 1 18.19 1Z" fill="#CCCCCC" stroke="black" stroke-miterlimit="10"/>
<path d="M20.2 46.16V4.2C20.2 2.43 18.7699 1 16.9999 1H8.90997C7.13997 1 5.70996 2.43 5.70996 4.2V31.21L20.2 46.16Z" fill="white" stroke="black" stroke-miterlimit="10"/>
</svg>
