<svg width="42" height="42" viewBox="0 0 42 42" fill="none" xmlns="http://www.w3.org/2000/svg">
<path d="M21 41C32.0457 41 41 32.0457 41 21C41 9.9543 32.0457 1 21 1C9.9543 1 1 9.9543 1 21C1 32.0457 9.9543 41 21 41Z" fill="white" stroke="black" stroke-width="2" stroke-linecap="round" stroke-linejoin="round"/>
<path d="M27.2522 28.1888C26.0437 28.1888 24.9466 27.9365 23.961 27.432C22.9871 26.9274 22.2069 26.1765 21.6202 25.1792C21.0453 24.1818 20.7578 22.944 20.7578 21.4656C20.7578 20.3744 20.9279 19.4064 21.2682 18.5616C21.6085 17.705 22.0719 16.9834 22.6586 16.3968C23.257 15.8101 23.9434 15.3642 24.7178 15.0592C25.4922 14.7541 26.3194 14.6016 27.1994 14.6016C28.1615 14.6016 28.9887 14.7776 29.681 15.1296C30.3733 15.4698 30.9423 15.8629 31.3882 16.3088L29.7338 18.3152C29.4053 18.0218 29.0533 17.7813 28.6778 17.5936C28.3141 17.3941 27.8565 17.2944 27.305 17.2944C26.6597 17.2944 26.0847 17.4586 25.5802 17.7872C25.0874 18.104 24.6943 18.5674 24.401 19.1776C24.1194 19.776 23.9786 20.5034 23.9786 21.36C23.9786 22.2282 24.1077 22.9733 24.3658 23.5952C24.6357 24.2053 25.0346 24.6746 25.5626 25.0032C26.1023 25.32 26.777 25.4784 27.5866 25.4784C27.8213 25.4784 28.0501 25.449 28.273 25.3904C28.4959 25.3317 28.6778 25.2496 28.8186 25.144V23.032H26.7418V20.4624H31.617V26.5872C31.1594 27.0213 30.5434 27.3968 29.769 27.7136C29.0063 28.0304 28.1674 28.1888 27.2522 28.1888Z" fill="black"/>
<path d="M13.3374 27.944V17.4544H9.7998V14.832H20.043V17.4544H16.4878V27.944H13.3374Z" fill="black"/>
</svg>
