<svg width="33" height="33" viewBox="0 0 33 33" fill="none" xmlns="http://www.w3.org/2000/svg">
<circle cx="16.5" cy="16.5" r="15.5" fill="#D9D9D9" stroke="black" stroke-width="2"/>
<g clip-path="url(#clip0_438_34894)">
<path d="M16.5285 13.7558C16.5285 13.7558 18.0121 9.52562 16.5285 6.215L16.2046 5.49805L18.7291 5.771C18.7291 5.771 19.4109 10.6502 17.2782 13.9936L16.5273 13.7546L16.5285 13.7558Z" fill="black"/>
<path d="M15.5859 13.8979C15.5859 13.8979 15.5338 9.41418 13.0068 6.81203L12.4573 6.24914L14.9236 5.64258C14.9236 5.64258 17.2333 9.99405 16.3732 13.8651L15.5859 13.8979Z" fill="black"/>
<path d="M14.7487 14.3541C14.7487 14.3541 13.1656 10.1591 9.90231 8.5784L9.19385 8.23751L11.3035 6.82422C11.3035 6.82422 14.9623 10.1227 15.4778 14.0556L14.7487 14.3553V14.3541Z" fill="black"/>
<path d="M14.1181 15.0681C14.1181 15.0681 11.1957 11.6677 7.58788 11.2977L6.80542 11.2201L8.30363 9.16992C8.30363 9.16992 12.8698 11.0187 14.6992 14.5368L14.1169 15.0669L14.1181 15.0681Z" fill="black"/>
<path d="M13.7687 15.9548C13.7687 15.9548 9.85999 13.7591 6.34314 14.6459L5.5813 14.84L6.28855 12.4004C6.28855 12.4004 11.2114 12.5751 14.135 15.2561L13.7699 15.9536L13.7687 15.9548Z" fill="black"/>
<path d="M13.7444 16.9067C13.7444 16.9067 9.32013 16.1801 6.31886 18.2157L5.66984 18.6585L5.5 16.1243C5.5 16.1243 10.1863 14.6054 13.8499 16.1243L13.7456 16.9055L13.7444 16.9067Z" fill="black"/>
<path d="M14.0476 17.8115C14.0476 17.8115 9.64151 18.6413 7.51733 21.5819L7.05877 22.2213L6.03247 19.8981C6.03247 19.8981 9.91689 16.8677 13.879 17.0424L14.0476 17.8115Z" fill="black"/>
<path d="M14.6422 18.5566C14.6422 18.5566 10.7857 20.8434 9.79579 24.3323L9.58349 25.0893L7.82446 23.2575C7.82446 23.2575 10.4375 19.0807 14.2213 17.8906L14.6422 18.5566Z" fill="black"/>
<path d="M15.4549 19.0546C15.4549 19.0546 12.6137 22.5229 12.8758 26.1405L12.9352 26.9242L10.6558 25.8044C10.6558 25.8044 11.6833 20.9859 14.8313 18.5742L15.4549 19.0558V19.0546Z" fill="black"/>
<path d="M16.3878 19.2436C16.3878 19.2436 14.9042 23.4738 16.3878 26.7844L16.7117 27.5014L14.1872 27.2284C14.1872 27.2284 13.5054 22.3492 15.6381 19.0059L16.389 19.2448L16.3878 19.2436Z" fill="black"/>
<path d="M17.3303 19.1016C17.3303 19.1016 17.3825 23.5853 19.9094 26.1874L20.4589 26.7503L17.9927 27.3569C17.9927 27.3569 15.6829 23.0054 16.543 19.1343L17.3303 19.1016Z" fill="black"/>
<path d="M18.1685 18.6457C18.1685 18.6457 19.7517 22.8407 23.015 24.4214L23.7234 24.7623L21.6138 26.1756C21.6138 26.1756 17.955 22.8771 17.4395 18.9442L18.1685 18.6445V18.6457Z" fill="black"/>
<path d="M18.7996 17.9316C18.7996 17.9316 21.722 21.332 25.3298 21.702L26.1123 21.7797L24.6141 23.8298C24.6141 23.8298 20.0479 21.981 18.2185 18.463L18.8008 17.9329L18.7996 17.9316Z" fill="black"/>
<path d="M19.1476 17.0449C19.1476 17.0449 23.0563 19.2407 26.5731 18.3539L27.335 18.1598L26.6277 20.5994C26.6277 20.5994 21.7049 20.4247 18.7812 17.7437L19.1464 17.0461L19.1476 17.0449Z" fill="black"/>
<path d="M19.1719 16.0935C19.1719 16.0935 23.5962 16.8202 26.5975 14.7846L27.2465 14.3418L27.4163 16.876C27.4163 16.876 22.73 18.3948 19.0664 16.876L19.1707 16.0948L19.1719 16.0935Z" fill="black"/>
<path d="M18.8687 15.189C18.8687 15.189 23.2747 14.3592 25.3989 11.4186L25.8575 10.7793L26.8838 13.1024C26.8838 13.1024 22.9993 16.1328 19.0373 15.9581L18.8687 15.189Z" fill="black"/>
<path d="M18.2754 14.4428C18.2754 14.4428 22.1319 12.1561 23.1218 8.66715L23.3341 7.91016L25.0931 9.74197C25.0931 9.74197 22.4801 13.9188 18.6963 15.1088L18.2754 14.4428Z" fill="black"/>
<path d="M17.4626 13.9457C17.4626 13.9457 20.3038 10.4774 20.0417 6.85985L19.9823 6.07617L22.2618 7.19589C22.2618 7.19589 21.2342 12.0144 18.0862 14.4261L17.4626 13.9445V13.9457Z" fill="black"/>
<path d="M16.5116 12.459C14.3256 12.459 12.5532 14.2314 12.5532 16.4174C12.5532 18.6035 14.3256 20.3758 16.5116 20.3758C18.6977 20.3758 20.4701 18.6035 20.4701 16.4174C20.4701 14.2314 18.6977 12.459 16.5116 12.459ZM16.5116 17.5553C15.8832 17.5553 15.3737 17.0458 15.3737 16.4174C15.3737 15.789 15.8832 15.2795 16.5116 15.2795C17.14 15.2795 17.6496 15.789 17.6496 16.4174C17.6496 17.0458 17.14 17.5553 16.5116 17.5553Z" fill="black"/>
</g>
<defs>
<clipPath id="clip0_438_34894">
<rect width="21.9163" height="22" fill="white" transform="translate(5.5 5.5)"/>
</clipPath>
</defs>
</svg>
