<svg width="18" height="10" viewBox="0 0 18 10" fill="none" xmlns="http://www.w3.org/2000/svg">
<path d="M1.33962 8.5L2.08748 8.5C2.27616 8.5 2.43053 8.34562 2.43053 8.15695L2.43053 7.8036L15.566 7.8036L15.566 8.15695C15.566 8.34563 15.7204 8.5 15.9091 8.5L16.6569 8.5C16.8456 8.5 17 8.34563 17 8.15695L17 1.34391C17 1.15523 16.8456 1.00086 16.6569 1.00086L15.9091 1.00086C15.7204 1.00086 15.566 1.15523 15.566 1.34391L15.566 1.69726L2.43396 1.69725L2.43396 1.34391C2.43396 1.15523 2.27959 1.00086 2.09091 1.00086L1.34305 1.00086C1.15437 1.00086 1 1.15523 1 1.34391L1 8.15695C1 8.34562 1.15437 8.5 1.34305 8.5L1.33962 8.5Z" fill="#CCCCCC" stroke="white" stroke-width="2" stroke-miterlimit="10"/>
<path d="M1.33962 8.5L2.08748 8.5C2.27616 8.5 2.43053 8.34562 2.43053 8.15695L2.43053 7.8036L15.566 7.8036L15.566 8.15695C15.566 8.34563 15.7204 8.5 15.9091 8.5L16.6569 8.5C16.8456 8.5 17 8.34563 17 8.15695L17 1.34391C17 1.15523 16.8456 1.00086 16.6569 1.00086L15.9091 1.00086C15.7204 1.00086 15.566 1.15523 15.566 1.34391L15.566 1.69726L2.43396 1.69725L2.43396 1.34391C2.43396 1.15523 2.27959 1.00086 2.09091 1.00086L1.34305 1.00086C1.15437 1.00086 1 1.15523 1 1.34391L1 8.15695C1 8.34562 1.15437 8.5 1.34305 8.5L1.33962 8.5Z" fill="#CCCCCC" stroke="black" stroke-miterlimit="10" stroke-linecap="round" stroke-dasharray="3 3"/>
<path d="M11.4145 7.09961L13.6512 7.09961L14.7695 5.16136L13.6512 3.22654L11.4145 3.22654L10.2961 5.16136L11.4145 7.09961Z" fill="#A2A2A2"/>
<path d="M4.10588 7.09961L6.34258 7.09961L7.46094 5.16136L6.34258 3.22654L4.10588 3.22654L2.98752 5.16136L4.10588 7.09961Z" fill="#A2A2A2"/>
</svg>
