<svg width="24" height="24" viewBox="0 0 24 24" fill="none" xmlns="http://www.w3.org/2000/svg">
<path fill-rule="evenodd" clip-rule="evenodd" d="M12.5473 6.16216C12.5473 6.66594 12.9557 7.07432 13.4595 7.07432H15.6357L12.8145 9.89555C12.4583 10.2518 12.4583 10.8293 12.8145 11.1855C13.1707 11.5417 13.7482 11.5417 14.1045 11.1855L16.9257 8.36432V10.5405C16.9257 11.0443 17.334 11.4527 17.8378 11.4527C18.3416 11.4527 18.75 11.0443 18.75 10.5405V6.16216C18.75 5.65839 18.3416 5.25 17.8378 5.25H13.4595C12.9557 5.25 12.5473 5.65839 12.5473 6.16216ZM7.07432 13.4595C7.07432 12.9557 6.66594 12.5473 6.16216 12.5473C5.65839 12.5473 5.25 12.9557 5.25 13.4595V17.8378C5.25 18.3416 5.65839 18.75 6.16216 18.75H10.5405C11.0443 18.75 11.4527 18.3416 11.4527 17.8378C11.4527 17.334 11.0443 16.9257 10.5405 16.9257H8.36432L11.1855 14.1045C11.5417 13.7482 11.5417 13.1707 11.1855 12.8145C10.8293 12.4583 10.2518 12.4583 9.89555 12.8145L7.07432 15.6357V13.4595Z" fill="white"/>
</svg>
