<svg width="26" height="106" viewBox="0 0 26 106" fill="none" xmlns="http://www.w3.org/2000/svg">
<path d="M21 1H5C2.79086 1 1 2.79086 1 5V100.8C1 103.009 2.79086 104.8 5 104.8H21C23.2091 104.8 25 103.009 25 100.8V5C25 2.79086 23.2091 1 21 1Z" fill="#FEF546" stroke="black" stroke-miterlimit="10"/>
<path d="M16.9973 4.60059H8.99731C6.78818 4.60059 4.99731 6.39145 4.99731 8.60058V44.2006C4.99731 46.4098 6.78818 48.2006 8.99731 48.2006H16.9973C19.2065 48.2006 20.9973 46.4098 20.9973 44.2006V8.60058C20.9973 6.39145 19.2065 4.60059 16.9973 4.60059Z" fill="#666666"/>
<path d="M16.9973 56.9995H8.99731C6.78818 56.9995 4.99731 58.7904 4.99731 60.9995V96.5995C4.99731 98.8086 6.78818 100.599 8.99731 100.599H16.9973C19.2065 100.599 20.9973 98.8086 20.9973 96.5995V60.9995C20.9973 58.7904 19.2065 56.9995 16.9973 56.9995Z" fill="#666666"/>
</svg>
