<svg width="28" height="15" viewBox="0 0 28 15" fill="none" xmlns="http://www.w3.org/2000/svg">
<path d="M1.55172 13.8428L2.76699 13.8428C3.0736 13.8428 3.32446 13.5919 3.32446 13.2853L3.32446 12.7111L24.6698 12.7111L24.6698 13.2853C24.6698 13.5919 24.9207 13.8428 25.2273 13.8428L26.4425 13.8428C26.7491 13.8428 27 13.5919 27 13.2853L27 2.21405C27 1.90745 26.7491 1.65659 26.4425 1.65659L25.2273 1.65659C24.9207 1.65659 24.6698 1.90745 24.6698 2.21405L24.6698 2.78824L3.33004 2.78824L3.33004 2.21405C3.33004 1.90744 3.07918 1.65658 2.77257 1.65658L1.5573 1.65658C1.25069 1.65658 0.999829 1.90744 0.999829 2.21405L0.999828 13.2853C0.999828 13.5919 1.25069 13.8428 1.55729 13.8428L1.55172 13.8428Z" fill="#CCCCCC" stroke="white" stroke-width="2" stroke-miterlimit="10"/>
<path d="M1.55172 13.8428L2.76699 13.8428C3.0736 13.8428 3.32446 13.5919 3.32446 13.2853L3.32446 12.7111L24.6698 12.7111L24.6698 13.2853C24.6698 13.5919 24.9207 13.8428 25.2273 13.8428L26.4425 13.8428C26.7491 13.8428 27 13.5919 27 13.2853L27 2.21405C27 1.90745 26.7491 1.65659 26.4425 1.65659L25.2273 1.65659C24.9207 1.65659 24.6698 1.90745 24.6698 2.21405L24.6698 2.78824L3.33004 2.78824L3.33004 2.21405C3.33004 1.90744 3.07918 1.65658 2.77257 1.65658L1.5573 1.65658C1.25069 1.65658 0.999829 1.90744 0.999829 2.21405L0.999828 13.2853C0.999828 13.5919 1.25069 13.8428 1.55729 13.8428L1.55172 13.8428Z" fill="#CCCCCC" stroke="black" stroke-miterlimit="10" stroke-linecap="round" stroke-dasharray="3 3"/>
<path d="M17.9246 11.5684L21.5593 11.5684L23.3766 8.41868L21.5593 5.27458L17.9246 5.27458L16.1072 8.41868L17.9246 11.5684Z" fill="#A2A2A2"/>
<path d="M6.04494 11.5684L9.67961 11.5684L11.4969 8.41868L9.67961 5.27458L6.04494 5.27458L4.2276 8.41868L6.04494 11.5684Z" fill="#A2A2A2"/>
</svg>
