<svg width="20" height="21" viewBox="0 0 20 21" fill="none" xmlns="http://www.w3.org/2000/svg">
<path d="M1.17647 1.00098H18.8235C19.1971 1.00098 19.5 1.30384 19.5 1.67745V19.3245C19.5 19.6981 19.1971 20.001 18.8235 20.001H1.17647C0.802866 20.001 0.5 19.6981 0.5 19.3245V1.67745C0.5 1.30384 0.802866 1.00098 1.17647 1.00098Z" fill="white" stroke="black"/>
<path d="M1.17651 1.67773H18.8236L10 19.3248L1.17651 1.67773Z" fill="black"/>
<path d="M7.05884 11.9717V3.20703H9.57648C10.4706 3.20703 11.2471 3.35997 11.9059 3.66586C12.5726 3.96389 13.0902 4.43056 13.4588 5.06586C13.8275 5.70115 14.0118 6.5286 14.0118 7.54821C14.0118 8.55997 13.8275 9.39527 13.4588 10.0541C13.0981 10.7051 12.5922 11.1874 11.9412 11.5012C11.2981 11.8149 10.549 11.9717 9.69413 11.9717H7.05884ZM9.16472 10.2776H9.44707C9.91766 10.2776 10.3333 10.1953 10.6941 10.0306C11.0628 9.86586 11.349 9.5835 11.553 9.1835C11.7569 8.7835 11.8588 8.2384 11.8588 7.54821C11.8588 6.85017 11.7569 6.30899 11.553 5.92468C11.349 5.54037 11.0628 5.2737 10.6941 5.12468C10.3333 4.96782 9.91766 4.88938 9.44707 4.88938H9.16472V10.2776Z" fill="white"/>
</svg>
