<svg width="12" height="26" viewBox="0 0 12 26" fill="none" xmlns="http://www.w3.org/2000/svg">
<path d="M0.705882 0.5H11.2941C11.4078 0.5 11.5 0.592177 11.5 0.705882V11.2941C11.5 11.4078 11.4078 11.5 11.2941 11.5H0.705882C0.592177 11.5 0.5 11.4078 0.5 11.2941V0.705882C0.5 0.592177 0.592177 0.5 0.705882 0.5Z" fill="#999999" stroke="black"/>
<path d="M11.294 11.2943H0.705811L5.99993 0.706055L11.294 11.2943Z" fill="black"/>
<path d="M6.06341 10.5105C5.71046 10.5105 5.39988 10.4611 5.13164 10.3622C4.86811 10.2587 4.64693 10.1034 4.46811 9.89636C4.28929 9.6846 4.15517 9.41636 4.06576 9.09166C3.97635 8.76695 3.93164 8.38342 3.93164 7.94107V5.15283H5.18811V8.07519C5.18811 8.4046 5.22105 8.66813 5.28693 8.86577C5.35282 9.06342 5.44929 9.20695 5.57635 9.29636C5.70811 9.38107 5.87046 9.42342 6.06341 9.42342C6.25635 9.42342 6.4187 9.38107 6.55046 9.29636C6.68223 9.20695 6.78105 9.06342 6.84693 8.86577C6.91752 8.66813 6.95282 8.4046 6.95282 8.07519V5.15283H8.16693V7.94107C8.16693 8.38342 8.12223 8.76695 8.03282 9.09166C7.94811 9.41636 7.81635 9.6846 7.63752 9.89636C7.46341 10.1034 7.24458 10.2587 6.98105 10.3622C6.71752 10.4611 6.41164 10.5105 6.06341 10.5105Z" fill="white"/>
<path d="M0.705882 14H11.2941C11.4078 14 11.5 14.0922 11.5 14.2059V24.7941C11.5 24.9078 11.4078 25 11.2941 25H0.705882C0.592177 25 0.5 24.9078 0.5 24.7941V14.2059C0.5 14.0922 0.592177 14 0.705882 14Z" fill="#999999" stroke="black"/>
<path d="M0.705811 14.2061H11.294L5.99993 24.7943L0.705811 14.2061Z" fill="black"/>
<path d="M4.23535 20.3824V15.1235H5.74594C6.28241 15.1235 6.74829 15.2153 7.14359 15.3988C7.54359 15.5777 7.85418 15.8577 8.07535 16.2388C8.29653 16.62 8.40712 17.1165 8.40712 17.7282C8.40712 18.3353 8.29653 18.8365 8.07535 19.2318C7.85888 19.6224 7.55535 19.9118 7.16476 20.1C6.77888 20.2882 6.32947 20.3824 5.81653 20.3824H4.23535ZM5.49888 19.3659H5.66829C5.95065 19.3659 6.20006 19.3165 6.41653 19.2177C6.6377 19.1188 6.80947 18.9494 6.93182 18.7094C7.05417 18.4694 7.11535 18.1424 7.11535 17.7282C7.11535 17.3094 7.05417 16.9847 6.93182 16.7541C6.80947 16.5235 6.6377 16.3635 6.41653 16.2741C6.20006 16.18 5.95065 16.1329 5.66829 16.1329H5.49888V19.3659Z" fill="white"/>
</svg>
