<svg width="16" height="34" viewBox="0 0 16 34" fill="none" xmlns="http://www.w3.org/2000/svg">
<path d="M0.941176 0.5H15.0588C15.3025 0.5 15.5 0.697521 15.5 0.941176V15.0588C15.5 15.3025 15.3025 15.5 15.0588 15.5H0.941176C0.697521 15.5 0.5 15.3025 0.5 15.0588V0.941176C0.5 0.697521 0.697521 0.5 0.941176 0.5Z" fill="#FEF546" stroke="black"/>
<path d="M15.0588 15.0591H0.941162L7.99999 0.941406L15.0588 15.0591Z" fill="black"/>
<path d="M8.08454 14.0141C7.61395 14.0141 7.19983 13.9483 6.84219 13.8165C6.49081 13.6784 6.19591 13.4714 5.95748 13.1953C5.71905 12.913 5.54023 12.5553 5.42101 12.1224C5.3018 11.6894 5.24219 11.1781 5.24219 10.5883V6.87061H6.91748V10.7671C6.91748 11.2063 6.9614 11.5577 7.04925 11.8212C7.13709 12.0847 7.26572 12.2761 7.43513 12.3953C7.61082 12.5083 7.82729 12.5647 8.08454 12.5647C8.3418 12.5647 8.55827 12.5083 8.73395 12.3953C8.90964 12.2761 9.0414 12.0847 9.12925 11.8212C9.22336 11.5577 9.27042 11.2063 9.27042 10.7671V6.87061H10.8892V10.5883C10.8892 11.1781 10.8296 11.6894 10.7104 12.1224C10.5975 12.5553 10.4218 12.913 10.1834 13.1953C9.95121 13.4714 9.65944 13.6784 9.30807 13.8165C8.9567 13.9483 8.54885 14.0141 8.08454 14.0141Z" fill="white"/>
<path d="M0.941176 18.4414H15.0588C15.3025 18.4414 15.5 18.6389 15.5 18.8826V33.0002C15.5 33.2439 15.3025 33.4414 15.0588 33.4414H0.941176C0.697521 33.4414 0.5 33.2439 0.5 33.0002V18.8826C0.5 18.6389 0.697521 18.4414 0.941176 18.4414Z" fill="#FEF546" stroke="black"/>
<path d="M0.941162 18.8823H15.0588L7.99999 33L0.941162 18.8823Z" fill="black"/>
<path d="M5.64697 27.1177V20.106H7.66109C8.37638 20.106 8.99756 20.2283 9.52462 20.473C10.058 20.7114 10.4721 21.0848 10.767 21.593C11.0619 22.1013 11.2093 22.7632 11.2093 23.5789C11.2093 24.3883 11.0619 25.0565 10.767 25.5836C10.4783 26.1044 10.0736 26.4903 9.55286 26.7413C9.03835 26.9922 8.43913 27.1177 7.75521 27.1177H5.64697ZM7.33168 25.7624H7.55756C7.93403 25.7624 8.26658 25.6965 8.55521 25.5648C8.85011 25.433 9.07913 25.2071 9.24227 24.8871C9.4054 24.5671 9.48697 24.1311 9.48697 23.5789C9.48697 23.0205 9.4054 22.5875 9.24227 22.2801C9.07913 21.9726 8.85011 21.7593 8.55521 21.6401C8.26658 21.5146 7.93403 21.4518 7.55756 21.4518H7.33168V25.7624Z" fill="white"/>
</svg>
