<svg width="16" height="16" viewBox="0 0 16 16" fill="none" xmlns="http://www.w3.org/2000/svg">
<path d="M0.941176 0.5H15.0588C15.3025 0.5 15.5 0.697521 15.5 0.941176V15.0588C15.5 15.3025 15.3025 15.5 15.0588 15.5H0.941176C0.697521 15.5 0.5 15.3025 0.5 15.0588V0.941176C0.5 0.697521 0.697521 0.5 0.941176 0.5Z" fill="#FEF546" stroke="black"/>
<path d="M1 0.941406H15.1176L8.05882 15.0591L1 0.941406Z" fill="black"/>
<path d="M8.09197 9C7.48143 9 6.94344 8.86097 6.47798 8.5829C6.01252 8.29879 5.64983 7.89378 5.3899 7.36788C5.12997 6.83592 5 6.20121 5 5.46373C5 4.72625 5.12997 4.1006 5.3899 3.58679C5.64983 3.06693 6.01252 2.67401 6.47798 2.40803C6.94344 2.13601 7.48143 2 8.09197 2C8.70855 2 9.24655 2.13601 9.70596 2.40803C10.1714 2.68005 10.5341 3.07297 10.794 3.58679C11.054 4.1006 11.1839 4.72625 11.1839 5.46373C11.1839 6.20121 11.054 6.83592 10.794 7.36788C10.5341 7.89378 10.1714 8.29879 9.70596 8.5829C9.24655 8.86097 8.70855 9 8.09197 9ZM8.09197 7.60363C8.38817 7.60363 8.64206 7.51598 8.85363 7.34067C9.07124 7.16537 9.23748 6.91753 9.35233 6.59715C9.47323 6.27677 9.53368 5.89896 9.53368 5.46373C9.53368 5.0285 9.47323 4.65674 9.35233 4.34845C9.23748 4.03411 9.07124 3.79534 8.85363 3.63212C8.64206 3.46891 8.38817 3.38731 8.09197 3.38731C7.79577 3.38731 7.53886 3.46891 7.32124 3.63212C7.10967 3.79534 6.94646 4.03411 6.83161 4.34845C6.71675 4.65674 6.65933 5.0285 6.65933 5.46373C6.65933 5.89896 6.71675 6.27677 6.83161 6.59715C6.94646 6.91753 7.10967 7.16537 7.32124 7.34067C7.53886 7.51598 7.79577 7.60363 8.09197 7.60363Z" fill="white"/>
</svg>
