<svg width="32" height="32" viewBox="0 0 32 32" fill="none" xmlns="http://www.w3.org/2000/svg">
<path d="M23.908 14.6782L23.9343 14.684H12.6554L16.2011 11.1305C16.3747 10.957 16.4699 10.722 16.4699 10.4753C16.4699 10.2287 16.3747 9.99529 16.2011 9.82139L15.6493 9.26941C15.4759 9.09593 15.2447 9 14.9982 9C14.7515 9 14.5202 9.09524 14.3467 9.26873L8.26873 15.3461C8.09456 15.5203 7.99932 15.7523 8 15.9991C7.99932 16.2473 8.09456 16.4794 8.26873 16.6533L14.3467 22.7313C14.5202 22.9046 14.7514 23 14.9982 23C15.2447 23 15.4759 22.9045 15.6493 22.7313L16.2011 22.1793C16.3747 22.0061 16.4699 21.7748 16.4699 21.5281C16.4699 21.2816 16.3747 21.0624 16.2011 20.8891L12.6154 17.3158H23.9206C24.4286 17.3158 24.8554 16.8779 24.8554 16.3702V15.5895C24.8554 15.0818 24.4159 14.6782 23.908 14.6782Z" fill="white"/>
</svg>
