<svg width="19" height="437" viewBox="0 0 19 437" fill="none" xmlns="http://www.w3.org/2000/svg">
<g clip-path="url(#clip0_2518_4610)">
<path d="M-237.508 -13.3682C-234.663 -22.3395 -229.259 -28.8682 -220.699 -28.8682C-212.138 -28.8682 -205.199 -21.9286 -205.199 -13.3682L-218.699 452.13C-218.699 460.69 -211.759 467.63 -203.199 467.63C-194.638 467.63 -187.699 460.69 -187.699 452.13L-199.199 -13.3682C-199.199 -21.9286 -192.259 -28.8682 -183.699 -28.8682C-175.138 -28.8682 -168.199 -21.9286 -168.199 -13.3682L-181.699 452.13C-181.699 460.69 -174.759 467.63 -166.199 467.63C-157.954 467.63 -151.213 461.193 -150.727 453.071M-150.699 452.13C-150.699 452.446 -150.708 452.759 -150.727 453.071M-150.727 453.071L-162.199 -13.3682C-162.199 -21.9286 -155.259 -28.8682 -146.699 -28.8682C-138.138 -28.8682 -131.199 -21.9286 -131.199 -13.3682L-144.409 455.126M-144.409 455.126C-143.014 462.253 -136.734 467.63 -129.199 467.63C-120.638 467.63 -113.699 460.69 -113.699 452.13L-125.199 -13.3682C-125.199 -21.9286 -118.259 -28.8682 -109.699 -28.8682C-101.138 -28.8682 -94.1988 -21.9286 -94.1988 -13.3682L-107.699 452.13C-107.699 460.69 -100.759 467.63 -92.1988 467.63C-83.6384 467.63 -76.6988 460.69 -76.6988 452.13L-88.1988 -13.3682C-88.1988 -21.9286 -81.2592 -28.8682 -72.6988 -28.8682C-64.1384 -28.8682 -57.1988 -21.9286 -57.1988 -13.3682L-70.6988 452.13C-70.6988 460.69 -63.7592 467.63 -55.1988 467.63C-46.6384 467.63 -39.6988 460.69 -39.6988 452.13L-51.1988 -13.3682C-51.1988 -21.9286 -44.2592 -28.8682 -35.6988 -28.8682C-27.1384 -28.8682 -20.1988 -21.9286 -20.1988 -13.3682L-33.6988 452.13C-33.6988 460.69 -26.7592 467.63 -18.1988 467.63C-9.63841 467.63 -2.69882 460.69 -2.69882 452.13L-14.1988 -13.3682C-14.1988 -21.9286 -7.25923 -28.8682 1.30118 -28.8682C9.86159 -28.8682 16.8012 -21.9286 16.8012 -13.3682L3.30118 452.13C3.30118 460.69 10.2408 467.63 18.8012 467.63C27.3616 467.63 34.3012 460.69 34.3012 452.13L22.8012 -13.3682C22.8012 -21.9286 29.7408 -28.8682 38.3012 -28.8682C46.8616 -28.8682 53.8012 -21.9286 53.8012 -13.3682L40.3012 452.13C40.3012 460.69 47.2408 467.63 55.8012 467.63C64.3616 467.63 71.3012 460.69 71.3012 452.13L59.8012 -13.3682C59.8012 -21.9286 66.7408 -28.8682 75.3012 -28.8682C83.8616 -28.8682 90.8012 -21.9286 90.8012 -13.3682L77.3012 452.13C77.3012 460.69 84.2408 467.63 92.8012 467.63C101.362 467.63 108.301 460.69 108.301 452.13L96.8012 -13.3682C96.8012 -21.9286 103.741 -28.8682 112.301 -28.8682C120.862 -28.8682 127.801 -21.9286 127.801 -13.3682L114.301 452.13C114.301 460.69 121.241 467.63 129.801 467.63C138.362 467.63 145.301 460.69 145.301 452.13L133.801 -10.8233V-13.3682C133.801 -21.9286 140.741 -28.8682 149.301 -28.8682C157.862 -28.8682 164.801 -21.9286 164.801 -13.3682V-5.49523M-144.409 455.126C-144.599 454.157 -144.699 453.155 -144.699 452.13" stroke="#008C3C" stroke-width="4" stroke-linecap="round" stroke-linejoin="round"/>
</g>
<defs>
<clipPath id="clip0_2518_4610">
<rect width="407" height="501" fill="white" transform="translate(-240 -31.0264)"/>
</clipPath>
</defs>
</svg>
