<svg width="20" height="33" viewBox="0 0 20 33" fill="none" xmlns="http://www.w3.org/2000/svg">
<g clip-path="url(#clip0_2518_4610)">
<path d="M-89.5078 18.6318C-86.663 9.6605 -81.2592 3.13184 -72.6988 3.13184C-64.1384 3.13184 -57.1988 10.0714 -57.1988 18.6318L-70.6988 484.13C-70.6988 492.69 -63.7592 499.63 -55.1988 499.63C-46.6384 499.63 -39.6988 492.69 -39.6988 484.13L-51.1988 18.6318C-51.1988 10.0714 -44.2592 3.13184 -35.6988 3.13184C-27.1384 3.13184 -20.1988 10.0714 -20.1988 18.6318L-33.6988 484.13C-33.6988 492.69 -26.7592 499.63 -18.1988 499.63C-9.95445 499.63 -3.21343 493.193 -2.72693 485.071M-2.69882 484.13C-2.69882 484.446 -2.70828 484.759 -2.72693 485.071M-2.72693 485.071L-14.1988 18.6318C-14.1988 10.0714 -7.25923 3.13184 1.30118 3.13184C9.86159 3.13184 16.8012 10.0714 16.8012 18.6318L3.59059 487.126M3.59059 487.126C4.98646 494.253 11.2659 499.63 18.8012 499.63C27.3616 499.63 34.3012 492.69 34.3012 484.13L22.8012 18.6318C22.8012 10.0714 29.7408 3.13184 38.3012 3.13184C46.8616 3.13184 53.8012 10.0714 53.8012 18.6318L40.3012 484.13C40.3012 492.69 47.2408 499.63 55.8012 499.63C64.3616 499.63 71.3012 492.69 71.3012 484.13L59.8012 18.6318C59.8012 10.0714 66.7408 3.13184 75.3012 3.13184C83.8616 3.13184 90.8012 10.0714 90.8012 18.6318L77.3012 484.13C77.3012 492.69 84.2408 499.63 92.8012 499.63C101.362 499.63 108.301 492.69 108.301 484.13L96.8012 18.6318C96.8012 10.0714 103.741 3.13184 112.301 3.13184C120.862 3.13184 127.801 10.0714 127.801 18.6318L114.301 484.13C114.301 492.69 121.241 499.63 129.801 499.63C138.362 499.63 145.301 492.69 145.301 484.13L133.801 18.6318C133.801 10.0714 140.741 3.13184 149.301 3.13184C157.862 3.13184 164.801 10.0714 164.801 18.6318L151.301 484.13C151.301 492.69 158.241 499.63 166.801 499.63C175.362 499.63 182.301 492.69 182.301 484.13L170.801 18.6318C170.801 10.0714 177.741 3.13184 186.301 3.13184C194.862 3.13184 201.801 10.0714 201.801 18.6318L188.301 484.13C188.301 492.69 195.241 499.63 203.801 499.63C212.362 499.63 219.301 492.69 219.301 484.13L207.801 18.6318C207.801 10.0714 214.741 3.13184 223.301 3.13184C231.862 3.13184 238.801 10.0714 238.801 18.6318L225.301 484.13C225.301 492.69 232.241 499.63 240.801 499.63C249.362 499.63 256.301 492.69 256.301 484.13L244.801 18.6318C244.801 10.0714 251.741 3.13184 260.301 3.13184C268.862 3.13184 275.801 10.0714 275.801 18.6318L262.301 484.13C262.301 492.69 269.241 499.63 277.801 499.63C286.362 499.63 293.301 492.69 293.301 484.13L281.801 21.1767V18.6318C281.801 10.0714 288.741 3.13184 297.301 3.13184C305.862 3.13184 312.801 10.0714 312.801 18.6318V26.5048M3.59059 487.126C3.4007 486.157 3.30118 485.155 3.30118 484.13" stroke="#008C3C" stroke-width="4" stroke-linecap="round" stroke-linejoin="round"/>
</g>
<defs>
<clipPath id="clip0_2518_4610">
<rect width="407" height="501" fill="white" transform="translate(-92 0.973633)"/>
</clipPath>
</defs>
</svg>
