<svg width="19" height="437" viewBox="0 0 19 437" fill="none" xmlns="http://www.w3.org/2000/svg">
<g clip-path="url(#clip0_2518_4610)">
<path d="M-71.5078 -13.3682C-68.663 -22.3395 -63.2592 -28.8682 -54.6988 -28.8682C-46.1384 -28.8682 -39.1988 -21.9286 -39.1988 -13.3682L-52.6988 452.13C-52.6988 460.69 -45.7592 467.63 -37.1988 467.63C-28.6384 467.63 -21.6988 460.69 -21.6988 452.13L-33.1988 -13.3682C-33.1988 -21.9286 -26.2592 -28.8682 -17.6988 -28.8682C-9.13841 -28.8682 -2.19882 -21.9286 -2.19882 -13.3682L-15.6988 452.13C-15.6988 460.69 -8.75924 467.63 -0.198822 467.63C8.04555 467.63 14.7866 461.193 15.2731 453.071M15.3012 452.13C15.3012 452.446 15.2917 452.759 15.2731 453.071M15.2731 453.071L3.80118 -13.3682C3.80118 -21.9286 10.7408 -28.8682 19.3012 -28.8682C27.8616 -28.8682 34.8012 -21.9286 34.8012 -13.3682L21.5906 455.126M21.5906 455.126C22.9865 462.253 29.2659 467.63 36.8012 467.63C45.3616 467.63 52.3012 460.69 52.3012 452.13L40.8012 -13.3682C40.8012 -21.9286 47.7408 -28.8682 56.3012 -28.8682C64.8616 -28.8682 71.8012 -21.9286 71.8012 -13.3682L58.3012 452.13C58.3012 460.69 65.2408 467.63 73.8012 467.63C82.3616 467.63 89.3012 460.69 89.3012 452.13L77.8012 -13.3682C77.8012 -21.9286 84.7408 -28.8682 93.3012 -28.8682C101.862 -28.8682 108.801 -21.9286 108.801 -13.3682L95.3012 452.13C95.3012 460.69 102.241 467.63 110.801 467.63C119.362 467.63 126.301 460.69 126.301 452.13L114.801 -13.3682C114.801 -21.9286 121.741 -28.8682 130.301 -28.8682C138.862 -28.8682 145.801 -21.9286 145.801 -13.3682L132.301 452.13C132.301 460.69 139.241 467.63 147.801 467.63C156.362 467.63 163.301 460.69 163.301 452.13L151.801 -13.3682C151.801 -21.9286 158.741 -28.8682 167.301 -28.8682C175.862 -28.8682 182.801 -21.9286 182.801 -13.3682L169.301 452.13C169.301 460.69 176.241 467.63 184.801 467.63C193.362 467.63 200.301 460.69 200.301 452.13L188.801 -13.3682C188.801 -21.9286 195.741 -28.8682 204.301 -28.8682C212.862 -28.8682 219.801 -21.9286 219.801 -13.3682L206.301 452.13C206.301 460.69 213.241 467.63 221.801 467.63C230.362 467.63 237.301 460.69 237.301 452.13L225.801 -13.3682C225.801 -21.9286 232.741 -28.8682 241.301 -28.8682C249.862 -28.8682 256.801 -21.9286 256.801 -13.3682L243.301 452.13C243.301 460.69 250.241 467.63 258.801 467.63C267.362 467.63 274.301 460.69 274.301 452.13L262.801 -13.3682C262.801 -21.9286 269.741 -28.8682 278.301 -28.8682C286.862 -28.8682 293.801 -21.9286 293.801 -13.3682L280.301 452.13C280.301 460.69 287.241 467.63 295.801 467.63C304.362 467.63 311.301 460.69 311.301 452.13L299.801 -10.8233V-13.3682C299.801 -21.9286 306.741 -28.8682 315.301 -28.8682C323.862 -28.8682 330.801 -21.9286 330.801 -13.3682V-5.49523M21.5906 455.126C21.4007 454.157 21.3012 453.155 21.3012 452.13" stroke="#008C3C" stroke-width="4" stroke-linecap="round" stroke-linejoin="round"/>
</g>
<defs>
<clipPath id="clip0_2518_4610">
<rect width="407" height="501" fill="white" transform="translate(-74 -31.0264)"/>
</clipPath>
</defs>
</svg>
