<svg width="19" height="33" viewBox="0 0 19 33" fill="none" xmlns="http://www.w3.org/2000/svg">
<g clip-path="url(#clip0_2518_4610)">
<path d="M-145.508 18.6318C-142.663 9.6605 -137.259 3.13184 -128.699 3.13184C-120.138 3.13184 -113.199 10.0714 -113.199 18.6318L-126.699 484.13C-126.699 492.69 -119.759 499.63 -111.199 499.63C-102.638 499.63 -95.6988 492.69 -95.6988 484.13L-107.199 18.6318C-107.199 10.0714 -100.259 3.13184 -91.6988 3.13184C-83.1384 3.13184 -76.1988 10.0714 -76.1988 18.6318L-89.6988 484.13C-89.6988 492.69 -82.7592 499.63 -74.1988 499.63C-65.9545 499.63 -59.2134 493.193 -58.7269 485.071M-58.6988 484.13C-58.6988 484.446 -58.7083 484.759 -58.7269 485.071M-58.7269 485.071L-70.1988 18.6318C-70.1988 10.0714 -63.2592 3.13184 -54.6988 3.13184C-46.1384 3.13184 -39.1988 10.0714 -39.1988 18.6318L-52.4094 487.126M-52.4094 487.126C-51.0135 494.253 -44.7341 499.63 -37.1988 499.63C-28.6384 499.63 -21.6988 492.69 -21.6988 484.13L-33.1988 18.6318C-33.1988 10.0714 -26.2592 3.13184 -17.6988 3.13184C-9.13841 3.13184 -2.19882 10.0714 -2.19882 18.6318L-15.6988 484.13C-15.6988 492.69 -8.75923 499.63 -0.198822 499.63C8.36159 499.63 15.3012 492.69 15.3012 484.13L3.80118 18.6318C3.80118 10.0714 10.7408 3.13184 19.3012 3.13184C27.8616 3.13184 34.8012 10.0714 34.8012 18.6318L21.3012 484.13C21.3012 492.69 28.2408 499.63 36.8012 499.63C45.3616 499.63 52.3012 492.69 52.3012 484.13L40.8012 18.6318C40.8012 10.0714 47.7408 3.13184 56.3012 3.13184C64.8616 3.13184 71.8012 10.0714 71.8012 18.6318L58.3012 484.13C58.3012 492.69 65.2408 499.63 73.8012 499.63C82.3616 499.63 89.3012 492.69 89.3012 484.13L77.8012 18.6318C77.8012 10.0714 84.7408 3.13184 93.3012 3.13184C101.862 3.13184 108.801 10.0714 108.801 18.6318L95.3012 484.13C95.3012 492.69 102.241 499.63 110.801 499.63C119.362 499.63 126.301 492.69 126.301 484.13L114.801 18.6318C114.801 10.0714 121.741 3.13184 130.301 3.13184C138.862 3.13184 145.801 10.0714 145.801 18.6318L132.301 484.13C132.301 492.69 139.241 499.63 147.801 499.63C156.362 499.63 163.301 492.69 163.301 484.13L151.801 18.6318C151.801 10.0714 158.741 3.13184 167.301 3.13184C175.862 3.13184 182.801 10.0714 182.801 18.6318L169.301 484.13C169.301 492.69 176.241 499.63 184.801 499.63C193.362 499.63 200.301 492.69 200.301 484.13L188.801 18.6318C188.801 10.0714 195.741 3.13184 204.301 3.13184C212.862 3.13184 219.801 10.0714 219.801 18.6318L206.301 484.13C206.301 492.69 213.241 499.63 221.801 499.63C230.362 499.63 237.301 492.69 237.301 484.13L225.801 21.1767V18.6318C225.801 10.0714 232.741 3.13184 241.301 3.13184C249.862 3.13184 256.801 10.0714 256.801 18.6318V26.5048M-52.4094 487.126C-52.5993 486.157 -52.6988 485.155 -52.6988 484.13" stroke="#008C3C" stroke-width="4" stroke-linecap="round" stroke-linejoin="round"/>
</g>
<defs>
<clipPath id="clip0_2518_4610">
<rect width="407" height="501" fill="white" transform="translate(-148 0.973633)"/>
</clipPath>
</defs>
</svg>
