<svg width="20" height="33" viewBox="0 0 20 33" fill="none" xmlns="http://www.w3.org/2000/svg">
<g clip-path="url(#clip0_2518_4610)">
<path d="M-126.508 18.6318C-123.663 9.6605 -118.259 3.13184 -109.699 3.13184C-101.138 3.13184 -94.1988 10.0714 -94.1988 18.6318L-107.699 484.13C-107.699 492.69 -100.759 499.63 -92.1988 499.63C-83.6384 499.63 -76.6988 492.69 -76.6988 484.13L-88.1988 18.6318C-88.1988 10.0714 -81.2592 3.13184 -72.6988 3.13184C-64.1384 3.13184 -57.1988 10.0714 -57.1988 18.6318L-70.6988 484.13C-70.6988 492.69 -63.7592 499.63 -55.1988 499.63C-46.9545 499.63 -40.2134 493.193 -39.7269 485.071M-39.6988 484.13C-39.6988 484.446 -39.7083 484.759 -39.7269 485.071M-39.7269 485.071L-51.1988 18.6318C-51.1988 10.0714 -44.2592 3.13184 -35.6988 3.13184C-27.1384 3.13184 -20.1988 10.0714 -20.1988 18.6318L-33.4094 487.126M-33.4094 487.126C-32.0135 494.253 -25.7341 499.63 -18.1988 499.63C-9.6384 499.63 -2.69882 492.69 -2.69882 484.13L-14.1988 18.6318C-14.1988 10.0714 -7.25923 3.13184 1.30118 3.13184C9.86159 3.13184 16.8012 10.0714 16.8012 18.6318L3.30118 484.13C3.30118 492.69 10.2408 499.63 18.8012 499.63C27.3616 499.63 34.3012 492.69 34.3012 484.13L22.8012 18.6318C22.8012 10.0714 29.7408 3.13184 38.3012 3.13184C46.8616 3.13184 53.8012 10.0714 53.8012 18.6318L40.3012 484.13C40.3012 492.69 47.2408 499.63 55.8012 499.63C64.3616 499.63 71.3012 492.69 71.3012 484.13L59.8012 18.6318C59.8012 10.0714 66.7408 3.13184 75.3012 3.13184C83.8616 3.13184 90.8012 10.0714 90.8012 18.6318L77.3012 484.13C77.3012 492.69 84.2408 499.63 92.8012 499.63C101.362 499.63 108.301 492.69 108.301 484.13L96.8012 18.6318C96.8012 10.0714 103.741 3.13184 112.301 3.13184C120.862 3.13184 127.801 10.0714 127.801 18.6318L114.301 484.13C114.301 492.69 121.241 499.63 129.801 499.63C138.362 499.63 145.301 492.69 145.301 484.13L133.801 18.6318C133.801 10.0714 140.741 3.13184 149.301 3.13184C157.862 3.13184 164.801 10.0714 164.801 18.6318L151.301 484.13C151.301 492.69 158.241 499.63 166.801 499.63C175.362 499.63 182.301 492.69 182.301 484.13L170.801 18.6318C170.801 10.0714 177.741 3.13184 186.301 3.13184C194.862 3.13184 201.801 10.0714 201.801 18.6318L188.301 484.13C188.301 492.69 195.241 499.63 203.801 499.63C212.362 499.63 219.301 492.69 219.301 484.13L207.801 18.6318C207.801 10.0714 214.741 3.13184 223.301 3.13184C231.862 3.13184 238.801 10.0714 238.801 18.6318L225.301 484.13C225.301 492.69 232.241 499.63 240.801 499.63C249.362 499.63 256.301 492.69 256.301 484.13L244.801 21.1767V18.6318C244.801 10.0714 251.741 3.13184 260.301 3.13184C268.862 3.13184 275.801 10.0714 275.801 18.6318V26.5048M-33.4094 487.126C-33.5993 486.157 -33.6988 485.155 -33.6988 484.13" stroke="#008C3C" stroke-width="4" stroke-linecap="round" stroke-linejoin="round"/>
</g>
<defs>
<clipPath id="clip0_2518_4610">
<rect width="407" height="501" fill="white" transform="translate(-129 0.973633)"/>
</clipPath>
</defs>
</svg>
