<svg width="19" height="33" viewBox="0 0 19 33" fill="none" xmlns="http://www.w3.org/2000/svg">
<g clip-path="url(#clip0_2518_4610)">
<path d="M-311.508 18.6318C-308.663 9.6605 -303.259 3.13184 -294.699 3.13184C-286.138 3.13184 -279.199 10.0714 -279.199 18.6318L-292.699 484.13C-292.699 492.69 -285.759 499.63 -277.199 499.63C-268.638 499.63 -261.699 492.69 -261.699 484.13L-273.199 18.6318C-273.199 10.0714 -266.259 3.13184 -257.699 3.13184C-249.138 3.13184 -242.199 10.0714 -242.199 18.6318L-255.699 484.13C-255.699 492.69 -248.759 499.63 -240.199 499.63C-231.954 499.63 -225.213 493.193 -224.727 485.071M-224.699 484.13C-224.699 484.446 -224.708 484.759 -224.727 485.071M-224.727 485.071L-236.199 18.6318C-236.199 10.0714 -229.259 3.13184 -220.699 3.13184C-212.138 3.13184 -205.199 10.0714 -205.199 18.6318L-218.409 487.126M-218.409 487.126C-217.014 494.253 -210.734 499.63 -203.199 499.63C-194.638 499.63 -187.699 492.69 -187.699 484.13L-199.199 18.6318C-199.199 10.0714 -192.259 3.13184 -183.699 3.13184C-175.138 3.13184 -168.199 10.0714 -168.199 18.6318L-181.699 484.13C-181.699 492.69 -174.759 499.63 -166.199 499.63C-157.638 499.63 -150.699 492.69 -150.699 484.13L-162.199 18.6318C-162.199 10.0714 -155.259 3.13184 -146.699 3.13184C-138.138 3.13184 -131.199 10.0714 -131.199 18.6318L-144.699 484.13C-144.699 492.69 -137.759 499.63 -129.199 499.63C-120.638 499.63 -113.699 492.69 -113.699 484.13L-125.199 18.6318C-125.199 10.0714 -118.259 3.13184 -109.699 3.13184C-101.138 3.13184 -94.1988 10.0714 -94.1988 18.6318L-107.699 484.13C-107.699 492.69 -100.759 499.63 -92.1988 499.63C-83.6384 499.63 -76.6988 492.69 -76.6988 484.13L-88.1988 18.6318C-88.1988 10.0714 -81.2592 3.13184 -72.6988 3.13184C-64.1384 3.13184 -57.1988 10.0714 -57.1988 18.6318L-70.6988 484.13C-70.6988 492.69 -63.7592 499.63 -55.1988 499.63C-46.6384 499.63 -39.6988 492.69 -39.6988 484.13L-51.1988 18.6318C-51.1988 10.0714 -44.2592 3.13184 -35.6988 3.13184C-27.1384 3.13184 -20.1988 10.0714 -20.1988 18.6318L-33.6988 484.13C-33.6988 492.69 -26.7592 499.63 -18.1988 499.63C-9.6384 499.63 -2.69882 492.69 -2.69882 484.13L-14.1988 18.6318C-14.1988 10.0714 -7.25925 3.13184 1.30118 3.13184C9.8616 3.13184 16.8012 10.0714 16.8012 18.6318L3.30118 484.13C3.30118 492.69 10.2408 499.63 18.8012 499.63C27.3616 499.63 34.3012 492.69 34.3012 484.13L22.8012 18.6318C22.8012 10.0714 29.7408 3.13184 38.3012 3.13184C46.8616 3.13184 53.8012 10.0714 53.8012 18.6318L40.3012 484.13C40.3012 492.69 47.2408 499.63 55.8012 499.63C64.3616 499.63 71.3012 492.69 71.3012 484.13L59.8012 21.1767V18.6318C59.8012 10.0714 66.7408 3.13184 75.3012 3.13184C83.8616 3.13184 90.8012 10.0714 90.8012 18.6318V26.5048M-218.409 487.126C-218.599 486.157 -218.699 485.155 -218.699 484.13" stroke="#008C3C" stroke-width="4" stroke-linecap="round" stroke-linejoin="round"/>
</g>
<defs>
<clipPath id="clip0_2518_4610">
<rect width="407" height="501" fill="white" transform="translate(-314 0.973633)"/>
</clipPath>
</defs>
</svg>
