<svg width="20" height="33" viewBox="0 0 20 33" fill="none" xmlns="http://www.w3.org/2000/svg">
<g clip-path="url(#clip0_2518_4675)">
<path d="M-366.508 -450.368C-363.663 -459.339 -358.259 -465.868 -349.699 -465.868C-341.138 -465.868 -334.199 -458.929 -334.199 -450.368L-347.699 15.1296C-347.699 23.69 -340.759 30.6296 -332.199 30.6296C-323.638 30.6296 -316.699 23.69 -316.699 15.1296L-328.199 -450.368C-328.199 -458.929 -321.259 -465.868 -312.699 -465.868C-304.138 -465.868 -297.199 -458.929 -297.199 -450.368L-310.699 15.1296C-310.699 23.69 -303.759 30.6296 -295.199 30.6296C-286.954 30.6296 -280.213 24.193 -279.727 16.0708M-279.699 15.1296C-279.699 15.4456 -279.708 15.7595 -279.727 16.0708M-279.727 16.0708L-291.199 -450.368C-291.199 -458.929 -284.259 -465.868 -275.699 -465.868C-267.138 -465.868 -260.199 -458.929 -260.199 -450.368L-273.409 18.1261M-273.409 18.1261C-272.014 25.2526 -265.734 30.6296 -258.199 30.6296C-249.638 30.6296 -242.699 23.69 -242.699 15.1296L-254.199 -450.368C-254.199 -458.929 -247.259 -465.868 -238.699 -465.868C-230.138 -465.868 -223.199 -458.929 -223.199 -450.368L-236.699 15.1296C-236.699 23.69 -229.759 30.6296 -221.199 30.6296C-212.638 30.6296 -205.699 23.69 -205.699 15.1296L-217.199 -450.368C-217.199 -458.929 -210.259 -465.868 -201.699 -465.868C-193.138 -465.868 -186.199 -458.929 -186.199 -450.368L-199.699 15.1296C-199.699 23.69 -192.759 30.6296 -184.199 30.6296C-175.638 30.6296 -168.699 23.69 -168.699 15.1296L-180.199 -450.368C-180.199 -458.929 -173.259 -465.868 -164.699 -465.868C-156.138 -465.868 -149.199 -458.929 -149.199 -450.368L-162.699 15.1296C-162.699 23.69 -155.759 30.6296 -147.199 30.6296C-138.638 30.6296 -131.699 23.6901 -131.699 15.1296L-143.199 -450.368C-143.199 -458.929 -136.259 -465.868 -127.699 -465.868C-119.138 -465.868 -112.199 -458.929 -112.199 -450.368L-125.699 15.1296C-125.699 23.6901 -118.759 30.6296 -110.199 30.6296C-101.638 30.6296 -94.6988 23.6901 -94.6988 15.1296L-106.199 -450.368C-106.199 -458.929 -99.2592 -465.868 -90.6988 -465.868C-82.1384 -465.868 -75.1988 -458.929 -75.1988 -450.368L-88.6988 15.1296C-88.6988 23.6901 -81.7592 30.6296 -73.1988 30.6296C-64.6384 30.6296 -57.6988 23.6901 -57.6988 15.1296L-69.1988 -450.368C-69.1988 -458.929 -62.2592 -465.868 -53.6988 -465.868C-45.1384 -465.868 -38.1988 -458.929 -38.1988 -450.368L-51.6988 15.1296C-51.6988 23.6901 -44.7592 30.6296 -36.1988 30.6296C-27.6384 30.6296 -20.6988 23.6901 -20.6988 15.1296L-32.1988 -450.368C-32.1988 -458.929 -25.2592 -465.868 -16.6988 -465.868C-8.1384 -465.868 -1.19882 -458.929 -1.19882 -450.368L-14.6988 15.1296C-14.6988 23.6901 -7.75925 30.6296 0.801178 30.6296C9.3616 30.6296 16.3012 23.6901 16.3012 15.1296L4.80118 -447.823V-450.368C4.80118 -458.929 11.7408 -465.868 20.3012 -465.868C28.8616 -465.868 35.8012 -458.929 35.8012 -450.368V-442.495M-273.409 18.1261C-273.599 17.1566 -273.699 16.1547 -273.699 15.1296" stroke="white" stroke-width="4" stroke-linecap="round" stroke-linejoin="round"/>
</g>
<defs>
<clipPath id="clip0_2518_4675">
<rect width="407" height="501" fill="white" transform="translate(-369 -468.026)"/>
</clipPath>
</defs>
</svg>
