<svg width="14" height="12" viewBox="0 0 14 12" fill="none" xmlns="http://www.w3.org/2000/svg">
<g clip-path="url(#clip0_2509_207)">
<path d="M-77.3038 266.047C-77.3038 266.148 -77.3068 266.248 -77.3128 266.347M-77.3128 266.347C-77.468 268.939 -79.6187 270.992 -82.249 270.992C-84.9802 270.992 -87.1943 268.778 -87.1943 266.047L-82.8871 6.53093C-82.8871 3.79975 -85.1012 1.58569 -87.8324 1.58569C-90.5635 1.58569 -92.7776 3.79975 -92.7776 6.53093L-89.1086 266.047C-89.1086 268.778 -91.3226 270.992 -94.0538 270.992C-96.785 270.992 -98.999 268.778 -98.999 266.047L-94.6919 6.53093C-94.6919 3.79975 -96.906 1.58569 -99.6371 1.58569C-101.984 1.58569 -103.587 3.12305 -104.567 5.37116C-104.895 6.12319 -105 6.94849 -105 7.76895V10.9303M-77.3128 266.347L-80.9728 6.53093C-80.9728 3.79975 -78.7588 1.58569 -76.0276 1.58569C-73.2964 1.58569 -71.0824 3.79975 -71.0824 6.53093L-75.2972 267.003M-75.2972 267.003C-74.8518 269.277 -72.8484 270.992 -70.4443 270.992C-67.7131 270.992 -65.499 268.778 -65.499 266.047L-69.1681 6.53093C-69.1681 3.79975 -66.954 1.58569 -64.2228 1.58569C-61.4917 1.58569 -59.2776 3.79975 -59.2776 6.53093L-63.5848 266.047C-63.5848 268.778 -61.3707 270.992 -58.6395 270.992C-55.9083 270.992 -53.6943 268.778 -53.6943 266.047L-57.3633 6.53093C-57.3633 3.79975 -55.1493 1.58569 -52.4181 1.58569C-49.6869 1.58569 -47.4728 3.79975 -47.4728 6.53093L-51.78 266.047C-51.78 268.778 -49.5659 270.992 -46.8347 270.992C-44.1036 270.992 -41.8895 268.778 -41.8895 266.047L-45.5586 6.53093C-45.5586 3.79975 -43.3445 1.58569 -40.6133 1.58569C-37.8821 1.58569 -35.6681 3.79975 -35.6681 6.53093L-39.9752 266.047C-39.9752 268.778 -37.7612 270.992 -35.03 270.992C-32.2988 270.992 -30.0847 268.778 -30.0847 266.047L-33.7538 6.53093C-33.7538 3.79975 -31.5397 1.58569 -28.8086 1.58569C-26.0774 1.58569 -23.8633 3.79975 -23.8633 6.53093L-28.1705 266.047C-28.1705 268.778 -25.9564 270.992 -23.2252 270.992C-20.494 270.992 -18.28 268.778 -18.28 266.047L-21.949 6.53093C-21.949 3.79975 -19.735 1.58569 -17.0038 1.58569C-14.2726 1.58569 -12.0586 3.79975 -12.0586 6.53093L-16.3657 266.047C-16.3657 268.778 -14.1516 270.992 -11.4205 270.992C-8.68928 270.992 -6.47522 268.778 -6.47522 266.047L-10.1443 6.53093C-10.1443 3.79975 -7.93022 1.58569 -5.19904 1.58569C-2.46785 1.58569 -0.253792 3.79975 -0.253792 6.53093L-4.56094 266.047C-4.56094 268.778 -2.34688 270.992 0.3843 270.992C3.11548 270.992 5.32954 268.778 5.32954 266.047L1.66049 6.53093C1.66049 3.79975 3.87454 1.58569 6.60573 1.58569C9.33691 1.58569 11.551 3.79975 11.551 6.53093L7.24383 266.047C7.24383 268.778 9.45788 270.992 12.1891 270.992C14.9202 270.992 17.1343 268.778 17.1343 266.047V7.34286V6.53093C17.1343 3.79975 19.3484 1.58569 22.0795 1.58569C24.8107 1.58569 27.0248 3.79975 27.0248 6.53093V9.04277M-75.2972 267.003C-75.3578 266.694 -75.3895 266.374 -75.3895 266.047" stroke="black" stroke-width="2" stroke-linecap="round" stroke-linejoin="round"/>
</g>
<defs>
<clipPath id="clip0_2509_207">
<rect width="134.02" height="272" fill="white" transform="translate(-106 0.5)"/>
</clipPath>
</defs>
</svg>
