<svg width="12" height="12" viewBox="0 0 12 12" fill="none" xmlns="http://www.w3.org/2000/svg">
<g clip-path="url(#clip0_2509_207)">
<path d="M-54.3038 266.047C-54.3038 266.148 -54.3068 266.248 -54.3128 266.347M-54.3128 266.347C-54.468 268.939 -56.6187 270.992 -59.249 270.992C-61.9802 270.992 -64.1943 268.778 -64.1943 266.047L-59.8871 6.53093C-59.8871 3.79975 -62.1012 1.58569 -64.8324 1.58569C-67.5635 1.58569 -69.7776 3.79975 -69.7776 6.53093L-66.1086 266.047C-66.1086 268.778 -68.3226 270.992 -71.0538 270.992C-73.785 270.992 -75.999 268.778 -75.999 266.047L-71.6919 6.53093C-71.6919 3.79975 -73.906 1.58569 -76.6371 1.58569C-78.9835 1.58569 -80.5866 3.12305 -81.5672 5.37116C-81.8953 6.12319 -82 6.94849 -82 7.76895V10.9303M-54.3128 266.347L-57.9728 6.53093C-57.9728 3.79975 -55.7588 1.58569 -53.0276 1.58569C-50.2964 1.58569 -48.0824 3.79975 -48.0824 6.53093L-52.2972 267.003M-52.2972 267.003C-51.8518 269.277 -49.8484 270.992 -47.4443 270.992C-44.7131 270.992 -42.499 268.778 -42.499 266.047L-46.1681 6.53093C-46.1681 3.79975 -43.954 1.58569 -41.2228 1.58569C-38.4917 1.58569 -36.2776 3.79975 -36.2776 6.53093L-40.5848 266.047C-40.5848 268.778 -38.3707 270.992 -35.6395 270.992C-32.9083 270.992 -30.6943 268.778 -30.6943 266.047L-34.3633 6.53093C-34.3633 3.79975 -32.1493 1.58569 -29.4181 1.58569C-26.6869 1.58569 -24.4728 3.79975 -24.4728 6.53093L-28.78 266.047C-28.78 268.778 -26.5659 270.992 -23.8347 270.992C-21.1036 270.992 -18.8895 268.778 -18.8895 266.047L-22.5586 6.53093C-22.5586 3.79975 -20.3445 1.58569 -17.6133 1.58569C-14.8821 1.58569 -12.6681 3.79975 -12.6681 6.53093L-16.9752 266.047C-16.9752 268.778 -14.7612 270.992 -12.03 270.992C-9.29881 270.992 -7.08475 268.778 -7.08475 266.047L-10.7538 6.53093C-10.7538 3.79975 -8.53973 1.58569 -5.80856 1.58569C-3.07738 1.58569 -0.863319 3.79975 -0.863319 6.53093L-5.17046 266.047C-5.17046 268.778 -2.95641 270.992 -0.225227 270.992C2.50596 270.992 4.72002 268.778 4.72002 266.047L1.05096 6.53093C1.05096 3.79975 3.26502 1.58569 5.99621 1.58569C8.72739 1.58569 10.9414 3.79975 10.9414 6.53093L6.6343 266.047C6.6343 268.778 8.84835 270.992 11.5795 270.992C14.3107 270.992 16.5248 268.778 16.5248 266.047L12.8557 6.53093C12.8557 3.79975 15.0698 1.58569 17.801 1.58569C20.5321 1.58569 22.7462 3.79975 22.7462 6.53093L18.4391 266.047C18.4391 268.778 20.6531 270.992 23.3843 270.992C26.1155 270.992 28.3295 268.778 28.3295 266.047L24.6605 6.53093C24.6605 3.79975 26.8745 1.58569 29.6057 1.58569C32.3369 1.58569 34.551 3.79975 34.551 6.53093L30.2438 266.047C30.2438 268.778 32.4579 270.992 35.1891 270.992C37.9202 270.992 40.1343 268.778 40.1343 266.047V7.34286V6.53093C40.1343 3.79975 42.3484 1.58569 45.0795 1.58569C47.8107 1.58569 50.0248 3.79975 50.0248 6.53093V9.04277M-52.2972 267.003C-52.3578 266.694 -52.3895 266.374 -52.3895 266.047" stroke="black" stroke-width="2" stroke-linecap="round" stroke-linejoin="round"/>
</g>
<defs>
<clipPath id="clip0_2509_207">
<rect width="134.02" height="272" fill="white" transform="translate(-83 0.5)"/>
</clipPath>
</defs>
</svg>
