<svg width="12" height="12" viewBox="0 0 12 12" fill="none" xmlns="http://www.w3.org/2000/svg">
<g clip-path="url(#clip0_2509_207)">
<path d="M4.6962 266.047C4.6962 266.148 4.69318 266.248 4.68723 266.347M4.68723 266.347C4.53202 268.939 2.38131 270.992 -0.249035 270.992C-2.98021 270.992 -5.19427 268.778 -5.19427 266.047L-0.887131 6.53093C-0.887131 3.79975 -3.10119 1.58569 -5.83237 1.58569C-8.56355 1.58569 -10.7776 3.79975 -10.7776 6.53093L-7.10856 266.047C-7.10856 268.778 -9.32262 270.992 -12.0538 270.992C-14.785 270.992 -16.999 268.778 -16.999 266.047L-12.6919 6.53093C-12.6919 3.79975 -14.906 1.58569 -17.6371 1.58569C-19.9835 1.58569 -21.5866 3.12305 -22.5672 5.37116C-22.8953 6.12319 -23 6.94849 -23 7.76895V10.9303M4.68723 266.347L1.02715 6.53093C1.02715 3.79975 3.24121 1.58569 5.97239 1.58569C8.70357 1.58569 10.9176 3.79975 10.9176 6.53093L6.70283 267.003M6.70283 267.003C7.14817 269.277 9.15161 270.992 11.5557 270.992C14.2869 270.992 16.501 268.778 16.501 266.047L12.8319 6.53093C12.8319 3.79975 15.046 1.58569 17.7772 1.58569C20.5083 1.58569 22.7224 3.79975 22.7224 6.53093L18.4152 266.047C18.4152 268.778 20.6293 270.992 23.3605 270.992C26.0917 270.992 28.3057 268.778 28.3057 266.047L24.6367 6.53093C24.6367 3.79975 26.8507 1.58569 29.5819 1.58569C32.3131 1.58569 34.5272 3.79975 34.5272 6.53093L30.22 266.047C30.22 268.778 32.4341 270.992 35.1653 270.992C37.8964 270.992 40.1105 268.778 40.1105 266.047L36.4414 6.53093C36.4414 3.79975 38.6555 1.58569 41.3867 1.58569C44.1179 1.58569 46.3319 3.79975 46.3319 6.53093L42.0248 266.047C42.0248 268.778 44.2388 270.992 46.97 270.992C49.7012 270.992 51.9153 268.778 51.9153 266.047L48.2462 6.53093C48.2462 3.79975 50.4603 1.58569 53.1914 1.58569C55.9226 1.58569 58.1367 3.79975 58.1367 6.53093L53.8295 266.047C53.8295 268.778 56.0436 270.992 58.7748 270.992C61.506 270.992 63.72 268.778 63.72 266.047L60.051 6.53093C60.051 3.79975 62.265 1.58569 64.9962 1.58569C67.7274 1.58569 69.9414 3.79975 69.9414 6.53093L65.6343 266.047C65.6343 268.778 67.8484 270.992 70.5795 270.992C73.3107 270.992 75.5248 268.778 75.5248 266.047L71.8557 6.53093C71.8557 3.79975 74.0698 1.58569 76.801 1.58569C79.5321 1.58569 81.7462 3.79975 81.7462 6.53093L77.4391 266.047C77.4391 268.778 79.6531 270.992 82.3843 270.992C85.1155 270.992 87.3295 268.778 87.3295 266.047L83.6605 6.53093C83.6605 3.79975 85.8745 1.58569 88.6057 1.58569C91.3369 1.58569 93.551 3.79975 93.551 6.53093L89.2438 266.047C89.2438 268.778 91.4579 270.992 94.1891 270.992C96.9202 270.992 99.1343 268.778 99.1343 266.047V7.34286V6.53093C99.1343 3.79975 101.348 1.58569 104.08 1.58569C106.811 1.58569 109.025 3.79975 109.025 6.53093V9.04277M6.70283 267.003C6.64224 266.694 6.61049 266.374 6.61049 266.047" stroke="black" stroke-width="2" stroke-linecap="round" stroke-linejoin="round"/>
</g>
<defs>
<clipPath id="clip0_2509_207">
<rect width="134.02" height="272" fill="white" transform="translate(-24 0.5)"/>
</clipPath>
</defs>
</svg>
