<svg width="13" height="13" viewBox="0 0 13 13" fill="none" xmlns="http://www.w3.org/2000/svg">
<g clip-path="url(#clip0_2509_207)">
<path d="M-30.3038 6.04688C-30.3038 6.14771 -30.3068 6.24783 -30.3128 6.34717M-30.3128 6.34717C-30.468 8.93851 -32.6187 10.9921 -35.249 10.9921C-37.9802 10.9921 -40.1943 8.77806 -40.1943 6.04688L-35.8871 -253.469C-35.8871 -256.2 -38.1012 -258.414 -40.8324 -258.414C-43.5635 -258.414 -45.7776 -256.2 -45.7776 -253.469L-42.1086 6.04688C-42.1086 8.77806 -44.3226 10.9921 -47.0538 10.9921C-49.785 10.9921 -51.999 8.77806 -51.999 6.04688L-47.6919 -253.469C-47.6919 -256.2 -49.906 -258.414 -52.6371 -258.414C-54.9835 -258.414 -56.5866 -256.877 -57.5672 -254.629C-57.8953 -253.877 -58 -253.052 -58 -252.231V-249.07M-30.3128 6.34717L-33.9728 -253.469C-33.9728 -256.2 -31.7588 -258.414 -29.0276 -258.414C-26.2964 -258.414 -24.0824 -256.2 -24.0824 -253.469L-28.2972 7.0029M-28.2972 7.0029C-27.8518 9.27658 -25.8484 10.9921 -23.4443 10.9921C-20.7131 10.9921 -18.499 8.77806 -18.499 6.04688L-22.1681 -253.469C-22.1681 -256.2 -19.954 -258.414 -17.2228 -258.414C-14.4917 -258.414 -12.2776 -256.2 -12.2776 -253.469L-16.5848 6.04688C-16.5848 8.77806 -14.3707 10.9921 -11.6395 10.9921C-8.90833 10.9921 -6.69427 8.77806 -6.69427 6.04688L-10.3633 -253.469C-10.3633 -256.2 -8.14926 -258.414 -5.41808 -258.414C-2.6869 -258.414 -0.472843 -256.2 -0.472843 -253.469L-4.77999 6.04688C-4.77999 8.77806 -2.56593 10.9921 0.165253 10.9921C2.89643 10.9921 5.11049 8.77806 5.11049 6.04688L1.44144 -253.469C1.44144 -256.2 3.6555 -258.414 6.38668 -258.414C9.11786 -258.414 11.3319 -256.2 11.3319 -253.469L7.02477 6.04688C7.02477 8.77806 9.23884 10.9921 11.97 10.9921C14.7012 10.9921 16.9153 8.77806 16.9153 6.04688L13.2462 -253.469C13.2462 -256.2 15.4603 -258.414 18.1914 -258.414C20.9226 -258.414 23.1367 -256.2 23.1367 -253.469L18.8295 6.04688C18.8295 8.77806 21.0436 10.9921 23.7748 10.9921C26.506 10.9921 28.72 8.77806 28.72 6.04688L25.051 -253.469C25.051 -256.2 27.265 -258.414 29.9962 -258.414C32.7274 -258.414 34.9414 -256.2 34.9414 -253.469L30.6343 6.04688C30.6343 8.77806 32.8484 10.9921 35.5795 10.9921C38.3107 10.9921 40.5248 8.77806 40.5248 6.04688L36.8557 -253.469C36.8557 -256.2 39.0698 -258.414 41.801 -258.414C44.5321 -258.414 46.7462 -256.2 46.7462 -253.469L42.4391 6.04688C42.4391 8.77806 44.6531 10.9921 47.3843 10.9921C50.1155 10.9921 52.3295 8.77806 52.3295 6.04688L48.6605 -253.469C48.6605 -256.2 50.8745 -258.414 53.6057 -258.414C56.3369 -258.414 58.551 -256.2 58.551 -253.469L54.2438 6.04688C54.2438 8.77806 56.4579 10.9921 59.1891 10.9921C61.9202 10.9921 64.1343 8.77806 64.1343 6.04688V-252.657V-253.469C64.1343 -256.2 66.3484 -258.414 69.0795 -258.414C71.8107 -258.414 74.0248 -256.2 74.0248 -253.469V-250.957M-28.2972 7.0029C-28.3578 6.69359 -28.3895 6.37394 -28.3895 6.04688" stroke="black" stroke-width="2" stroke-linecap="round" stroke-linejoin="round"/>
</g>
<defs>
<clipPath id="clip0_2509_207">
<rect width="134.02" height="272" fill="white" transform="translate(-59 -259.5)"/>
</clipPath>
</defs>
</svg>
