<svg width="12" height="13" viewBox="0 0 12 13" fill="none" xmlns="http://www.w3.org/2000/svg">
<g clip-path="url(#clip0_2509_207)">
<path d="M4.6962 6.04688C4.6962 6.14771 4.69318 6.24783 4.68723 6.34717M4.68723 6.34717C4.53202 8.93851 2.38131 10.9921 -0.249035 10.9921C-2.98021 10.9921 -5.19427 8.77806 -5.19427 6.04688L-0.887131 -253.469C-0.887131 -256.2 -3.10119 -258.414 -5.83237 -258.414C-8.56355 -258.414 -10.7776 -256.2 -10.7776 -253.469L-7.10856 6.04688C-7.10856 8.77806 -9.32262 10.9921 -12.0538 10.9921C-14.785 10.9921 -16.999 8.77806 -16.999 6.04688L-12.6919 -253.469C-12.6919 -256.2 -14.906 -258.414 -17.6371 -258.414C-19.9835 -258.414 -21.5866 -256.877 -22.5672 -254.629C-22.8953 -253.877 -23 -253.052 -23 -252.231V-249.07M4.68723 6.34717L1.02715 -253.469C1.02715 -256.2 3.24121 -258.414 5.97239 -258.414C8.70357 -258.414 10.9176 -256.2 10.9176 -253.469L6.70283 7.0029M6.70283 7.0029C7.14817 9.27658 9.15161 10.9921 11.5557 10.9921C14.2869 10.9921 16.501 8.77806 16.501 6.04688L12.8319 -253.469C12.8319 -256.2 15.046 -258.414 17.7772 -258.414C20.5083 -258.414 22.7224 -256.2 22.7224 -253.469L18.4152 6.04688C18.4152 8.77806 20.6293 10.9921 23.3605 10.9921C26.0917 10.9921 28.3057 8.77806 28.3057 6.04688L24.6367 -253.469C24.6367 -256.2 26.8507 -258.414 29.5819 -258.414C32.3131 -258.414 34.5272 -256.2 34.5272 -253.469L30.22 6.04688C30.22 8.77806 32.4341 10.9921 35.1653 10.9921C37.8964 10.9921 40.1105 8.77806 40.1105 6.04688L36.4414 -253.469C36.4414 -256.2 38.6555 -258.414 41.3867 -258.414C44.1179 -258.414 46.3319 -256.2 46.3319 -253.469L42.0248 6.04688C42.0248 8.77806 44.2388 10.9921 46.97 10.9921C49.7012 10.9921 51.9153 8.77806 51.9153 6.04688L48.2462 -253.469C48.2462 -256.2 50.4603 -258.414 53.1914 -258.414C55.9226 -258.414 58.1367 -256.2 58.1367 -253.469L53.8295 6.04688C53.8295 8.77806 56.0436 10.9921 58.7748 10.9921C61.506 10.9921 63.72 8.77806 63.72 6.04688L60.051 -253.469C60.051 -256.2 62.265 -258.414 64.9962 -258.414C67.7274 -258.414 69.9414 -256.2 69.9414 -253.469L65.6343 6.04688C65.6343 8.77806 67.8484 10.9921 70.5795 10.9921C73.3107 10.9921 75.5248 8.77806 75.5248 6.04688L71.8557 -253.469C71.8557 -256.2 74.0698 -258.414 76.801 -258.414C79.5321 -258.414 81.7462 -256.2 81.7462 -253.469L77.4391 6.04688C77.4391 8.77806 79.6531 10.9921 82.3843 10.9921C85.1155 10.9921 87.3295 8.77806 87.3295 6.04688L83.6605 -253.469C83.6605 -256.2 85.8745 -258.414 88.6057 -258.414C91.3369 -258.414 93.551 -256.2 93.551 -253.469L89.2438 6.04688C89.2438 8.77806 91.4579 10.9921 94.1891 10.9921C96.9202 10.9921 99.1343 8.77806 99.1343 6.04688V-252.657V-253.469C99.1343 -256.2 101.348 -258.414 104.08 -258.414C106.811 -258.414 109.025 -256.2 109.025 -253.469V-250.957M6.70283 7.0029C6.64224 6.69359 6.61049 6.37394 6.61049 6.04688" stroke="black" stroke-width="2" stroke-linecap="round" stroke-linejoin="round"/>
</g>
<defs>
<clipPath id="clip0_2509_207">
<rect width="134.02" height="272" fill="white" transform="translate(-24 -259.5)"/>
</clipPath>
</defs>
</svg>
