<svg width="13" height="13" viewBox="0 0 13 13" fill="none" xmlns="http://www.w3.org/2000/svg">
<g clip-path="url(#clip0_2509_207)">
<path d="M16.6962 6.04688C16.6962 6.14771 16.6932 6.24783 16.6872 6.34717M16.6872 6.34717C16.532 8.93851 14.3813 10.9921 11.751 10.9921C9.01979 10.9921 6.80573 8.77806 6.80573 6.04688L11.1129 -253.469C11.1129 -256.2 8.89881 -258.414 6.16763 -258.414C3.43645 -258.414 1.22239 -256.2 1.22239 -253.469L4.89144 6.04688C4.89144 8.77806 2.67738 10.9921 -0.0537977 10.9921C-2.78498 10.9921 -4.99904 8.77806 -4.99904 6.04688L-0.691894 -253.469C-0.691894 -256.2 -2.90595 -258.414 -5.63713 -258.414C-7.98351 -258.414 -9.58656 -256.877 -10.5672 -254.629C-10.8953 -253.877 -11 -253.052 -11 -252.231V-249.07M16.6872 6.34717L13.0272 -253.469C13.0272 -256.2 15.2412 -258.414 17.9724 -258.414C20.7036 -258.414 22.9176 -256.2 22.9176 -253.469L18.7028 7.0029M18.7028 7.0029C19.1482 9.27658 21.1516 10.9921 23.5557 10.9921C26.2869 10.9921 28.501 8.77806 28.501 6.04688L24.8319 -253.469C24.8319 -256.2 27.046 -258.414 29.7772 -258.414C32.5083 -258.414 34.7224 -256.2 34.7224 -253.469L30.4152 6.04688C30.4152 8.77806 32.6293 10.9921 35.3605 10.9921C38.0917 10.9921 40.3057 8.77806 40.3057 6.04688L36.6367 -253.469C36.6367 -256.2 38.8507 -258.414 41.5819 -258.414C44.3131 -258.414 46.5272 -256.2 46.5272 -253.469L42.22 6.04688C42.22 8.77806 44.4341 10.9921 47.1653 10.9921C49.8964 10.9921 52.1105 8.77806 52.1105 6.04688L48.4414 -253.469C48.4414 -256.2 50.6555 -258.414 53.3867 -258.414C56.1179 -258.414 58.3319 -256.2 58.3319 -253.469L54.0248 6.04688C54.0248 8.77806 56.2388 10.9921 58.97 10.9921C61.7012 10.9921 63.9153 8.77806 63.9153 6.04688L60.2462 -253.469C60.2462 -256.2 62.4603 -258.414 65.1914 -258.414C67.9226 -258.414 70.1367 -256.2 70.1367 -253.469L65.8295 6.04688C65.8295 8.77806 68.0436 10.9921 70.7748 10.9921C73.506 10.9921 75.72 8.77806 75.72 6.04688L72.051 -253.469C72.051 -256.2 74.265 -258.414 76.9962 -258.414C79.7274 -258.414 81.9414 -256.2 81.9414 -253.469L77.6343 6.04688C77.6343 8.77806 79.8484 10.9921 82.5795 10.9921C85.3107 10.9921 87.5248 8.77806 87.5248 6.04688L83.8557 -253.469C83.8557 -256.2 86.0698 -258.414 88.801 -258.414C91.5321 -258.414 93.7462 -256.2 93.7462 -253.469L89.4391 6.04688C89.4391 8.77806 91.6531 10.9921 94.3843 10.9921C97.1155 10.9921 99.3295 8.77806 99.3295 6.04688L95.6605 -253.469C95.6605 -256.2 97.8745 -258.414 100.606 -258.414C103.337 -258.414 105.551 -256.2 105.551 -253.469L101.244 6.04688C101.244 8.77806 103.458 10.9921 106.189 10.9921C108.92 10.9921 111.134 8.77806 111.134 6.04688V-252.657V-253.469C111.134 -256.2 113.348 -258.414 116.08 -258.414C118.811 -258.414 121.025 -256.2 121.025 -253.469V-250.957M18.7028 7.0029C18.6422 6.69359 18.6105 6.37394 18.6105 6.04688" stroke="black" stroke-width="2" stroke-linecap="round" stroke-linejoin="round"/>
</g>
<defs>
<clipPath id="clip0_2509_207">
<rect width="134.02" height="272" fill="white" transform="translate(-12 -259.5)"/>
</clipPath>
</defs>
</svg>
