<svg width="13" height="12" viewBox="0 0 13 12" fill="none" xmlns="http://www.w3.org/2000/svg">
<g clip-path="url(#clip0_2509_207)">
<path d="M-18.3038 266.047C-18.3038 266.148 -18.3068 266.248 -18.3128 266.347M-18.3128 266.347C-18.468 268.939 -20.6187 270.992 -23.249 270.992C-25.9802 270.992 -28.1943 268.778 -28.1943 266.047L-23.8871 6.53093C-23.8871 3.79975 -26.1012 1.58569 -28.8324 1.58569C-31.5635 1.58569 -33.7776 3.79975 -33.7776 6.53093L-30.1086 266.047C-30.1086 268.778 -32.3226 270.992 -35.0538 270.992C-37.785 270.992 -39.999 268.778 -39.999 266.047L-35.6919 6.53093C-35.6919 3.79975 -37.906 1.58569 -40.6371 1.58569C-42.9835 1.58569 -44.5866 3.12305 -45.5672 5.37116C-45.8953 6.12319 -46 6.94849 -46 7.76895V10.9303M-18.3128 266.347L-21.9728 6.53093C-21.9728 3.79975 -19.7588 1.58569 -17.0276 1.58569C-14.2964 1.58569 -12.0824 3.79975 -12.0824 6.53093L-16.2972 267.003M-16.2972 267.003C-15.8518 269.277 -13.8484 270.992 -11.4443 270.992C-8.71309 270.992 -6.49903 268.778 -6.49903 266.047L-10.1681 6.53093C-10.1681 3.79975 -7.95402 1.58569 -5.22284 1.58569C-2.49166 1.58569 -0.277607 3.79975 -0.277607 6.53093L-4.58475 266.047C-4.58475 268.778 -2.37069 270.992 0.360489 270.992C3.09167 270.992 5.30573 268.778 5.30573 266.047L1.63668 6.53093C1.63668 3.79975 3.85074 1.58569 6.58192 1.58569C9.3131 1.58569 11.5272 3.79975 11.5272 6.53093L7.22001 266.047C7.22001 268.778 9.43407 270.992 12.1653 270.992C14.8964 270.992 17.1105 268.778 17.1105 266.047L13.4414 6.53093C13.4414 3.79975 15.6555 1.58569 18.3867 1.58569C21.1179 1.58569 23.3319 3.79975 23.3319 6.53093L19.0248 266.047C19.0248 268.778 21.2388 270.992 23.97 270.992C26.7012 270.992 28.9153 268.778 28.9153 266.047L25.2462 6.53093C25.2462 3.79975 27.4603 1.58569 30.1914 1.58569C32.9226 1.58569 35.1367 3.79975 35.1367 6.53093L30.8295 266.047C30.8295 268.778 33.0436 270.992 35.7748 270.992C38.506 270.992 40.72 268.778 40.72 266.047L37.051 6.53093C37.051 3.79975 39.265 1.58569 41.9962 1.58569C44.7274 1.58569 46.9414 3.79975 46.9414 6.53093L42.6343 266.047C42.6343 268.778 44.8484 270.992 47.5795 270.992C50.3107 270.992 52.5248 268.778 52.5248 266.047L48.8557 6.53093C48.8557 3.79975 51.0698 1.58569 53.801 1.58569C56.5321 1.58569 58.7462 3.79975 58.7462 6.53093L54.4391 266.047C54.4391 268.778 56.6531 270.992 59.3843 270.992C62.1155 270.992 64.3295 268.778 64.3295 266.047L60.6605 6.53093C60.6605 3.79975 62.8745 1.58569 65.6057 1.58569C68.3369 1.58569 70.551 3.79975 70.551 6.53093L66.2438 266.047C66.2438 268.778 68.4579 270.992 71.1891 270.992C73.9202 270.992 76.1343 268.778 76.1343 266.047V7.34286V6.53093C76.1343 3.79975 78.3484 1.58569 81.0795 1.58569C83.8107 1.58569 86.0248 3.79975 86.0248 6.53093V9.04277M-16.2972 267.003C-16.3578 266.694 -16.3895 266.374 -16.3895 266.047" stroke="black" stroke-width="2" stroke-linecap="round" stroke-linejoin="round"/>
</g>
<defs>
<clipPath id="clip0_2509_207">
<rect width="134.02" height="272" fill="white" transform="translate(-47 0.5)"/>
</clipPath>
</defs>
</svg>
