<svg width="14" height="250" viewBox="0 0 14 250" fill="none" xmlns="http://www.w3.org/2000/svg">
<g clip-path="url(#clip0_2509_207)">
<path d="M-77.3038 255.047C-77.3038 255.148 -77.3068 255.248 -77.3128 255.347M-77.3128 255.347C-77.468 257.939 -79.6187 259.992 -82.249 259.992C-84.9802 259.992 -87.1943 257.778 -87.1943 255.047L-82.8871 -4.46907C-82.8871 -7.20025 -85.1012 -9.41431 -87.8324 -9.41431C-90.5635 -9.41431 -92.7776 -7.20025 -92.7776 -4.46907L-89.1086 255.047C-89.1086 257.778 -91.3226 259.992 -94.0538 259.992C-96.785 259.992 -98.999 257.778 -98.999 255.047L-94.6919 -4.46907C-94.6919 -7.20025 -96.906 -9.41431 -99.6371 -9.41431C-101.984 -9.41431 -103.587 -7.87695 -104.567 -5.62884C-104.895 -4.87681 -105 -4.05151 -105 -3.23105V-0.0696888M-77.3128 255.347L-80.9728 -4.46907C-80.9728 -7.20025 -78.7588 -9.41431 -76.0276 -9.41431C-73.2964 -9.41431 -71.0824 -7.20025 -71.0824 -4.46907L-75.2972 256.003M-75.2972 256.003C-74.8518 258.277 -72.8484 259.992 -70.4443 259.992C-67.7131 259.992 -65.499 257.778 -65.499 255.047L-69.1681 -4.46907C-69.1681 -7.20025 -66.954 -9.41431 -64.2228 -9.41431C-61.4917 -9.41431 -59.2776 -7.20025 -59.2776 -4.46907L-63.5848 255.047C-63.5848 257.778 -61.3707 259.992 -58.6395 259.992C-55.9083 259.992 -53.6943 257.778 -53.6943 255.047L-57.3633 -4.46907C-57.3633 -7.20025 -55.1493 -9.41431 -52.4181 -9.41431C-49.6869 -9.41431 -47.4728 -7.20025 -47.4728 -4.46907L-51.78 255.047C-51.78 257.778 -49.5659 259.992 -46.8347 259.992C-44.1036 259.992 -41.8895 257.778 -41.8895 255.047L-45.5586 -4.46907C-45.5586 -7.20025 -43.3445 -9.41431 -40.6133 -9.41431C-37.8821 -9.41431 -35.6681 -7.20025 -35.6681 -4.46907L-39.9752 255.047C-39.9752 257.778 -37.7612 259.992 -35.03 259.992C-32.2988 259.992 -30.0847 257.778 -30.0847 255.047L-33.7538 -4.46907C-33.7538 -7.20025 -31.5397 -9.41431 -28.8086 -9.41431C-26.0774 -9.41431 -23.8633 -7.20025 -23.8633 -4.46907L-28.1705 255.047C-28.1705 257.778 -25.9564 259.992 -23.2252 259.992C-20.494 259.992 -18.28 257.778 -18.28 255.047L-21.949 -4.46907C-21.949 -7.20025 -19.735 -9.41431 -17.0038 -9.41431C-14.2726 -9.41431 -12.0586 -7.20025 -12.0586 -4.46907L-16.3657 255.047C-16.3657 257.778 -14.1516 259.992 -11.4205 259.992C-8.68928 259.992 -6.47522 257.778 -6.47522 255.047L-10.1443 -4.46907C-10.1443 -7.20025 -7.93022 -9.41431 -5.19904 -9.41431C-2.46785 -9.41431 -0.253792 -7.20025 -0.253792 -4.46907L-4.56094 255.047C-4.56094 257.778 -2.34688 259.992 0.3843 259.992C3.11548 259.992 5.32954 257.778 5.32954 255.047L1.66049 -4.46907C1.66049 -7.20025 3.87454 -9.41431 6.60573 -9.41431C9.33691 -9.41431 11.551 -7.20025 11.551 -4.46907L7.24383 255.047C7.24383 257.778 9.45788 259.992 12.1891 259.992C14.9202 259.992 17.1343 257.778 17.1343 255.047V-3.65714V-4.46907C17.1343 -7.20025 19.3484 -9.41431 22.0795 -9.41431C24.8107 -9.41431 27.0248 -7.20025 27.0248 -4.46907V-1.95723M-75.2972 256.003C-75.3578 255.694 -75.3895 255.374 -75.3895 255.047" stroke="black" stroke-width="2" stroke-linecap="round" stroke-linejoin="round"/>
</g>
<defs>
<clipPath id="clip0_2509_207">
<rect width="134.02" height="272" fill="white" transform="translate(-106 -10.5)"/>
</clipPath>
</defs>
</svg>
