<svg width="13" height="250" viewBox="0 0 13 250" fill="none" xmlns="http://www.w3.org/2000/svg">
<g clip-path="url(#clip0_2509_207)">
<path d="M-30.3038 255.047C-30.3038 255.148 -30.3068 255.248 -30.3128 255.347M-30.3128 255.347C-30.468 257.939 -32.6187 259.992 -35.249 259.992C-37.9802 259.992 -40.1943 257.778 -40.1943 255.047L-35.8871 -4.46907C-35.8871 -7.20025 -38.1012 -9.41431 -40.8324 -9.41431C-43.5635 -9.41431 -45.7776 -7.20025 -45.7776 -4.46907L-42.1086 255.047C-42.1086 257.778 -44.3226 259.992 -47.0538 259.992C-49.785 259.992 -51.999 257.778 -51.999 255.047L-47.6919 -4.46907C-47.6919 -7.20025 -49.906 -9.41431 -52.6371 -9.41431C-54.9835 -9.41431 -56.5866 -7.87695 -57.5672 -5.62884C-57.8953 -4.87681 -58 -4.05151 -58 -3.23105V-0.0696888M-30.3128 255.347L-33.9728 -4.46907C-33.9728 -7.20025 -31.7588 -9.41431 -29.0276 -9.41431C-26.2964 -9.41431 -24.0824 -7.20025 -24.0824 -4.46907L-28.2972 256.003M-28.2972 256.003C-27.8518 258.277 -25.8484 259.992 -23.4443 259.992C-20.7131 259.992 -18.499 257.778 -18.499 255.047L-22.1681 -4.46907C-22.1681 -7.20025 -19.954 -9.41431 -17.2228 -9.41431C-14.4917 -9.41431 -12.2776 -7.20025 -12.2776 -4.46907L-16.5848 255.047C-16.5848 257.778 -14.3707 259.992 -11.6395 259.992C-8.90833 259.992 -6.69427 257.778 -6.69427 255.047L-10.3633 -4.46907C-10.3633 -7.20025 -8.14926 -9.41431 -5.41808 -9.41431C-2.6869 -9.41431 -0.472843 -7.20025 -0.472843 -4.46907L-4.77999 255.047C-4.77999 257.778 -2.56593 259.992 0.165253 259.992C2.89643 259.992 5.11049 257.778 5.11049 255.047L1.44144 -4.46907C1.44144 -7.20025 3.6555 -9.41431 6.38668 -9.41431C9.11786 -9.41431 11.3319 -7.20025 11.3319 -4.46907L7.02477 255.047C7.02477 257.778 9.23884 259.992 11.97 259.992C14.7012 259.992 16.9153 257.778 16.9153 255.047L13.2462 -4.46907C13.2462 -7.20025 15.4603 -9.41431 18.1914 -9.41431C20.9226 -9.41431 23.1367 -7.20025 23.1367 -4.46907L18.8295 255.047C18.8295 257.778 21.0436 259.992 23.7748 259.992C26.506 259.992 28.72 257.778 28.72 255.047L25.051 -4.46907C25.051 -7.20025 27.265 -9.41431 29.9962 -9.41431C32.7274 -9.41431 34.9414 -7.20025 34.9414 -4.46907L30.6343 255.047C30.6343 257.778 32.8484 259.992 35.5795 259.992C38.3107 259.992 40.5248 257.778 40.5248 255.047L36.8557 -4.46907C36.8557 -7.20025 39.0698 -9.41431 41.801 -9.41431C44.5321 -9.41431 46.7462 -7.20025 46.7462 -4.46907L42.4391 255.047C42.4391 257.778 44.6531 259.992 47.3843 259.992C50.1155 259.992 52.3295 257.778 52.3295 255.047L48.6605 -4.46907C48.6605 -7.20025 50.8745 -9.41431 53.6057 -9.41431C56.3369 -9.41431 58.551 -7.20025 58.551 -4.46907L54.2438 255.047C54.2438 257.778 56.4579 259.992 59.1891 259.992C61.9202 259.992 64.1343 257.778 64.1343 255.047V-3.65714V-4.46907C64.1343 -7.20025 66.3484 -9.41431 69.0795 -9.41431C71.8107 -9.41431 74.0248 -7.20025 74.0248 -4.46907V-1.95723M-28.2972 256.003C-28.3578 255.694 -28.3895 255.374 -28.3895 255.047" stroke="black" stroke-width="2" stroke-linecap="round" stroke-linejoin="round"/>
</g>
<defs>
<clipPath id="clip0_2509_207">
<rect width="134.02" height="272" fill="white" transform="translate(-59 -10.5)"/>
</clipPath>
</defs>
</svg>
