<svg width="12" height="13" viewBox="0 0 12 13" fill="none" xmlns="http://www.w3.org/2000/svg">
<path d="M0.705882 1H11.2941C11.4078 1 11.5 1.09218 11.5 1.20588V11.7941C11.5 11.9078 11.4078 12 11.2941 12H0.705882C0.592177 12 0.5 11.9078 0.5 11.7941V1.20588C0.5 1.09218 0.592177 1 0.705882 1Z" fill="#FEF546" stroke="black"/>
<path d="M0.706055 1.20605H11.2943L6.00017 11.7943L0.706055 1.20605Z" fill="black"/>
<path d="M4.23535 7.38285V2.12402H5.74594C6.28241 2.12402 6.74829 2.21579 7.14359 2.39932C7.54359 2.57814 7.85418 2.85814 8.07535 3.23932C8.29653 3.62049 8.40712 4.11696 8.40712 4.72873C8.40712 5.33579 8.29653 5.83697 8.07535 6.23226C7.85888 6.62285 7.55535 6.91226 7.16476 7.10049C6.77888 7.28873 6.32947 7.38285 5.81653 7.38285H4.23535ZM5.49888 6.36638H5.66829C5.95065 6.36638 6.20006 6.31697 6.41653 6.21814C6.6377 6.11932 6.80947 5.94991 6.93182 5.70991C7.05417 5.46991 7.11535 5.14285 7.11535 4.72873C7.11535 4.30991 7.05417 3.9852 6.93182 3.75461C6.80947 3.52402 6.6377 3.36402 6.41653 3.27461C6.20006 3.18049 5.95065 3.13344 5.66829 3.13344H5.49888V6.36638Z" fill="white"/>
</svg>
