<svg width="32" height="36" viewBox="0 0 32 36" fill="none" xmlns="http://www.w3.org/2000/svg">
<path d="M6.24707 32.1643H21.4622V31.6643V31.1643C20.3098 31.1643 19.4424 30.238 18.8243 29.107C18.5258 28.5607 18.3105 28.01 18.1696 27.5932C18.0994 27.3857 18.0484 27.2134 18.0152 27.0941C17.9986 27.0345 17.9864 26.9883 17.9786 26.9577L17.9702 26.9239L17.9683 26.9163L17.9681 26.9152L17.968 26.915L17.968 26.9149L17.968 26.9149L17.8778 26.5291H17.554L14.1168 25.4676L13.9738 25.4234L13.8301 25.4651L10.0889 26.5489L9.80787 26.6303L9.74129 26.9149L9.74128 26.9149L9.74126 26.915L9.74121 26.9152L9.74095 26.9163L9.73912 26.9239L9.73065 26.9577C9.72286 26.9883 9.71075 27.0345 9.69415 27.0941C9.66092 27.2134 9.60987 27.3857 9.53969 27.5932C9.39876 28.01 9.18346 28.5607 8.88497 29.107C8.26693 30.238 7.39946 31.1643 6.24707 31.1643V31.6643V32.1643Z" fill="#E0E0E0" stroke="black"/>
<path d="M24.1057 35.4997H24.6057V34.9997V32.1902C24.6057 31.6186 24.1359 31.1641 23.5727 31.1641H4.36594C3.80276 31.1641 3.33301 31.6186 3.33301 32.1902V34.9997V35.4997H3.83301H24.1057Z" fill="#E0E0E0" stroke="black"/>
<path d="M26.8805 13.8543L26.8688 13.8543C26.7949 11.8219 26.2723 9.90543 25.3968 8.20331L30.0098 8.20331L30.5098 8.20331L30.5098 7.70331L30.5098 1.50799L30.5098 1.00799L30.0098 1.00799L13.9982 1.00799C13.9582 1.00799 13.9167 1.00644 13.8637 1.00438L13.8601 1.00423C13.8111 1.00232 13.7515 0.999999 13.6904 0.999999C6.40022 0.999999 0.500263 6.98558 0.500263 14.3543C0.500262 21.723 6.40022 27.7085 13.6904 27.7085C20.9805 27.7085 26.8805 21.723 26.8805 14.3543L26.8805 13.8543Z" fill="#E0E0E0" stroke="black"/>
<path d="M30.042 9.29164L30.542 9.29164L30.542 8.79164L30.542 1L30.542 0.5L30.042 0.5L28.6253 0.5L28.1253 0.5L28.1253 1L28.1253 8.79164L28.1253 9.29164L28.6253 9.29164L30.042 9.29164Z" fill="#E0E0E0" stroke="black"/>
<path d="M23.0277 18.0759L22.2816 16.6633V13.1198L23.0251 11.7177C23.1396 11.502 23.1316 11.2442 23.0091 11.0364L21.7167 8.82931C21.5941 8.61886 21.3703 8.48469 21.1252 8.47417L19.5104 8.40315L16.4034 6.63274L15.5374 5.28586C15.4068 5.08067 15.1777 4.95703 14.9325 4.95703H12.3478C12.1027 4.95703 11.8735 5.08067 11.7429 5.28586L10.8769 6.63274L7.7726 8.39525L6.15782 8.46628C5.91267 8.4768 5.68884 8.61096 5.56627 8.82141L4.27391 11.0285C4.15134 11.239 4.14601 11.4968 4.25792 11.7098L5.00403 13.1225V16.6659L4.25792 18.0786C4.14334 18.2943 4.15134 18.5521 4.27391 18.7599L5.56627 20.967C5.68884 21.1774 5.91267 21.3116 6.15782 21.3221L7.7726 21.3932L10.8796 23.1636L11.7456 24.5104C11.8762 24.7156 12.1053 24.8393 12.3505 24.8393H14.9352C15.1803 24.8393 15.4095 24.7156 15.5401 24.5104L16.4061 23.1636L19.5131 21.3932L21.1278 21.3221C21.373 21.3116 21.5968 21.1774 21.7194 20.967L23.0117 18.7599C23.1343 18.5495 23.1396 18.2917 23.0277 18.0786V18.0759ZM13.6428 20.5514C10.4719 20.5514 7.9005 18.0181 7.9005 14.8903C7.9005 11.7624 10.4719 9.22916 13.6428 9.22916C16.8138 9.22916 19.3851 11.7624 19.3851 14.8903C19.3851 18.0181 16.8138 20.5514 13.6428 20.5514Z" fill="black"/>
<path d="M13.6426 17.9322C15.3424 17.9322 16.7203 16.5719 16.7203 14.8938C16.7203 13.2158 15.3424 11.8555 13.6426 11.8555C11.9429 11.8555 10.5649 13.2158 10.5649 14.8938C10.5649 16.5719 11.9429 17.9322 13.6426 17.9322Z" fill="black"/>
</svg>
