<svg width="27" height="30" viewBox="0 0 27 30" fill="none" xmlns="http://www.w3.org/2000/svg">
<path d="M6.15576 26.7527H18.6859V26.2527V25.7527C17.7891 25.7527 17.0972 25.031 16.5909 24.1044C16.3483 23.6604 16.1729 23.2119 16.0579 22.8718C16.0007 22.7026 15.9591 22.5622 15.9321 22.4653C15.9186 22.417 15.9088 22.3795 15.9026 22.3549L15.8958 22.3279L15.8944 22.3221L15.8943 22.3216L15.8942 22.3214L15.8942 22.3212L15.8942 22.3212L15.8942 22.3212L15.8039 21.9355H15.4807L12.6627 21.0652L12.5198 21.0211L12.3761 21.0627L9.29509 21.9553L9.01404 22.0367L8.94747 22.3212L8.94746 22.3212L8.94743 22.3214L8.94737 22.3216L8.94726 22.3221L8.94584 22.3279L8.93909 22.3549C8.93282 22.3795 8.92302 22.417 8.90953 22.4653C8.88254 22.5622 8.84096 22.7026 8.78374 22.8718C8.66874 23.2119 8.49334 23.6604 8.25072 24.1044C7.74441 25.031 7.05258 25.7527 6.15576 25.7527V26.2527V26.7527Z" fill="#999999" stroke="black"/>
<path d="M20.8626 29.5009H21.3626V29.0009V26.6872C21.3626 26.1667 20.9352 25.7539 20.4237 25.7539H4.60636C4.09491 25.7539 3.66748 26.1667 3.66748 26.6872V29.0009V29.5009H4.16748H20.8626Z" fill="#999999" stroke="black"/>
<path d="M23.2353 11.496L23.2222 11.496C23.1518 9.89157 22.7445 8.37552 22.0688 7.01876L25.7241 7.01876L26.2241 7.01876L26.2241 6.51876L26.2241 1.41674L26.2241 0.91674L25.7241 0.91674L12.5381 0.916739C12.5072 0.916739 12.4747 0.915536 12.4308 0.913826L12.4273 0.913691C12.3873 0.912127 12.3367 0.910156 12.2846 0.910156C6.23117 0.910155 1.33394 5.88003 1.33394 11.996C1.33394 18.112 6.23117 23.0819 12.2846 23.0819C18.3381 23.0819 23.2353 18.112 23.2353 11.996L23.2353 11.496Z" fill="#999999" stroke="black"/>
<path d="M25.7495 7.91665L26.2495 7.91665L26.2495 7.41665L26.2495 1L26.2495 0.5L25.7495 0.5L24.5828 0.5L24.0828 0.5L24.0828 1L24.0828 7.41665L24.0828 7.91665L24.5828 7.91665L25.7495 7.91665Z" fill="#999999" stroke="black"/>
<path d="M19.9731 15.0616L19.3586 13.8983V10.9801L19.9709 9.82545C20.0652 9.6478 20.0586 9.43549 19.9577 9.26435L18.8934 7.44674C18.7925 7.27343 18.6081 7.16295 18.4062 7.15428L17.0764 7.09579L14.5177 5.63781L13.8045 4.52861C13.697 4.35963 13.5083 4.25781 13.3064 4.25781H11.1778C10.9759 4.25781 10.7872 4.35963 10.6797 4.52861L9.96651 5.63781L7.41001 7.08929L6.08019 7.14778C5.87831 7.15645 5.69398 7.26693 5.59303 7.44025L4.52874 9.25785C4.4278 9.43116 4.42341 9.64347 4.51557 9.81895L5.13001 10.9823V13.9004L4.51557 15.0638C4.42121 15.2414 4.4278 15.4537 4.52874 15.6249L5.59303 17.4425C5.69398 17.6158 5.87831 17.7263 6.08019 17.7349L7.41001 17.7934L9.9687 19.2514L10.6819 20.3606C10.7894 20.5296 10.9781 20.6314 11.18 20.6314H13.3086C13.5105 20.6314 13.6992 20.5296 13.8067 20.3606L14.5199 19.2514L17.0786 17.7934L18.4084 17.7349C18.6103 17.7263 18.7947 17.6158 18.8956 17.4425L19.9599 15.6249C20.0608 15.4516 20.0652 15.2393 19.9731 15.0638V15.0616ZM12.2443 17.1002C9.63296 17.1002 7.51534 15.014 7.51534 12.4381C7.51534 9.86227 9.63296 7.77604 12.2443 7.77604C14.8557 7.77604 16.9733 9.86227 16.9733 12.4381C16.9733 15.014 14.8557 17.1002 12.2443 17.1002Z" fill="black"/>
<path d="M12.245 14.9419C13.6448 14.9419 14.7796 13.8216 14.7796 12.4397C14.7796 11.0578 13.6448 9.9375 12.245 9.9375C10.8452 9.9375 9.71045 11.0578 9.71045 12.4397C9.71045 13.8216 10.8452 14.9419 12.245 14.9419Z" fill="black"/>
</svg>
