<svg width="32" height="36" viewBox="0 0 32 36" fill="none" xmlns="http://www.w3.org/2000/svg">
<path d="M6.99854 32.1643H22.2137V31.6643V31.1643C21.0613 31.1643 20.1939 30.238 19.5758 29.107C19.2773 28.5607 19.062 28.01 18.9211 27.5932C18.8509 27.3857 18.7999 27.2134 18.7666 27.0941C18.75 27.0345 18.7379 26.9883 18.7301 26.9577L18.7217 26.9239L18.7198 26.9163L18.7196 26.9152L18.7195 26.915L18.7195 26.9149L18.7195 26.9149L18.6293 26.5291H18.3055L14.8683 25.4676L14.7253 25.4234L14.5816 25.4651L10.8404 26.5489L10.5593 26.6303L10.4928 26.9149L10.4928 26.9149L10.4927 26.915L10.4927 26.9152L10.4924 26.9163L10.4906 26.9239L10.4821 26.9577C10.4743 26.9883 10.4622 27.0345 10.4456 27.0941C10.4124 27.2134 10.3613 27.3857 10.2912 27.5932C10.1502 28.01 9.93493 28.5607 9.63645 29.107C9.0184 30.238 8.15093 31.1643 6.99854 31.1643V31.6643V32.1643Z" fill="#FEF546" stroke="black"/>
<path d="M24.8567 35.4997H25.3567V34.9997V32.1902C25.3567 31.6186 24.887 31.1641 24.3238 31.1641H5.11692C4.55374 31.1641 4.08398 31.6186 4.08398 32.1902V34.9997V35.4997H4.58398H24.8567Z" fill="#FEF546" stroke="black"/>
<path d="M27.631 13.8543L27.6193 13.8543C27.5454 11.8219 27.0228 9.90545 26.1473 8.20333L30.7603 8.20333L31.2603 8.20333L31.2603 7.70333L31.2603 1.50799L31.2603 1.00799L30.7603 1.00799L14.7486 1.00799C14.7087 1.00799 14.6671 1.00644 14.6142 1.00438L14.6105 1.00423C14.5615 1.00232 14.5019 0.999999 14.4408 0.999999C7.15064 0.999999 1.25066 6.9856 1.25066 14.3543C1.25066 21.723 7.15064 27.7086 14.4408 27.7086C21.731 27.7086 27.631 21.723 27.631 14.3543L27.631 13.8543Z" fill="#FEF546" stroke="black"/>
<path d="M30.791 9.29167L31.291 9.29167L31.291 8.79167L31.291 1L31.291 0.5L30.791 0.5L29.3743 0.5L28.8743 0.5L28.8743 1L28.8743 8.79167L28.8743 9.29167L29.3743 9.29167L30.791 9.29167Z" fill="#FEF546" stroke="black"/>
<path d="M23.7768 18.076L23.0307 16.6633V13.1199L23.7741 11.7177C23.8887 11.502 23.8807 11.2442 23.7582 11.0364L22.4658 8.82932C22.3432 8.61887 22.1194 8.48471 21.8742 8.47418L20.2595 8.40316L17.1525 6.63274L16.2864 5.28586C16.1559 5.08067 15.9267 4.95703 15.6816 4.95703H13.0969C12.8517 4.95703 12.6225 5.08067 12.492 5.28586L11.626 6.63274L8.52163 8.39526L6.90685 8.46629C6.6617 8.47681 6.43787 8.61098 6.3153 8.82143L5.02294 11.0285C4.90036 11.239 4.89503 11.4968 5.00695 11.7099L5.75305 13.1225V16.666L5.00695 18.0786C4.89237 18.2943 4.90036 18.5521 5.02294 18.7599L6.3153 20.967C6.43787 21.1775 6.6617 21.3117 6.90685 21.3222L8.52163 21.3932L11.6286 23.1636L12.4946 24.5105C12.6252 24.7157 12.8544 24.8393 13.0995 24.8393H15.6842C15.9294 24.8393 16.1585 24.7157 16.2891 24.5105L17.1551 23.1636L20.2621 21.3932L21.8769 21.3222C22.1221 21.3117 22.3459 21.1775 22.4685 20.967L23.7608 18.7599C23.8834 18.5495 23.8887 18.2917 23.7768 18.0786V18.076ZM14.3919 20.5514C11.2209 20.5514 8.64954 18.0181 8.64954 14.8903C8.64954 11.7625 11.2209 9.22917 14.3919 9.22917C17.5628 9.22917 20.1342 11.7625 20.1342 14.8903C20.1342 18.0181 17.5628 20.5514 14.3919 20.5514Z" fill="black"/>
<path d="M14.3926 17.9322C16.0924 17.9322 17.4703 16.5719 17.4703 14.8938C17.4703 13.2158 16.0924 11.8555 14.3926 11.8555C12.6929 11.8555 11.3149 13.2158 11.3149 14.8938C11.3149 16.5719 12.6929 17.9322 14.3926 17.9322Z" fill="black"/>
</svg>
