<svg width="106" height="56" viewBox="0 0 106 56" fill="none" xmlns="http://www.w3.org/2000/svg">
<path d="M105.381 0.980469L1.38135 0.980469L1.38135 54.9805L105.381 54.9805V0.980469Z" stroke="#666666"/>
<path d="M14.0963 12.322V24.6053" stroke="black" stroke-width="0.5"/>
<path d="M14.0954 12.4668L10.818 24.4596" stroke="black" stroke-width="0.5"/>
<path d="M14.0788 12.4429L7.56409 23.5218" stroke="black" stroke-width="0.5"/>
<path d="M14.0963 12.4666L17.368 24.4593" stroke="black" stroke-width="0.5"/>
<path d="M14.1127 12.4429L20.6273 23.5218" stroke="black" stroke-width="0.5"/>
<path d="M14.0963 15.3781C17.8157 15.3781 20.8463 12.9036 20.8463 9.8668C20.8463 6.82994 17.8157 4.35547 14.0963 4.35547C10.3769 4.35547 7.34631 6.82994 7.34631 9.8668C7.34631 12.9036 10.3769 15.3781 14.0963 15.3781Z" fill="#FEF546" stroke="black" stroke-width="0.5"/>
<path d="M95.6313 43.6389L95.6313 31.3556" stroke="black" stroke-width="0.5"/>
<path d="M95.6322 43.4941L98.9097 31.5014" stroke="black" stroke-width="0.5"/>
<path d="M95.6489 43.5181L102.164 32.4392" stroke="black" stroke-width="0.5"/>
<path d="M95.6313 43.4944L92.3597 31.5016" stroke="black" stroke-width="0.5"/>
<path d="M95.615 43.5181L89.1003 32.4392" stroke="black" stroke-width="0.5"/>
<path d="M95.6314 40.5828C91.912 40.5828 88.8814 43.0573 88.8814 46.0941C88.8814 49.131 91.912 51.6055 95.6313 51.6055C99.3507 51.6055 102.381 49.131 102.381 46.0941C102.381 43.0573 99.3507 40.5828 95.6314 40.5828Z" fill="#FEF546" stroke="black" stroke-width="0.5"/>
<path d="M41.2786 12.322V24.6053" stroke="black" stroke-width="0.5"/>
<path d="M41.2769 12.4668L37.9995 24.4596" stroke="black" stroke-width="0.5"/>
<path d="M41.2573 12.4429L34.7427 23.5218" stroke="black" stroke-width="0.5"/>
<path d="M41.2786 12.4666L44.5502 24.4593" stroke="black" stroke-width="0.5"/>
<path d="M41.2913 12.4429L47.8059 23.5218" stroke="black" stroke-width="0.5"/>
<path d="M41.2749 15.3781C44.9943 15.3781 48.0249 12.9036 48.0249 9.8668C48.0249 6.82994 44.9943 4.35547 41.2749 4.35547C37.5555 4.35547 34.5249 6.82994 34.5249 9.8668C34.5249 12.9036 37.5555 15.3781 41.2749 15.3781Z" fill="#FEF546" stroke="black" stroke-width="0.5"/>
<path d="M68.4487 43.6392L68.4487 31.3558" stroke="black" stroke-width="0.5"/>
<path d="M68.4506 43.4941L71.728 31.5014" stroke="black" stroke-width="0.5"/>
<path d="M68.4702 43.5181L74.9849 32.4392" stroke="black" stroke-width="0.5"/>
<path d="M68.4487 43.4941L65.1771 31.5014" stroke="black" stroke-width="0.5"/>
<path d="M68.4363 43.5181L61.9216 32.4392" stroke="black" stroke-width="0.5"/>
<path d="M68.4526 40.5828C64.7333 40.5828 61.7026 43.0573 61.7026 46.0941C61.7026 49.131 64.7333 51.6055 68.4526 51.6055C72.172 51.6055 75.2026 49.131 75.2026 46.0941C75.2026 43.0573 72.172 40.5828 68.4526 40.5828Z" fill="#FEF546" stroke="black" stroke-width="0.5"/>
<path d="M68.4543 12.322V24.6053" stroke="black" stroke-width="0.5"/>
<path d="M68.4495 12.4666L65.1721 24.4593" stroke="black" stroke-width="0.5"/>
<path d="M68.4341 12.4429L61.9194 23.5218" stroke="black" stroke-width="0.5"/>
<path d="M68.4543 12.4666L71.726 24.4593" stroke="black" stroke-width="0.5"/>
<path d="M68.469 12.4429L74.9837 23.5218" stroke="black" stroke-width="0.5"/>
<path d="M68.4526 15.3781C72.172 15.3781 75.2026 12.9036 75.2026 9.8668C75.2026 6.82994 72.172 4.35547 68.4526 4.35547C64.7332 4.35547 61.7026 6.82994 61.7026 9.8668C61.7026 12.9036 64.7332 15.3781 68.4526 15.3781Z" fill="#FEF546" stroke="black" stroke-width="0.5"/>
<path d="M41.271 43.6392L41.271 31.3558" stroke="black" stroke-width="0.5"/>
<path d="M41.278 43.4944L44.5554 31.5016" stroke="black" stroke-width="0.5"/>
<path d="M41.2934 43.5181L47.8081 32.4392" stroke="black" stroke-width="0.5"/>
<path d="M41.271 43.4941L37.9993 31.5014" stroke="black" stroke-width="0.5"/>
<path d="M41.2583 43.5181L34.7436 32.4392" stroke="black" stroke-width="0.5"/>
<path d="M41.2749 40.5828C37.5555 40.5828 34.5249 43.0573 34.5249 46.0941C34.5249 49.131 37.5555 51.6055 41.2749 51.6055C44.9943 51.6055 48.0249 49.131 48.0249 46.0941C48.0249 43.0573 44.9943 40.5828 41.2749 40.5828Z" fill="#FEF546" stroke="black" stroke-width="0.5"/>
<path d="M95.6353 12.3218V24.6051" stroke="black" stroke-width="0.5"/>
<path d="M95.6324 12.4668L92.355 24.4596" stroke="black" stroke-width="0.5"/>
<path d="M95.6138 12.4429L89.0991 23.5218" stroke="black" stroke-width="0.5"/>
<path d="M95.6353 12.4668L98.9069 24.4596" stroke="black" stroke-width="0.5"/>
<path d="M95.6477 12.4429L102.162 23.5218" stroke="black" stroke-width="0.5"/>
<path d="M95.6313 15.3781C99.3507 15.3781 102.381 12.9036 102.381 9.8668C102.381 6.82994 99.3507 4.35547 95.6313 4.35547C91.912 4.35547 88.8813 6.82994 88.8813 9.8668C88.8813 12.9036 91.912 15.3781 95.6313 15.3781Z" fill="#FEF546" stroke="black" stroke-width="0.5"/>
<path d="M14.0945 43.6389L14.0945 31.3556" stroke="black" stroke-width="0.5"/>
<path d="M14.0953 43.4941L17.3727 31.5014" stroke="black" stroke-width="0.5"/>
<path d="M14.1139 43.5181L20.6285 32.4392" stroke="black" stroke-width="0.5"/>
<path d="M14.0945 43.4944L10.8228 31.5016" stroke="black" stroke-width="0.5"/>
<path d="M14.08 43.5181L7.56529 32.4392" stroke="black" stroke-width="0.5"/>
<path d="M14.0963 40.5828C10.3769 40.5828 7.34632 43.0573 7.34632 46.0941C7.34632 49.131 10.3769 51.6055 14.0963 51.6055C17.8157 51.6055 20.8463 49.131 20.8463 46.0941C20.8463 43.0573 17.8157 40.5828 14.0963 40.5828Z" fill="#FEF546" stroke="black" stroke-width="0.5"/>
</svg>
