<svg width="106" height="56" viewBox="0 0 106 56" fill="none" xmlns="http://www.w3.org/2000/svg">
<path d="M105.047 0.980469L1.04663 0.980469L1.04663 54.9805L105.047 54.9805V0.980469Z" stroke="#666666"/>
<path d="M13.7616 12.322V24.6053" stroke="black" stroke-width="0.5"/>
<path d="M13.7607 12.4668L10.4833 24.4596" stroke="black" stroke-width="0.5"/>
<path d="M13.744 12.4429L7.22937 23.5218" stroke="black" stroke-width="0.5"/>
<path d="M13.7616 12.4666L17.0333 24.4593" stroke="black" stroke-width="0.5"/>
<path d="M13.778 12.4429L20.2926 23.5218" stroke="black" stroke-width="0.5"/>
<path d="M13.7616 15.3781C17.481 15.3781 20.5116 12.9036 20.5116 9.8668C20.5116 6.82994 17.481 4.35547 13.7616 4.35547C10.0422 4.35547 7.0116 6.82994 7.0116 9.8668C7.0116 12.9036 10.0422 15.3781 13.7616 15.3781Z" fill="#E0E0E0" stroke="black" stroke-width="0.5"/>
<path d="M95.2966 43.6389L95.2966 31.3556" stroke="black" stroke-width="0.5"/>
<path d="M95.2975 43.4941L98.575 31.5014" stroke="black" stroke-width="0.5"/>
<path d="M95.3142 43.5181L101.829 32.4392" stroke="black" stroke-width="0.5"/>
<path d="M95.2966 43.4944L92.025 31.5016" stroke="black" stroke-width="0.5"/>
<path d="M95.2803 43.5181L88.7656 32.4392" stroke="black" stroke-width="0.5"/>
<path d="M95.2966 40.5828C91.5772 40.5828 88.5466 43.0573 88.5466 46.0941C88.5466 49.131 91.5772 51.6055 95.2966 51.6055C99.016 51.6055 102.047 49.131 102.047 46.0941C102.047 43.0573 99.016 40.5828 95.2966 40.5828Z" fill="#E0E0E0" stroke="black" stroke-width="0.5"/>
<path d="M40.9438 12.322V24.6053" stroke="black" stroke-width="0.5"/>
<path d="M40.9422 12.4668L37.6648 24.4596" stroke="black" stroke-width="0.5"/>
<path d="M40.9226 12.4429L34.408 23.5218" stroke="black" stroke-width="0.5"/>
<path d="M40.9438 12.4666L44.2155 24.4593" stroke="black" stroke-width="0.5"/>
<path d="M40.9565 12.4429L47.4712 23.5218" stroke="black" stroke-width="0.5"/>
<path d="M40.9402 15.3781C44.6596 15.3781 47.6902 12.9036 47.6902 9.8668C47.6902 6.82994 44.6596 4.35547 40.9402 4.35547C37.2208 4.35547 34.1902 6.82994 34.1902 9.8668C34.1902 12.9036 37.2208 15.3781 40.9402 15.3781Z" fill="#E0E0E0" stroke="black" stroke-width="0.5"/>
<path d="M68.114 43.6392L68.114 31.3558" stroke="black" stroke-width="0.5"/>
<path d="M68.1159 43.4941L71.3933 31.5014" stroke="black" stroke-width="0.5"/>
<path d="M68.1355 43.5181L74.6501 32.4392" stroke="black" stroke-width="0.5"/>
<path d="M68.114 43.4941L64.8423 31.5014" stroke="black" stroke-width="0.5"/>
<path d="M68.1016 43.5181L61.5869 32.4392" stroke="black" stroke-width="0.5"/>
<path d="M68.1179 40.5828C64.3985 40.5828 61.3679 43.0573 61.3679 46.0941C61.3679 49.131 64.3985 51.6055 68.1179 51.6055C71.8373 51.6055 74.8679 49.131 74.8679 46.0941C74.8679 43.0573 71.8373 40.5828 68.1179 40.5828Z" fill="#E0E0E0" stroke="black" stroke-width="0.5"/>
<path d="M68.1198 12.322V24.6053" stroke="black" stroke-width="0.5"/>
<path d="M68.1149 12.4666L64.8375 24.4593" stroke="black" stroke-width="0.5"/>
<path d="M68.0994 12.4429L61.5847 23.5218" stroke="black" stroke-width="0.5"/>
<path d="M68.1198 12.4666L71.3914 24.4593" stroke="black" stroke-width="0.5"/>
<path d="M68.1343 12.4429L74.6489 23.5218" stroke="black" stroke-width="0.5"/>
<path d="M68.1179 15.3781C71.8373 15.3781 74.8679 12.9036 74.8679 9.8668C74.8679 6.82994 71.8373 4.35547 68.1179 4.35547C64.3985 4.35547 61.3679 6.82994 61.3679 9.8668C61.3679 12.9036 64.3985 15.3781 68.1179 15.3781Z" fill="#E0E0E0" stroke="black" stroke-width="0.5"/>
<path d="M40.9363 43.6392L40.9363 31.3558" stroke="black" stroke-width="0.5"/>
<path d="M40.9433 43.4944L44.2207 31.5016" stroke="black" stroke-width="0.5"/>
<path d="M40.9587 43.5181L47.4734 32.4392" stroke="black" stroke-width="0.5"/>
<path d="M40.9363 43.4941L37.6646 31.5014" stroke="black" stroke-width="0.5"/>
<path d="M40.9236 43.5181L34.4089 32.4392" stroke="black" stroke-width="0.5"/>
<path d="M40.9402 40.5828C37.2208 40.5828 34.1902 43.0573 34.1902 46.0941C34.1902 49.131 37.2208 51.6055 40.9402 51.6055C44.6596 51.6055 47.6902 49.131 47.6902 46.0941C47.6902 43.0573 44.6596 40.5828 40.9402 40.5828Z" fill="#E0E0E0" stroke="black" stroke-width="0.5"/>
<path d="M95.3005 12.3218V24.6051" stroke="black" stroke-width="0.5"/>
<path d="M95.2977 12.4668L92.0203 24.4596" stroke="black" stroke-width="0.5"/>
<path d="M95.2791 12.4429L88.7644 23.5218" stroke="black" stroke-width="0.5"/>
<path d="M95.3005 12.4668L98.5722 24.4596" stroke="black" stroke-width="0.5"/>
<path d="M95.313 12.4429L101.828 23.5218" stroke="black" stroke-width="0.5"/>
<path d="M95.2966 15.3781C99.016 15.3781 102.047 12.9036 102.047 9.8668C102.047 6.82994 99.016 4.35547 95.2966 4.35547C91.5772 4.35547 88.5466 6.82994 88.5466 9.8668C88.5466 12.9036 91.5772 15.3781 95.2966 15.3781Z" fill="#E0E0E0" stroke="black" stroke-width="0.5"/>
<path d="M13.7598 43.6389L13.7598 31.3556" stroke="black" stroke-width="0.5"/>
<path d="M13.7605 43.4941L17.038 31.5014" stroke="black" stroke-width="0.5"/>
<path d="M13.7792 43.5181L20.2938 32.4392" stroke="black" stroke-width="0.5"/>
<path d="M13.7598 43.4944L10.4881 31.5016" stroke="black" stroke-width="0.5"/>
<path d="M13.7452 43.5181L7.23057 32.4392" stroke="black" stroke-width="0.5"/>
<path d="M13.7616 40.5828C10.0422 40.5828 7.0116 43.0573 7.0116 46.0941C7.0116 49.131 10.0422 51.6055 13.7616 51.6055C17.481 51.6055 20.5116 49.131 20.5116 46.0941C20.5116 43.0573 17.481 40.5828 13.7616 40.5828Z" fill="#E0E0E0" stroke="black" stroke-width="0.5"/>
</svg>
