<svg width="48" height="102" viewBox="0 0 48 102" fill="none" xmlns="http://www.w3.org/2000/svg">
<path d="M1 1L1 101L47 101L47 1L1 1Z" stroke="#666666" stroke-width="2" stroke-miterlimit="10"/>
<path d="M10.6611 84.3105L21.1247 84.3105" stroke="black" stroke-width="0.5"/>
<path d="M10.7852 84.3124L21.0012 87.0869" stroke="black" stroke-width="0.5"/>
<path d="M10.7646 84.3248L20.2022 89.8398" stroke="black" stroke-width="0.5"/>
<path d="M10.7847 84.3105L21.0007 81.5409" stroke="black" stroke-width="0.5"/>
<path d="M10.7646 84.2949L20.2022 78.7799" stroke="black" stroke-width="0.5"/>
<path d="M13.2644 84.3101C13.2644 81.1614 11.1565 78.5958 8.56959 78.5958C5.98264 78.5958 3.87476 81.1614 3.87476 84.3101C3.87476 87.4588 5.98264 90.0244 8.56959 90.0244C11.1565 90.0244 13.2644 87.4588 13.2644 84.3101Z" fill="#999999" stroke="black" stroke-width="0.5"/>
<path d="M37.3386 15.2842L26.8751 15.2842" stroke="black" stroke-width="0.5"/>
<path d="M37.2148 15.2843L26.9988 12.5098" stroke="black" stroke-width="0.5"/>
<path d="M37.2356 15.2699L27.798 9.75488" stroke="black" stroke-width="0.5"/>
<path d="M37.2148 15.2842L26.9988 18.0539" stroke="black" stroke-width="0.5"/>
<path d="M37.2356 15.2998L27.798 20.8149" stroke="black" stroke-width="0.5"/>
<path d="M34.7353 15.2846C34.7353 18.4333 36.8432 20.9989 39.4302 20.9989C42.0171 20.9989 44.125 18.4333 44.125 15.2846C44.125 12.1359 42.0171 9.57031 39.4302 9.57031C36.8432 9.57031 34.7353 12.1359 34.7353 15.2846Z" fill="#999999" stroke="black" stroke-width="0.5"/>
<path d="M10.6611 61.2979L21.1247 61.2979" stroke="black" stroke-width="0.5"/>
<path d="M10.7852 61.3007L21.0012 64.0752" stroke="black" stroke-width="0.5"/>
<path d="M10.7646 61.316L20.2022 66.8311" stroke="black" stroke-width="0.5"/>
<path d="M10.7847 61.2979L21.0007 58.5282" stroke="black" stroke-width="0.5"/>
<path d="M10.7646 61.2861L20.2022 55.7711" stroke="black" stroke-width="0.5"/>
<path d="M13.2644 61.3013C13.2644 58.1527 11.1565 55.5871 8.56959 55.5871C5.98264 55.5871 3.87476 58.1527 3.87476 61.3013C3.87476 64.45 5.98264 67.0156 8.56959 67.0156C11.1565 67.0156 13.2644 64.45 13.2644 61.3013Z" fill="#999999" stroke="black" stroke-width="0.5"/>
<path d="M37.3384 38.2949L26.8748 38.2949" stroke="black" stroke-width="0.5"/>
<path d="M37.2146 38.295L26.9985 35.5205" stroke="black" stroke-width="0.5"/>
<path d="M37.2354 38.2787L27.7978 32.7637" stroke="black" stroke-width="0.5"/>
<path d="M37.2146 38.2949L26.9985 41.0646" stroke="black" stroke-width="0.5"/>
<path d="M37.2354 38.3066L27.7978 43.8217" stroke="black" stroke-width="0.5"/>
<path d="M34.7351 38.2934C34.7351 41.4421 36.843 44.0077 39.4299 44.0077C42.0169 44.0077 44.1248 41.4421 44.1248 38.2934C44.1248 35.1447 42.0169 32.5791 39.4299 32.5791C36.843 32.5791 34.7351 35.1447 34.7351 38.2934Z" fill="#999999" stroke="black" stroke-width="0.5"/>
<path d="M10.6611 38.291L21.1247 38.291" stroke="black" stroke-width="0.5"/>
<path d="M10.7852 38.2968L21.0012 41.0713" stroke="black" stroke-width="0.5"/>
<path d="M10.7646 38.3092L20.2022 43.8242" stroke="black" stroke-width="0.5"/>
<path d="M10.7847 38.291L21.0007 35.5213" stroke="black" stroke-width="0.5"/>
<path d="M10.7646 38.2793L20.2022 32.7642" stroke="black" stroke-width="0.5"/>
<path d="M13.2644 38.2945C13.2644 35.1458 11.1565 32.5802 8.56959 32.5802C5.98264 32.5802 3.87476 35.1458 3.87476 38.2945C3.87476 41.4432 5.98264 44.0088 8.56959 44.0088C11.1565 44.0088 13.2644 41.4432 13.2644 38.2945Z" fill="#999999" stroke="black" stroke-width="0.5"/>
<path d="M37.3384 61.3057L26.8748 61.3057" stroke="black" stroke-width="0.5"/>
<path d="M37.2146 61.3009L26.9985 58.5264" stroke="black" stroke-width="0.5"/>
<path d="M37.2354 61.2865L27.7978 55.7715" stroke="black" stroke-width="0.5"/>
<path d="M37.2146 61.3057L26.9985 64.0753" stroke="black" stroke-width="0.5"/>
<path d="M37.2354 61.3164L27.7978 66.8315" stroke="black" stroke-width="0.5"/>
<path d="M34.7351 61.3012C34.7351 64.4499 36.843 67.0155 39.4299 67.0155C42.0169 67.0155 44.1248 64.4499 44.1248 61.3012C44.1248 58.1525 42.0169 55.5869 39.4299 55.5869C36.843 55.5869 34.7351 58.1525 34.7351 61.3012Z" fill="#999999" stroke="black" stroke-width="0.5"/>
<path d="M10.6611 15.2822L21.1247 15.2822" stroke="black" stroke-width="0.5"/>
<path d="M10.7852 15.285L21.0012 18.0596" stroke="black" stroke-width="0.5"/>
<path d="M10.7646 15.3013L20.2022 20.8164" stroke="black" stroke-width="0.5"/>
<path d="M10.7847 15.2822L21.0007 12.5125" stroke="black" stroke-width="0.5"/>
<path d="M10.7646 15.2705L20.2022 9.75545" stroke="black" stroke-width="0.5"/>
<path d="M13.2647 15.2857C13.2647 12.137 11.1568 9.57143 8.56983 9.57143C5.98289 9.57143 3.875 12.137 3.875 15.2857C3.875 18.4344 5.98288 21 8.56983 21C11.1568 21 13.2647 18.4344 13.2647 15.2857Z" fill="#999999" stroke="black" stroke-width="0.5"/>
<path d="M37.3384 84.3115L26.8748 84.3115" stroke="black" stroke-width="0.5"/>
<path d="M37.2151 84.3107L26.999 81.5361" stroke="black" stroke-width="0.5"/>
<path d="M37.2354 84.2953L27.7978 78.7803" stroke="black" stroke-width="0.5"/>
<path d="M37.2151 84.3115L26.999 87.0812" stroke="black" stroke-width="0.5"/>
<path d="M37.2354 84.3232L27.7978 89.8383" stroke="black" stroke-width="0.5"/>
<path d="M34.7356 84.31C34.7356 87.4587 36.8435 90.0243 39.4304 90.0243C42.0174 90.0243 44.1252 87.4587 44.1252 84.31C44.1252 81.1613 42.0174 78.5957 39.4304 78.5957C36.8435 78.5957 34.7356 81.1613 34.7356 84.31Z" fill="#999999" stroke="black" stroke-width="0.5"/>
</svg>
