<svg width="32" height="36" viewBox="0 0 32 36" fill="none" xmlns="http://www.w3.org/2000/svg">
<path d="M7.16406 32.1643H22.3792V31.6643V31.1643C21.2268 31.1643 20.3594 30.238 19.7413 29.107C19.4428 28.5607 19.2275 28.01 19.0866 27.5932C19.0164 27.3857 18.9654 27.2134 18.9321 27.0941C18.9155 27.0345 18.9034 26.9883 18.8956 26.9577L18.8872 26.9239L18.8853 26.9163L18.8851 26.9152L18.885 26.915L18.885 26.9149L18.885 26.9149L18.7947 26.5291H18.471L15.0338 25.4676L14.8908 25.4234L14.7471 25.4651L11.0059 26.5489L10.7249 26.6303L10.6583 26.9149L10.6583 26.9149L10.6583 26.915L10.6582 26.9152L10.6579 26.9163L10.6561 26.9239L10.6476 26.9577C10.6399 26.9883 10.6277 27.0345 10.6111 27.0941C10.5779 27.2134 10.5269 27.3857 10.4567 27.5932C10.3158 28.01 10.1005 28.5607 9.80197 29.107C9.18392 30.238 8.31645 31.1643 7.16406 31.1643V31.6643V32.1643Z" fill="white" stroke="black"/>
<path d="M25.0227 35.4997H25.5227V34.9997V32.1902C25.5227 31.6186 25.0529 31.1641 24.4897 31.1641H5.28293C4.71975 31.1641 4.25 31.6186 4.25 32.1902V34.9997V35.4997H4.75H25.0227Z" fill="white" stroke="black"/>
<path d="M27.7975 13.8543L27.7858 13.8543C27.7119 11.8219 27.1893 9.90543 26.3138 8.20331L30.9268 8.20331L31.4268 8.20331L31.4268 7.70331L31.4268 1.50799L31.4268 1.00799L30.9268 1.00799L14.9152 1.00799C14.8752 1.00799 14.8337 1.00644 14.7807 1.00438L14.7771 1.00423C14.7281 1.00232 14.6685 0.999999 14.6074 0.999999C7.31721 0.999999 1.41726 6.98558 1.41725 14.3543C1.41725 21.723 7.31721 27.7085 14.6074 27.7085C21.8975 27.7085 27.7975 21.723 27.7975 14.3543L27.7975 13.8543Z" fill="white" stroke="black"/>
<path d="M30.959 9.29164L31.459 9.29164L31.459 8.79164L31.459 1L31.459 0.5L30.959 0.5L29.5423 0.5L29.0423 0.5L29.0423 1L29.0423 8.79164L29.0423 9.29164L29.5423 9.29164L30.959 9.29164Z" fill="white" stroke="black"/>
<path d="M23.9447 18.0759L23.1986 16.6633V13.1198L23.9421 11.7177C24.0566 11.502 24.0486 11.2442 23.9261 11.0364L22.6337 8.82931C22.5111 8.61886 22.2873 8.48469 22.0422 8.47417L20.4274 8.40315L17.3204 6.63274L16.4544 5.28586C16.3238 5.08067 16.0947 4.95703 15.8495 4.95703H13.2648C13.0196 4.95703 12.7905 5.08067 12.6599 5.28586L11.7939 6.63274L8.68959 8.39525L7.07481 8.46628C6.82966 8.4768 6.60583 8.61096 6.48326 8.82141L5.1909 11.0285C5.06833 11.239 5.063 11.4968 5.17492 11.7098L5.92102 13.1225V16.6659L5.17492 18.0786C5.06034 18.2943 5.06833 18.5521 5.1909 18.7599L6.48326 20.967C6.60583 21.1774 6.82966 21.3116 7.07481 21.3221L8.68959 21.3932L11.7966 23.1636L12.6626 24.5104C12.7932 24.7156 13.0223 24.8393 13.2675 24.8393H15.8522C16.0973 24.8393 16.3265 24.7156 16.457 24.5104L17.3231 23.1636L20.43 21.3932L22.0448 21.3221C22.29 21.3116 22.5138 21.1774 22.6364 20.967L23.9287 18.7599C24.0513 18.5495 24.0566 18.2917 23.9447 18.0786V18.0759ZM14.5598 20.5514C11.3889 20.5514 8.81749 18.0181 8.81749 14.8903C8.81749 11.7624 11.3889 9.22916 14.5598 9.22916C17.7308 9.22916 20.3021 11.7624 20.3021 14.8903C20.3021 18.0181 17.7308 20.5514 14.5598 20.5514Z" fill="black"/>
<path d="M14.5596 17.9322C16.2594 17.9322 17.6373 16.5719 17.6373 14.8938C17.6373 13.2158 16.2594 11.8555 14.5596 11.8555C12.8599 11.8555 11.4819 13.2158 11.4819 14.8938C11.4819 16.5719 12.8599 17.9322 14.5596 17.9322Z" fill="black"/>
</svg>
