<svg width="18" height="37" viewBox="0 0 18 37" fill="none" xmlns="http://www.w3.org/2000/svg">
<path d="M1 1L1 36L17 36L17 1L1 1Z" stroke="#666666"/>
<path d="M4.3606 30.1582L8.0001 30.1582" stroke="black" stroke-width="0.5"/>
<path d="M4.40356 30.1588L7.95698 31.1299" stroke="black" stroke-width="0.5"/>
<path d="M4.39648 30.1635L7.67912 32.0938" stroke="black" stroke-width="0.5"/>
<path d="M4.40356 30.1582L7.95698 29.1888" stroke="black" stroke-width="0.5"/>
<path d="M4.39648 30.1533L7.67912 28.223" stroke="black" stroke-width="0.5"/>
<path d="M5.26597 30.1582C5.26597 29.0562 4.53279 28.1582 3.63299 28.1582C2.73318 28.1582 2 29.0562 2 30.1582C2 31.2602 2.73318 32.1582 3.63299 32.1582C4.53279 32.1582 5.26597 31.2602 5.26597 30.1582Z" fill="#E0E0E0" stroke="black" stroke-width="0.5"/>
<path d="M13.6394 6L9.9999 6" stroke="black" stroke-width="0.5"/>
<path d="M13.5964 5.99941L10.043 5.02832" stroke="black" stroke-width="0.5"/>
<path d="M13.6035 5.99472L10.3209 4.06445" stroke="black" stroke-width="0.5"/>
<path d="M13.5964 6L10.043 6.96939" stroke="black" stroke-width="0.5"/>
<path d="M13.6035 6.00488L10.3209 7.93515" stroke="black" stroke-width="0.5"/>
<path d="M12.734 6C12.734 7.10204 13.4672 8 14.367 8C15.2668 8 16 7.10204 16 6C16 4.89796 15.2668 4 14.367 4C13.4672 4 12.734 4.89796 12.734 6Z" fill="#E0E0E0" stroke="black" stroke-width="0.5"/>
<path d="M4.3606 22.1045L8.0001 22.1045" stroke="black" stroke-width="0.5"/>
<path d="M4.40356 22.1051L7.95698 23.0762" stroke="black" stroke-width="0.5"/>
<path d="M4.39648 22.1107L7.67912 24.041" stroke="black" stroke-width="0.5"/>
<path d="M4.40356 22.1045L7.95698 21.1351" stroke="black" stroke-width="0.5"/>
<path d="M4.39648 22.1006L7.67912 20.1703" stroke="black" stroke-width="0.5"/>
<path d="M5.26597 22.1055C5.26597 21.0034 4.53279 20.1055 3.63299 20.1055C2.73318 20.1055 2 21.0034 2 22.1055C2 23.2075 2.73318 24.1055 3.63299 24.1055C4.53279 24.1055 5.26597 23.2075 5.26597 22.1055Z" fill="#E0E0E0" stroke="black" stroke-width="0.5"/>
<path d="M13.6394 14.0537L9.9999 14.0537" stroke="black" stroke-width="0.5"/>
<path d="M13.5964 14.0531L10.043 13.082" stroke="black" stroke-width="0.5"/>
<path d="M13.6035 14.0475L10.3209 12.1172" stroke="black" stroke-width="0.5"/>
<path d="M13.5964 14.0537L10.043 15.0231" stroke="black" stroke-width="0.5"/>
<path d="M13.6035 14.0576L10.3209 15.9879" stroke="black" stroke-width="0.5"/>
<path d="M12.734 14.0527C12.734 15.1548 13.4672 16.0527 14.367 16.0527C15.2668 16.0527 16 15.1548 16 14.0527C16 12.9507 15.2668 12.0527 14.367 12.0527C13.4672 12.0527 12.734 12.9507 12.734 14.0527Z" fill="#E0E0E0" stroke="black" stroke-width="0.5"/>
<path d="M4.3606 14.0518L8.0001 14.0518" stroke="black" stroke-width="0.5"/>
<path d="M4.40356 14.0533L7.95698 15.0244" stroke="black" stroke-width="0.5"/>
<path d="M4.39648 14.058L7.67912 15.9883" stroke="black" stroke-width="0.5"/>
<path d="M4.40356 14.0518L7.95698 13.0824" stroke="black" stroke-width="0.5"/>
<path d="M4.39648 14.0479L7.67912 12.1176" stroke="black" stroke-width="0.5"/>
<path d="M5.26597 14.0527C5.26597 12.9507 4.53279 12.0527 3.63299 12.0527C2.73318 12.0527 2 12.9507 2 14.0527C2 15.1548 2.73318 16.0527 3.63299 16.0527C4.53279 16.0527 5.26597 15.1548 5.26597 14.0527Z" fill="#E0E0E0" stroke="black" stroke-width="0.5"/>
<path d="M13.6394 22.1064L9.9999 22.1064" stroke="black" stroke-width="0.5"/>
<path d="M13.5964 22.1049L10.043 21.1338" stroke="black" stroke-width="0.5"/>
<path d="M13.6035 22.1002L10.3209 20.1699" stroke="black" stroke-width="0.5"/>
<path d="M13.5964 22.1064L10.043 23.0758" stroke="black" stroke-width="0.5"/>
<path d="M13.6035 22.1104L10.3209 24.0406" stroke="black" stroke-width="0.5"/>
<path d="M12.734 22.1055C12.734 23.2075 13.4672 24.1055 14.367 24.1055C15.2668 24.1055 16 23.2075 16 22.1055C16 21.0034 15.2668 20.1055 14.367 20.1055C13.4672 20.1055 12.734 21.0034 12.734 22.1055Z" fill="#E0E0E0" stroke="black" stroke-width="0.5"/>
<path d="M4.3606 5.99902L8.0001 5.99902" stroke="black" stroke-width="0.5"/>
<path d="M4.40356 5.99961L7.95698 6.9707" stroke="black" stroke-width="0.5"/>
<path d="M4.39648 6.00528L7.67912 7.93555" stroke="black" stroke-width="0.5"/>
<path d="M4.40356 5.99902L7.95698 5.02964" stroke="black" stroke-width="0.5"/>
<path d="M4.39648 5.99512L7.67912 4.06485" stroke="black" stroke-width="0.5"/>
<path d="M5.26597 6C5.26597 4.89796 4.53279 4 3.63299 4C2.73318 4 2 4.89796 2 6C2 7.10204 2.73318 8 3.63299 8C4.53279 8 5.26597 7.10204 5.26597 6Z" fill="#E0E0E0" stroke="black" stroke-width="0.5"/>
<path d="M13.6394 30.1592L9.9999 30.1592" stroke="black" stroke-width="0.5"/>
<path d="M13.5964 30.1586L10.043 29.1875" stroke="black" stroke-width="0.5"/>
<path d="M13.6035 30.1529L10.3209 28.2227" stroke="black" stroke-width="0.5"/>
<path d="M13.5964 30.1592L10.043 31.1286" stroke="black" stroke-width="0.5"/>
<path d="M13.6035 30.1631L10.3209 32.0934" stroke="black" stroke-width="0.5"/>
<path d="M12.734 30.1582C12.734 31.2602 13.4672 32.1582 14.367 32.1582C15.2668 32.1582 16 31.2602 16 30.1582C16 29.0562 15.2668 28.1582 14.367 28.1582C13.4672 28.1582 12.734 29.0562 12.734 30.1582Z" fill="#E0E0E0" stroke="black" stroke-width="0.5"/>
</svg>
