<svg width="26" height="30" viewBox="0 0 26 30" fill="none" xmlns="http://www.w3.org/2000/svg">
<path d="M5.3208 26.7527H17.8509V26.2527V25.7527C16.9541 25.7527 16.2623 25.031 15.756 24.1044C15.5134 23.6604 15.3379 23.2119 15.2229 22.8718C15.1657 22.7026 15.1242 22.5622 15.0972 22.4653C15.0837 22.417 15.0739 22.3795 15.0676 22.3549L15.0608 22.3279L15.0594 22.3221L15.0593 22.3216L15.0593 22.3214L15.0592 22.3212L15.0592 22.3212L15.0592 22.3212L14.969 21.9355H14.6457L11.8278 21.0652L11.6848 21.0211L11.5411 21.0627L8.46013 21.9553L8.17907 22.0367L8.11251 22.3212L8.1125 22.3212L8.11247 22.3214L8.11241 22.3216L8.11229 22.3221L8.11088 22.3279L8.10413 22.3549C8.09786 22.3795 8.08806 22.417 8.07457 22.4653C8.04758 22.5622 8.006 22.7026 7.94878 22.8718C7.83378 23.2119 7.65838 23.6604 7.41576 24.1044C6.90945 25.031 6.21762 25.7527 5.3208 25.7527V26.2527V26.7527Z" fill="#E0E0E0" stroke="black"/>
<path d="M20.0277 29.5009H20.5277V29.0009V26.6872C20.5277 26.1667 20.1002 25.7539 19.5888 25.7539H3.7714C3.25995 25.7539 2.83252 26.1667 2.83252 26.6872V29.0009V29.5009H3.33252H20.0277Z" fill="#E0E0E0" stroke="black"/>
<path d="M22.4013 11.496L22.3882 11.496C22.3179 9.89157 21.9105 8.37552 21.2348 7.01876L24.8901 7.01876L25.3901 7.01876L25.3901 6.51876L25.3901 1.41674L25.3901 0.91674L24.8901 0.91674L11.7041 0.916739C11.6732 0.916739 11.6407 0.915536 11.5968 0.913826L11.5934 0.913691C11.5533 0.912127 11.5027 0.910156 11.4506 0.910156C5.39719 0.910155 0.499958 5.88003 0.499958 11.996C0.499957 18.112 5.39718 23.0819 11.4506 23.0819C17.5041 23.0819 22.4013 18.112 22.4013 11.996L22.4013 11.496Z" fill="#E0E0E0" stroke="black"/>
<path d="M24.9165 7.91665L25.4165 7.91665L25.4165 7.41665L25.4165 1L25.4165 0.5L24.9165 0.5L23.7498 0.5L23.2498 0.5L23.2498 1L23.2498 7.41665L23.2498 7.91665L23.7498 7.91665L24.9165 7.91665Z" fill="#E0E0E0" stroke="black"/>
<path d="M19.14 15.0616L18.5256 13.8983V10.9801L19.1379 9.82545C19.2322 9.6478 19.2256 9.43549 19.1247 9.26435L18.0604 7.44674C17.9595 7.27343 17.7751 7.16295 17.5732 7.15428L16.2434 7.09579L13.6847 5.63781L12.9715 4.52861C12.864 4.35963 12.6753 4.25781 12.4734 4.25781H10.3448C10.1429 4.25781 9.95421 4.35963 9.84669 4.52861L9.1335 5.63781L6.577 7.08929L5.24719 7.14778C5.0453 7.15645 4.86097 7.26693 4.76002 7.44025L3.69573 9.25785C3.59479 9.43116 3.5904 9.64347 3.68257 9.81895L4.297 10.9823V13.9004L3.68257 15.0638C3.58821 15.2414 3.59479 15.4537 3.69573 15.6249L4.76002 17.4425C4.86097 17.6158 5.0453 17.7263 5.24719 17.7349L6.577 17.7934L9.13569 19.2514L9.84888 20.3606C9.95641 20.5296 10.1451 20.6314 10.347 20.6314H12.4756C12.6775 20.6314 12.8662 20.5296 12.9737 20.3606L13.6869 19.2514L16.2456 17.7934L17.5754 17.7349C17.7773 17.7263 17.9616 17.6158 18.0626 17.4425L19.1269 15.6249C19.2278 15.4516 19.2322 15.2393 19.14 15.0638V15.0616ZM11.4113 17.1002C8.79995 17.1002 6.68233 15.014 6.68233 12.4381C6.68233 9.86227 8.79995 7.77604 11.4113 7.77604C14.0227 7.77604 16.1403 9.86227 16.1403 12.4381C16.1403 15.014 14.0227 17.1002 11.4113 17.1002Z" fill="black"/>
<path d="M11.411 14.9419C12.8108 14.9419 13.9456 13.8216 13.9456 12.4397C13.9456 11.0578 12.8108 9.9375 11.411 9.9375C10.0112 9.9375 8.87646 11.0578 8.87646 12.4397C8.87646 13.8216 10.0112 14.9419 11.411 14.9419Z" fill="black"/>
</svg>
