<svg width="27" height="30" viewBox="0 0 27 30" fill="none" xmlns="http://www.w3.org/2000/svg">
<path d="M6.23779 26.7527H18.7679V26.2527V25.7527C17.8711 25.7527 17.1793 25.031 16.673 24.1044C16.4303 23.6604 16.2549 23.2119 16.1399 22.8718C16.0827 22.7026 16.0411 22.5622 16.0142 22.4653C16.0007 22.417 15.9909 22.3795 15.9846 22.3549L15.9778 22.3279L15.9764 22.3221L15.9763 22.3216L15.9763 22.3214L15.9762 22.3212L15.9762 22.3212L15.9762 22.3212L15.886 21.9355H15.5627L12.7448 21.0652L12.6018 21.0211L12.4581 21.0627L9.37712 21.9553L9.09607 22.0367L9.02951 22.3212L9.02949 22.3212L9.02946 22.3214L9.0294 22.3216L9.02929 22.3221L9.02788 22.3279L9.02112 22.3549C9.01486 22.3795 9.00505 22.417 8.99156 22.4653C8.96457 22.5622 8.92299 22.7026 8.86578 22.8718C8.75077 23.2119 8.57537 23.6604 8.33275 24.1044C7.82645 25.031 7.13461 25.7527 6.23779 25.7527V26.2527V26.7527Z" fill="white" stroke="black"/>
<path d="M20.9446 29.5009H21.4446V29.0009V26.6872C21.4446 26.1667 21.0172 25.7539 20.5058 25.7539H4.6884C4.17695 25.7539 3.74951 26.1667 3.74951 26.6872V29.0009V29.5009H4.24951H20.9446Z" fill="white" stroke="black"/>
<path d="M23.3183 11.496L23.3052 11.496C23.2348 9.89157 22.8275 8.37552 22.1518 7.01876L25.8071 7.01876L26.3071 7.01876L26.3071 6.51876L26.3071 1.41674L26.3071 0.91674L25.8071 0.91674L12.6211 0.916739C12.5902 0.916739 12.5577 0.915536 12.5138 0.913826L12.5104 0.913691C12.4703 0.912127 12.4197 0.910156 12.3676 0.910156C6.31418 0.910155 1.41695 5.88003 1.41695 11.996C1.41695 18.112 6.31418 23.0819 12.3676 23.0819C18.4211 23.0819 23.3183 18.112 23.3183 11.996L23.3183 11.496Z" fill="white" stroke="black"/>
<path d="M25.8335 7.91665L26.3335 7.91665L26.3335 7.41665L26.3335 1L26.3335 0.5L25.8335 0.5L24.6668 0.5L24.1668 0.5L24.1668 1L24.1668 7.41665L24.1668 7.91665L24.6668 7.91665L25.8335 7.91665Z" fill="white" stroke="black"/>
<path d="M20.057 15.0616L19.4426 13.8983V10.9801L20.0548 9.82545C20.1492 9.6478 20.1426 9.43549 20.0417 9.26435L18.9774 7.44674C18.8764 7.27343 18.6921 7.16295 18.4902 7.15428L17.1604 7.09579L14.6017 5.63781L13.8885 4.52861C13.781 4.35963 13.5923 4.25781 13.3904 4.25781H11.2618C11.0599 4.25781 10.8712 4.35963 10.7637 4.52861L10.0505 5.63781L7.49399 7.08929L6.16418 7.14778C5.96229 7.15645 5.77796 7.26693 5.67702 7.44025L4.61272 9.25785C4.51178 9.43116 4.50739 9.64347 4.59956 9.81895L5.21399 10.9823V13.9004L4.59956 15.0638C4.5052 15.2414 4.51178 15.4537 4.61272 15.6249L5.67702 17.4425C5.77796 17.6158 5.96229 17.7263 6.16418 17.7349L7.49399 17.7934L10.0527 19.2514L10.7659 20.3606C10.8734 20.5296 11.0621 20.6314 11.264 20.6314H13.3926C13.5945 20.6314 13.7832 20.5296 13.8907 20.3606L14.6039 19.2514L17.1626 17.7934L18.4924 17.7349C18.6943 17.7263 18.8786 17.6158 18.9796 17.4425L20.0439 15.6249C20.1448 15.4516 20.1492 15.2393 20.057 15.0638V15.0616ZM12.3283 17.1002C9.71694 17.1002 7.59933 15.014 7.59933 12.4381C7.59933 9.86227 9.71694 7.77604 12.3283 7.77604C14.9397 7.77604 17.0573 9.86227 17.0573 12.4381C17.0573 15.014 14.9397 17.1002 12.3283 17.1002Z" fill="black"/>
<path d="M12.328 14.9419C13.7278 14.9419 14.8626 13.8216 14.8626 12.4397C14.8626 11.0578 13.7278 9.9375 12.328 9.9375C10.9282 9.9375 9.79346 11.0578 9.79346 12.4397C9.79346 13.8216 10.9282 14.9419 12.328 14.9419Z" fill="black"/>
</svg>
