<svg width="24" height="24" viewBox="0 0 24 24" fill="none" xmlns="http://www.w3.org/2000/svg">
<rect x="0.5" y="0.5" width="23" height="23" rx="5.5" fill="white" stroke="#333333"/>
<path fill-rule="evenodd" clip-rule="evenodd" d="M18.8644 16.6017C18.9532 16.4813 19 16.3437 19 16.2035C19 16.0634 18.9532 15.9258 18.8644 15.8053L12.8518 7.39861C12.7657 7.2775 12.6416 7.17687 12.4919 7.10688C12.3423 7.03689 12.1724 7.00002 11.9995 7C11.8266 6.99998 11.6567 7.0368 11.507 7.10675C11.3573 7.1767 11.2332 7.2773 11.147 7.39839L5.13427 15.8055C5.04636 15.9261 5 16.0636 5 16.2036C5 16.3436 5.04636 16.481 5.13427 16.6016C5.21986 16.7231 5.3439 16.824 5.49366 16.894C5.64343 16.964 5.81354 17.0005 5.98658 17L18.0118 17C18.185 17.0011 18.3554 16.9647 18.5053 16.8947C18.6552 16.8246 18.7792 16.7235 18.8644 16.6017Z" fill="black"/>
</svg>
