<svg width="36" height="40" viewBox="0 0 36 40" fill="none" xmlns="http://www.w3.org/2000/svg">
<path d="M7.69971 35.7707H24.7049V35.2707V34.7707C23.3822 34.7707 22.3976 33.7081 21.7051 32.4407C21.3693 31.8263 21.1274 31.2075 20.9692 30.7395C20.8904 30.5064 20.833 30.3128 20.7956 30.1786C20.777 30.1116 20.7633 30.0595 20.7545 30.025L20.7449 29.9865L20.7428 29.9778L20.7424 29.9763L20.7424 29.9761L20.7424 29.9761L20.7424 29.976L20.6521 29.5902H20.3281L16.4779 28.4012L16.335 28.357L16.1913 28.3987L12.0099 29.61L11.7289 29.6914L11.6623 29.976L11.6623 29.9761L11.6623 29.9761L11.6622 29.9763L11.6619 29.9778L11.6597 29.9865L11.6501 30.025C11.6413 30.0595 11.6277 30.1116 11.609 30.1786C11.5716 30.3128 11.5143 30.5064 11.4354 30.7395C11.2772 31.2075 11.0353 31.8263 10.6996 32.4407C10.007 33.7081 9.02248 34.7707 7.69971 34.7707V35.2707V35.7707Z" fill="#999999" stroke="black"/>
<path d="M27.6592 39.5015H28.1592V39.0015V35.8615C28.1592 35.2559 27.6612 34.7734 27.0636 34.7734H5.59709C4.99943 34.7734 4.50146 35.2559 4.50146 35.8615V39.0015V39.5015H5.00146H27.6592Z" fill="#999999" stroke="black"/>
<path d="M30.7006 15.4252L30.6895 15.4252C30.6138 13.1072 30.014 10.9236 29.0044 8.99172L34.2568 8.99172L34.7568 8.99172L34.7568 8.49172L34.7568 1.56753L34.7568 1.06753L34.2568 1.06753L16.3615 1.06753C16.3155 1.06753 16.2679 1.06574 16.2089 1.06344L16.2052 1.06329C16.1502 1.06115 16.0846 1.05859 16.0175 1.05859C7.90282 1.05859 1.33435 7.72133 1.33435 15.9252C1.33435 24.129 7.90281 30.7918 16.0175 30.7918C24.1321 30.7918 30.7006 24.129 30.7006 15.9252L30.7006 15.4252Z" fill="#999999" stroke="black"/>
<path d="M34.2915 10.2083L34.7915 10.2083L34.7915 9.70833L34.7915 1L34.7915 0.5L34.2915 0.5L32.7082 0.5L32.2082 0.5L32.2082 1L32.2082 9.70833L32.2082 10.2083L32.7082 10.2083L34.2915 10.2083Z" fill="#999999" stroke="black"/>
<path d="M26.4521 20.0842L25.6182 18.5054V14.5451L26.4491 12.978C26.5772 12.7369 26.5682 12.4487 26.4312 12.2165L24.9868 9.74972C24.8498 9.51451 24.5997 9.36457 24.3257 9.35281L22.5209 9.27343L19.0484 7.29473L18.0805 5.78939C17.9346 5.56006 17.6785 5.42188 17.4045 5.42188H14.5157C14.2417 5.42188 13.9856 5.56006 13.8396 5.78939L12.8717 7.29473L9.40219 9.2646L7.59744 9.34399C7.32345 9.35575 7.07328 9.50569 6.93629 9.7409L5.49188 12.2077C5.35489 12.4429 5.34893 12.731 5.47402 12.9691L6.3079 14.548V18.5083L5.47402 20.0872C5.34596 20.3283 5.35489 20.6164 5.49188 20.8487L6.93629 23.3154C7.07328 23.5506 7.32345 23.7006 7.59744 23.7123L9.40219 23.7917L12.8747 25.7704L13.8426 27.2757C13.9885 27.5051 14.2447 27.6433 14.5187 27.6433H17.4075C17.6814 27.6433 17.9376 27.5051 18.0835 27.2757L19.0514 25.7704L22.5239 23.7917L24.3287 23.7123C24.6027 23.7006 24.8528 23.5506 24.9898 23.3154L26.4342 20.8487C26.5712 20.6134 26.5772 20.3253 26.4521 20.0872V20.0842ZM15.9631 22.8509C12.4191 22.8509 9.54514 20.0195 9.54514 16.5237C9.54514 13.028 12.4191 10.1966 15.9631 10.1966C19.5071 10.1966 22.381 13.028 22.381 16.5237C22.381 20.0195 19.5071 22.8509 15.9631 22.8509Z" fill="black"/>
<path d="M15.9637 19.9206C17.8634 19.9206 19.4034 18.4002 19.4034 16.5247C19.4034 14.6493 17.8634 13.1289 15.9637 13.1289C14.064 13.1289 12.5239 14.6493 12.5239 16.5247C12.5239 18.4002 14.064 19.9206 15.9637 19.9206Z" fill="black"/>
</svg>
