<svg width="32" height="36" viewBox="0 0 32 36" fill="none" xmlns="http://www.w3.org/2000/svg">
<path d="M7.08252 32.1643H22.2977V31.6643V31.1643C21.1453 31.1643 20.2779 30.238 19.6598 29.107C19.3613 28.5607 19.146 28.01 19.0051 27.5932C18.9349 27.3857 18.8839 27.2134 18.8506 27.0941C18.834 27.0345 18.8219 26.9883 18.8141 26.9577L18.8057 26.9239L18.8038 26.9163L18.8036 26.9152L18.8035 26.915L18.8035 26.9149L18.8035 26.9149L18.7132 26.5291H18.3895L14.9522 25.4676L14.8093 25.4234L14.6656 25.4651L10.9244 26.5489L10.6433 26.6303L10.5768 26.9149L10.5767 26.9149L10.5767 26.915L10.5767 26.9152L10.5764 26.9163L10.5746 26.9239L10.5661 26.9577C10.5583 26.9883 10.5462 27.0345 10.5296 27.0941C10.4964 27.2134 10.4453 27.3857 10.3752 27.5932C10.2342 28.01 10.0189 28.5607 9.72043 29.107C9.10238 30.238 8.23492 31.1643 7.08252 31.1643V31.6643V32.1643Z" fill="#999999" stroke="black"/>
<path d="M24.9407 35.4997H25.4407V34.9997V32.1902C25.4407 31.6186 24.9709 31.1641 24.4078 31.1641H5.2009C4.63772 31.1641 4.16797 31.6186 4.16797 32.1902V34.9997V35.4997H4.66797H24.9407Z" fill="#999999" stroke="black"/>
<path d="M27.715 13.8543L27.7032 13.8543C27.6294 11.8219 27.1068 9.90545 26.2313 8.20333L30.8442 8.20333L31.3442 8.20333L31.3442 7.70333L31.3442 1.50799L31.3442 1.00799L30.8442 1.00799L14.8326 1.00799C14.7927 1.00799 14.7511 1.00644 14.6982 1.00438L14.6945 1.00423C14.6455 1.00232 14.5859 0.999999 14.5248 0.999999C7.23462 0.999999 1.33465 6.9856 1.33465 14.3543C1.33465 21.723 7.23462 27.7086 14.5248 27.7086C21.815 27.7086 27.715 21.723 27.715 14.3543L27.715 13.8543Z" fill="#999999" stroke="black"/>
<path d="M30.875 9.29167L31.375 9.29167L31.375 8.79167L31.375 1L31.375 0.5L30.875 0.5L29.4583 0.5L28.9583 0.5L28.9583 1L28.9583 8.79167L28.9583 9.29167L29.4583 9.29167L30.875 9.29167Z" fill="#999999" stroke="black"/>
<path d="M23.8608 18.076L23.1147 16.6633V13.1199L23.8581 11.7177C23.9727 11.502 23.9647 11.2442 23.8421 11.0364L22.5498 8.82932C22.4272 8.61887 22.2034 8.48471 21.9582 8.47418L20.3434 8.40316L17.2364 6.63274L16.3704 5.28586C16.2399 5.08067 16.0107 4.95703 15.7656 4.95703H13.1808C12.9357 4.95703 12.7065 5.08067 12.576 5.28586L11.7099 6.63274L8.60562 8.39526L6.99083 8.46629C6.74568 8.47681 6.52185 8.61098 6.39928 8.82143L5.10692 11.0285C4.98435 11.239 4.97902 11.4968 5.09093 11.7099L5.83704 13.1225V16.666L5.09093 18.0786C4.97635 18.2943 4.98435 18.5521 5.10692 18.7599L6.39928 20.967C6.52185 21.1775 6.74568 21.3117 6.99083 21.3222L8.60562 21.3932L11.7126 23.1636L12.5786 24.5105C12.7092 24.7157 12.9384 24.8393 13.1835 24.8393H15.7682C16.0134 24.8393 16.2425 24.7157 16.3731 24.5105L17.2391 23.1636L20.3461 21.3932L21.9609 21.3222C22.206 21.3117 22.4299 21.1775 22.5524 20.967L23.8448 18.7599C23.9674 18.5495 23.9727 18.2917 23.8608 18.0786V18.076ZM14.4759 20.5514C11.3049 20.5514 8.73352 18.0181 8.73352 14.8903C8.73352 11.7625 11.3049 9.22917 14.4759 9.22917C17.6468 9.22917 20.2182 11.7625 20.2182 14.8903C20.2182 18.0181 17.6468 20.5514 14.4759 20.5514Z" fill="black"/>
<path d="M14.4766 17.9322C16.1764 17.9322 17.5543 16.5719 17.5543 14.8938C17.5543 13.2158 16.1764 11.8555 14.4766 11.8555C12.7769 11.8555 11.3989 13.2158 11.3989 14.8938C11.3989 16.5719 12.7769 17.9322 14.4766 17.9322Z" fill="black"/>
</svg>
