<svg width="24" height="24" viewBox="0 0 24 24" fill="none" xmlns="http://www.w3.org/2000/svg">
<path d="M19.9181 10.455C19.8445 10.4431 19.7699 10.4376 19.6953 10.4385H6.9967L7.2736 10.3098C7.54425 10.1817 7.79048 10.0073 8.00125 9.7946L11.5623 6.23358C12.0313 5.78588 12.1101 5.06566 11.749 4.52713C11.3288 3.95325 10.5229 3.82865 9.94903 4.24886C9.90266 4.28283 9.85859 4.31986 9.81718 4.3597L3.37772 10.7992C2.87448 11.3018 2.87404 12.1173 3.37672 12.6205C3.37704 12.6208 3.3774 12.6212 3.37772 12.6215L9.81718 19.061C10.3208 19.5632 11.1363 19.5621 11.6385 19.0584C11.6781 19.0188 11.715 18.9766 11.749 18.9322C12.1101 18.3937 12.0313 17.6734 11.5623 17.2257L8.00769 13.6583C7.81874 13.4691 7.60148 13.3105 7.36375 13.1882L6.97738 13.0143H19.6245C20.2824 13.0388 20.8596 12.5792 20.9832 11.9325C21.0971 11.2304 20.6202 10.5689 19.9181 10.455Z" fill="black"/>
</svg>
