<svg width="19" height="17" viewBox="0 0 19 17" fill="none" xmlns="http://www.w3.org/2000/svg">
<path d="M1.44545 9.0357L4.68674 14.9605C4.73858 15.0551 4.8161 15.1332 4.91037 15.1857C5.00463 15.2382 5.1118 15.263 5.21954 15.2572C5.32727 15.2514 5.43119 15.2154 5.51932 15.1531C5.60745 15.0909 5.67621 15.005 5.71767 14.9054L6.52749 12.9566C6.54056 12.925 6.54639 12.891 6.54454 12.8569C6.54269 12.8228 6.53321 12.7895 6.5168 12.7596L4.28587 8.68158C4.2695 8.65161 4.24661 8.6257 4.2189 8.60575C4.19118 8.58581 4.15934 8.57234 4.12573 8.56634L2.04786 8.19727C1.94162 8.17847 1.83223 8.19006 1.73229 8.23071C1.63235 8.27135 1.54593 8.33941 1.48297 8.42703C1.42002 8.51465 1.3831 8.61827 1.37646 8.72595C1.36982 8.83364 1.39374 8.94101 1.44545 9.0357ZM7.86219 12.8419L4.94211 7.50422C4.75458 7.25355 4.62797 6.96267 4.5723 6.6546C4.51664 6.34653 4.53346 6.02973 4.62142 5.72929C4.70938 5.42884 4.86607 5.153 5.07909 4.92359C5.29211 4.69418 5.5556 4.51751 5.84872 4.40756L11.8536 1.12247C12.1043 0.934938 12.3952 0.808328 12.7032 0.752666C13.0113 0.697004 13.3281 0.713819 13.6285 0.80178C13.929 0.889741 14.2048 1.04643 14.4342 1.25945C14.6637 1.47247 14.8403 1.73596 14.9503 2.02908L17.8704 7.36676C18.0579 7.61743 18.1845 7.90832 18.2402 8.21638C18.2958 8.52445 18.279 8.84125 18.191 9.1417C18.1031 9.44214 17.9464 9.71799 17.7334 9.94739C17.5204 10.1768 17.2569 10.3535 16.9637 10.4634L10.9589 13.7485C10.7082 13.936 10.4173 14.0627 10.1092 14.1183C9.80116 14.174 9.48436 14.1572 9.18392 14.0692C8.88347 13.9812 8.60763 13.8246 8.37822 13.6115C8.14881 13.3985 7.97214 13.135 7.86219 12.8419Z" fill="black"/>
</svg>
