<svg width="26" height="26" viewBox="0 0 26 26" fill="none" xmlns="http://www.w3.org/2000/svg">
<circle cx="13" cy="13" r="12.5" fill="white" stroke="black"/>
<path d="M24.9943 13C24.9943 12.9346 25 12.872 25 12.8066C25 6.28625 19.6262 1 12.9985 1V13H24.9943Z" fill="#CCCCCC"/>
<path d="M24.9944 13C24.9944 13.0654 25 13.128 25 13.1934C25 19.7137 19.6291 25 13.0015 25V13H24.9972H24.9944Z" fill="#FEF546"/>
<path d="M1.00569 13C1.00569 12.9346 1 12.872 1 12.8066C1 6.28625 6.37093 1 12.9986 1V13H1.00569Z" fill="#FEF546"/>
<path d="M1.00569 13C1.00569 13.0654 1 13.128 1 13.1934C1 19.7137 6.37093 25 12.9986 25V13H1.00284H1.00569Z" fill="#CCCCCC"/>
<path d="M12.9999 17.5604C15.5184 17.5604 17.5599 15.5188 17.5599 13.0004C17.5599 10.482 15.5184 8.44043 12.9999 8.44043C10.4815 8.44043 8.43994 10.482 8.43994 13.0004C8.43994 15.5188 10.4815 17.5604 12.9999 17.5604Z" fill="black"/>
</svg>
