<svg width="12" height="12" viewBox="0 0 12 12" fill="none" xmlns="http://www.w3.org/2000/svg">
<path d="M4.07143 0.642857C4.07143 0.286607 3.78482 0 3.42857 0C3.07232 0 2.78571 0.286607 2.78571 0.642857V1.71429H1.71429C0.76875 1.71429 0 2.48304 0 3.42857V3.85714V5.14286V10.2857C0 11.2312 0.76875 12 1.71429 12H10.2857C11.2312 12 12 11.2312 12 10.2857V5.14286V3.85714V3.42857C12 2.48304 11.2312 1.71429 10.2857 1.71429H9.21429V0.642857C9.21429 0.286607 8.92768 0 8.57143 0C8.21518 0 7.92857 0.286607 7.92857 0.642857V1.71429H4.07143V0.642857ZM1.28571 5.14286H10.7143V10.2857C10.7143 10.5214 10.5214 10.7143 10.2857 10.7143H1.71429C1.47857 10.7143 1.28571 10.5214 1.28571 10.2857V5.14286Z" fill="black"/>
</svg>
