<svg width="42" height="37" viewBox="0 0 42 37" fill="none" xmlns="http://www.w3.org/2000/svg">
<path d="M2.92032 19.8549L10.0427 32.874C10.1566 33.0819 10.3269 33.2534 10.5341 33.3687C10.7412 33.4841 10.9767 33.5385 11.2134 33.5259C11.4502 33.5132 11.6785 33.434 11.8722 33.2972C12.0658 33.1604 12.2169 32.9717 12.308 32.7529L14.0875 28.4706C14.1162 28.4012 14.129 28.3264 14.125 28.2514C14.1209 28.1765 14.1001 28.1035 14.064 28.0377L9.16179 19.0768C9.12583 19.0109 9.07554 18.954 9.01464 18.9101C8.95373 18.8663 8.88377 18.8367 8.8099 18.8235L4.24404 18.0125C4.01059 17.9712 3.77022 17.9967 3.55061 18.086C3.33101 18.1753 3.1411 18.3249 3.00276 18.5174C2.86443 18.7099 2.78329 18.9376 2.76871 19.1742C2.75413 19.4109 2.80668 19.6468 2.92032 19.8549ZM17.0203 28.2186L10.6038 16.4896C10.1917 15.9388 9.91352 15.2996 9.79121 14.6227C9.6689 13.9458 9.70585 13.2496 9.89913 12.5894C10.0924 11.9292 10.4367 11.3231 10.9048 10.819C11.3729 10.3149 11.9519 9.92669 12.596 9.68509L25.791 2.4665C26.3418 2.05442 26.981 1.7762 27.658 1.65389C28.3349 1.53158 29.031 1.56853 29.6912 1.76182C30.3514 1.9551 30.9576 2.29941 31.4617 2.76749C31.9658 3.23558 32.354 3.81458 32.5956 4.45866L39.0121 16.1876C39.4242 16.7384 39.7024 17.3776 39.8247 18.0545C39.947 18.7315 39.9101 19.4276 39.7168 20.0878C39.5235 20.748 39.1792 21.3541 38.7111 21.8582C38.243 22.3623 37.664 22.7505 37.0199 22.9921L23.8249 30.2107C23.2741 30.6228 22.6349 30.901 21.9579 31.0233C21.281 31.1456 20.5849 31.1087 19.9247 30.9154C19.2645 30.7221 18.6584 30.3778 18.1543 29.9097C17.6502 29.4417 17.2619 28.8627 17.0203 28.2186Z" fill="black"/>
</svg>
