<svg width="42" height="42" viewBox="0 0 42 42" fill="none" xmlns="http://www.w3.org/2000/svg">
<circle cx="21" cy="21" r="20.5" fill="white" stroke="black"/>
<g filter="url(#filter0_i_286_20236)">
<path d="M40.9905 21C40.9905 20.891 40.9999 20.7867 40.9999 20.6777C40.9999 9.81042 32.0436 1 20.9976 1V21H40.9905Z" fill="white"/>
</g>
<path d="M40.9906 21C40.9906 21.109 41.0001 21.2133 41.0001 21.3223C41.0001 32.1896 32.0485 41 21.0024 41V21H40.9953H40.9906Z" fill="white"/>
<g filter="url(#filter1_i_286_20236)">
<path d="M1.00948 21C1.00948 20.891 1 20.7867 1 20.6777C1 9.81042 9.95155 1 20.9976 1V21H1.00948Z" fill="white"/>
</g>
<g filter="url(#filter2_i_286_20236)">
<path d="M1.00948 21C1.00948 21.109 1 21.2133 1 21.3223C1 32.1896 9.95155 41 20.9976 41V21H1.00474H1.00948Z" fill="white"/>
</g>
<path d="M20.9999 28.5999C25.1973 28.5999 28.5999 25.1973 28.5999 20.9999C28.5999 16.8025 25.1973 13.3999 20.9999 13.3999C16.8025 13.3999 13.3999 16.8025 13.3999 20.9999C13.3999 25.1973 16.8025 28.5999 20.9999 28.5999Z" fill="black"/>
<defs>
<filter id="filter0_i_286_20236" x="20.9976" y="1" width="20.0024" height="20" filterUnits="userSpaceOnUse" color-interpolation-filters="sRGB">
<feFlood flood-opacity="0" result="BackgroundImageFix"/>
<feBlend mode="normal" in="SourceGraphic" in2="BackgroundImageFix" result="shape"/>
<feColorMatrix in="SourceAlpha" type="matrix" values="0 0 0 0 0 0 0 0 0 0 0 0 0 0 0 0 0 0 127 0" result="hardAlpha"/>
<feOffset dy="-1"/>
<feComposite in2="hardAlpha" operator="arithmetic" k2="-1" k3="1"/>
<feColorMatrix type="matrix" values="0 0 0 0 0.398112 0 0 0 0 0.398112 0 0 0 0 0.398112 0 0 0 1 0"/>
<feBlend mode="normal" in2="shape" result="effect1_innerShadow_286_20236"/>
</filter>
<filter id="filter1_i_286_20236" x="1" y="1" width="19.9976" height="20" filterUnits="userSpaceOnUse" color-interpolation-filters="sRGB">
<feFlood flood-opacity="0" result="BackgroundImageFix"/>
<feBlend mode="normal" in="SourceGraphic" in2="BackgroundImageFix" result="shape"/>
<feColorMatrix in="SourceAlpha" type="matrix" values="0 0 0 0 0 0 0 0 0 0 0 0 0 0 0 0 0 0 127 0" result="hardAlpha"/>
<feOffset dx="-1" dy="-1"/>
<feComposite in2="hardAlpha" operator="arithmetic" k2="-1" k3="1"/>
<feColorMatrix type="matrix" values="0 0 0 0 0.398112 0 0 0 0 0.398112 0 0 0 0 0.398112 0 0 0 1 0"/>
<feBlend mode="normal" in2="shape" result="effect1_innerShadow_286_20236"/>
</filter>
<filter id="filter2_i_286_20236" x="1" y="21" width="19.9976" height="20" filterUnits="userSpaceOnUse" color-interpolation-filters="sRGB">
<feFlood flood-opacity="0" result="BackgroundImageFix"/>
<feBlend mode="normal" in="SourceGraphic" in2="BackgroundImageFix" result="shape"/>
<feColorMatrix in="SourceAlpha" type="matrix" values="0 0 0 0 0 0 0 0 0 0 0 0 0 0 0 0 0 0 127 0" result="hardAlpha"/>
<feOffset dx="-1"/>
<feComposite in2="hardAlpha" operator="arithmetic" k2="-1" k3="1"/>
<feColorMatrix type="matrix" values="0 0 0 0 0.398112 0 0 0 0 0.398112 0 0 0 0 0.398112 0 0 0 1 0"/>
<feBlend mode="normal" in2="shape" result="effect1_innerShadow_286_20236"/>
</filter>
</defs>
</svg>
