<svg width="9" height="9" viewBox="0 0 9 9" fill="none" xmlns="http://www.w3.org/2000/svg">
<circle cx="4.5" cy="4.5" r="4" fill="white" stroke="black"/>
<path d="M7.99827 4.5C7.99827 4.48092 7.99993 4.46268 7.99993 4.4436C7.99993 2.54182 6.43258 1 4.49951 1V4.5H7.99827Z" fill="#CCCCCC"/>
<path d="M7.99842 4.5C7.99842 4.51908 8.00008 4.53732 8.00008 4.5564C8.00008 6.45817 6.43355 8 4.50049 8V4.5H7.99925H7.99842Z" fill="#FEF546"/>
<path d="M1.00166 4.5C1.00166 4.48092 1 4.46268 1 4.4436C1 2.54182 2.56652 1 4.49959 1V4.5H1.00166Z" fill="#FEF546"/>
<path d="M1.00166 4.5C1.00166 4.51908 1 4.53732 1 4.5564C1 6.45817 2.56652 8 4.49959 8V4.5H1.00083H1.00166Z" fill="#CCCCCC"/>
<path d="M4.49992 5.83017C5.23446 5.83017 5.82992 5.23471 5.82992 4.50017C5.82992 3.76563 5.23446 3.17017 4.49992 3.17017C3.76538 3.17017 3.16992 3.76563 3.16992 4.50017C3.16992 5.23471 3.76538 5.83017 4.49992 5.83017Z" fill="black"/>
</svg>
