<svg width="12" height="12" viewBox="0 0 12 12" fill="none" xmlns="http://www.w3.org/2000/svg">
<circle cx="6.3457" cy="5.51611" r="5" fill="white" stroke="black"/>
<path d="M10.8441 5.51611C10.8441 5.49159 10.8462 5.46813 10.8462 5.4436C10.8462 2.99846 8.83107 1.01611 6.3457 1.01611V5.51611H10.8441Z" fill="#CCCCCC"/>
<path d="M10.843 5.51611C10.843 5.54064 10.8452 5.5641 10.8452 5.58863C10.8452 8.03377 8.83107 10.0161 6.3457 10.0161V5.51611H10.8441H10.843Z" fill="#999999"/>
<path d="M1.84784 5.51611C1.84784 5.49159 1.8457 5.46813 1.8457 5.4436C1.8457 2.99846 3.8598 1.01611 6.34517 1.01611V5.51611H1.84784Z" fill="#999999"/>
<path d="M1.84784 5.51611C1.84784 5.54064 1.8457 5.5641 1.8457 5.58863C1.8457 8.03377 3.8598 10.0161 6.34517 10.0161V5.51611H1.84677H1.84784Z" fill="#CCCCCC"/>
<path d="M6.34477 7.22664C7.28917 7.22664 8.05477 6.46105 8.05477 5.51664C8.05477 4.57223 7.28917 3.80664 6.34477 3.80664C5.40036 3.80664 4.63477 4.57223 4.63477 5.51664C4.63477 6.46105 5.40036 7.22664 6.34477 7.22664Z" fill="black"/>
</svg>
