<svg width="6" height="6" viewBox="0 0 6 6" fill="none" xmlns="http://www.w3.org/2000/svg">
<circle cx="3" cy="3" r="2.5" fill="white" stroke="black"/>
<path d="M4.99905 3C4.99905 2.9891 4.99999 2.97867 4.99999 2.96777C4.99999 1.88104 4.10436 1 2.99976 1V3H4.99905Z" fill="#CCCCCC"/>
<path d="M4.99906 3C4.99906 3.0109 5.00001 3.02133 5.00001 3.03223C5.00001 4.11896 4.10485 5 3.00024 5V3H4.99953H4.99906Z" fill="#FEF546"/>
<path d="M1.00095 3C1.00095 2.9891 1 2.97867 1 2.96777C1 1.88104 1.89516 1 2.99976 1V3H1.00095Z" fill="#FEF546"/>
<path d="M1.00095 3C1.00095 3.0109 1 3.02133 1 3.03223C1 4.11896 1.89516 5 2.99976 5V3H1.00047H1.00095Z" fill="#CCCCCC"/>
<path d="M2.99999 3.75999C3.41973 3.75999 3.75999 3.41973 3.75999 2.99999C3.75999 2.58025 3.41973 2.23999 2.99999 2.23999C2.58025 2.23999 2.23999 2.58025 2.23999 2.99999C2.23999 3.41973 2.58025 3.75999 2.99999 3.75999Z" fill="black"/>
</svg>
