<svg width="8" height="8" viewBox="0 0 8 8" fill="none" xmlns="http://www.w3.org/2000/svg">
<circle cx="4.3457" cy="3.76611" r="3" fill="white" stroke="black"/>
<path d="M6.84482 3.76611C6.84482 3.75249 6.846 3.73945 6.846 3.72583C6.846 2.36742 5.72646 1.26611 4.3457 1.26611V3.76611H6.84482Z" fill="#CCCCCC"/>
<path d="M6.84422 3.76611C6.84422 3.77974 6.84541 3.79277 6.84541 3.8064C6.84541 5.16481 5.72646 6.26611 4.3457 6.26611V3.76611H6.84482H6.84422Z" fill="#E0E0E0"/>
<path d="M1.84689 3.76611C1.84689 3.75249 1.8457 3.73945 1.8457 3.72583C1.8457 2.36742 2.96465 1.26611 4.34541 1.26611V3.76611H1.84689Z" fill="#E0E0E0"/>
<path d="M1.84689 3.76611C1.84689 3.77974 1.8457 3.79277 1.8457 3.8064C1.8457 5.16481 2.96465 6.26611 4.34541 6.26611V3.76611H1.8463H1.84689Z" fill="#CCCCCC"/>
<path d="M4.34648 4.71641C4.87116 4.71641 5.29648 4.29108 5.29648 3.76641C5.29648 3.24174 4.87116 2.81641 4.34648 2.81641C3.82181 2.81641 3.39648 3.24174 3.39648 3.76641C3.39648 4.29108 3.82181 4.71641 4.34648 4.71641Z" fill="black"/>
</svg>
