<svg width="12" height="12" viewBox="0 0 12 12" fill="none" xmlns="http://www.w3.org/2000/svg">
<circle cx="6.47266" cy="5.51611" r="5" fill="white" stroke="black"/>
<path d="M10.9711 5.51611C10.9711 5.49159 10.9732 5.46813 10.9732 5.4436C10.9732 2.99846 8.95803 1.01611 6.47266 1.01611V5.51611H10.9711Z" fill="#CCCCCC"/>
<path d="M10.97 5.51611C10.97 5.54064 10.9721 5.5641 10.9721 5.58863C10.9721 8.03377 8.95803 10.0161 6.47266 10.0161V5.51611H10.9711H10.97Z" fill="white"/>
<path d="M1.97479 5.51611C1.97479 5.49159 1.97266 5.46813 1.97266 5.4436C1.97266 2.99846 3.98675 1.01611 6.47212 1.01611V5.51611H1.97479Z" fill="white"/>
<path d="M1.97479 5.51611C1.97479 5.54064 1.97266 5.5641 1.97266 5.58863C1.97266 8.03377 3.98675 10.0161 6.47212 10.0161V5.51611H1.97372H1.97479Z" fill="#CCCCCC"/>
<path d="M6.47172 7.22664C7.41613 7.22664 8.18172 6.46105 8.18172 5.51664C8.18172 4.57223 7.41613 3.80664 6.47172 3.80664C5.52731 3.80664 4.76172 4.57223 4.76172 5.51664C4.76172 6.46105 5.52731 7.22664 6.47172 7.22664Z" fill="black"/>
</svg>
