<svg width="122" height="122" viewBox="0 0 122 122" fill="none" xmlns="http://www.w3.org/2000/svg">
<circle cx="61" cy="61" r="60.5" fill="#0178D5" stroke="black"/>
<g filter="url(#filter0_i_1743_30942)">
<path d="M120.971 61C120.971 60.673 121 60.3602 121 60.0331C121 27.4313 94.1309 1 60.9927 1V61H120.971Z" fill="#56AFF4"/>
</g>
<path d="M120.972 61C120.972 61.327 121 61.6398 121 61.9668C121 94.5687 94.1456 121 61.0073 121V61H120.986H120.972Z" fill="#56AFF4"/>
<g filter="url(#filter1_i_1743_30942)">
<path d="M1.02843 61C1.02843 60.673 1 60.3602 1 60.0331C1 27.4313 27.8546 1 60.9929 1V61H1.02843Z" fill="#56AFF4"/>
</g>
<g filter="url(#filter2_i_1743_30942)">
<path d="M1.02843 61C1.02843 61.327 1 61.6398 1 61.9668C1 94.5687 27.8546 121 60.9929 121V61H1.01422H1.02843Z" fill="#56AFF4"/>
</g>
<path d="M60.9997 83.7997C73.5918 83.7997 83.7997 73.5918 83.7997 60.9997C83.7997 48.4076 73.5918 38.1997 60.9997 38.1997C48.4076 38.1997 38.1997 48.4076 38.1997 60.9997C38.1997 73.5918 48.4076 83.7997 60.9997 83.7997Z" fill="black"/>
<defs>
<filter id="filter0_i_1743_30942" x="60.9927" y="1" width="60.0071" height="60" filterUnits="userSpaceOnUse" color-interpolation-filters="sRGB">
<feFlood flood-opacity="0" result="BackgroundImageFix"/>
<feBlend mode="normal" in="SourceGraphic" in2="BackgroundImageFix" result="shape"/>
<feColorMatrix in="SourceAlpha" type="matrix" values="0 0 0 0 0 0 0 0 0 0 0 0 0 0 0 0 0 0 127 0" result="hardAlpha"/>
<feOffset dy="-1"/>
<feComposite in2="hardAlpha" operator="arithmetic" k2="-1" k3="1"/>
<feColorMatrix type="matrix" values="0 0 0 0 0.398112 0 0 0 0 0.398112 0 0 0 0 0.398112 0 0 0 1 0"/>
<feBlend mode="normal" in2="shape" result="effect1_innerShadow_1743_30942"/>
</filter>
<filter id="filter1_i_1743_30942" x="1" y="1" width="59.9929" height="60" filterUnits="userSpaceOnUse" color-interpolation-filters="sRGB">
<feFlood flood-opacity="0" result="BackgroundImageFix"/>
<feBlend mode="normal" in="SourceGraphic" in2="BackgroundImageFix" result="shape"/>
<feColorMatrix in="SourceAlpha" type="matrix" values="0 0 0 0 0 0 0 0 0 0 0 0 0 0 0 0 0 0 127 0" result="hardAlpha"/>
<feOffset dx="-1" dy="-1"/>
<feComposite in2="hardAlpha" operator="arithmetic" k2="-1" k3="1"/>
<feColorMatrix type="matrix" values="0 0 0 0 0.398112 0 0 0 0 0.398112 0 0 0 0 0.398112 0 0 0 1 0"/>
<feBlend mode="normal" in2="shape" result="effect1_innerShadow_1743_30942"/>
</filter>
<filter id="filter2_i_1743_30942" x="1" y="61" width="59.9929" height="60" filterUnits="userSpaceOnUse" color-interpolation-filters="sRGB">
<feFlood flood-opacity="0" result="BackgroundImageFix"/>
<feBlend mode="normal" in="SourceGraphic" in2="BackgroundImageFix" result="shape"/>
<feColorMatrix in="SourceAlpha" type="matrix" values="0 0 0 0 0 0 0 0 0 0 0 0 0 0 0 0 0 0 127 0" result="hardAlpha"/>
<feOffset dx="-1"/>
<feComposite in2="hardAlpha" operator="arithmetic" k2="-1" k3="1"/>
<feColorMatrix type="matrix" values="0 0 0 0 0.398112 0 0 0 0 0.398112 0 0 0 0 0.398112 0 0 0 1 0"/>
<feBlend mode="normal" in2="shape" result="effect1_innerShadow_1743_30942"/>
</filter>
</defs>
</svg>
