<svg width="12" height="12" viewBox="0 0 12 12" fill="none" xmlns="http://www.w3.org/2000/svg">
<circle cx="5.8457" cy="5.51611" r="5" fill="white" stroke="black"/>
<path d="M10.3441 5.51611C10.3441 5.49159 10.3462 5.46813 10.3462 5.4436C10.3462 2.99846 8.33107 1.01611 5.8457 1.01611V5.51611H10.3441Z" fill="#CCCCCC"/>
<path d="M10.343 5.51611C10.343 5.54064 10.3452 5.5641 10.3452 5.58863C10.3452 8.03377 8.33107 10.0161 5.8457 10.0161V5.51611H10.3441H10.343Z" fill="#E0E0E0"/>
<path d="M1.34784 5.51611C1.34784 5.49159 1.3457 5.46813 1.3457 5.4436C1.3457 2.99846 3.3598 1.01611 5.84517 1.01611V5.51611H1.34784Z" fill="#E0E0E0"/>
<path d="M1.34784 5.51611C1.34784 5.54064 1.3457 5.5641 1.3457 5.58863C1.3457 8.03377 3.3598 10.0161 5.84517 10.0161V5.51611H1.34677H1.34784Z" fill="#CCCCCC"/>
<path d="M5.84477 7.22664C6.78917 7.22664 7.55477 6.46105 7.55477 5.51664C7.55477 4.57223 6.78917 3.80664 5.84477 3.80664C4.90036 3.80664 4.13477 4.57223 4.13477 5.51664C4.13477 6.46105 4.90036 7.22664 5.84477 7.22664Z" fill="black"/>
</svg>
