<svg width="32" height="32" viewBox="0 0 32 32" fill="none" xmlns="http://www.w3.org/2000/svg">
<circle cx="16" cy="16" r="15.5" fill="white" stroke="black"/>
<path d="M30.9947 16C30.9947 15.9182 31.0018 15.84 31.0018 15.7583C31.0018 7.60782 24.2846 1 16 1V16H30.9947Z" fill="#CCCCCC"/>
<path d="M30.9911 16C30.9911 16.0818 30.9982 16.16 30.9982 16.2417C30.9982 24.3922 24.2846 31 16 31V16H30.9947H30.9911Z" fill="#FA3232"/>
<path d="M1.00711 16C1.00711 15.9182 1 15.84 1 15.7583C1 7.60782 7.71366 1 15.9982 1V16H1.00711Z" fill="#FA3232"/>
<path d="M1.00711 16C1.00711 16.0818 1 16.16 1 16.2417C1 24.3922 7.71366 31 15.9982 31V16H1.00355H1.00711Z" fill="#CCCCCC"/>
<path d="M16.0008 21.7008C19.1488 21.7008 21.7008 19.1488 21.7008 16.0008C21.7008 12.8528 19.1488 10.3008 16.0008 10.3008C12.8528 10.3008 10.3008 12.8528 10.3008 16.0008C10.3008 19.1488 12.8528 21.7008 16.0008 21.7008Z" fill="black"/>
</svg>
