<svg width="13" height="13" viewBox="0 0 13 13" fill="none" xmlns="http://www.w3.org/2000/svg">
<circle cx="6.5" cy="6.5" r="6" fill="white" stroke="black"/>
<path d="M11.9973 6.5C11.9973 6.47002 11.9999 6.44135 11.9999 6.41137C11.9999 3.42287 9.53694 1 6.49927 1V6.5H11.9973Z" fill="#CCCCCC"/>
<path d="M11.9975 6.5C11.9975 6.52998 12.0001 6.55865 12.0001 6.58863C12.0001 9.57713 9.53841 12 6.50073 12V6.5H11.9988H11.9975Z" fill="#FEF546"/>
<path d="M1.00261 6.5C1.00261 6.47002 1 6.44135 1 6.41137C1 3.42287 3.46168 1 6.49935 1V6.5H1.00261Z" fill="#FEF546"/>
<path d="M1.00261 6.5C1.00261 6.52998 1 6.55865 1 6.58863C1 9.57713 3.46168 12 6.49935 12V6.5H1.0013H1.00261Z" fill="#CCCCCC"/>
<path d="M6.49991 8.58991C7.65419 8.58991 8.58991 7.65419 8.58991 6.49991C8.58991 5.34564 7.65419 4.40991 6.49991 4.40991C5.34564 4.40991 4.40991 5.34564 4.40991 6.49991C4.40991 7.65419 5.34564 8.58991 6.49991 8.58991Z" fill="black"/>
</svg>
