<svg width="17" height="17" viewBox="0 0 17 17" fill="none" xmlns="http://www.w3.org/2000/svg">
<circle cx="8.5" cy="8.5" r="8" fill="white" stroke="black"/>
<path d="M15.9966 8.5C15.9966 8.45912 16.0002 8.42002 16.0002 8.37914C16.0002 4.30391 12.6416 1 8.49927 1V8.5H15.9966Z" fill="#CCCCCC"/>
<path d="M15.9963 8.5C15.9963 8.54088 15.9998 8.57998 15.9998 8.62085C15.9998 12.6961 12.643 16 8.50073 16V8.5H15.9981H15.9963Z" fill="white"/>
<path d="M1.00355 8.5C1.00355 8.45912 1 8.42002 1 8.37914C1 4.30391 4.35683 1 8.49911 1V8.5H1.00355Z" fill="white"/>
<path d="M1.00355 8.5C1.00355 8.54088 1 8.57998 1 8.62085C1 12.6961 4.35683 16 8.49911 16V8.5H1.00178H1.00355Z" fill="#CCCCCC"/>
<path d="M8.50015 11.3501C10.0742 11.3501 11.3501 10.0742 11.3501 8.50015C11.3501 6.92614 10.0742 5.65015 8.50015 5.65015C6.92613 5.65015 5.65015 6.92614 5.65015 8.50015C5.65015 10.0742 6.92613 11.3501 8.50015 11.3501Z" fill="black"/>
</svg>
