<svg width="8" height="8" viewBox="0 0 8 8" fill="none" xmlns="http://www.w3.org/2000/svg">
<circle cx="3.97266" cy="3.76611" r="3" fill="white" stroke="black"/>
<path d="M6.47177 3.76611C6.47177 3.75249 6.47295 3.73945 6.47295 3.72583C6.47295 2.36742 5.35342 1.26611 3.97266 1.26611V3.76611H6.47177Z" fill="#CCCCCC"/>
<path d="M6.47118 3.76611C6.47118 3.77974 6.47236 3.79277 6.47236 3.8064C6.47236 5.16481 5.35342 6.26611 3.97266 6.26611V3.76611H6.47177H6.47118Z" fill="white"/>
<path d="M1.47384 3.76611C1.47384 3.75249 1.47266 3.73945 1.47266 3.72583C1.47266 2.36742 2.5916 1.26611 3.97236 1.26611V3.76611H1.47384Z" fill="white"/>
<path d="M1.47384 3.76611C1.47384 3.77974 1.47266 3.79277 1.47266 3.8064C1.47266 5.16481 2.5916 6.26611 3.97236 6.26611V3.76611H1.47325H1.47384Z" fill="#CCCCCC"/>
<path d="M3.97344 4.71641C4.49811 4.71641 4.92344 4.29108 4.92344 3.76641C4.92344 3.24174 4.49811 2.81641 3.97344 2.81641C3.44877 2.81641 3.02344 3.24174 3.02344 3.76641C3.02344 4.29108 3.44877 4.71641 3.97344 4.71641Z" fill="black"/>
</svg>
