<svg width="20" height="20" viewBox="0 0 20 20" fill="none" xmlns="http://www.w3.org/2000/svg">
<circle cx="10" cy="10" r="9.5" fill="white" stroke="black"/>
<path d="M18.9958 10C18.9958 9.95094 19.0001 9.90403 19.0001 9.85497C19.0001 4.96469 14.9698 1 9.99902 1V10H18.9958Z" fill="#CCCCCC"/>
<path d="M18.9956 10C18.9956 10.0491 18.9999 10.096 18.9999 10.145C18.9999 15.0353 14.9717 19 10.001 19V10H18.9978H18.9956Z" fill="white"/>
<path d="M1.00426 10C1.00426 9.95094 1 9.90403 1 9.85497C1 4.96469 5.0282 1 9.99894 1V10H1.00426Z" fill="white"/>
<path d="M1.00426 10C1.00426 10.0491 1 10.096 1 10.145C1 15.0353 5.0282 19 9.99894 19V10H1.00213H1.00426Z" fill="#CCCCCC"/>
<path d="M10.0001 13.4201C11.8889 13.4201 13.4201 11.8889 13.4201 10.0001C13.4201 8.11126 11.8889 6.58008 10.0001 6.58008C8.11126 6.58008 6.58008 8.11126 6.58008 10.0001C6.58008 11.8889 8.11126 13.4201 10.0001 13.4201Z" fill="black"/>
</svg>
