<svg width="48" height="48" viewBox="0 0 48 48" fill="none" xmlns="http://www.w3.org/2000/svg">
<circle cx="24" cy="24" r="23.5" fill="white" stroke="black"/>
<path d="M46.9891 24C46.9891 23.8746 47 23.7547 47 23.6294C47 11.132 36.7003 1 23.9973 1V24H46.9891Z" fill="#CCCCCC"/>
<path d="M46.9891 24C46.9891 24.1254 47 24.2453 47 24.3706C47 36.868 36.7057 47 24.0027 47V24H46.9945H46.9891Z" fill="#999999"/>
<path d="M1.0109 24C1.0109 23.8746 1 23.7547 1 23.6294C1 11.132 11.2943 1 23.9973 1V24H1.0109Z" fill="#999999"/>
<path d="M1.0109 24C1.0109 24.1254 1 24.2453 1 24.3706C1 36.868 11.2943 47 23.9973 47V24H1.00545H1.0109Z" fill="#CCCCCC"/>
<path d="M24 32.7398C28.827 32.7398 32.74 28.8267 32.74 23.9998C32.74 19.1728 28.827 15.2598 24 15.2598C19.173 15.2598 15.26 19.1728 15.26 23.9998C15.26 28.8267 19.173 32.7398 24 32.7398Z" fill="black"/>
</svg>
