<svg width="16" height="16" viewBox="0 0 16 16" fill="none" xmlns="http://www.w3.org/2000/svg">
<circle cx="8" cy="8" r="7.5" fill="white" stroke="black"/>
<path d="M14.9975 8C14.9975 7.96185 15.0008 7.92535 15.0008 7.8872C15.0008 4.08365 11.8661 1 8 1V8H14.9975Z" fill="#CCCCCC"/>
<path d="M14.9959 8C14.9959 8.03815 14.9992 8.07464 14.9992 8.1128C14.9992 11.9163 11.8661 15 8 15V8H14.9975H14.9959Z" fill="#FA3232"/>
<path d="M1.00332 8C1.00332 7.96185 1 7.92535 1 7.8872C1 4.08365 4.13304 1 7.99917 1V8H1.00332Z" fill="#FA3232"/>
<path d="M1.00332 8C1.00332 8.03815 1 8.07464 1 8.1128C1 11.9163 4.13304 15 7.99917 15V8H1.00166H1.00332Z" fill="#CCCCCC"/>
<path d="M7.99984 10.6598C9.46892 10.6598 10.6598 9.46892 10.6598 7.99984C10.6598 6.53077 9.46892 5.33984 7.99984 5.33984C6.53077 5.33984 5.33984 6.53077 5.33984 7.99984C5.33984 9.46892 6.53077 10.6598 7.99984 10.6598Z" fill="black"/>
</svg>
