<svg width="8" height="8" viewBox="0 0 8 8" fill="none" xmlns="http://www.w3.org/2000/svg">
<circle cx="4.09766" cy="3.76611" r="3" fill="white" stroke="black"/>
<path d="M6.59677 3.76611C6.59677 3.75249 6.59795 3.73945 6.59795 3.72583C6.59795 2.36742 5.47842 1.26611 4.09766 1.26611V3.76611H6.59677Z" fill="#CCCCCC"/>
<path d="M6.59618 3.76611C6.59618 3.77974 6.59736 3.79277 6.59736 3.8064C6.59736 5.16481 5.47842 6.26611 4.09766 6.26611V3.76611H6.59677H6.59618Z" fill="#FEF546"/>
<path d="M1.59884 3.76611C1.59884 3.75249 1.59766 3.73945 1.59766 3.72583C1.59766 2.36742 2.7166 1.26611 4.09736 1.26611V3.76611H1.59884Z" fill="#FEF546"/>
<path d="M1.59884 3.76611C1.59884 3.77974 1.59766 3.79277 1.59766 3.8064C1.59766 5.16481 2.7166 6.26611 4.09736 6.26611V3.76611H1.59825H1.59884Z" fill="#CCCCCC"/>
<path d="M4.09844 4.71641C4.62311 4.71641 5.04844 4.29108 5.04844 3.76641C5.04844 3.24174 4.62311 2.81641 4.09844 2.81641C3.57377 2.81641 3.14844 3.24174 3.14844 3.76641C3.14844 4.29108 3.57377 4.71641 4.09844 4.71641Z" fill="black"/>
</svg>
