<svg width="10" height="10" viewBox="0 0 10 10" fill="none" xmlns="http://www.w3.org/2000/svg">
<circle cx="5" cy="5" r="4.5" fill="white" stroke="black"/>
<path d="M8.99785 5C8.99785 4.9782 8.99974 4.95734 8.99974 4.93554C8.99974 2.76208 7.20849 1 4.99927 1V5H8.99785Z" fill="#CCCCCC"/>
<path d="M8.99836 5C8.99836 5.0218 9.00026 5.04265 9.00026 5.06445C9.00026 7.23791 7.20995 9 5.00073 9V5H8.99931H8.99836Z" fill="#999999"/>
<path d="M1.0019 5C1.0019 4.9782 1 4.95734 1 4.93554C1 2.76208 2.79031 1 4.99953 1V5H1.0019Z" fill="#999999"/>
<path d="M1.0019 5C1.0019 5.0218 1 5.04265 1 5.06445C1 7.23791 2.79031 9 4.99953 9V5H1.00095H1.0019Z" fill="#CCCCCC"/>
<path d="M4.99974 6.51998C5.83921 6.51998 6.51974 5.83945 6.51974 4.99998C6.51974 4.16051 5.83921 3.47998 4.99974 3.47998C4.16026 3.47998 3.47974 4.16051 3.47974 4.99998C3.47974 5.83945 4.16026 6.51998 4.99974 6.51998Z" fill="black"/>
</svg>
