<svg width="28" height="28" viewBox="0 0 28 28" fill="none" xmlns="http://www.w3.org/2000/svg">
<path d="M13.9998 0C6.26802 0 0 6.26811 0 13.9999C0 21.7313 6.26792 28 13.9996 28C21.7312 28 27.9998 21.7313 27.9998 13.9999C27.9998 6.26811 21.7313 0 13.9998 0ZM19.2809 19.3358C18.7219 19.8943 17.8164 19.8943 17.2579 19.3358L14.0723 16.1501L10.7416 19.4808C10.1829 20.0393 9.27733 20.0393 8.71893 19.4808C8.15996 18.9217 8.15996 18.0163 8.71893 17.4574L12.0493 14.127L8.94843 11.0263C8.38993 10.4671 8.38993 9.56181 8.94843 9.00303C9.50712 8.44434 10.4129 8.44434 10.9717 9.00303L14.0724 12.1037L17.0283 9.1476C17.587 8.5891 18.4931 8.58891 19.0513 9.1476C19.6103 9.70676 19.6103 10.6126 19.0513 11.1709L16.0956 14.1268L19.2811 17.3124C19.8396 17.8708 19.8399 18.7769 19.2809 19.3358Z" fill="black"/>
</svg>
