<svg width="12" height="12" viewBox="0 0 12 12" fill="none" xmlns="http://www.w3.org/2000/svg">
<circle cx="6" cy="6" r="5.5" fill="white" stroke="black"/>
<path d="M10.9977 6C10.9977 5.97275 11.0001 5.94668 11.0001 5.91943C11.0001 3.20261 8.76103 1 5.99951 1V6H10.9977Z" fill="#CCCCCC"/>
<path d="M10.9975 6C10.9975 6.02725 10.9999 6.05332 10.9999 6.08057C10.9999 8.79739 8.76201 11 6.00049 11V6H10.9987H10.9975Z" fill="white"/>
<path d="M1.00237 6C1.00237 5.97275 1 5.94668 1 5.91943C1 3.20261 3.23789 1 5.99941 1V6H1.00237Z" fill="white"/>
<path d="M1.00237 6C1.00237 6.02725 1 6.05332 1 6.08057C1 8.79739 3.23789 11 5.99941 11V6H1.00118H1.00237Z" fill="#CCCCCC"/>
<path d="M6.0001 7.9001C7.04944 7.9001 7.9001 7.04944 7.9001 6.0001C7.9001 4.95076 7.04944 4.1001 6.0001 4.1001C4.95076 4.1001 4.1001 4.95076 4.1001 6.0001C4.1001 7.04944 4.95076 7.9001 6.0001 7.9001Z" fill="black"/>
</svg>
