<svg width="12" height="12" viewBox="0 0 12 12" fill="none" xmlns="http://www.w3.org/2000/svg">
<circle cx="5.59766" cy="5.51611" r="5" fill="white" stroke="black"/>
<path d="M10.0961 5.51611C10.0961 5.49159 10.0982 5.46813 10.0982 5.4436C10.0982 2.99846 8.08303 1.01611 5.59766 1.01611V5.51611H10.0961Z" fill="#CCCCCC"/>
<path d="M10.095 5.51611C10.095 5.54064 10.0971 5.5641 10.0971 5.58863C10.0971 8.03377 8.08303 10.0161 5.59766 10.0161V5.51611H10.0961H10.095Z" fill="#FEF546"/>
<path d="M1.09979 5.51611C1.09979 5.49159 1.09766 5.46813 1.09766 5.4436C1.09766 2.99846 3.11175 1.01611 5.59712 1.01611V5.51611H1.09979Z" fill="#FEF546"/>
<path d="M1.09979 5.51611C1.09979 5.54064 1.09766 5.5641 1.09766 5.58863C1.09766 8.03377 3.11175 10.0161 5.59712 10.0161V5.51611H1.09872H1.09979Z" fill="#CCCCCC"/>
<path d="M5.59672 7.22664C6.54113 7.22664 7.30672 6.46105 7.30672 5.51664C7.30672 4.57223 6.54113 3.80664 5.59672 3.80664C4.65231 3.80664 3.88672 4.57223 3.88672 5.51664C3.88672 6.46105 4.65231 7.22664 5.59672 7.22664Z" fill="black"/>
</svg>
