<svg width="8" height="8" viewBox="0 0 8 8" fill="none" xmlns="http://www.w3.org/2000/svg">
<circle cx="3.8457" cy="3.76611" r="3" fill="white" stroke="black"/>
<path d="M6.34482 3.76611C6.34482 3.75249 6.346 3.73945 6.346 3.72583C6.346 2.36742 5.22646 1.26611 3.8457 1.26611V3.76611H6.34482Z" fill="#CCCCCC"/>
<path d="M6.34422 3.76611C6.34422 3.77974 6.34541 3.79277 6.34541 3.8064C6.34541 5.16481 5.22646 6.26611 3.8457 6.26611V3.76611H6.34482H6.34422Z" fill="#999999"/>
<path d="M1.34689 3.76611C1.34689 3.75249 1.3457 3.73945 1.3457 3.72583C1.3457 2.36742 2.46465 1.26611 3.84541 1.26611V3.76611H1.34689Z" fill="#999999"/>
<path d="M1.34689 3.76611C1.34689 3.77974 1.3457 3.79277 1.3457 3.8064C1.3457 5.16481 2.46465 6.26611 3.84541 6.26611V3.76611H1.3463H1.34689Z" fill="#CCCCCC"/>
<path d="M3.84648 4.71641C4.37116 4.71641 4.79648 4.29108 4.79648 3.76641C4.79648 3.24174 4.37116 2.81641 3.84648 2.81641C3.32181 2.81641 2.89648 3.24174 2.89648 3.76641C2.89648 4.29108 3.32181 4.71641 3.84648 4.71641Z" fill="black"/>
</svg>
