<svg width="24" height="7" viewBox="0 0 24 7" fill="none" xmlns="http://www.w3.org/2000/svg">
<path d="M3 4C3 4 11.7465 -2.75 21 4" stroke="black" stroke-linecap="round" stroke-linejoin="round"/>
<path d="M2.7691 5.99914C3.74615 5.99914 4.5382 5.20708 4.5382 4.23004C4.5382 3.25299 3.74615 2.46094 2.7691 2.46094C1.79205 2.46094 1 3.25299 1 4.23004C1 5.20708 1.79205 5.99914 2.7691 5.99914Z" fill="white" stroke="black" stroke-linecap="round" stroke-linejoin="round"/>
<path d="M20.7691 5.99914C21.7461 5.99914 22.5382 5.20708 22.5382 4.23004C22.5382 3.25299 21.7461 2.46094 20.7691 2.46094C19.7921 2.46094 19 3.25299 19 4.23004C19 5.20708 19.7921 5.99914 20.7691 5.99914Z" fill="white" stroke="black" stroke-linecap="round" stroke-linejoin="round"/>
</svg>
