<svg width="12" height="82" viewBox="0 0 12 82" fill="none" xmlns="http://www.w3.org/2000/svg">
<path d="M9 0.5H3C1.61929 0.5 0.5 1.61929 0.5 3V79C0.5 80.3807 1.61929 81.5 3 81.5H9C10.3807 81.5 11.5 80.3807 11.5 79V3C11.5 1.61929 10.3807 0.5 9 0.5Z" fill="white" stroke="black" stroke-miterlimit="10"/>
<path d="M9 47.6665H3C1.89543 47.6665 1 48.5619 1 49.6665V78.9998C1 80.1044 1.89543 80.9998 3 80.9998H9C10.1046 80.9998 11 80.1044 11 78.9998V49.6665C11 48.5619 10.1046 47.6665 9 47.6665Z" fill="#CCCCCC"/>
</svg>
