<svg width="27" height="44" viewBox="0 0 27 44" fill="none" xmlns="http://www.w3.org/2000/svg">
<path d="M9.9189 43H15.4854L15.4854 1H9.9189L9.9189 43Z" fill="#999999" stroke="black" stroke-linecap="round" stroke-linejoin="round"/>
<path d="M8.46824 38.2773H16.9385L16.9385 5.7225H8.46824L8.46824 38.2773Z" fill="#999999" stroke="black" stroke-linecap="round" stroke-linejoin="round"/>
<path d="M0.609844 21.9963C0.609844 29.0683 6.34281 34.8013 13.4148 34.8013C20.4868 34.8013 26.2197 29.0683 26.2197 21.9963C26.2197 14.9244 20.4868 9.19141 13.4148 9.19141C6.34281 9.19141 0.609844 14.9244 0.609844 21.9963Z" fill="#999999" stroke="black" stroke-linecap="round" stroke-linejoin="round"/>
<path d="M12.8018 21.9966L7.2091 24.958C6.08218 25.3826 4.76132 25.1414 3.84931 24.2347C2.61232 22.9977 2.61232 20.9954 3.84931 19.7584C4.75608 18.8517 6.08218 18.6106 7.2091 19.0351L12.8018 21.9966Z" stroke="black" stroke-linecap="round" stroke-linejoin="round"/>
<path d="M19.7158 18.1378V14.8828L15.2029 14.8828V18.1378H19.7158Z" fill="#999999" stroke="black" stroke-linecap="round" stroke-linejoin="round"/>
<path d="M19.7158 23.6104V20.3555H15.2029V23.6104H19.7158Z" fill="#999999" stroke="black" stroke-linecap="round" stroke-linejoin="round"/>
<path d="M19.7158 29.1143V25.8594H15.2029V29.1143H19.7158Z" fill="#999999" stroke="black" stroke-linecap="round" stroke-linejoin="round"/>
</svg>
