<svg width="27" height="44" viewBox="0 0 27 44" fill="none" xmlns="http://www.w3.org/2000/svg">
<path d="M9.84566 43H15.4121L15.4121 1H9.84566L9.84566 43Z" fill="white" stroke="black" stroke-linecap="round" stroke-linejoin="round"/>
<path d="M8.39353 38.2773H16.8638L16.8638 5.7225H8.39353L8.39353 38.2773Z" fill="white" stroke="black" stroke-linecap="round" stroke-linejoin="round"/>
<path d="M0.536602 21.9963C0.536602 29.0683 6.26957 34.8013 13.3415 34.8013C20.4135 34.8013 26.1465 29.0683 26.1465 21.9963C26.1465 14.9244 20.4135 9.19141 13.3415 9.19141C6.26957 9.19141 0.536602 14.9244 0.536602 21.9963Z" fill="white" stroke="black" stroke-linecap="round" stroke-linejoin="round"/>
<path d="M12.7285 21.9966L7.13585 24.958C6.00894 25.3826 4.68808 25.1414 3.77606 24.2347C2.53907 22.9977 2.53907 20.9954 3.77606 19.7584C4.68284 18.8517 6.00894 18.6106 7.13585 19.0351L12.7285 21.9966Z" fill="white" stroke="black" stroke-linecap="round" stroke-linejoin="round"/>
<path d="M19.6406 18.1417V14.8867L15.1277 14.8867V18.1417H19.6406Z" fill="white" stroke="black" stroke-linecap="round" stroke-linejoin="round"/>
<path d="M19.6406 23.6143V20.3594H15.1277V23.6143H19.6406Z" fill="white" stroke="black" stroke-linecap="round" stroke-linejoin="round"/>
<path d="M19.6406 29.1182V25.8633H15.1277V29.1182H19.6406Z" fill="white" stroke="black" stroke-linecap="round" stroke-linejoin="round"/>
</svg>
