<svg width="27" height="44" viewBox="0 0 27 44" fill="none" xmlns="http://www.w3.org/2000/svg">
<path d="M9.99214 43H15.5586L15.5586 1H9.99214L9.99214 43Z" fill="#FEF546" stroke="black" stroke-linecap="round" stroke-linejoin="round"/>
<path d="M8.54148 38.2773H17.0117L17.0117 5.7225H8.54148L8.54148 38.2773Z" fill="#FEF546" stroke="black" stroke-linecap="round" stroke-linejoin="round"/>
<path d="M0.683086 21.9963C0.683086 29.0683 6.41605 34.8013 13.488 34.8013C20.56 34.8013 26.293 29.0683 26.293 21.9963C26.293 14.9244 20.56 9.19141 13.488 9.19141C6.41605 9.19141 0.683086 14.9244 0.683086 21.9963Z" fill="#FEF546" stroke="black" stroke-linecap="round" stroke-linejoin="round"/>
<path d="M12.875 21.9966L7.28234 24.958C6.15542 25.3826 4.83457 25.1414 3.92255 24.2347C2.68556 22.9977 2.68556 20.9954 3.92255 19.7584C4.82932 18.8517 6.15542 18.6106 7.28234 19.0351L12.875 21.9966Z" fill="#FEF546" stroke="black" stroke-linecap="round" stroke-linejoin="round"/>
<path d="M19.7891 18.1378V14.8828L15.2761 14.8828V18.1378H19.7891Z" fill="#FEF546" stroke="black" stroke-linecap="round" stroke-linejoin="round"/>
<path d="M19.7891 23.6104V20.3555H15.2761V23.6104H19.7891Z" fill="#FEF546" stroke="black" stroke-linecap="round" stroke-linejoin="round"/>
<path d="M19.7891 29.1143V25.8594H15.2761V29.1143H19.7891Z" fill="#FEF546" stroke="black" stroke-linecap="round" stroke-linejoin="round"/>
</svg>
