<svg width="19" height="30" viewBox="0 0 19 30" fill="none" xmlns="http://www.w3.org/2000/svg">
<path d="M7.27927 29H10.9902L10.9902 1H7.27927L7.27927 29Z" fill="white" stroke="black" stroke-linecap="round" stroke-linejoin="round"/>
<path d="M6.31118 25.8516H11.958L11.958 4.14833H6.31118L6.31118 25.8516Z" fill="white" stroke="black" stroke-linecap="round" stroke-linejoin="round"/>
<path d="M1.07323 14.9976C1.07323 19.7122 4.89521 23.5342 9.60986 23.5342C14.3245 23.5342 18.1465 19.7122 18.1465 14.9976C18.1465 10.2829 14.3245 6.46094 9.60986 6.46094C4.89521 6.46094 1.07323 10.2829 1.07323 14.9976Z" fill="white" stroke="black" stroke-linecap="round" stroke-linejoin="round"/>
<path d="M9.20117 15.0003L5.47273 16.9746C4.72145 17.2576 3.84088 17.0969 3.23287 16.4924C2.40821 15.6677 2.40821 14.3329 3.23287 13.5082C3.83739 12.9037 4.72145 12.743 5.47273 13.026L9.20117 15.0003Z" fill="white" stroke="black" stroke-linecap="round" stroke-linejoin="round"/>
<path d="M13.8096 12.4278V10.2578H10.801V12.4278H13.8096Z" fill="white" stroke="black" stroke-linecap="round" stroke-linejoin="round"/>
<path d="M13.8096 16.0762V13.9062H10.801V16.0762H13.8096Z" fill="white" stroke="black" stroke-linecap="round" stroke-linejoin="round"/>
<path d="M13.8096 19.7442V17.5742H10.801V19.7442H13.8096Z" fill="white" stroke="black" stroke-linecap="round" stroke-linejoin="round"/>
</svg>
