<svg width="58" height="54" viewBox="0 0 58 54" fill="none" xmlns="http://www.w3.org/2000/svg">
<path d="M32.7838 26.2539H25.6299V37.0761H32.7838V26.2539Z" fill="#E0E0E0" stroke="black" stroke-width="2" stroke-linecap="round" stroke-linejoin="round"/>
<path d="M37.1366 36.2422H21.2783V39.7652H37.1366V36.2422Z" fill="#E0E0E0" stroke="black" stroke-width="2" stroke-linecap="round" stroke-linejoin="round"/>
<path d="M29.2107 31.1465C37.6114 31.1465 44.4214 24.398 44.4214 16.0733C44.4214 7.74853 37.6114 1 29.2107 1C20.8101 1 14 7.74853 14 16.0733C14 24.398 20.8101 31.1465 29.2107 31.1465Z" fill="#E0E0E0" stroke="black" stroke-width="2" stroke-linecap="round" stroke-linejoin="round"/>
<path d="M16.334 16.0742H18.0275" stroke="black" stroke-width="2" stroke-linecap="round" stroke-linejoin="round"/>
<path d="M18.7939 23.5692L20.1637 22.582" stroke="black" stroke-width="2" stroke-linecap="round" stroke-linejoin="round"/>
<path d="M25.2314 28.2113L25.7544 26.6133" stroke="black" stroke-width="2" stroke-linecap="round" stroke-linejoin="round"/>
<path d="M33.189 28.2113L32.666 26.6133" stroke="black" stroke-width="2" stroke-linecap="round" stroke-linejoin="round"/>
<path d="M39.627 23.5692L38.251 22.582" stroke="black" stroke-width="2" stroke-linecap="round" stroke-linejoin="round"/>
<path d="M42.0865 16.0742H40.3867" stroke="black" stroke-width="2" stroke-linecap="round" stroke-linejoin="round"/>
<path d="M39.627 8.57031L38.251 9.55751" stroke="black" stroke-width="2" stroke-linecap="round" stroke-linejoin="round"/>
<path d="M33.189 3.9375L32.666 5.53553" stroke="black" stroke-width="2" stroke-linecap="round" stroke-linejoin="round"/>
<path d="M25.2314 3.9375L25.7544 5.53553" stroke="black" stroke-width="2" stroke-linecap="round" stroke-linejoin="round"/>
<path d="M18.7939 8.57031L20.1637 9.55751" stroke="black" stroke-width="2" stroke-linecap="round" stroke-linejoin="round"/>
<path d="M23.5938 10.082L33.1199 20.0589" stroke="black" stroke-width="2" stroke-linecap="round" stroke-linejoin="round"/>
<path d="M29.2105 18.776C30.7166 18.776 31.9376 17.5661 31.9376 16.0735C31.9376 14.581 30.7166 13.3711 29.2105 13.3711C27.7044 13.3711 26.4834 14.581 26.4834 16.0735C26.4834 17.5661 27.7044 18.776 29.2105 18.776Z" fill="#E0E0E0" stroke="black" stroke-width="2" stroke-linecap="round" stroke-linejoin="round"/>
<rect x="1" y="41" width="56" height="10" fill="#E0E0E0" stroke="black" stroke-width="2" stroke-linecap="round" stroke-linejoin="round"/>
<rect x="11" y="39" width="4" height="14" fill="#E0E0E0" stroke="black" stroke-width="2" stroke-linecap="round" stroke-linejoin="round"/>
<rect x="43" y="39" width="4" height="14" fill="#E0E0E0" stroke="black" stroke-width="2" stroke-linecap="round" stroke-linejoin="round"/>
</svg>
