<svg width="10" height="10" viewBox="0 0 10 10" fill="none" xmlns="http://www.w3.org/2000/svg">
<path d="M5.76354 4.99974L9.00844 1.75474C9.21961 1.54366 9.21961 1.20239 9.00844 0.991313C8.79737 0.780239 8.45609 0.780239 8.24502 0.991313L5.00002 4.23631L1.75512 0.991313C1.54394 0.780239 1.20277 0.780239 0.991692 0.991313C0.78052 1.20239 0.78052 1.54366 0.991692 1.75474L4.23659 4.99974L0.991692 8.24473C0.78052 8.45581 0.78052 8.79709 0.991692 9.00816C1.09688 9.11345 1.23519 9.16634 1.3734 9.16634C1.51162 9.16634 1.64983 9.11345 1.75512 9.00816L5.00002 5.76316L8.24502 9.00816C8.35031 9.11345 8.48852 9.16634 8.62673 9.16634C8.76494 9.16634 8.90315 9.11345 9.00844 9.00816C9.21961 8.79709 9.21961 8.45581 9.00844 8.24473L5.76354 4.99974Z" fill="white"/>
</svg>
