<svg width="28" height="28" viewBox="0 0 28 28" fill="none" xmlns="http://www.w3.org/2000/svg">
<path d="M14 0C6.26805 0 0 6.26805 0 14C0 21.732 6.26805 28 14 28C21.732 28 28 21.7323 28 14C28 6.26772 21.732 0 14 0ZM13.9302 21.8291C13.9302 21.8291 13.2806 22.261 12.8365 22.259C12.797 22.2771 12.7736 22.2877 12.7736 22.2877L12.7746 22.259C12.6814 22.2547 12.5875 22.2416 12.4929 22.2178L12.3526 22.1832C11.5772 21.9909 11.1667 21.222 11.3598 20.4469L12.4392 16.0951L12.9264 14.1295C13.3797 12.3045 11.4892 14.5175 11.1015 13.6768C10.8456 13.1211 12.572 11.955 13.8333 11.0758C13.8333 11.0758 14.4823 10.6446 14.9266 10.6463C14.9665 10.6278 14.9899 10.6176 14.9899 10.6176L14.9882 10.6463C15.0821 10.6505 15.176 10.6637 15.2705 10.6871L15.4109 10.722C16.1863 10.9144 16.6587 11.6987 16.4663 12.4738L15.3872 16.826L14.899 18.7916C14.4464 20.6166 16.3056 18.395 16.6929 19.2367C16.9489 19.7917 15.1912 20.9499 13.9302 21.8291ZM16.6663 8.2264C16.3968 9.31181 15.2985 9.9736 14.2135 9.70414C13.1277 9.43468 12.4659 8.33675 12.7354 7.25101C13.0048 6.16527 14.1031 5.50381 15.1882 5.77327C16.2739 6.0424 16.9354 7.14066 16.6663 8.2264Z" fill="#FA3232"/>
</svg>
