<svg width="16" height="16" viewBox="0 0 16 16" fill="none" xmlns="http://www.w3.org/2000/svg">
<path fill-rule="evenodd" clip-rule="evenodd" d="M12.6071 6.80354C12.6071 7.93951 12.2128 8.9834 11.5535 9.80573H11.5563C11.5563 9.80573 9.88685 12.0397 8.5936 13.6216C8.18097 14.1263 7.42625 14.1261 7.01392 13.6212C5.72473 12.0429 4.05744 9.81057 4.05744 9.81057L4.05355 9.80573C3.39432 8.9834 3 7.93951 3 6.80354C3 4.15062 5.15061 2 7.80355 2C10.4565 2 12.6071 4.15062 12.6071 6.80354ZM9.59714 6.78274C9.59714 7.77331 8.79418 8.57627 7.80361 8.57627C6.81305 8.57627 6.01008 7.77331 6.01008 6.78274C6.01008 5.7922 6.81305 4.98921 7.80361 4.98921C8.79418 4.98921 9.59714 5.7922 9.59714 6.78274Z" fill="#002878"/>
</svg>
