<svg width="32" height="35" viewBox="0 0 32 35" fill="none" xmlns="http://www.w3.org/2000/svg">
<path d="M2.16702 34.143H29.833C30.5195 34.143 31 33.6238 31 33.0398V13.7032C31 13.0543 30.4508 12.6001 29.833 12.6001H2.16702C1.48052 12.6001 1 13.1192 1 13.7032V33.0398C1 33.6887 1.54917 34.143 2.16702 34.143Z" fill="white" stroke="black"/>
<path d="M3.41497 4.31429H28.7565C29.5283 4.31429 30.1714 3.56103 30.1714 2.65714C30.1714 1.75325 29.5283 1 28.7565 1H3.41497C2.64315 1 2 1.75325 2 2.65714C2 3.56103 2.64315 4.31429 3.41497 4.31429Z" fill="white" stroke="black"/>
<path d="M5.14258 12.6002H26.6854V4.31445H5.14258V12.6002Z" fill="white" stroke="black"/>
<path d="M25.0293 32.4859V14.2573V32.4859Z" fill="white"/>
<path d="M25.0293 32.4859V14.2573" stroke="black" stroke-linecap="round" stroke-linejoin="bevel"/>
<path d="M20.0566 32.4859V14.2573V32.4859Z" fill="white"/>
<path d="M20.0566 32.4859V14.2573" stroke="black" stroke-linecap="round" stroke-linejoin="bevel"/>
<path d="M15.9141 32.4857V14.2571V32.4857Z" fill="white"/>
<path d="M15.9141 32.4857V14.2571" stroke="black" stroke-linecap="round" stroke-linejoin="bevel"/>
<path d="M10.9434 32.4859V14.2573V32.4859Z" fill="white"/>
<path d="M10.9434 32.4859V14.2573" stroke="black" stroke-linecap="round" stroke-linejoin="bevel"/>
<path d="M6.80078 32.4859V14.2573V32.4859Z" fill="white"/>
<path d="M6.80078 32.4859V14.2573" stroke="black" stroke-linecap="round" stroke-linejoin="bevel"/>
<path d="M23.3711 10.9426V5.97119V10.9426Z" fill="white"/>
<path d="M23.3711 10.9426V5.97119" stroke="black" stroke-linecap="round" stroke-linejoin="bevel"/>
<path d="M20.0566 10.9426V5.97119V10.9426Z" fill="white"/>
<path d="M20.0566 10.9426V5.97119" stroke="black" stroke-linecap="round" stroke-linejoin="bevel"/>
<path d="M15.9141 10.9429V5.97144V10.9429Z" fill="white"/>
<path d="M15.9141 10.9429V5.97144" stroke="black" stroke-linecap="round" stroke-linejoin="bevel"/>
<path d="M11.7715 10.9429V5.97144V10.9429Z" fill="white"/>
<path d="M11.7715 10.9429V5.97144" stroke="black" stroke-linecap="round" stroke-linejoin="bevel"/>
<path d="M7.62891 10.9426V5.97119V10.9426Z" fill="white"/>
<path d="M7.62891 10.9426V5.97119" stroke="black" stroke-linecap="round" stroke-linejoin="bevel"/>
</svg>
