<svg width="34" height="34" viewBox="0 0 34 34" fill="none" xmlns="http://www.w3.org/2000/svg">
<path d="M17 33C25.8366 33 33 25.8366 33 17C33 8.16344 25.8366 1 17 1C8.16344 1 1 8.16344 1 17C1 25.8366 8.16344 33 17 33Z" fill="white" stroke="black" stroke-width="2" stroke-linecap="round" stroke-linejoin="round"/>
<path d="M24.7728 22.8698C22.1117 22.8698 19.8589 21.0394 19.8589 17.4912C19.8589 13.9994 22.1962 12 24.8573 12C26.223 12 27.3213 12.6336 28.0394 13.3658L26.7299 14.9709C26.1949 14.4922 25.6458 14.1542 24.8995 14.1542C23.5478 14.1542 22.4355 15.3651 22.4355 17.4067C22.4355 19.4906 23.393 20.7014 24.8714 20.7014C25.7162 20.7014 26.3779 20.279 26.8707 19.744L28.1942 21.321C27.3072 22.3488 26.1386 22.8698 24.7728 22.8698Z" fill="black"/>
<path d="M15.415 22.6732V12.1836H17.9354V22.6732H15.415Z" fill="black"/>
<path d="M7 22.6732V12.1836H9.52032V20.5612H13.6035V22.6732H7Z" fill="black"/>
</svg>
