<svg width="20" height="20" viewBox="0 0 20 20" fill="none" xmlns="http://www.w3.org/2000/svg">
<path d="M17.6484 0H4.46875C3.1075 0 2 1.10746 2 2.46871V17.5312C2 18.8925 3.1075 20 4.46871 20H17.6484C17.972 20 18.2343 19.7377 18.2343 19.4141V15.6484V0.585938C18.2344 0.262344 17.9721 0 17.6484 0ZM5.7943 6.90633C5.86324 6.69422 6.04656 6.53961 6.26727 6.50758L8.56457 6.17383L9.59176 4.09227C9.69043 3.89227 9.89414 3.76562 10.1171 3.76562C10.3402 3.76562 10.5439 3.89223 10.6426 4.09223L11.6699 6.17383L13.967 6.50758C14.1877 6.53961 14.3711 6.69422 14.44 6.90633C14.509 7.11844 14.4515 7.35129 14.2918 7.50695L12.6297 9.1273L13.0166 11.3833C13.0262 11.4254 13.0313 11.4692 13.0313 11.5142C13.0313 11.8375 12.7694 12.0996 12.4462 12.1002C12.4457 12.1002 12.4451 12.1002 12.4445 12.1002C12.3512 12.1002 12.2576 12.0779 12.1719 12.0329L10.1172 10.9526L8.06254 12.0328C7.9768 12.0779 7.88316 12.1002 7.78992 12.1002C7.6684 12.1002 7.54754 12.0624 7.44547 11.9882C7.26504 11.8572 7.17461 11.635 7.21234 11.4152L7.60484 9.12734L5.94254 7.50703C5.78289 7.35129 5.72539 7.11844 5.7943 6.90633ZM17.0625 18.8281H4.46875C3.75363 18.8281 3.17188 18.2463 3.17188 17.5312C3.17188 17.5066 3.1727 17.4821 3.1741 17.4578C3.21234 16.7767 3.77836 16.2344 4.46875 16.2344H12.9609H17.0625V18.8281Z" fill="black"/>
</svg>
