<svg width="24" height="24" viewBox="0 0 24 24" fill="none" xmlns="http://www.w3.org/2000/svg">
<path d="M16.2966 9.38148C16.2966 9.38148 16.2261 9.24036 16.1555 9.20508C16.0849 9.1698 15.9968 9.1698 15.9262 9.18744C14.8678 9.54025 13.8975 9.91071 13.0331 10.3164C13.1743 9.13452 13.2624 8.129 13.2977 7.31753C13.2977 7.22933 13.2624 7.15876 13.2095 7.0882C13.1566 7.03528 13.0684 7 12.9978 7H10.9339C10.9339 7 10.7751 7.03528 10.7222 7.0882C10.6693 7.14112 10.634 7.22933 10.634 7.29989C10.634 7.88203 10.7222 8.88755 10.8633 10.2988C10.1753 9.96363 9.22274 9.57553 8.04082 9.1698C7.97026 9.13452 7.88204 9.15216 7.81148 9.1698C7.74092 9.20508 7.688 9.27564 7.65272 9.3462L7 11.3749C7 11.3749 7.00002 11.5336 7.01766 11.6042C7.05294 11.6748 7.1235 11.7277 7.21171 11.763C8.14666 12.0099 9.13453 12.2393 10.1577 12.451C9.68139 12.9625 9.0287 13.7211 8.18195 14.7619C8.12903 14.8324 8.11137 14.903 8.11137 14.9912C8.11137 15.0794 8.1643 15.15 8.23487 15.2029L9.91072 16.4201C10.0342 16.526 10.2282 16.4907 10.3341 16.3495C10.8104 15.7321 11.3573 14.8501 11.957 13.7211C12.5921 14.7972 13.1566 15.6792 13.6505 16.3319C13.7035 16.4201 13.8093 16.4554 13.8975 16.4554C13.9681 16.4554 14.021 16.4554 14.0739 16.4025L15.7851 15.1853C15.7851 15.1853 15.9085 15.0618 15.9085 14.9736C15.9085 14.8854 15.9085 14.7972 15.838 14.7442C15.0442 13.7564 14.3562 12.9978 13.8269 12.4686C14.7972 12.3098 15.8027 12.0805 16.7906 11.7453C16.9493 11.6924 17.0375 11.516 16.9846 11.3572L16.3319 9.32857L16.2966 9.38148Z" fill="black"/>
</svg>
