<svg width="32" height="32" viewBox="0 0 32 32" fill="none" xmlns="http://www.w3.org/2000/svg">
<path d="M16 31C24.2843 31 31 24.2843 31 16C31 7.71573 24.2843 1 16 1C7.71573 1 1 7.71573 1 16C1 24.2843 7.71573 31 16 31Z" fill="white" stroke="black" stroke-width="2" stroke-linecap="round" stroke-linejoin="round"/>
<path d="M11.2002 21.0332V11.1992H13.7478L15.3054 15.4496C15.4022 15.7312 15.4946 16.026 15.5826 16.334C15.6706 16.6332 15.7586 16.9324 15.8466 17.2316H15.9126C16.0094 16.9324 16.1018 16.6332 16.1898 16.334C16.2778 16.026 16.3658 15.7312 16.4538 15.4496L17.9586 11.1992H20.5194V21.0332H18.3678V17.6672C18.3678 17.3416 18.3854 16.9764 18.4206 16.5716C18.4558 16.1668 18.4954 15.762 18.5394 15.3572C18.5922 14.9436 18.6406 14.5784 18.6846 14.2616H18.6186L17.8002 16.6112L16.4802 20.2016H15.1866L13.8534 16.6112L13.0614 14.2616H13.0086C13.0526 14.5784 13.0966 14.9436 13.1406 15.3572C13.1846 15.762 13.2242 16.1668 13.2594 16.5716C13.2946 16.9764 13.3122 17.3416 13.3122 17.6672V21.0332H11.2002Z" fill="black"/>
</svg>
