<svg width="28" height="28" viewBox="0 0 28 28" fill="none" xmlns="http://www.w3.org/2000/svg">
<circle cx="14" cy="14" r="13" fill="#D9D9D9" stroke="black" stroke-width="2"/>
<path d="M7 21V7H10.8272L13.1671 13.051C13.3126 13.4519 13.4514 13.8716 13.5836 14.3101C13.7158 14.736 13.848 15.162 13.9802 15.5879H14.0793C14.2247 15.162 14.3636 14.736 14.4958 14.3101C14.628 13.8716 14.7602 13.4519 14.8924 13.051L17.153 7H21V21H17.7677V16.2081C17.7677 15.7445 17.7941 15.2246 17.847 14.6483C17.8999 14.072 17.9594 13.4958 18.0255 12.9195C18.1048 12.3306 18.1775 11.8107 18.2436 11.3597H18.1445L16.915 14.7047L14.932 19.8161H12.9887L10.9858 14.7047L9.79603 11.3597H9.71671C9.78281 11.8107 9.84891 12.3306 9.91501 12.9195C9.98111 13.4958 10.0406 14.072 10.0935 14.6483C10.1464 15.2246 10.1728 15.7445 10.1728 16.2081V21H7Z" fill="black"/>
</svg>
