<svg width="24" height="24" viewBox="0 0 24 24" fill="none" xmlns="http://www.w3.org/2000/svg">
<path d="M4.09205 10.6782L4.06573 10.684H15.3446L11.7989 7.1305C11.6253 6.95701 11.5301 6.72199 11.5301 6.47533C11.5301 6.22866 11.6253 5.99529 11.7989 5.82139L12.3507 5.26941C12.5241 5.09593 12.7553 5 13.0018 5C13.2485 5 13.4798 5.09524 13.6533 5.26873L19.7313 11.3461C19.9054 11.5203 20.0007 11.7523 20 11.9991C20.0007 12.2473 19.9054 12.4794 19.7313 12.6533L13.6533 18.7313C13.4798 18.9046 13.2486 19 13.0018 19C12.7553 19 12.5241 18.9045 12.3507 18.7313L11.7989 18.1793C11.6253 18.0061 11.5301 17.7748 11.5301 17.5281C11.5301 17.2816 11.6253 17.0624 11.7989 16.8891L15.3846 13.3158H4.07944C3.57145 13.3158 3.14458 12.8779 3.14458 12.3702V11.5895C3.14458 11.0818 3.58405 10.6782 4.09205 10.6782Z" fill="white" fill-opacity="0.3"/>
</svg>
