<svg width="34" height="34" viewBox="0 0 34 34" fill="none" xmlns="http://www.w3.org/2000/svg">
<path d="M17 33C25.8366 33 33 25.8366 33 17C33 8.16344 25.8366 1 17 1C8.16344 1 1 8.16344 1 17C1 25.8366 8.16344 33 17 33Z" fill="#999999" stroke="black" stroke-width="2" stroke-linecap="round" stroke-linejoin="round"/>
<path d="M22.4226 22.7487C21.4557 22.7487 20.5781 22.5469 19.7896 22.1432C19.0105 21.7396 18.3863 21.1389 17.917 20.341C17.457 19.5431 17.2271 18.5528 17.2271 17.3701C17.2271 16.4971 17.3632 15.7227 17.6354 15.0469C17.9076 14.3617 18.2784 13.7844 18.7477 13.3151C19.2264 12.8457 19.7755 12.489 20.3951 12.245C21.0146 12.0009 21.6763 11.8789 22.3803 11.8789C23.15 11.8789 23.8118 12.0197 24.3656 12.3013C24.9194 12.5735 25.3747 12.888 25.7314 13.2447L24.4079 14.8498C24.145 14.6151 23.8634 14.4227 23.5631 14.2725C23.2721 14.1129 22.906 14.0331 22.4648 14.0331C21.9485 14.0331 21.4886 14.1646 21.085 14.4274C20.6907 14.6808 20.3763 15.0516 20.1416 15.5397C19.9163 16.0184 19.8037 16.6004 19.8037 17.2856C19.8037 17.9802 19.9069 18.5763 20.1135 19.0738C20.3293 19.5619 20.6485 19.9374 21.0709 20.2002C21.5027 20.4536 22.0424 20.5803 22.6901 20.5803C22.8778 20.5803 23.0609 20.5569 23.2392 20.5099C23.4176 20.463 23.5631 20.3973 23.6757 20.3128V18.6232H22.0143V16.5675H25.9144V21.4674C25.5483 21.8147 25.0555 22.1151 24.436 22.3685C23.8259 22.6219 23.1547 22.7487 22.4226 22.7487Z" fill="black"/>
<path d="M8.03955 22.5521V12.0625H11.7285C12.4982 12.0625 13.1975 12.1704 13.8264 12.3863C14.4647 12.5928 14.9716 12.9448 15.3471 13.4423C15.7319 13.9398 15.9244 14.6204 15.9244 15.4839C15.9244 16.31 15.7319 16.9905 15.3471 17.5255C14.9716 18.0512 14.4694 18.4407 13.8405 18.6942C13.2116 18.9476 12.5264 19.0743 11.7848 19.0743H10.5599V22.5521H8.03955ZM10.5599 17.0891H11.6581C12.2682 17.0891 12.7235 16.953 13.0239 16.6807C13.3242 16.3991 13.4744 16.0002 13.4744 15.4839C13.4744 14.9583 13.3102 14.5922 12.9816 14.3857C12.6625 14.1698 12.1978 14.0619 11.5877 14.0619H10.5599V17.0891Z" fill="black"/>
</svg>
