<svg width="26" height="38" viewBox="0 0 26 38" fill="none" xmlns="http://www.w3.org/2000/svg">
<path d="M7.91797 34.6764H20.8061V34.1764V33.6764C19.8752 33.6764 19.16 32.9273 18.6388 31.9735C18.3887 31.5158 18.208 31.0538 18.0895 30.7034C18.0306 30.5291 17.9877 30.3845 17.9599 30.2846C17.946 30.2347 17.9359 30.1961 17.9294 30.1707L17.9225 30.1428L17.921 30.1367L17.9209 30.1362L17.9208 30.1359L17.9208 30.1358L17.9208 30.1358L17.8305 29.7501H17.5072L14.6067 28.8543L14.4637 28.8101L14.32 28.8518L11.151 29.7698L10.8699 29.8513L10.8034 30.1358L10.8033 30.1358L10.8033 30.1359L10.8033 30.1362L10.8031 30.1367L10.8017 30.1428L10.7947 30.1707C10.7882 30.1961 10.7781 30.2347 10.7642 30.2846C10.7364 30.3845 10.6935 30.5291 10.6346 30.7034C10.5161 31.0538 10.3354 31.5158 10.0853 31.9735C9.56412 32.9273 8.84887 33.6764 7.91797 33.6764V34.1764V34.6764Z" fill="white" stroke="black"/>
<path d="M23.0452 37.5013H23.5452V37.0013V34.6214C23.5452 34.0941 23.1122 33.6758 22.5938 33.6758H6.32447C5.80612 33.6758 5.37305 34.0941 5.37305 34.6214V37.0013V37.5013H5.87305H23.0452Z" fill="white" stroke="black"/>
<path d="M13.612 8.97421V8.98709C11.9505 9.05801 10.3811 9.4807 8.97822 10.1829V1V0.5H8.47822H3.2304H2.7304V1V19.9628C2.7304 19.9949 2.72915 20.0286 2.7274 20.0737L2.72726 20.0772C2.72565 20.1185 2.72363 20.1702 2.72363 20.2235C2.72363 26.4419 7.82895 31.4728 14.112 31.4728C20.395 31.4728 25.5004 26.4419 25.5004 20.2235C25.5004 14.0052 20.395 8.97421 14.112 8.97421H13.612Z" fill="white" stroke="black"/>
<path d="M11.244 4.13281V3.63281H10.744H1H0.5V4.13281V7.56439V8.06439H1H10.744H11.244V7.56439V4.13281Z" fill="white" stroke="black"/>
<path d="M22.0578 22.6633L21.4258 21.4667V18.4652L22.0555 17.2775C22.1526 17.0948 22.1458 16.8764 22.042 16.7004L20.9473 14.8308C20.8434 14.6526 20.6538 14.5389 20.4462 14.53L19.0784 14.4699L16.4466 12.9702L15.713 11.8293C15.6024 11.6555 15.4083 11.5508 15.2006 11.5508H13.0112C12.8036 11.5508 12.6095 11.6555 12.4989 11.8293L11.7653 12.9702L9.13574 14.4632L7.76793 14.5233C7.56027 14.5322 7.37067 14.6459 7.26684 14.8242L6.17214 16.6937C6.06831 16.872 6.0638 17.0903 6.1586 17.2708L6.79059 18.4674V21.4689L6.1586 22.6655C6.06154 22.8483 6.06831 23.0666 6.17214 23.2427L7.26684 25.1122C7.37067 25.2905 7.56027 25.4041 7.76793 25.413L9.13574 25.4732L11.7675 26.9728L12.5011 28.1137C12.6117 28.2875 12.8058 28.3923 13.0135 28.3923H15.2029C15.4105 28.3923 15.6047 28.2875 15.7153 28.1137L16.4488 26.9728L19.0806 25.4732L20.4484 25.413C20.6561 25.4041 20.8457 25.2905 20.9495 25.1122L22.0442 23.2427C22.1481 23.0644 22.1526 22.846 22.0578 22.6655V22.6633ZM14.1082 24.7601C11.4222 24.7601 9.24408 22.6143 9.24408 19.9648C9.24408 17.3154 11.4222 15.1695 14.1082 15.1695C16.7942 15.1695 18.9723 17.3154 18.9723 19.9648C18.9723 22.6143 16.7942 24.7601 14.1082 24.7601Z" fill="black"/>
<path d="M14.1089 22.5419C15.5487 22.5419 16.7159 21.3896 16.7159 19.9682C16.7159 18.5468 15.5487 17.3945 14.1089 17.3945C12.6691 17.3945 11.502 18.5468 11.502 19.9682C11.502 21.3896 12.6691 22.5419 14.1089 22.5419Z" fill="black"/>
</svg>
