<svg width="42" height="62" viewBox="0 0 42 62" fill="none" xmlns="http://www.w3.org/2000/svg">
<path d="M12.5303 56.7926H34.0106V56.2926V55.7926C32.2618 55.7926 30.9846 54.3892 30.1058 52.781C29.6769 51.9961 29.3685 51.2069 29.1671 50.6112C29.0667 50.3141 28.9935 50.0673 28.9458 49.8958C28.9219 49.8102 28.9044 49.7434 28.893 49.6989C28.8874 49.6766 28.8832 49.6599 28.8806 49.6491L28.8778 49.6374L28.8772 49.635L28.8772 49.6349L28.8771 49.6347L28.8771 49.6347L28.7868 49.2488H28.462L23.5797 47.741L23.4368 47.6969L23.293 47.7385L18.0114 49.2686L17.7303 49.35L17.6637 49.6347L17.6637 49.6347L17.6637 49.6349L17.6636 49.635L17.6631 49.6374L17.6602 49.6491C17.6576 49.6599 17.6535 49.6766 17.6478 49.6989C17.6364 49.7434 17.6189 49.8102 17.5951 49.8958C17.5473 50.0673 17.4742 50.3141 17.3737 50.6112C17.1723 51.2069 16.8639 51.9961 16.4351 52.781C15.5563 54.3892 14.279 55.7926 12.5303 55.7926V56.2926V56.7926Z" fill="#FEF546" stroke="black"/>
<path d="M37.7421 61.4982H38.2421V60.9982V57.0318C38.2421 56.3411 37.6736 55.7891 36.9898 55.7891H9.8742C9.19033 55.7891 8.62183 56.3411 8.62183 57.0318V60.9982V61.4982H9.12183H37.7421Z" fill="#FEF546" stroke="black"/>
<path d="M22.3528 14.6237V14.6339C19.3203 14.7127 16.4684 15.5065 13.9632 16.8533V1V0.5H13.4632H4.71685H4.21685V1V32.6047C4.21685 32.6657 4.21447 32.7284 4.21159 32.8025L4.21143 32.8064C4.20871 32.8763 4.20557 32.957 4.20557 33.0392C4.20557 43.215 12.5611 51.4547 22.8528 51.4547C33.1445 51.4547 41.5001 43.215 41.5001 33.0392C41.5001 22.8634 33.1445 14.6237 22.8528 14.6237H22.3528Z" fill="#FEF546" stroke="black"/>
<path d="M17.74 6.21875V5.71875H17.24H1H0.5V6.21875V11.938V12.438H1H17.24H17.74V11.938V6.21875Z" fill="#FEF546" stroke="black"/>
<path d="M36.0983 37.1068L35.045 35.1125V30.11L36.0946 28.1305C36.2563 27.8259 36.245 27.462 36.072 27.1686L34.2475 24.0527C34.0744 23.7556 33.7584 23.5662 33.4123 23.5513L31.1326 23.4511L26.7463 20.9516L25.5237 19.0502C25.3394 18.7605 25.0158 18.5859 24.6698 18.5859H21.0207C20.6746 18.5859 20.3511 18.7605 20.1668 19.0502L18.9442 20.9516L14.5616 23.4399L12.2819 23.5402C11.9358 23.555 11.6198 23.7444 11.4468 24.0416L9.62227 27.1575C9.44922 27.4546 9.4417 27.8185 9.5997 28.1193L10.653 30.1137V35.1162L9.5997 37.1105C9.43793 37.4151 9.44922 37.779 9.62227 38.0724L11.4468 41.1883C11.6198 41.4854 11.9358 41.6748 12.2819 41.6897L14.5616 41.7899L18.9479 44.2894L20.1706 46.1908C20.3549 46.4805 20.6784 46.6551 21.0245 46.6551H24.6735C25.0196 46.6551 25.3431 46.4805 25.5275 46.1908L26.7501 44.2894L31.1364 41.7899L33.4161 41.6897C33.7622 41.6748 34.0782 41.4854 34.2512 41.1883L36.0757 38.0724C36.2488 37.7753 36.2563 37.4113 36.0983 37.1105V37.1068ZM22.849 40.6015C18.3724 40.6015 14.7422 37.0251 14.7422 32.6094C14.7422 28.1936 18.3724 24.6172 22.849 24.6172C27.3256 24.6172 30.9558 28.1936 30.9558 32.6094C30.9558 37.0251 27.3256 40.6015 22.849 40.6015Z" fill="black"/>
<path d="M22.8489 36.9032C25.2485 36.9032 27.1938 34.9827 27.1938 32.6137C27.1938 30.2447 25.2485 28.3242 22.8489 28.3242C20.4492 28.3242 18.5039 30.2447 18.5039 32.6137C18.5039 34.9827 20.4492 36.9032 22.8489 36.9032Z" fill="black"/>
</svg>
