<svg width="32" height="46" viewBox="0 0 32 46" fill="none" xmlns="http://www.w3.org/2000/svg">
<path d="M9.45557 41.0458C10.7324 41.0458 11.6693 39.9551 12.3084 38.7056C13 37.3532 14.1136 36.0711 15.6864 35.6154L16.1615 35.4778C17.0052 35.2334 17.9021 35.2412 18.7415 35.5005L18.5945 35.9765L18.7415 35.5005L21.2007 36.26C21.2565 36.273 21.3183 36.2976 21.3794 36.342C21.5288 36.4502 21.5651 36.5991 21.573 36.6328L9.45557 41.0458ZM9.45557 41.0458V41.5458V42.0458H25.2078V41.5458V41.0458C24.0105 41.0458 23.111 40.0889 22.4708 38.924C21.8488 37.7925 21.5765 36.6476 21.573 36.6329L9.45557 41.0458ZM21.2109 37.2308C21.2141 37.2299 21.2177 37.229 21.2201 37.2283L21.22 37.2283C21.2192 37.2286 21.2159 37.2295 21.2109 37.2308Z" fill="#999999" stroke="black"/>
<path d="M27.9438 45.5002H28.4438V45.0002V42.0916C28.4438 41.5098 27.9656 41.0469 27.392 41.0469H7.50731C6.93379 41.0469 6.45557 41.5098 6.45557 42.0916V45.0002V45.5002H6.95557H27.9438Z" fill="#999999" stroke="black"/>
<path d="M16.5243 10.8574V10.8689C14.4063 10.9433 12.4097 11.489 10.6386 12.4047V1V0.5H10.1386H3.72458H3.22458V1V24.1767C3.22458 24.2185 3.22296 24.2619 3.22083 24.3166L3.22068 24.3203C3.2187 24.3711 3.21631 24.4325 3.21631 24.4954C3.21631 32.0329 9.40504 38.1334 17.0243 38.1334C24.6435 38.1334 30.8323 32.0329 30.8323 24.4954C30.8323 16.9579 24.6435 10.8574 17.0243 10.8574H16.5243Z" fill="#999999" stroke="black"/>
<path d="M13.4093 4.82812V4.32812H12.9093H1H0.5V4.82812V9.02227V9.52227H1H12.9093H13.4093V9.02227V4.82812Z" fill="#999999" stroke="black"/>
<path d="M26.7375 27.4765L25.9651 26.014V22.3455L26.7348 20.8939C26.8534 20.6705 26.8451 20.4036 26.7182 20.1885L25.3802 17.9035C25.2533 17.6856 25.0216 17.5467 24.7678 17.5358L23.096 17.4623L19.8794 15.6294L18.9828 14.235C18.8476 14.0225 18.6104 13.8945 18.3566 13.8945H15.6806C15.4268 13.8945 15.1896 14.0225 15.0544 14.235L14.1578 15.6294L10.944 17.4541L9.27218 17.5276C9.01838 17.5385 8.78665 17.6774 8.65975 17.8953L7.32177 20.1803C7.19487 20.3982 7.18936 20.6651 7.30522 20.8857L8.07766 22.3482V26.0167L7.30522 27.4792C7.1866 27.7025 7.19487 27.9694 7.32177 28.1846L8.65975 30.4696C8.78665 30.6875 9.01838 30.8264 9.27218 30.8373L10.944 30.9108L14.1606 32.7437L15.0572 34.1381C15.1924 34.3505 15.4296 34.4785 15.6834 34.4785H18.3593C18.6131 34.4785 18.8504 34.3505 18.9856 34.1381L19.8821 32.7437L23.0988 30.9108L24.7706 30.8373C25.0244 30.8264 25.2561 30.6875 25.383 30.4696L26.721 28.1846C26.8479 27.9667 26.8534 27.6998 26.7375 27.4792V27.4765ZM17.0214 30.0393C13.7385 30.0393 11.0764 27.4166 11.0764 24.1784C11.0764 20.9402 13.7385 18.3174 17.0214 18.3174C20.3042 18.3174 22.9664 20.9402 22.9664 24.1784C22.9664 27.4166 20.3042 30.0393 17.0214 30.0393Z" fill="black"/>
<path d="M17.0222 27.3264C18.782 27.3264 20.2085 25.918 20.2085 24.1808C20.2085 22.4435 18.782 21.0352 17.0222 21.0352C15.2625 21.0352 13.8359 22.4435 13.8359 24.1808C13.8359 25.918 15.2625 27.3264 17.0222 27.3264Z" fill="black"/>
</svg>
