<svg width="22" height="32" viewBox="0 0 22 32" fill="none" xmlns="http://www.w3.org/2000/svg">
<path d="M14.8145 24.8885L13.2524 24.4061C12.5793 24.1983 11.8601 24.1919 11.1835 24.388C9.91874 24.7544 9.04708 25.7905 8.47228 26.8174C8.0417 27.5866 7.47587 28.1463 6.76514 28.1463V28.6463V29.1463H17.5053V28.6463V28.1463C16.7827 28.1463 16.2101 27.5672 15.7786 26.7821C15.5732 26.4084 15.4237 26.0292 15.3249 25.7388C15.228 25.454 15.1826 25.2631 15.1819 25.26C15.1819 25.26 15.1819 25.26 15.1819 25.26C15.174 25.2265 15.1378 25.0776 14.9883 24.9693C14.9289 24.9263 14.869 24.9018 14.8145 24.8885Z" fill="#999999" stroke="black"/>
<path d="M19.3712 31.4991H19.8712V30.9991V29.0159C19.8712 28.5295 19.472 28.1445 18.995 28.1445H5.43722C4.96026 28.1445 4.56104 28.5295 4.56104 29.0159V30.9991V31.4991H5.06104H19.3712Z" fill="#999999" stroke="black"/>
<path d="M11.4267 7.56185V7.57638C10.107 7.64348 8.85763 7.97472 7.73185 8.51857V1V0.5H7.23185H2.85867H2.35867V1V16.8023C2.35867 16.8272 2.3577 16.8537 2.35623 16.8915L2.3561 16.8948C2.35476 16.929 2.35303 16.9735 2.35303 17.0196C2.35303 22.2486 6.64578 26.4774 11.9267 26.4774C17.2075 26.4774 21.5003 22.2486 21.5003 17.0196C21.5003 11.7906 17.2075 7.56185 11.9267 7.56185H11.4267Z" fill="#999999" stroke="black"/>
<path d="M9.62 3.60938V3.10938H9.12H1H0.5V3.60938V6.46902V6.96902H1H9.12H9.62V6.46902V3.60938Z" fill="#999999" stroke="black"/>
<path d="M18.5483 19.0534L18.0216 18.0562V15.555L18.5464 14.5652C18.6273 14.413 18.6217 14.231 18.5351 14.0843L17.6229 12.5263C17.5364 12.3778 17.3784 12.2831 17.2053 12.2757L16.0655 12.2255L13.8723 10.9758L13.261 10.0251C13.1688 9.88024 13.0071 9.79297 12.834 9.79297H11.0095C10.8365 9.79297 10.6747 9.88024 10.5825 10.0251L9.97124 10.9758L7.77995 12.22L6.6401 12.2701C6.46705 12.2775 6.30906 12.3722 6.22253 12.5208L5.31028 14.0787C5.22376 14.2273 5.21999 14.4093 5.29899 14.5597L5.82566 15.5568V18.0581L5.29899 19.0553C5.21811 19.2075 5.22376 19.3895 5.31028 19.5362L6.22253 21.0942C6.30906 21.2427 6.46705 21.3374 6.6401 21.3448L7.77995 21.395L9.97312 22.6447L10.5844 23.5954C10.6766 23.7403 10.8383 23.8275 11.0114 23.8275H12.8359C13.0089 23.8275 13.1707 23.7403 13.2629 23.5954L13.8742 22.6447L16.0674 21.395L17.2072 21.3448C17.3802 21.3374 17.5382 21.2427 17.6248 21.0942L18.537 19.5362C18.6235 19.3876 18.6273 19.2057 18.5483 19.0553V19.0534ZM11.9237 20.8008C9.68534 20.8008 7.87023 19.0126 7.87023 16.8047C7.87023 14.5968 9.68534 12.8086 11.9237 12.8086C14.162 12.8086 15.9771 14.5968 15.9771 16.8047C15.9771 19.0126 14.162 20.8008 11.9237 20.8008Z" fill="black"/>
<path d="M11.9239 18.9496C13.1238 18.9496 14.0964 17.9894 14.0964 16.8049C14.0964 15.6204 13.1238 14.6602 11.9239 14.6602C10.7241 14.6602 9.75146 15.6204 9.75146 16.8049C9.75146 17.9894 10.7241 18.9496 11.9239 18.9496Z" fill="black"/>
</svg>
