<svg width="26" height="26" viewBox="0 0 26 26" fill="none" xmlns="http://www.w3.org/2000/svg">
<rect x="0.5" y="0.5" width="25" height="25" rx="4.5" fill="white" stroke="black"/>
<rect x="1.91187" y="1.91016" width="22.1765" height="22.1765" rx="4.5" fill="#FEF546" stroke="black"/>
<path d="M12.9705 18.1175C12.3521 18.1175 11.7295 18.0032 11.1027 17.7745C10.4843 17.5458 9.92953 17.2069 9.43823 16.758L10.7342 15.1952C11.0646 15.4832 11.4331 15.7161 11.8396 15.894C12.2547 16.0719 12.6486 16.1608 13.0213 16.1608C13.4448 16.1608 13.754 16.0888 13.9488 15.9448C14.1521 15.7924 14.2538 15.5891 14.2538 15.3349C14.2538 15.1486 14.1987 15.0004 14.0886 14.8902C13.9785 14.7717 13.8218 14.6658 13.6185 14.5726C13.4236 14.4794 13.1907 14.3778 12.9196 14.2677L11.7126 13.7594C11.3822 13.6239 11.0688 13.4418 10.7724 13.2131C10.4844 12.9844 10.2472 12.7006 10.0608 12.3618C9.88294 12.0229 9.794 11.6248 9.794 11.1674C9.794 10.6338 9.938 10.1509 10.226 9.71895C10.5225 9.28695 10.9291 8.94389 11.4458 8.68977C11.9625 8.43565 12.5554 8.30859 13.2246 8.30859C13.7752 8.30859 14.3215 8.41448 14.8636 8.62624C15.4058 8.82953 15.8844 9.13871 16.2994 9.55377L15.1686 10.9768C14.8552 10.7397 14.546 10.5618 14.2411 10.4432C13.9361 10.3161 13.5973 10.2526 13.2246 10.2526C12.8773 10.2526 12.602 10.3204 12.3987 10.4559C12.2039 10.5914 12.1065 10.782 12.1065 11.0277C12.1065 11.2055 12.1658 11.3538 12.2844 11.4724C12.4114 11.5909 12.5808 11.6968 12.7926 11.79C13.0044 11.8832 13.25 11.9848 13.5295 12.0949L14.7112 12.5651C15.1008 12.7175 15.4354 12.9124 15.7149 13.1495C15.9945 13.3867 16.2062 13.6705 16.3502 14.0008C16.5027 14.3227 16.5789 14.7081 16.5789 15.1571C16.5789 15.6822 16.4349 16.1693 16.1469 16.6182C15.8674 17.0672 15.4566 17.4314 14.9145 17.7109C14.3808 17.982 13.7328 18.1175 12.9705 18.1175Z" fill="black"/>
</svg>
