<svg width="22" height="24" viewBox="0 0 22 24" fill="none" xmlns="http://www.w3.org/2000/svg">
<path d="M10.9995 16.6512L10.9995 10.0625" stroke="black" stroke-miterlimit="10"/>
<path d="M15.5288 1.24609L6.47217 1.24609L6.47217 10.3027L15.5288 10.3027L15.5288 1.24609Z" fill="#FEF546" stroke="black" stroke-miterlimit="10"/>
<path d="M10.7955 8.5094C10.465 8.5094 10.1321 8.44827 9.79704 8.326C9.46647 8.20374 9.16987 8.02261 8.90723 7.78261L9.60006 6.94713C9.77666 7.1011 9.97364 7.22562 10.191 7.32072C10.4129 7.41581 10.6235 7.46336 10.8227 7.46336C11.0491 7.46336 11.2144 7.42487 11.3185 7.34789C11.4272 7.26638 11.4816 7.1577 11.4816 7.02185C11.4816 6.92223 11.4521 6.84298 11.3933 6.78412C11.3344 6.72072 11.2506 6.66412 11.1419 6.6143C11.0378 6.56449 10.9133 6.51015 10.7684 6.45129L10.1231 6.17959C9.94647 6.10713 9.77892 6.00978 9.62043 5.88751C9.46647 5.76525 9.33968 5.61355 9.24006 5.43242C9.14496 5.25129 9.09742 5.03846 9.09742 4.79393C9.09742 4.50864 9.1744 4.25053 9.32836 4.01959C9.48685 3.78864 9.70421 3.60525 9.98043 3.4694C10.2567 3.33355 10.5736 3.26563 10.9314 3.26563C11.2257 3.26563 11.5178 3.32223 11.8076 3.43544C12.0974 3.54412 12.3533 3.7094 12.5752 3.93129L11.9706 4.69204C11.8031 4.56525 11.6378 4.47015 11.4748 4.40676C11.3118 4.33883 11.1306 4.30487 10.9314 4.30487C10.7457 4.30487 10.5985 4.3411 10.4899 4.41355C10.3857 4.486 10.3336 4.58789 10.3336 4.71921C10.3336 4.8143 10.3653 4.89355 10.4287 4.95695C10.4967 5.02034 10.5872 5.07695 10.7004 5.12676C10.8136 5.17657 10.945 5.23091 11.0944 5.28978L11.7261 5.5411C11.9344 5.62261 12.1133 5.72676 12.2627 5.85355C12.4121 5.98034 12.5253 6.13204 12.6023 6.30864C12.6838 6.48072 12.7246 6.68676 12.7246 6.92676C12.7246 7.20751 12.6476 7.46789 12.4936 7.70789C12.3442 7.94789 12.1246 8.14261 11.8348 8.29204C11.5495 8.43695 11.2031 8.5094 10.7955 8.5094Z" fill="black"/>
<path d="M1 22.7513L11 16.7135L1 10.6758L1 22.7513Z" fill="#FEF546" stroke="black" stroke-linecap="round" stroke-linejoin="round"/>
<path d="M20.9995 22.7513L10.9995 16.7135L20.9995 10.6758V22.7513Z" fill="#FEF546" stroke="black" stroke-linecap="round" stroke-linejoin="round"/>
</svg>
