<svg width="20" height="43" viewBox="0 0 20 43" fill="none" xmlns="http://www.w3.org/2000/svg">
<path d="M1.17647 0.5H18.8235C19.1971 0.5 19.5 0.802866 19.5 1.17647V18.8235C19.5 19.1971 19.1971 19.5 18.8235 19.5H1.17647C0.802866 19.5 0.5 19.1971 0.5 18.8235V1.17647C0.5 0.802866 0.802866 0.5 1.17647 0.5Z" fill="#E0E0E0" stroke="black"/>
<path d="M18.8236 18.8238H1.17651L10 1.17676L18.8236 18.8238Z" fill="black"/>
<path d="M10.1057 17.5173C9.51744 17.5173 8.99979 17.4349 8.55273 17.2702C8.11352 17.0977 7.74489 16.8389 7.44685 16.4938C7.14881 16.1408 6.92528 15.6938 6.77626 15.1526C6.62724 14.6114 6.55273 13.9722 6.55273 13.235V8.58789H8.64685V13.4585C8.64685 14.0075 8.70175 14.4467 8.81156 14.7761C8.92136 15.1055 9.08215 15.3448 9.29391 15.4938C9.51352 15.635 9.78411 15.7055 10.1057 15.7055C10.4272 15.7055 10.6978 15.635 10.9174 15.4938C11.137 15.3448 11.3018 15.1055 11.4116 14.7761C11.5292 14.4467 11.588 14.0075 11.588 13.4585V8.58789H13.6116V13.235C13.6116 13.9722 13.537 14.6114 13.388 15.1526C13.2469 15.6938 13.0272 16.1408 12.7292 16.4938C12.439 16.8389 12.0743 17.0977 11.6351 17.2702C11.1959 17.4349 10.6861 17.5173 10.1057 17.5173Z" fill="white"/>
<path d="M1.17647 23.001H18.8235C19.1971 23.001 19.5 23.3038 19.5 23.6774V41.3245C19.5 41.6981 19.1971 42.001 18.8235 42.001H1.17647C0.802866 42.001 0.5 41.6981 0.5 41.3245V23.6774C0.5 23.3038 0.802866 23.001 1.17647 23.001Z" fill="#E0E0E0" stroke="black"/>
<path d="M1.17651 23.6777H18.8236L10 41.3248L1.17651 23.6777Z" fill="black"/>
<path d="M7.05884 33.9717V25.207H9.57648C10.4706 25.207 11.2471 25.36 11.9059 25.6659C12.5726 25.9639 13.0902 26.4306 13.4588 27.0659C13.8275 27.7011 14.0118 28.5286 14.0118 29.5482C14.0118 30.56 13.8275 31.3953 13.4588 32.0541C13.0981 32.7051 12.5922 33.1874 11.9412 33.5012C11.2981 33.8149 10.549 33.9717 9.69413 33.9717H7.05884ZM9.16472 32.2776H9.44707C9.91766 32.2776 10.3333 32.1953 10.6941 32.0306C11.0628 31.8659 11.349 31.5835 11.553 31.1835C11.7569 30.7835 11.8588 30.2384 11.8588 29.5482C11.8588 28.8502 11.7569 28.309 11.553 27.9247C11.349 27.5404 11.0628 27.2737 10.6941 27.1247C10.3333 26.9678 9.91766 26.8894 9.44707 26.8894H9.16472V32.2776Z" fill="white"/>
</svg>
