<svg width="40" height="86" viewBox="0 0 40 86" fill="none" xmlns="http://www.w3.org/2000/svg">
<path d="M37.2056 1.45996H22.0156C20.9111 1.45996 20.0156 2.35539 20.0156 3.45996V82.54C20.0156 83.6445 20.9111 84.54 22.0156 84.54H37.2056C38.3102 84.54 39.2056 83.6445 39.2056 82.54V3.45996C39.2056 2.35539 38.3102 1.45996 37.2056 1.45996Z" fill="white" stroke="black" stroke-miterlimit="10"/>
<path d="M20.0156 48.7698V81.3398C20.0156 83.1098 21.4456 84.5398 23.2156 84.5398H31.3057C33.0757 84.5398 34.5056 83.1098 34.5056 81.3398V63.7098L20.0156 48.7598V48.7698Z" fill="#999999" stroke="black" stroke-miterlimit="10"/>
<path d="M18.0064 1.45996H2.81641C1.71184 1.45996 0.816406 2.35539 0.816406 3.45996V82.54C0.816406 83.6445 1.71184 84.54 2.81641 84.54H18.0064C19.111 84.54 20.0064 83.6445 20.0064 82.54V3.45996C20.0064 2.35539 19.111 1.45996 18.0064 1.45996Z" fill="white" stroke="black" stroke-miterlimit="10"/>
<path d="M20.0173 46.62V4.65996C20.0173 2.88996 18.5873 1.45996 16.8173 1.45996H8.72736C6.95736 1.45996 5.52734 2.88996 5.52734 4.65996V31.67L20.0173 46.62Z" fill="#999999" stroke="black" stroke-miterlimit="10"/>
</svg>
