<svg width="33" height="46" viewBox="0 0 33 46" fill="none" xmlns="http://www.w3.org/2000/svg">
<path d="M16.3423 45V1" stroke="black" stroke-linecap="round" stroke-linejoin="round"/>
<path d="M9.70117 45H22.9842" stroke="black" stroke-linecap="round" stroke-linejoin="round"/>
<path d="M9.69824 1H22.9813" stroke="black" stroke-linecap="round" stroke-linejoin="round"/>
<path d="M0.568359 33.3789V11.794H27.1344C29.8823 11.794 32.1155 14.0272 32.1155 16.7751V28.3978C32.1155 31.1457 29.8823 33.3789 27.1344 33.3789H0.568359Z" fill="white" stroke="black" stroke-miterlimit="10"/>
<path d="M22.3625 22.6192C22.3625 24.0687 21.8245 25.6228 20.7635 26.7734L18.9255 25.2492C19.5979 24.4722 20.0612 23.4411 20.0612 22.5594C20.0612 21.5731 19.6876 21.1099 19.0899 21.1099C18.4473 21.1099 18.2381 21.7226 17.8346 22.6789L17.2369 24.0986C16.7736 25.2642 15.8023 26.355 14.1884 26.355C12.3205 26.355 10.8262 24.6814 10.8262 22.3203C10.8262 21.0352 11.3193 19.6753 12.2906 18.704L13.9643 20.034C13.4114 20.7662 13.1125 21.4536 13.1125 22.3203C13.1125 23.1422 13.4413 23.6353 14.0241 23.6353C14.6517 23.6353 14.8908 22.9479 15.2793 21.9617L15.8322 20.5719C16.3851 19.1971 17.3116 18.3752 18.8807 18.3752C20.7336 18.3752 22.3625 19.9294 22.3625 22.6192Z" fill="black"/>
</svg>
