<svg width="15" height="29" viewBox="0 0 15 29" fill="none" xmlns="http://www.w3.org/2000/svg">
<path d="M12.564 1H8.3589C7.77829 1 7.30762 1.47067 7.30762 2.05128V27.2295C7.30762 27.8101 7.77829 28.2808 8.3589 28.2808H12.564C13.1446 28.2808 13.6153 27.8101 13.6153 27.2295V2.05128C13.6153 1.47067 13.1446 1 12.564 1Z" fill="#E0E0E0" stroke="black" stroke-miterlimit="10"/>
<path d="M7 16V26.7231C7 27.3013 7.47308 27.7744 8.05128 27.7744H10.732C11.3102 27.7744 11.7833 27.3013 11.7833 26.7231V20.941L7 16.0526V16Z" fill="#E0E0E0" stroke="black" stroke-miterlimit="10"/>
<path d="M6.25641 1H2.05128C1.47067 1 1 1.47067 1 2.05128V27.2295C1 27.8101 1.47067 28.2808 2.05128 28.2808H6.25641C6.83702 28.2808 7.30769 27.8101 7.30769 27.2295V2.05128C7.30769 1.47067 6.83702 1 6.25641 1Z" fill="#E0E0E0" stroke="black" stroke-miterlimit="10"/>
<path d="M7.30798 15.8231V2.05128C7.30798 1.47308 6.8349 1 6.2567 1H3.57594C2.99773 1 2.52466 1.47308 2.52466 2.05128V10.9346L7.30798 15.8231Z" fill="#E0E0E0" stroke="black" stroke-miterlimit="10"/>
</svg>
