<svg width="23" height="22" viewBox="0 0 23 22" fill="none" xmlns="http://www.w3.org/2000/svg">
<path d="M16.4041 11L9.81543 11" stroke="black" stroke-miterlimit="10"/>
<path d="M1 6.47074L1 15.5273L10.0566 15.5273L10.0566 6.47074L1 6.47074Z" fill="#999999" stroke="black" stroke-miterlimit="10"/>
<path d="M8.26526 11.2054C8.26526 11.536 8.20413 11.8688 8.08186 12.2039C7.9596 12.5345 7.77847 12.8311 7.53847 13.0937L6.70299 12.4009C6.85696 12.2243 6.98148 12.0273 7.07658 11.81C7.17167 11.5881 7.21922 11.3775 7.21922 11.1783C7.21922 10.9519 7.18073 10.7866 7.10375 10.6824C7.02224 10.5737 6.91356 10.5194 6.77771 10.5194C6.67809 10.5194 6.59884 10.5488 6.53998 10.6077C6.47658 10.6666 6.41997 10.7504 6.37016 10.859C6.32035 10.9632 6.26601 11.0877 6.20714 11.2326L5.93545 11.8779C5.86299 12.0545 5.76564 12.2221 5.64337 12.3805C5.52111 12.5345 5.36941 12.6613 5.18828 12.7609C5.00714 12.856 4.79431 12.9036 4.54979 12.9036C4.2645 12.9036 4.00639 12.8266 3.77545 12.6726C3.5445 12.5141 3.36111 12.2968 3.22526 12.0205C3.08941 11.7443 3.02148 11.4273 3.02148 11.0696C3.02148 10.7753 3.07809 10.4832 3.1913 10.1934C3.29997 9.90356 3.46526 9.64771 3.68714 9.42582L4.4479 10.0304C4.32111 10.1979 4.22601 10.3632 4.16262 10.5262C4.09469 10.6892 4.06073 10.8704 4.06073 11.0696C4.06073 11.2553 4.09696 11.4024 4.16941 11.5111C4.24186 11.6153 4.34375 11.6673 4.47507 11.6673C4.57016 11.6673 4.64941 11.6356 4.71281 11.5722C4.7762 11.5043 4.8328 11.4137 4.88262 11.3005C4.93243 11.1873 4.98677 11.056 5.04564 10.9066L5.29696 10.2749C5.37847 10.0666 5.48262 9.88771 5.60941 9.73828C5.7362 9.58884 5.8879 9.47564 6.0645 9.39866C6.23658 9.31715 6.44262 9.27639 6.68262 9.27639C6.96337 9.27639 7.22375 9.35337 7.46375 9.50733C7.70375 9.65677 7.89847 9.87639 8.0479 10.1662C8.19281 10.4515 8.26526 10.7979 8.26526 11.2054Z" fill="black"/>
<path d="M22.5061 21L16.4684 11L10.4307 21L22.5061 21Z" fill="#999999" stroke="black" stroke-linecap="round" stroke-linejoin="round"/>
<path d="M22.5061 0.999999L16.4684 11L10.4307 1L22.5061 0.999999Z" fill="#999999" stroke="black" stroke-linecap="round" stroke-linejoin="round"/>
</svg>
