<svg width="33" height="24" viewBox="0 0 33 24" fill="none" xmlns="http://www.w3.org/2000/svg">
<path d="M1 12.2266L32.3158 12.2266" stroke="black" stroke-linecap="round" stroke-linejoin="round"/>
<path d="M1 7.5L1 16.9538" stroke="black" stroke-linecap="round" stroke-linejoin="round"/>
<path d="M32.3159 7.5V16.9538" stroke="black" stroke-linecap="round" stroke-linejoin="round"/>
<path d="M9.27197 1L24.6344 1V19.9076C24.6344 21.8634 23.045 23.4528 21.0893 23.4528H12.8172C10.8614 23.4528 9.27197 21.8634 9.27197 19.9076L9.27197 1Z" fill="white" stroke="black" stroke-miterlimit="10"/>
<path d="M16.9284 16.5114C15.8967 16.5114 14.7906 16.1285 13.9717 15.3734L15.0565 14.0652C15.6096 14.5438 16.3434 14.8736 16.9709 14.8736C17.6729 14.8736 18.0026 14.6077 18.0026 14.1822C18.0026 13.7249 17.5665 13.576 16.8858 13.2889L15.8754 12.8634C15.0459 12.5337 14.2695 11.8424 14.2695 10.6938C14.2695 9.36434 15.4607 8.30078 17.1411 8.30078C18.0557 8.30078 19.0236 8.65175 19.7149 9.34307L18.7683 10.5342C18.2472 10.1407 17.7579 9.92802 17.1411 9.92802C16.5561 9.92802 16.2051 10.162 16.2051 10.5768C16.2051 11.0235 16.6944 11.1937 17.3963 11.4702L18.3854 11.8637C19.3639 12.2572 19.9489 12.9166 19.9489 14.0333C19.9489 15.3522 18.8428 16.5114 16.9284 16.5114Z" fill="black"/>
</svg>
