<svg width="22" height="23" viewBox="0 0 22 23" fill="none" xmlns="http://www.w3.org/2000/svg">
<path d="M10.9995 16.4051L10.9995 9.81641" stroke="black" stroke-miterlimit="10"/>
<path d="M15.5288 1L6.47217 1L6.47217 10.0566L15.5288 10.0566L15.5288 1Z" fill="#999999" stroke="black" stroke-miterlimit="10"/>
<path d="M1 22.5052L11 16.4674L1 10.4297L1 22.5052Z" fill="#999999" stroke="black" stroke-linecap="round" stroke-linejoin="round"/>
<path d="M20.9995 22.5052L10.9995 16.4674L20.9995 10.4297V22.5052Z" fill="#999999" stroke="black" stroke-linecap="round" stroke-linejoin="round"/>
<path d="M8.51562 7.92366L10.0847 2.86328H11.5383L13.1073 7.92366H11.8303L11.1986 5.39687C11.0628 4.89423 10.9337 4.2897 10.7979 3.77347H10.7707C10.6485 4.30328 10.5126 4.89423 10.3835 5.39687L9.75185 7.92366H8.51562ZM9.58204 6.76215V5.82479H12.0273V6.76215H9.58204Z" fill="black"/>
</svg>
