<svg width="40" height="86" viewBox="0 0 40 86" fill="none" xmlns="http://www.w3.org/2000/svg">
<path d="M37.3423 1.45996H22.1523C21.0478 1.45996 20.1523 2.35539 20.1523 3.45996V82.54C20.1523 83.6445 21.0478 84.54 22.1523 84.54H37.3423C38.4469 84.54 39.3423 83.6445 39.3423 82.54V3.45996C39.3423 2.35539 38.4469 1.45996 37.3423 1.45996Z" fill="#FEF546" stroke="black" stroke-miterlimit="10"/>
<path d="M20.1523 48.7698V81.3398C20.1523 83.1098 21.5824 84.5398 23.3524 84.5398H31.4424C33.2124 84.5398 34.6423 83.1098 34.6423 81.3398V63.7098L20.1523 48.7598V48.7698Z" fill="#999999" stroke="black" stroke-miterlimit="10"/>
<path d="M18.1431 1.45996H2.95312C1.84856 1.45996 0.953125 2.35539 0.953125 3.45996V82.54C0.953125 83.6445 1.84856 84.54 2.95312 84.54H18.1431C19.2477 84.54 20.1431 83.6445 20.1431 82.54V3.45996C20.1431 2.35539 19.2477 1.45996 18.1431 1.45996Z" fill="#FEF546" stroke="black" stroke-miterlimit="10"/>
<path d="M20.1541 46.62V4.65996C20.1541 2.88996 18.724 1.45996 16.954 1.45996H8.86407C7.09407 1.45996 5.66406 2.88996 5.66406 4.65996V31.67L20.1541 46.62Z" fill="#999999" stroke="black" stroke-miterlimit="10"/>
</svg>
