<svg width="16" height="34" viewBox="0 0 16 34" fill="none" xmlns="http://www.w3.org/2000/svg">
<path d="M0.941176 0.5H15.0588C15.3025 0.5 15.5 0.697521 15.5 0.941176V15.0588C15.5 15.3025 15.3025 15.5 15.0588 15.5H0.941176C0.697521 15.5 0.5 15.3025 0.5 15.0588V0.941176C0.5 0.697521 0.697521 0.5 0.941176 0.5Z" fill="white" stroke="black"/>
<path d="M15.1176 15.0591H1L8.05882 0.941406L15.1176 15.0591Z" fill="black"/>
<path d="M0.941176 18.5H15.0588C15.3025 18.5 15.5 18.6975 15.5 18.9412V33.0588C15.5 33.3025 15.3025 33.5 15.0588 33.5H0.941176C0.697521 33.5 0.5 33.3025 0.5 33.0588V18.9412C0.5 18.6975 0.697521 18.5 0.941176 18.5Z" fill="white" stroke="black"/>
<path d="M1 18.9414H15.1176L8.05882 33.0591L1 18.9414Z" fill="black"/>
<path d="M7 14V7H8.68188V14H7Z" fill="white"/>
<path d="M8.09197 27C7.48143 27 6.94344 26.861 6.47798 26.5829C6.01252 26.2988 5.64983 25.8938 5.3899 25.3679C5.12997 24.8359 5 24.2012 5 23.4637C5 22.7263 5.12997 22.1006 5.3899 21.5868C5.64983 21.0669 6.01252 20.674 6.47798 20.408C6.94344 20.136 7.48143 20 8.09197 20C8.70855 20 9.24655 20.136 9.70596 20.408C10.1714 20.6801 10.5341 21.073 10.794 21.5868C11.054 22.1006 11.1839 22.7263 11.1839 23.4637C11.1839 24.2012 11.054 24.8359 10.794 25.3679C10.5341 25.8938 10.1714 26.2988 9.70596 26.5829C9.24655 26.861 8.70855 27 8.09197 27ZM8.09197 25.6036C8.38817 25.6036 8.64206 25.516 8.85363 25.3407C9.07124 25.1654 9.23748 24.9175 9.35233 24.5972C9.47323 24.2768 9.53368 23.899 9.53368 23.4637C9.53368 23.0285 9.47323 22.6567 9.35233 22.3484C9.23748 22.0341 9.07124 21.7953 8.85363 21.6321C8.64206 21.4689 8.38817 21.3873 8.09197 21.3873C7.79577 21.3873 7.53886 21.4689 7.32124 21.6321C7.10967 21.7953 6.94646 22.0341 6.83161 22.3484C6.71675 22.6567 6.65933 23.0285 6.65933 23.4637C6.65933 23.899 6.71675 24.2768 6.83161 24.5972C6.94646 24.9175 7.10967 25.1654 7.32124 25.3407C7.53886 25.516 7.79577 25.6036 8.09197 25.6036Z" fill="white"/>
</svg>
