<svg width="34" height="46" viewBox="0 0 34 46" fill="none" xmlns="http://www.w3.org/2000/svg">
<path d="M16.7739 45V1" stroke="black" stroke-linecap="round" stroke-linejoin="round"/>
<path d="M10.1313 45H23.4144" stroke="black" stroke-linecap="round" stroke-linejoin="round"/>
<path d="M10.1313 1H23.4144" stroke="black" stroke-linecap="round" stroke-linejoin="round"/>
<path d="M1 33.3789V11.794H27.566C30.314 11.794 32.5472 14.0272 32.5472 16.7751V28.3978C32.5472 31.1457 30.314 33.3789 27.566 33.3789H1Z" fill="#E0E0E0" stroke="black" stroke-miterlimit="10"/>
<path d="M22.7941 22.6192C22.7941 24.0687 22.2562 25.6228 21.1952 26.7734L19.3571 25.2492C20.0296 24.4722 20.4928 23.4411 20.4928 22.5594C20.4928 21.5731 20.1192 21.1099 19.5215 21.1099C18.8789 21.1099 18.6697 21.7226 18.2663 22.6789L17.6685 24.0986C17.2053 25.2642 16.234 26.355 14.6201 26.355C12.7522 26.355 11.2578 24.6814 11.2578 22.3203C11.2578 21.0352 11.7509 19.6753 12.7223 18.704L14.3959 20.034C13.843 20.7662 13.5442 21.4536 13.5442 22.3203C13.5442 23.1422 13.8729 23.6353 14.4557 23.6353C15.0833 23.6353 15.3224 22.9479 15.7109 21.9617L16.2638 20.5719C16.8168 19.1971 17.7432 18.3752 19.3123 18.3752C21.1653 18.3752 22.7941 19.9294 22.7941 22.6192Z" fill="black"/>
</svg>
