<svg width="26" height="54" viewBox="0 0 26 54" fill="none" xmlns="http://www.w3.org/2000/svg">
<path d="M23 1H15C13.8954 1 13 1.89543 13 3V50.9C13 52.0046 13.8954 52.9 15 52.9H23C24.1046 52.9 25 52.0046 25 50.9V3C25 1.89543 24.1046 1 23 1Z" fill="#999999" stroke="black" stroke-miterlimit="10"/>
<path d="M13 30.6001V51.0001C13 52.1001 13.9 53.0001 15 53.0001H20.1C21.2 53.0001 22.1 52.1001 22.1 51.0001V40.0001L13 30.7001V30.6001Z" fill="#CCCCCC" stroke="black" stroke-miterlimit="10"/>
<path d="M11 1H3C1.89543 1 1 1.89543 1 3V50.9C1 52.0046 1.89543 52.9 3 52.9H11C12.1046 52.9 13 52.0046 13 50.9V3C13 1.89543 12.1046 1 11 1Z" fill="#999999" stroke="black" stroke-miterlimit="10"/>
<path d="M12.9999 29.2V3C12.9999 1.9 12.0999 1 10.9999 1H5.8999C4.7999 1 3.8999 1.9 3.8999 3V19.9L12.9999 29.2Z" fill="#CCCCCC" stroke="black" stroke-miterlimit="10"/>
</svg>
