<svg width="32" height="32" viewBox="0 0 32 32" fill="none" xmlns="http://www.w3.org/2000/svg">
<path d="M16 31C24.2843 31 31 24.2843 31 16C31 7.71573 24.2843 1 16 1C7.71573 1 1 7.71573 1 16C1 24.2843 7.71573 31 16 31Z" fill="#999999" stroke="black" stroke-width="2" stroke-linecap="round" stroke-linejoin="round"/>
<path d="M23.1683 21.3896C22.5435 21.3896 21.9539 21.284 21.3995 21.0728C20.8451 20.8616 20.3523 20.5448 19.9211 20.1224C19.4987 19.6912 19.1643 19.1632 18.9179 18.5384C18.6803 17.9048 18.5615 17.1744 18.5615 16.3472C18.5615 15.5288 18.6847 14.8028 18.9311 14.1692C19.1863 13.5268 19.5295 12.9856 19.9607 12.5456C20.4007 12.1056 20.9023 11.7712 21.4655 11.5424C22.0287 11.3136 22.6227 11.1992 23.2475 11.1992C23.8899 11.1992 24.4619 11.3268 24.9635 11.582C25.4739 11.8372 25.8963 12.1364 26.2307 12.4796L25.0031 13.9844C24.7567 13.7556 24.4971 13.5708 24.2243 13.43C23.9515 13.2892 23.6391 13.2188 23.2871 13.2188C22.8647 13.2188 22.4775 13.342 22.1255 13.5884C21.7735 13.826 21.4919 14.1736 21.2807 14.6312C21.0783 15.08 20.9771 15.6256 20.9771 16.268C20.9771 16.9192 21.0695 17.478 21.2543 17.9444C21.4479 18.402 21.7163 18.754 22.0595 19.0004C22.4027 19.238 22.8031 19.3568 23.2607 19.3568C23.6567 19.3568 24.0087 19.2688 24.3167 19.0928C24.6335 18.9168 24.9063 18.7056 25.1351 18.4592L26.3759 19.9376C25.9623 20.4216 25.4827 20.7868 24.9371 21.0332C24.4003 21.2708 23.8107 21.3896 23.1683 21.3896Z" fill="black"/>
<path d="M14.3955 21.2051V11.3711H16.7583V21.2051H14.3955Z" fill="black"/>
<path d="M7.8534 21.2051V13.3379H5.2002V11.3711H12.8826V13.3379H10.2162V21.2051H7.8534Z" fill="black"/>
</svg>
