<svg width="34" height="34" viewBox="0 0 34 34" fill="none" xmlns="http://www.w3.org/2000/svg">
<path d="M17 33C25.8366 33 33 25.8366 33 17C33 8.16344 25.8366 1 17 1C8.16344 1 1 8.16344 1 17C1 25.8366 8.16344 33 17 33Z" fill="#FEF546" stroke="black" stroke-width="2" stroke-linecap="round" stroke-linejoin="round"/>
<path d="M24.6459 22.7487C23.9794 22.7487 23.3505 22.636 22.7591 22.4107C22.1678 22.1855 21.6421 21.8475 21.1822 21.397C20.7316 20.937 20.3749 20.3738 20.1121 19.7074C19.8587 19.0315 19.7319 18.2525 19.7319 17.3701C19.7319 16.4971 19.8633 15.7227 20.1262 15.0469C20.3984 14.3617 20.7645 13.7844 21.2244 13.3151C21.6937 12.8457 22.2288 12.489 22.8295 12.245C23.4303 12.0009 24.0639 11.8789 24.7303 11.8789C25.4156 11.8789 26.0257 12.015 26.5607 12.2872C27.1052 12.5594 27.5557 12.8786 27.9124 13.2447L26.603 14.8498C26.3401 14.6057 26.0632 14.4086 25.7723 14.2584C25.4813 14.1082 25.148 14.0331 24.7726 14.0331C24.322 14.0331 23.909 14.1646 23.5335 14.4274C23.1581 14.6808 22.8577 15.0516 22.6324 15.5397C22.4165 16.0184 22.3086 16.6004 22.3086 17.2856C22.3086 17.9802 22.4071 18.5763 22.6043 19.0738C22.8108 19.5619 23.0971 19.9374 23.4631 20.2002C23.8292 20.4536 24.2563 20.5803 24.7444 20.5803C25.1668 20.5803 25.5423 20.4865 25.8708 20.2987C26.2087 20.111 26.4997 19.8857 26.7438 19.6229L28.0673 21.1999C27.6261 21.7161 27.1145 22.1057 26.5326 22.3685C25.96 22.6219 25.3311 22.7487 24.6459 22.7487Z" fill="black"/>
<path d="M15.2881 22.5521V12.0625H17.8084V22.5521H15.2881Z" fill="black"/>
<path d="M8.31006 22.5521V14.1604H5.47998V12.0625H13.6745V14.1604H10.8304V22.5521H8.31006Z" fill="black"/>
</svg>
