<svg width="34" height="34" viewBox="0 0 34 34" fill="none" xmlns="http://www.w3.org/2000/svg">
<circle cx="17.3008" cy="17.2852" r="15.5" fill="#FEF546" stroke="black" stroke-width="2"/>
<path d="M22.0512 10.1806C20.8967 11.0686 20.0086 12.0455 19.2982 13.0224C19.2094 13.0224 19.1205 12.9336 19.0317 12.9336C18.4989 10.5358 19.0317 7.6051 20.5415 4.94085C17.1668 2.98706 12.904 5.74013 13.5256 9.6477C13.792 11.0686 14.1473 12.4008 14.6801 13.5553C14.5913 13.5553 14.5913 13.6441 14.5025 13.6441C12.1935 12.9336 9.88447 11.0686 8.28591 8.31557C4.91119 10.2694 5.17762 15.3314 8.81876 16.7524C10.2397 17.2852 11.5718 17.6405 12.904 17.7293V17.8181C11.039 19.5943 8.28591 20.66 5 20.66C5 24.5675 9.52923 26.8765 12.5487 24.3899C13.7032 23.413 14.6801 22.3473 15.4794 21.2816C16.1011 23.7682 15.657 26.7877 14.0585 29.6296C17.4332 31.5834 21.696 28.8303 21.0743 24.9228C20.8079 23.413 20.4527 21.9921 19.831 20.8376C22.3177 21.548 24.6267 23.413 26.314 26.2549C29.6888 24.3011 29.4223 19.239 25.7812 17.8181C24.3603 17.2852 23.0281 17.0188 21.7848 16.8412C21.7848 16.7524 21.7848 16.7524 21.7848 16.6636C23.6498 14.9762 26.4028 13.9105 29.6 13.8217C29.6888 10.0029 25.1595 7.78272 22.0512 10.1806ZM17.3444 19.5054C16.1011 19.5054 15.1242 18.5285 15.1242 17.2852C15.1242 16.0419 16.1011 15.065 17.3444 15.065C18.5877 15.065 19.5646 16.0419 19.5646 17.2852C19.5646 18.5285 18.5877 19.5054 17.3444 19.5054Z" fill="black"/>
</svg>
