<svg width="46" height="23" viewBox="0 0 46 23" fill="none" xmlns="http://www.w3.org/2000/svg">
<path d="M1.92654 21.4473L3.96559 21.4473C4.48003 21.4473 4.90094 21.0264 4.90094 20.5119L4.90094 19.5485L40.7153 19.5485L40.7153 20.5119C40.7153 21.0264 41.1362 21.4473 41.6506 21.4473L43.6897 21.4473C44.2041 21.4473 44.625 21.0264 44.625 20.5119L44.625 1.93599C44.625 1.42155 44.2041 1.00064 43.6897 1.00064L41.6506 1.00064C41.1362 1.00064 40.7153 1.42155 40.7153 1.93599L40.7153 2.89939L4.91029 2.89939L4.91029 1.93598C4.91029 1.42154 4.48939 1.00064 3.97495 1.00064L1.9359 1.00064C1.42146 1.00064 1.00055 1.42154 1.00055 1.93598L1.00055 20.5119C1.00055 21.0264 1.42146 21.4473 1.93589 21.4473L1.92654 21.4473Z" fill="#CCCCCC" stroke="white" stroke-width="2" stroke-miterlimit="10"/>
<path d="M1.92654 21.4473L3.96559 21.4473C4.48003 21.4473 4.90094 21.0264 4.90094 20.5119L4.90094 19.5485L40.7153 19.5485L40.7153 20.5119C40.7153 21.0264 41.1362 21.4473 41.6506 21.4473L43.6897 21.4473C44.2041 21.4473 44.625 21.0264 44.625 20.5119L44.625 1.93599C44.625 1.42155 44.2041 1.00064 43.6897 1.00064L41.6506 1.00064C41.1362 1.00064 40.7153 1.42155 40.7153 1.93599L40.7153 2.89939L4.91029 2.89939L4.91029 1.93598C4.91029 1.42154 4.48939 1.00064 3.97495 1.00064L1.9359 1.00064C1.42146 1.00064 1.00055 1.42154 1.00055 1.93598L1.00055 20.5119C1.00055 21.0264 1.42146 21.4473 1.93589 21.4473L1.92654 21.4473Z" fill="#CCCCCC" stroke="black" stroke-miterlimit="10" stroke-linecap="round" stroke-dasharray="3 3"/>
<path d="M29.3992 17.6309L35.4977 17.6309L38.5469 12.3462L35.4977 7.07083L29.3992 7.07082L26.35 12.3462L29.3992 17.6309Z" fill="#A2A2A2"/>
<path d="M9.46562 17.6309L15.5641 17.6309L18.6133 12.3462L15.5641 7.07083L9.46562 7.07082L6.4164 12.3462L9.46562 17.6309Z" fill="#A2A2A2"/>
</svg>
