<svg width="34" height="34" viewBox="0 0 34 34" fill="none" xmlns="http://www.w3.org/2000/svg">
<circle cx="16.5488" cy="17.2852" r="15.5" fill="white" stroke="black" stroke-width="2"/>
<path d="M21.2993 10.1806C20.1448 11.0686 19.2567 12.0455 18.5462 13.0224C18.4574 13.0224 18.3686 12.9336 18.2798 12.9336C17.7469 10.5358 18.2798 7.6051 19.7895 4.94085C16.4148 2.98706 12.152 5.74013 12.7737 9.6477C13.0401 11.0686 13.3953 12.4008 13.9282 13.5553C13.8394 13.5553 13.8394 13.6441 13.7506 13.6441C11.4415 12.9336 9.13251 11.0686 7.53396 8.31557C4.15924 10.2694 4.42566 15.3314 8.06681 16.7524C9.48775 17.2852 10.8199 17.6405 12.152 17.7293V17.8181C10.287 19.5943 7.53396 20.66 4.24805 20.66C4.24805 24.5675 8.77728 26.8765 11.7968 24.3899C12.9513 23.413 13.9282 22.3473 14.7274 21.2816C15.3491 23.7682 14.9051 26.7877 13.3065 29.6296C16.6812 31.5834 20.944 28.8303 20.3224 24.9228C20.056 23.413 19.7007 21.9921 19.0791 20.8376C21.5657 21.548 23.8747 23.413 25.5621 26.2549C28.9368 24.3011 28.6704 19.239 25.0292 17.8181C23.6083 17.2852 22.2762 17.0188 21.0329 16.8412C21.0329 16.7524 21.0329 16.7524 21.0329 16.6636C22.8978 14.9762 25.6509 13.9105 28.848 13.8217C28.9368 10.0029 24.4076 7.78272 21.2993 10.1806ZM16.5924 19.5054C15.3491 19.5054 14.3722 18.5285 14.3722 17.2852C14.3722 16.0419 15.3491 15.065 16.5924 15.065C17.8357 15.065 18.8126 16.0419 18.8126 17.2852C18.8126 18.5285 17.8357 19.5054 16.5924 19.5054Z" fill="black"/>
</svg>
