<svg width="10" height="37" viewBox="0 0 10 37" fill="none" xmlns="http://www.w3.org/2000/svg">
<path d="M7.66667 1H2.33333C1.59695 1 1 1.59695 1 2.33333V34.2667C1 35.003 1.59695 35.6 2.33333 35.6H7.66667C8.40305 35.6 9 35.003 9 34.2667V2.33333C9 1.59695 8.40305 1 7.66667 1Z" fill="white" stroke="black" stroke-miterlimit="10"/>
<path d="M6.33252 2.19995H3.66585C2.92947 2.19995 2.33252 2.7969 2.33252 3.53328V15.4C2.33252 16.1363 2.92947 16.7333 3.66585 16.7333H6.33252C7.0689 16.7333 7.66585 16.1363 7.66585 15.4V3.53328C7.66585 2.7969 7.0689 2.19995 6.33252 2.19995Z" fill="#666666"/>
<path d="M6.33252 19.6665H3.66585C2.92947 19.6665 2.33252 20.2635 2.33252 20.9998V32.8665C2.33252 33.6029 2.92947 34.1998 3.66585 34.1998H6.33252C7.0689 34.1998 7.66585 33.6029 7.66585 32.8665V20.9998C7.66585 20.2635 7.0689 19.6665 6.33252 19.6665Z" fill="#666666"/>
</svg>
