<svg width="34" height="34" viewBox="0 0 34 34" fill="none" xmlns="http://www.w3.org/2000/svg">
<circle cx="17.043" cy="17.2852" r="15.5" fill="#D9D9D9" stroke="black" stroke-width="2"/>
<path d="M21.7934 10.1806C20.6389 11.0686 19.7508 12.0455 19.0404 13.0224C18.9515 13.0224 18.8627 12.9336 18.7739 12.9336C18.2411 10.5358 18.7739 7.6051 20.2837 4.94085C16.909 2.98706 12.6461 5.74013 13.2678 9.6477C13.5342 11.0686 13.8895 12.4008 14.4223 13.5553C14.3335 13.5553 14.3335 13.6441 14.2447 13.6441C11.9357 12.9336 9.62665 11.0686 8.0281 8.31557C4.65338 10.2694 4.9198 15.3314 8.56095 16.7524C9.98189 17.2852 11.314 17.6405 12.6461 17.7293V17.8181C10.7812 19.5943 8.0281 20.66 4.74219 20.66C4.74219 24.5675 9.27142 26.8765 12.2909 24.3899C13.4454 23.413 14.4223 22.3473 15.2216 21.2816C15.8432 23.7682 15.3992 26.7877 13.8007 29.6296C17.1754 31.5834 21.4382 28.8303 20.8165 24.9228C20.5501 23.413 20.1949 21.9921 19.5732 20.8376C22.0598 21.548 24.3689 23.413 26.0562 26.2549C29.4309 24.3011 29.1645 19.239 25.5234 17.8181C24.1024 17.2852 22.7703 17.0188 21.527 16.8412C21.527 16.7524 21.527 16.7524 21.527 16.6636C23.392 14.9762 26.145 13.9105 29.3421 13.8217C29.4309 10.0029 24.9017 7.78272 21.7934 10.1806ZM17.0866 19.5054C15.8432 19.5054 14.8664 18.5285 14.8664 17.2852C14.8664 16.0419 15.8432 15.065 17.0866 15.065C18.3299 15.065 19.3068 16.0419 19.3068 17.2852C19.3068 18.5285 18.3299 19.5054 17.0866 19.5054Z" fill="black"/>
</svg>
