<svg width="34" height="34" viewBox="0 0 34 34" fill="none" xmlns="http://www.w3.org/2000/svg">
<circle cx="16.7949" cy="17.2852" r="15.5" fill="#999999" stroke="black" stroke-width="2"/>
<path d="M21.5454 10.1806C20.3909 11.0686 19.5028 12.0455 18.7923 13.0224C18.7035 13.0224 18.6147 12.9336 18.5259 12.9336C17.993 10.5358 18.5259 7.6051 20.0356 4.94085C16.6609 2.98706 12.3981 5.74013 13.0198 9.6477C13.2862 11.0686 13.6414 12.4008 14.1743 13.5553C14.0855 13.5553 14.0855 13.6441 13.9966 13.6441C11.6876 12.9336 9.37861 11.0686 7.78005 8.31557C4.40533 10.2694 4.67176 15.3314 8.31291 16.7524C9.73384 17.2852 11.066 17.6405 12.3981 17.7293V17.8181C10.5331 19.5943 7.78005 20.66 4.49414 20.66C4.49414 24.5675 9.02337 26.8765 12.0429 24.3899C13.1974 23.413 14.1743 22.3473 14.9735 21.2816C15.5952 23.7682 15.1512 26.7877 13.5526 29.6296C16.9273 31.5834 21.1901 28.8303 20.5685 24.9228C20.3021 23.413 19.9468 21.9921 19.3252 20.8376C21.8118 21.548 24.1208 23.413 25.8082 26.2549C29.1829 24.3011 28.9165 19.239 25.2753 17.8181C23.8544 17.2852 22.5223 17.0188 21.2789 16.8412C21.2789 16.7524 21.2789 16.7524 21.2789 16.6636C23.1439 14.9762 25.897 13.9105 29.0941 13.8217C29.1829 10.0029 24.6537 7.78272 21.5454 10.1806ZM16.8385 19.5054C15.5952 19.5054 14.6183 18.5285 14.6183 17.2852C14.6183 16.0419 15.5952 15.065 16.8385 15.065C18.0818 15.065 19.0587 16.0419 19.0587 17.2852C19.0587 18.5285 18.0818 19.5054 16.8385 19.5054Z" fill="black"/>
</svg>
