<svg width="29" height="15" viewBox="0 0 29 15" fill="none" xmlns="http://www.w3.org/2000/svg">
<path d="M1.5661 13.4863L2.81128 13.4863C3.12543 13.4863 3.38247 13.2293 3.38247 12.9151L3.38247 12.3268L25.2531 12.3268L25.2531 12.9151C25.2531 13.2293 25.5101 13.4863 25.8243 13.4863L27.0694 13.4863C27.3836 13.4863 27.6406 13.2293 27.6406 12.9151L27.6406 1.57144C27.6406 1.25729 27.3836 1.00026 27.0694 1.00026L25.8243 1.00026C25.5101 1.00026 25.2531 1.25729 25.2531 1.57144L25.2531 2.15976L3.38818 2.15976L3.38818 1.57144C3.38818 1.25729 3.13115 1.00026 2.817 1.00026L1.57182 1.00026C1.25767 1.00026 1.00063 1.25729 1.00063 1.57144L1.00063 12.9151C1.00063 13.2293 1.25767 13.4863 1.57182 13.4863L1.5661 13.4863Z" fill="#CCCCCC" stroke="white" stroke-width="2" stroke-miterlimit="10"/>
<path d="M1.5661 13.4863L2.81128 13.4863C3.12543 13.4863 3.38247 13.2293 3.38247 12.9151L3.38247 12.3268L25.2531 12.3268L25.2531 12.9151C25.2531 13.2293 25.5101 13.4863 25.8243 13.4863L27.0694 13.4863C27.3836 13.4863 27.6406 13.2293 27.6406 12.9151L27.6406 1.57144C27.6406 1.25729 27.3836 1.00026 27.0694 1.00026L25.8243 1.00026C25.5101 1.00026 25.2531 1.25729 25.2531 1.57144L25.2531 2.15976L3.38818 2.15976L3.38818 1.57144C3.38818 1.25729 3.13115 1.00026 2.817 1.00026L1.57182 1.00026C1.25767 1.00026 1.00063 1.25729 1.00063 1.57144L1.00063 12.9151C1.00063 13.2293 1.25767 13.4863 1.57182 13.4863L1.5661 13.4863Z" fill="#CCCCCC" stroke="black" stroke-miterlimit="10" stroke-linecap="round" stroke-dasharray="3 3"/>
<path d="M18.3435 11.1558L22.0676 11.1558L23.9297 7.92858L22.0676 4.7071L18.3435 4.7071L16.4815 7.92857L18.3435 11.1558Z" fill="#A2A2A2"/>
<path d="M6.17164 11.1558L9.89575 11.1558L11.7578 7.92858L9.89575 4.7071L6.17164 4.7071L4.30958 7.92857L6.17164 11.1558Z" fill="#A2A2A2"/>
</svg>
