<svg width="1880" height="300" viewBox="0 0 1880 300" fill="none" xmlns="http://www.w3.org/2000/svg">
<path d="M42.951 235.404H154.77C158.089 235.404 161.3 236.583 163.83 238.731L174.304 247.621C176.834 249.769 180.045 250.948 183.364 250.948H242.755C245.943 250.948 249.036 249.86 251.521 247.864L264.441 237.488C266.926 235.492 270.019 234.404 273.207 234.404H338.682C342.141 234.404 345.478 235.685 348.049 237.999L358.439 247.353C361.01 249.667 364.347 250.948 367.806 250.948H427.035C429.54 250.948 432 250.276 434.157 249.001L453.737 237.432C457.012 235.497 460.933 234.978 464.598 235.994L493.919 244.121C494.789 244.362 495.687 244.484 496.59 244.484H537.811H543.862C547.176 244.484 549.862 241.798 549.862 238.484V65.8208C549.862 62.5071 552.548 59.8208 555.862 59.8208H602.866C606.179 59.8208 608.866 62.5071 608.866 65.8208V226.321C608.866 231.291 612.895 235.321 617.866 235.321H1118.86C1123.83 235.321 1127.86 231.291 1127.86 226.321V156.981C1127.86 152.563 1124.28 148.981 1119.86 148.981H670.013C665.043 148.981 661.013 144.951 661.013 139.981V68.3298C661.013 63.1728 665.194 58.9922 670.351 58.9922V58.9922C672.88 58.9922 675.3 60.0178 677.059 61.8346L686.2 71.275C688.837 73.9989 692.466 75.5367 696.258 75.5367H741.922C744.963 75.5367 747.921 74.5469 750.349 72.717L764.818 61.8118C767.246 59.9819 770.204 58.9922 773.244 58.9922H845.595C848.393 58.9922 851.127 59.8308 853.444 61.3999L870.766 73.129C873.083 74.698 875.817 75.5367 878.615 75.5367H926.493C929.504 75.5367 932.435 74.5657 934.851 72.7678L949.641 61.761C952.057 59.9632 954.988 58.9922 958 58.9922L1143.86 58.9922" stroke="black" stroke-width="1.5"/>
<path d="M1142.89 58.9672H1165.7C1170.1 58.9672 1173.68 62.5242 1173.7 66.9265L1173.94 114.603C1173.97 119.555 1177.99 123.557 1182.94 123.557H1214.08C1218.4 123.557 1221.91 120.053 1221.91 115.731V72.4544C1221.91 65.4823 1227.56 59.8302 1234.53 59.8302V59.8302C1241.5 59.8302 1247.16 65.4823 1247.16 72.4544V146.803C1247.16 153.775 1252.81 159.427 1259.78 159.427V159.427C1266.75 159.427 1272.4 153.775 1272.4 146.803V52.146C1272.4 43.581 1279.35 36.6377 1287.91 36.6377V36.6377C1296.48 36.6377 1303.42 43.581 1303.42 52.146V208.581C1303.42 215.325 1308.89 220.793 1315.63 220.793V220.793C1322.38 220.793 1327.84 215.325 1327.84 208.581V136.309C1327.84 129.289 1333.54 123.597 1340.56 123.597V123.597C1347.58 123.597 1353.27 129.289 1353.27 136.309V157.86C1353.27 163.337 1357.71 167.776 1363.19 167.776V167.776C1368.66 167.776 1373.1 163.337 1373.1 157.86V84.6542C1373.1 80.2359 1376.68 76.6542 1381.1 76.6542H1409.37C1413.79 76.6542 1417.37 80.2359 1417.37 84.6542V123.904C1417.37 128.323 1420.95 131.904 1425.37 131.904C1430.87 131.904 1438.47 131.904 1445.7 131.904C1451.22 131.904 1455.69 136.381 1455.69 141.904V196.509C1455.69 201.71 1459.91 205.926 1465.11 205.926V205.926C1470.31 205.926 1474.53 201.71 1474.53 196.509V142.38C1474.53 136.595 1479.22 131.904 1485 131.904V131.904C1490.79 131.904 1495.48 136.595 1495.48 142.38V196.51C1495.48 201.71 1499.69 205.926 1504.9 205.926V205.926C1510.1 205.926 1514.31 201.71 1514.31 196.51V141.556C1514.31 136.226 1518.63 131.904 1523.96 131.904V131.904C1529.29 131.904 1533.62 136.226 1533.62 141.557V196.098C1533.62 201.526 1538.02 205.926 1543.44 205.926V205.926C1548.87 205.926 1553.27 201.526 1553.27 196.098V46.6542C1553.27 41.1314 1557.75 36.6542 1563.27 36.6542H1587.19C1592.71 36.6542 1597.19 41.1314 1597.19 46.6542V215.586C1597.19 220.005 1600.77 223.586 1605.19 223.586H1639.46C1643.88 223.586 1647.46 220.005 1647.46 215.586V120.123C1647.46 115.705 1651.04 112.123 1655.46 112.123H1685.15C1689.57 112.123 1693.15 115.705 1693.15 120.123V170.123C1693.15 175.094 1697.18 179.123 1702.15 179.123H1773.63" stroke="black" stroke-width="1.5"/>
<path d="M68.6497 271.645H9.8623C4.89174 271.645 0.862305 267.616 0.862305 262.645V211.629" stroke="black" stroke-width="1.5" stroke-linecap="round"/>
<path d="M1743.6 220.931L1828.14 220.931" stroke="black" stroke-width="1.5" stroke-linecap="round"/>
<path d="M1743.56 220.931C1734.84 220.931 1727.77 213.863 1727.77 205.144C1727.77 196.426 1734.84 189.358 1743.56 189.358C1745.6 189.358 1747.6 189.717 1749.49 190.394C1753.8 191.944 1756.59 195.901 1759.01 199.788L1759.44 200.474C1761.42 203.669 1763.68 206.827 1767.01 208.583C1769.47 209.883 1772.27 210.761 1774.82 210.761C1783.54 210.761 1790.63 203.503 1790.63 194.784C1790.63 186.066 1782.89 178.774 1773.77 179.142" stroke="black" stroke-width="1.5" stroke-linecap="round"/>
<path d="M1879.14 144.175H1853.05H1840.81C1837.96 144.175 1835.25 145.39 1833.35 147.515L1829.86 151.42L1795.88 188.161C1793.02 192.106 1793.84 197.756 1797.4 201.089C1801.29 204.748 1807.78 204.226 1811.42 200.309L1816.34 193.974C1819.2 191.092 1823.16 189.308 1827.53 189.308C1836.25 189.308 1843.32 196.387 1843.32 205.12C1843.32 213.853 1836.25 220.933 1827.53 220.933" stroke="black" stroke-width="1.5" stroke-linecap="round"/>
<path d="M43.6259 235.358H36.828C28.3157 235.358 21.4152 242.419 21.4152 251.129C21.4152 259.839 28.3157 266.9 36.828 266.9C41.3862 266.9 46.0771 265.041 48.8989 261.823L60.2182 245.966C63.044 242.402 67.3584 240.125 72.1927 240.125C80.7049 240.125 87.6055 247.186 87.6055 255.896C87.6055 264.606 80.7049 271.667 72.1927 271.667H65.458" stroke="black" stroke-width="1.5"/>
</svg>
