<svg width="160" height="160" viewBox="0 0 160 160" fill="none" xmlns="http://www.w3.org/2000/svg">
<path d="M47.9856 138.584H57.8721V148.8H62.8153V138.584H67.7586V133.641H62.8153V123.754H57.8721V133.641H52.9288V123.754H47.9856V138.584Z" fill="black"/>
<path d="M107.305 148.8V138.584H112.248V133.641H107.305V123.754H102.361V133.641H97.4181V123.754H92.4749V138.584H102.361V148.8H107.305Z" fill="black"/>
<path d="M87.5316 123.754H72.7019V148.8H87.5316V123.754ZM82.5884 143.857H77.6451V128.697H82.5884V143.857Z" fill="black"/>
<path d="M63.2 36.9153C63.2 38.9453 64.8593 40.5967 66.899 40.5967H93.1595C95.1992 40.5967 96.8585 38.9453 96.8585 36.9153C96.8585 35.0488 95.8742 33.4215 83.1672 12.8267C81.8065 10.6577 78.252 10.6577 76.8913 12.8267C64.1856 33.4194 63.2 35.0393 63.2 36.9153ZM78.7962 18.5627H81.2623V28.3797H78.7962V18.5627ZM78.7962 30.8339H81.2623V33.2882H78.7962V30.8339Z" fill="black"/>
<path fill-rule="evenodd" clip-rule="evenodd" d="M127.71 43.8187C127.71 41.9743 126.976 40.2026 125.673 38.8961C124.366 37.5926 122.595 36.8586 120.75 36.8586C106.226 36.8586 54.2846 36.8586 39.7601 36.8586C37.9157 36.8586 36.1441 37.5926 34.8375 38.8961C33.534 40.2026 32.8 41.9743 32.8 43.8187V105.827C32.8 107.671 33.534 109.443 34.8375 110.749C36.1441 112.053 37.9157 112.787 39.7601 112.787H120.75C122.595 112.787 124.366 112.053 125.673 110.749C126.976 109.443 127.71 107.671 127.71 105.827V43.8187ZM39.1274 49.5133V105.827C39.1274 105.994 39.1938 106.156 39.3141 106.273C39.4311 106.393 39.5925 106.46 39.7601 106.46H120.75C120.918 106.46 121.079 106.393 121.196 106.273C121.317 106.156 121.383 105.994 121.383 105.827V52.677H100.133C99.0538 52.677 97.9876 52.4239 97.0195 51.943L92.2961 49.5798C92.2076 49.5355 92.1127 49.5133 92.0146 49.5133H39.1274ZM66.1863 96.6331C66.1863 96.6331 68.9419 98.0125 70.8148 98.949C72.7731 99.9297 75.0826 99.9297 77.0409 98.949L79.9736 97.4842C80.1508 97.3956 80.3596 97.3956 80.5368 97.4842L83.4695 98.949C85.4278 99.9297 87.7373 99.9297 89.6956 98.949C91.5685 98.0125 94.3241 96.6331 94.3241 96.6331C95.8869 95.8549 96.5197 93.9503 95.7382 92.3907C94.96 90.8278 93.0554 90.1951 91.4957 90.9765L86.8641 93.2891C86.687 93.3777 86.4781 93.3777 86.301 93.2891L83.3683 91.8244C81.4099 90.8436 79.1005 90.8436 77.1421 91.8244L74.2094 93.2891C74.0322 93.3777 73.8234 93.3777 73.6463 93.2891L69.0147 90.9765C67.455 90.1951 65.5504 90.8278 64.7722 92.3907C63.9907 93.9503 64.6235 95.8549 66.1863 96.6331ZM93.182 76.4046L90.6732 78.9134C89.4393 80.1472 89.4393 82.153 90.6732 83.3868C91.907 84.6207 93.9128 84.6207 95.1466 83.3868L97.6554 80.878L100.164 83.3868C101.398 84.6207 103.404 84.6207 104.638 83.3868C105.871 82.153 105.871 80.1472 104.638 78.9134L102.129 76.4046L104.638 73.8958C105.871 72.662 105.871 70.6562 104.638 69.4224C103.404 68.1885 101.398 68.1885 100.164 69.4224L97.6554 71.9312L95.1466 69.4224C93.9128 68.1885 91.907 68.1885 90.6732 69.4224C89.4393 70.6562 89.4393 72.662 90.6732 73.8958L93.182 76.4046ZM58.3815 76.4046L55.8727 78.9134C54.6389 80.1472 54.6389 82.153 55.8727 83.3868C57.1066 84.6207 59.1123 84.6207 60.3462 83.3868L62.855 80.878L65.3638 83.3868C66.5976 84.6207 68.6034 84.6207 69.8372 83.3868C71.071 82.153 71.071 80.1472 69.8372 78.9134L67.3284 76.4046L69.8372 73.8958C71.071 72.662 71.071 70.6562 69.8372 69.4224C68.6034 68.1885 66.5976 68.1885 65.3638 69.4224L62.855 71.9312L60.3462 69.4224C59.1123 68.1885 57.1066 68.1885 55.8727 69.4224C54.6389 70.6562 54.6389 72.662 55.8727 73.8958L58.3815 76.4046Z" fill="black"/>
</svg>
