<svg width="16" height="17" viewBox="0 0 16 17" fill="none" xmlns="http://www.w3.org/2000/svg">
<path d="M0.941176 1.44141H15.0588C15.3025 1.44141 15.5 1.63893 15.5 1.88258V16.0002C15.5 16.2439 15.3025 16.4414 15.0588 16.4414H0.941176C0.697521 16.4414 0.5 16.2439 0.5 16.0002V1.88258C0.5 1.63893 0.697521 1.44141 0.941176 1.44141Z" fill="#E0E0E0" stroke="black"/>
<path d="M0.941162 1.88232H15.0588L7.99999 16L0.941162 1.88232Z" fill="black"/>
<path d="M5.64697 10.1177V3.10596H7.66109C8.37638 3.10596 8.99756 3.22831 9.52462 3.47302C10.058 3.71145 10.4721 4.08478 10.767 4.59302C11.0619 5.10125 11.2093 5.76321 11.2093 6.5789C11.2093 7.38831 11.0619 8.05655 10.767 8.58361C10.4783 9.10439 10.0736 9.49027 9.55286 9.74125C9.03835 9.99223 8.43913 10.1177 7.75521 10.1177H5.64697ZM7.33168 8.76243H7.55756C7.93403 8.76243 8.26658 8.69655 8.55521 8.56478C8.85011 8.43302 9.07913 8.20713 9.24227 7.88713C9.4054 7.56713 9.48697 7.13106 9.48697 6.5789C9.48697 6.02047 9.4054 5.58753 9.24227 5.28008C9.07913 4.97262 8.85011 4.75929 8.55521 4.64008C8.26658 4.51458 7.93403 4.45184 7.55756 4.45184H7.33168V8.76243Z" fill="white"/>
</svg>
