<svg width="20" height="437" viewBox="0 0 20 437" fill="none" xmlns="http://www.w3.org/2000/svg">
<g clip-path="url(#clip0_2518_4740)">
<path d="M-366.508 -13.3682C-363.663 -22.3395 -358.259 -28.8682 -349.699 -28.8682C-341.138 -28.8682 -334.199 -21.9286 -334.199 -13.3682L-347.699 452.13C-347.699 460.69 -340.759 467.63 -332.199 467.63C-323.638 467.63 -316.699 460.69 -316.699 452.13L-328.199 -13.3682C-328.199 -21.9286 -321.259 -28.8682 -312.699 -28.8682C-304.138 -28.8682 -297.199 -21.9286 -297.199 -13.3682L-310.699 452.13C-310.699 460.69 -303.759 467.63 -295.199 467.63C-286.954 467.63 -280.213 461.193 -279.727 453.071M-279.699 452.13C-279.699 452.446 -279.708 452.759 -279.727 453.071M-279.727 453.071L-291.199 -13.3682C-291.199 -21.9286 -284.259 -28.8682 -275.699 -28.8682C-267.138 -28.8682 -260.199 -21.9286 -260.199 -13.3682L-273.409 455.126M-273.409 455.126C-272.014 462.253 -265.734 467.63 -258.199 467.63C-249.638 467.63 -242.699 460.69 -242.699 452.13L-254.199 -13.3682C-254.199 -21.9286 -247.259 -28.8682 -238.699 -28.8682C-230.138 -28.8682 -223.199 -21.9286 -223.199 -13.3682L-236.699 452.13C-236.699 460.69 -229.759 467.63 -221.199 467.63C-212.638 467.63 -205.699 460.69 -205.699 452.13L-217.199 -13.3682C-217.199 -21.9286 -210.259 -28.8682 -201.699 -28.8682C-193.138 -28.8682 -186.199 -21.9286 -186.199 -13.3682L-199.699 452.13C-199.699 460.69 -192.759 467.63 -184.199 467.63C-175.638 467.63 -168.699 460.69 -168.699 452.13L-180.199 -13.3682C-180.199 -21.9286 -173.259 -28.8682 -164.699 -28.8682C-156.138 -28.8682 -149.199 -21.9286 -149.199 -13.3682L-162.699 452.13C-162.699 460.69 -155.759 467.63 -147.199 467.63C-138.638 467.63 -131.699 460.69 -131.699 452.13L-143.199 -13.3682C-143.199 -21.9286 -136.259 -28.8682 -127.699 -28.8682C-119.138 -28.8682 -112.199 -21.9286 -112.199 -13.3682L-125.699 452.13C-125.699 460.69 -118.759 467.63 -110.199 467.63C-101.638 467.63 -94.6988 460.69 -94.6988 452.13L-106.199 -13.3682C-106.199 -21.9286 -99.2592 -28.8682 -90.6988 -28.8682C-82.1384 -28.8682 -75.1988 -21.9286 -75.1988 -13.3682L-88.6988 452.13C-88.6988 460.69 -81.7592 467.63 -73.1988 467.63C-64.6384 467.63 -57.6988 460.69 -57.6988 452.13L-69.1988 -13.3682C-69.1988 -21.9286 -62.2592 -28.8682 -53.6988 -28.8682C-45.1384 -28.8682 -38.1988 -21.9286 -38.1988 -13.3682L-51.6988 452.13C-51.6988 460.69 -44.7592 467.63 -36.1988 467.63C-27.6384 467.63 -20.6988 460.69 -20.6988 452.13L-32.1988 -13.3682C-32.1988 -21.9286 -25.2592 -28.8682 -16.6988 -28.8682C-8.1384 -28.8682 -1.19882 -21.9286 -1.19882 -13.3682L-14.6988 452.13C-14.6988 460.69 -7.75925 467.63 0.801178 467.63C9.3616 467.63 16.3012 460.69 16.3012 452.13L4.80118 -10.8233V-13.3682C4.80118 -21.9286 11.7408 -28.8682 20.3012 -28.8682C28.8616 -28.8682 35.8012 -21.9286 35.8012 -13.3682V-5.49523M-273.409 455.126C-273.599 454.157 -273.699 453.155 -273.699 452.13" stroke="#926AE8" stroke-width="4" stroke-linecap="round" stroke-linejoin="round"/>
</g>
<defs>
<clipPath id="clip0_2518_4740">
<rect width="407" height="501" fill="white" transform="translate(-369 -31.0264)"/>
</clipPath>
</defs>
</svg>
