<svg width="19" height="33" viewBox="0 0 19 33" fill="none" xmlns="http://www.w3.org/2000/svg">
<g clip-path="url(#clip0_2518_4740)">
<path d="M-256.508 -450.368C-253.663 -459.339 -248.259 -465.868 -239.699 -465.868C-231.138 -465.868 -224.199 -458.929 -224.199 -450.368L-237.699 15.1296C-237.699 23.69 -230.759 30.6296 -222.199 30.6296C-213.638 30.6296 -206.699 23.69 -206.699 15.1296L-218.199 -450.368C-218.199 -458.929 -211.259 -465.868 -202.699 -465.868C-194.138 -465.868 -187.199 -458.929 -187.199 -450.368L-200.699 15.1296C-200.699 23.69 -193.759 30.6296 -185.199 30.6296C-176.954 30.6296 -170.213 24.193 -169.727 16.0708M-169.699 15.1296C-169.699 15.4456 -169.708 15.7595 -169.727 16.0708M-169.727 16.0708L-181.199 -450.368C-181.199 -458.929 -174.259 -465.868 -165.699 -465.868C-157.138 -465.868 -150.199 -458.929 -150.199 -450.368L-163.409 18.1261M-163.409 18.1261C-162.014 25.2526 -155.734 30.6296 -148.199 30.6296C-139.638 30.6296 -132.699 23.69 -132.699 15.1296L-144.199 -450.368C-144.199 -458.929 -137.259 -465.868 -128.699 -465.868C-120.138 -465.868 -113.199 -458.929 -113.199 -450.368L-126.699 15.1296C-126.699 23.69 -119.759 30.6296 -111.199 30.6296C-102.638 30.6296 -95.6988 23.69 -95.6988 15.1296L-107.199 -450.368C-107.199 -458.929 -100.259 -465.868 -91.6988 -465.868C-83.1384 -465.868 -76.1988 -458.929 -76.1988 -450.368L-89.6988 15.1296C-89.6988 23.69 -82.7592 30.6296 -74.1988 30.6296C-65.6384 30.6296 -58.6988 23.69 -58.6988 15.1296L-70.1988 -450.368C-70.1988 -458.929 -63.2592 -465.868 -54.6988 -465.868C-46.1384 -465.868 -39.1988 -458.929 -39.1988 -450.368L-52.6988 15.1296C-52.6988 23.69 -45.7592 30.6296 -37.1988 30.6296C-28.6384 30.6296 -21.6988 23.6901 -21.6988 15.1296L-33.1988 -450.368C-33.1988 -458.929 -26.2592 -465.868 -17.6988 -465.868C-9.13841 -465.868 -2.19882 -458.929 -2.19882 -450.368L-15.6988 15.1296C-15.6988 23.6901 -8.75923 30.6296 -0.198822 30.6296C8.3616 30.6296 15.3012 23.6901 15.3012 15.1296L3.80118 -450.368C3.80118 -458.929 10.7408 -465.868 19.3012 -465.868C27.8616 -465.868 34.8012 -458.929 34.8012 -450.368L21.3012 15.1296C21.3012 23.6901 28.2408 30.6296 36.8012 30.6296C45.3616 30.6296 52.3012 23.6901 52.3012 15.1296L40.8012 -450.368C40.8012 -458.929 47.7408 -465.868 56.3012 -465.868C64.8616 -465.868 71.8012 -458.929 71.8012 -450.368L58.3012 15.1296C58.3012 23.6901 65.2408 30.6296 73.8012 30.6296C82.3616 30.6296 89.3012 23.6901 89.3012 15.1296L77.8012 -450.368C77.8012 -458.929 84.7408 -465.868 93.3012 -465.868C101.862 -465.868 108.801 -458.929 108.801 -450.368L95.3012 15.1296C95.3012 23.6901 102.241 30.6296 110.801 30.6296C119.362 30.6296 126.301 23.6901 126.301 15.1296L114.801 -447.823V-450.368C114.801 -458.929 121.741 -465.868 130.301 -465.868C138.862 -465.868 145.801 -458.929 145.801 -450.368V-442.495M-163.409 18.1261C-163.599 17.1566 -163.699 16.1547 -163.699 15.1296" stroke="#926AE8" stroke-width="4" stroke-linecap="round" stroke-linejoin="round"/>
</g>
<defs>
<clipPath id="clip0_2518_4740">
<rect width="407" height="501" fill="white" transform="translate(-259 -468.026)"/>
</clipPath>
</defs>
</svg>
