<svg width="20" height="437" viewBox="0 0 20 437" fill="none" xmlns="http://www.w3.org/2000/svg">
<g clip-path="url(#clip0_2518_4740)">
<path d="M-52.5078 -13.3682C-49.663 -22.3395 -44.2592 -28.8682 -35.6988 -28.8682C-27.1384 -28.8682 -20.1988 -21.9286 -20.1988 -13.3682L-33.6988 452.13C-33.6988 460.69 -26.7592 467.63 -18.1988 467.63C-9.63841 467.63 -2.69882 460.69 -2.69882 452.13L-14.1988 -13.3682C-14.1988 -21.9286 -7.25924 -28.8682 1.30118 -28.8682C9.86159 -28.8682 16.8012 -21.9286 16.8012 -13.3682L3.30118 452.13C3.30118 460.69 10.2408 467.63 18.8012 467.63C27.0455 467.63 33.7866 461.193 34.2731 453.071M34.3012 452.13C34.3012 452.446 34.2917 452.759 34.2731 453.071M34.2731 453.071L22.8012 -13.3682C22.8012 -21.9286 29.7408 -28.8682 38.3012 -28.8682C46.8616 -28.8682 53.8012 -21.9286 53.8012 -13.3682L40.5906 455.126M40.5906 455.126C41.9865 462.253 48.2659 467.63 55.8012 467.63C64.3616 467.63 71.3012 460.69 71.3012 452.13L59.8012 -13.3682C59.8012 -21.9286 66.7408 -28.8682 75.3012 -28.8682C83.8616 -28.8682 90.8012 -21.9286 90.8012 -13.3682L77.3012 452.13C77.3012 460.69 84.2408 467.63 92.8012 467.63C101.362 467.63 108.301 460.69 108.301 452.13L96.8012 -13.3682C96.8012 -21.9286 103.741 -28.8682 112.301 -28.8682C120.862 -28.8682 127.801 -21.9286 127.801 -13.3682L114.301 452.13C114.301 460.69 121.241 467.63 129.801 467.63C138.362 467.63 145.301 460.69 145.301 452.13L133.801 -13.3682C133.801 -21.9286 140.741 -28.8682 149.301 -28.8682C157.862 -28.8682 164.801 -21.9286 164.801 -13.3682L151.301 452.13C151.301 460.69 158.241 467.63 166.801 467.63C175.362 467.63 182.301 460.69 182.301 452.13L170.801 -13.3682C170.801 -21.9286 177.741 -28.8682 186.301 -28.8682C194.862 -28.8682 201.801 -21.9286 201.801 -13.3682L188.301 452.13C188.301 460.69 195.241 467.63 203.801 467.63C212.362 467.63 219.301 460.69 219.301 452.13L207.801 -13.3682C207.801 -21.9286 214.741 -28.8682 223.301 -28.8682C231.862 -28.8682 238.801 -21.9286 238.801 -13.3682L225.301 452.13C225.301 460.69 232.241 467.63 240.801 467.63C249.362 467.63 256.301 460.69 256.301 452.13L244.801 -13.3682C244.801 -21.9286 251.741 -28.8682 260.301 -28.8682C268.862 -28.8682 275.801 -21.9286 275.801 -13.3682L262.301 452.13C262.301 460.69 269.241 467.63 277.801 467.63C286.362 467.63 293.301 460.69 293.301 452.13L281.801 -13.3682C281.801 -21.9286 288.741 -28.8682 297.301 -28.8682C305.862 -28.8682 312.801 -21.9286 312.801 -13.3682L299.301 452.13C299.301 460.69 306.241 467.63 314.801 467.63C323.362 467.63 330.301 460.69 330.301 452.13L318.801 -10.8233V-13.3682C318.801 -21.9286 325.741 -28.8682 334.301 -28.8682C342.862 -28.8682 349.801 -21.9286 349.801 -13.3682V-5.49523M40.5906 455.126C40.4007 454.157 40.3012 453.155 40.3012 452.13" stroke="#926AE8" stroke-width="4" stroke-linecap="round" stroke-linejoin="round"/>
</g>
<defs>
<clipPath id="clip0_2518_4740">
<rect width="407" height="501" fill="white" transform="translate(-55 -31.0264)"/>
</clipPath>
</defs>
</svg>
