<svg width="19" height="33" viewBox="0 0 19 33" fill="none" xmlns="http://www.w3.org/2000/svg">
<g clip-path="url(#clip0_2518_4740)">
<path d="M-34.5078 18.6318C-31.663 9.6605 -26.2592 3.13184 -17.6988 3.13184C-9.13841 3.13184 -2.19882 10.0714 -2.19882 18.6318L-15.6988 484.13C-15.6988 492.69 -8.75924 499.63 -0.198822 499.63C8.36159 499.63 15.3012 492.69 15.3012 484.13L3.80118 18.6318C3.80118 10.0714 10.7408 3.13184 19.3012 3.13184C27.8616 3.13184 34.8012 10.0714 34.8012 18.6318L21.3012 484.13C21.3012 492.69 28.2408 499.63 36.8012 499.63C45.0455 499.63 51.7866 493.193 52.2731 485.071M52.3012 484.13C52.3012 484.446 52.2917 484.759 52.2731 485.071M52.2731 485.071L40.8012 18.6318C40.8012 10.0714 47.7408 3.13184 56.3012 3.13184C64.8616 3.13184 71.8012 10.0714 71.8012 18.6318L58.5906 487.126M58.5906 487.126C59.9865 494.253 66.2659 499.63 73.8012 499.63C82.3616 499.63 89.3012 492.69 89.3012 484.13L77.8012 18.6318C77.8012 10.0714 84.7408 3.13184 93.3012 3.13184C101.862 3.13184 108.801 10.0714 108.801 18.6318L95.3012 484.13C95.3012 492.69 102.241 499.63 110.801 499.63C119.362 499.63 126.301 492.69 126.301 484.13L114.801 18.6318C114.801 10.0714 121.741 3.13184 130.301 3.13184C138.862 3.13184 145.801 10.0714 145.801 18.6318L132.301 484.13C132.301 492.69 139.241 499.63 147.801 499.63C156.362 499.63 163.301 492.69 163.301 484.13L151.801 18.6318C151.801 10.0714 158.741 3.13184 167.301 3.13184C175.862 3.13184 182.801 10.0714 182.801 18.6318L169.301 484.13C169.301 492.69 176.241 499.63 184.801 499.63C193.362 499.63 200.301 492.69 200.301 484.13L188.801 18.6318C188.801 10.0714 195.741 3.13184 204.301 3.13184C212.862 3.13184 219.801 10.0714 219.801 18.6318L206.301 484.13C206.301 492.69 213.241 499.63 221.801 499.63C230.362 499.63 237.301 492.69 237.301 484.13L225.801 18.6318C225.801 10.0714 232.741 3.13184 241.301 3.13184C249.862 3.13184 256.801 10.0714 256.801 18.6318L243.301 484.13C243.301 492.69 250.241 499.63 258.801 499.63C267.362 499.63 274.301 492.69 274.301 484.13L262.801 18.6318C262.801 10.0714 269.741 3.13184 278.301 3.13184C286.862 3.13184 293.801 10.0714 293.801 18.6318L280.301 484.13C280.301 492.69 287.241 499.63 295.801 499.63C304.362 499.63 311.301 492.69 311.301 484.13L299.801 18.6318C299.801 10.0714 306.741 3.13184 315.301 3.13184C323.862 3.13184 330.801 10.0714 330.801 18.6318L317.301 484.13C317.301 492.69 324.241 499.63 332.801 499.63C341.362 499.63 348.301 492.69 348.301 484.13L336.801 21.1767V18.6318C336.801 10.0714 343.741 3.13184 352.301 3.13184C360.862 3.13184 367.801 10.0714 367.801 18.6318V26.5048M58.5906 487.126C58.4007 486.157 58.3012 485.155 58.3012 484.13" stroke="#926AE8" stroke-width="4" stroke-linecap="round" stroke-linejoin="round"/>
</g>
<defs>
<clipPath id="clip0_2518_4740">
<rect width="407" height="501" fill="white" transform="translate(-37 0.973633)"/>
</clipPath>
</defs>
</svg>
